<?xml version="1.0" encoding="utf-8" standalone="no"?>
<!DOCTYPE svg PUBLIC "-//W3C//DTD SVG 1.1//EN"
  "http://www.w3.org/Graphics/SVG/1.1/DTD/svg11.dtd">
<svg xmlns:xlink="http://www.w3.org/1999/xlink" width="346.4567" height="275.5906" viewBox="0 0 346.4567 275.5906" xmlns="http://www.w3.org/2000/svg" version="1.1"><g transform="scale(1.3888888889)">
 <metadata>
  <rdf:RDF xmlns:dc="http://purl.org/dc/elements/1.1/" xmlns:cc="http://creativecommons.org/ns#" xmlns:rdf="http://www.w3.org/1999/02/22-rdf-syntax-ns#">
   <cc:Work>
    <dc:type rdf:resource="http://purl.org/dc/dcmitype/StillImage"/>
    <dc:format>image/svg+xml</dc:format>
    <dc:creator>
     <cc:Agent>
      <dc:title>Matplotlib v3.10.7, https://matplotlib.org/</dc:title>
     </cc:Agent>
    </dc:creator>
   </cc:Work>
  </rdf:RDF>
 </metadata>
 <defs>
  <style type="text/css">*{stroke-linejoin: round; stroke-linecap: butt}</style>
 </defs>
 <g id="figure_1">
  <g id="patch_1">
   <path d="M 0 198.425197 
L 249.448819 198.425197 
L 249.448819 0 
L 0 0 
z
" style="fill: #ffffff"/>
  </g>
  <g id="axes_1">
   <g id="patch_2">
    <path d="M 35.333678 71.594546 
L 245.649081 71.594546 
L 245.649081 22.30524 
L 35.333678 22.30524 
z
" style="fill: #ffffff"/>
   </g>
   <g id="matplotlib.axis_1">
    <g id="xtick_1">
     <g id="line2d_1">
      <path d="M 36.202749 71.594546 
L 36.202749 22.30524 
" clip-path="url(#p364862b35b)" style="fill: none; stroke: #d9d9d9; stroke-width: 0.3; stroke-linecap: square"/>
     </g>
     <g id="line2d_2">
      <defs>
       <path id="mf8137edbfc" d="M 0 0 
L 0 6 
" style="stroke: #000000; stroke-width: 0.8"/>
      </defs>
      <g>
       <use xlink:href="#mf8137edbfc" x="36.202749" y="71.594546" style="stroke: #000000; stroke-width: 0.8"/>
      </g>
     </g>
     <g id="text_1">
      <text style="font-size: 6px; font-family: 'Arial'; text-anchor: middle" x="36.202749" y="85.389233" transform="rotate(-0 36.202749 85.389233)">−3</text>
     </g>
    </g>
    <g id="xtick_2">
     <g id="line2d_3">
      <path d="M 70.965626 71.594546 
L 70.965626 22.30524 
" clip-path="url(#p364862b35b)" style="fill: none; stroke: #d9d9d9; stroke-width: 0.3; stroke-linecap: square"/>
     </g>
     <g id="line2d_4">
      <g>
       <use xlink:href="#mf8137edbfc" x="70.965626" y="71.594546" style="stroke: #000000; stroke-width: 0.8"/>
      </g>
     </g>
     <g id="text_2">
      <text style="font-size: 6px; font-family: 'Arial'; text-anchor: middle" x="70.965626" y="85.389233" transform="rotate(-0 70.965626 85.389233)">−2</text>
     </g>
    </g>
    <g id="xtick_3">
     <g id="line2d_5">
      <path d="M 105.728503 71.594546 
L 105.728503 22.30524 
" clip-path="url(#p364862b35b)" style="fill: none; stroke: #d9d9d9; stroke-width: 0.3; stroke-linecap: square"/>
     </g>
     <g id="line2d_6">
      <g>
       <use xlink:href="#mf8137edbfc" x="105.728503" y="71.594546" style="stroke: #000000; stroke-width: 0.8"/>
      </g>
     </g>
     <g id="text_3">
      <text style="font-size: 6px; font-family: 'Arial'; text-anchor: middle" x="105.728503" y="85.389233" transform="rotate(-0 105.728503 85.389233)">−1</text>
     </g>
    </g>
    <g id="xtick_4">
     <g id="line2d_7">
      <path d="M 140.491379 71.594546 
L 140.491379 22.30524 
" clip-path="url(#p364862b35b)" style="fill: none; stroke: #d9d9d9; stroke-width: 0.3; stroke-linecap: square"/>
     </g>
     <g id="line2d_8">
      <g>
       <use xlink:href="#mf8137edbfc" x="140.491379" y="71.594546" style="stroke: #000000; stroke-width: 0.8"/>
      </g>
     </g>
     <g id="text_4">
      <text style="font-size: 6px; font-family: 'Arial'; text-anchor: middle" x="140.491379" y="85.389233" transform="rotate(-0 140.491379 85.389233)">0</text>
     </g>
    </g>
    <g id="xtick_5">
     <g id="line2d_9">
      <path d="M 175.254256 71.594546 
L 175.254256 22.30524 
" clip-path="url(#p364862b35b)" style="fill: none; stroke: #d9d9d9; stroke-width: 0.3; stroke-linecap: square"/>
     </g>
     <g id="line2d_10">
      <g>
       <use xlink:href="#mf8137edbfc" x="175.254256" y="71.594546" style="stroke: #000000; stroke-width: 0.8"/>
      </g>
     </g>
     <g id="text_5">
      <text style="font-size: 6px; font-family: 'Arial'; text-anchor: middle" x="175.254256" y="85.389233" transform="rotate(-0 175.254256 85.389233)">1</text>
     </g>
    </g>
    <g id="xtick_6">
     <g id="line2d_11">
      <path d="M 210.017132 71.594546 
L 210.017132 22.30524 
" clip-path="url(#p364862b35b)" style="fill: none; stroke: #d9d9d9; stroke-width: 0.3; stroke-linecap: square"/>
     </g>
     <g id="line2d_12">
      <g>
       <use xlink:href="#mf8137edbfc" x="210.017132" y="71.594546" style="stroke: #000000; stroke-width: 0.8"/>
      </g>
     </g>
     <g id="text_6">
      <text style="font-size: 6px; font-family: 'Arial'; text-anchor: middle" x="210.017132" y="85.389233" transform="rotate(-0 210.017132 85.389233)">2</text>
     </g>
    </g>
    <g id="xtick_7">
     <g id="line2d_13">
      <path d="M 244.780009 71.594546 
L 244.780009 22.30524 
" clip-path="url(#p364862b35b)" style="fill: none; stroke: #d9d9d9; stroke-width: 0.3; stroke-linecap: square"/>
     </g>
     <g id="line2d_14">
      <g>
       <use xlink:href="#mf8137edbfc" x="244.780009" y="71.594546" style="stroke: #000000; stroke-width: 0.8"/>
      </g>
     </g>
     <g id="text_7">
      <text style="font-size: 6px; font-family: 'Arial'; text-anchor: middle" x="244.780009" y="85.389233" transform="rotate(-0 244.780009 85.389233)">3</text>
     </g>
    </g>
    <g id="xtick_8">
     <g id="line2d_15">
      <path d="M 53.584188 71.594546 
L 53.584188 22.30524 
" clip-path="url(#p364862b35b)" style="fill: none; stroke: #d9d9d9; stroke-width: 0.3; stroke-linecap: square"/>
     </g>
     <g id="line2d_16"/>
    </g>
    <g id="xtick_9">
     <g id="line2d_17">
      <path d="M 88.347064 71.594546 
L 88.347064 22.30524 
" clip-path="url(#p364862b35b)" style="fill: none; stroke: #d9d9d9; stroke-width: 0.3; stroke-linecap: square"/>
     </g>
     <g id="line2d_18"/>
    </g>
    <g id="xtick_10">
     <g id="line2d_19">
      <path d="M 123.109941 71.594546 
L 123.109941 22.30524 
" clip-path="url(#p364862b35b)" style="fill: none; stroke: #d9d9d9; stroke-width: 0.3; stroke-linecap: square"/>
     </g>
     <g id="line2d_20"/>
    </g>
    <g id="xtick_11">
     <g id="line2d_21">
      <path d="M 157.872817 71.594546 
L 157.872817 22.30524 
" clip-path="url(#p364862b35b)" style="fill: none; stroke: #d9d9d9; stroke-width: 0.3; stroke-linecap: square"/>
     </g>
     <g id="line2d_22"/>
    </g>
    <g id="xtick_12">
     <g id="line2d_23">
      <path d="M 192.635694 71.594546 
L 192.635694 22.30524 
" clip-path="url(#p364862b35b)" style="fill: none; stroke: #d9d9d9; stroke-width: 0.3; stroke-linecap: square"/>
     </g>
     <g id="line2d_24"/>
    </g>
    <g id="xtick_13">
     <g id="line2d_25">
      <path d="M 227.39857 71.594546 
L 227.39857 22.30524 
" clip-path="url(#p364862b35b)" style="fill: none; stroke: #d9d9d9; stroke-width: 0.3; stroke-linecap: square"/>
     </g>
     <g id="line2d_26"/>
    </g>
    <g id="text_8">
     <text style="font-size: 6px; font-family: 'Arial'; text-anchor: middle" x="140.491379" y="94.949546" transform="rotate(-0 140.491379 94.949546)">betaxanthin CRI-SPA score (reference 0)</text>
    </g>
   </g>
   <g id="matplotlib.axis_2">
    <g id="ytick_1">
     <g id="line2d_27">
      <defs>
       <path id="m6182f49e64" d="M 0 0 
L -6 0 
" style="stroke: #000000; stroke-width: 0.8"/>
      </defs>
      <g>
       <use xlink:href="#m6182f49e64" x="35.333678" y="71.594546" style="stroke: #000000; stroke-width: 0.8"/>
      </g>
     </g>
     <g id="text_9">
      <text style="font-size: 6px; font-family: 'Arial'; text-anchor: end" x="25.833678" y="73.74189" transform="rotate(-0 25.833678 73.74189)">0</text>
     </g>
    </g>
    <g id="ytick_2">
     <g id="line2d_28">
      <g>
       <use xlink:href="#m6182f49e64" x="35.333678" y="53.711805" style="stroke: #000000; stroke-width: 0.8"/>
      </g>
     </g>
     <g id="text_10">
      <text style="font-size: 6px; font-family: 'Arial'; text-anchor: end" x="25.833678" y="55.859148" transform="rotate(-0 25.833678 55.859148)">200</text>
     </g>
    </g>
    <g id="ytick_3">
     <g id="line2d_29">
      <g>
       <use xlink:href="#m6182f49e64" x="35.333678" y="35.829063" style="stroke: #000000; stroke-width: 0.8"/>
      </g>
     </g>
     <g id="text_11">
      <text style="font-size: 6px; font-family: 'Arial'; text-anchor: end" x="25.833678" y="37.976407" transform="rotate(-0 25.833678 37.976407)">400</text>
     </g>
    </g>
    <g id="text_12">
     <text style="font-size: 6px; font-family: 'Arial'; text-anchor: middle" x="10.63149" y="46.949893" transform="rotate(-90 10.63149 46.949893)">strains</text>
    </g>
   </g>
   <g id="patch_3">
    <path d="M 44.893469 71.594546 
L 49.238828 71.594546 
L 49.238828 71.594546 
L 44.893469 71.594546 
z
" clip-path="url(#p364862b35b)" style="fill: #d6b656; stroke: #000000; stroke-width: 0.3; stroke-linejoin: miter"/>
   </g>
   <g id="patch_4">
    <path d="M 49.238828 71.594546 
L 53.584188 71.594546 
L 53.584188 71.415719 
L 49.238828 71.415719 
z
" clip-path="url(#p364862b35b)" style="fill: #d6b656; stroke: #000000; stroke-width: 0.3; stroke-linejoin: miter"/>
   </g>
   <g id="patch_5">
    <path d="M 53.584188 71.594546 
L 57.929547 71.594546 
L 57.929547 71.505132 
L 53.584188 71.505132 
z
" clip-path="url(#p364862b35b)" style="fill: #d6b656; stroke: #000000; stroke-width: 0.3; stroke-linejoin: miter"/>
   </g>
   <g id="patch_6">
    <path d="M 57.929547 71.594546 
L 62.274907 71.594546 
L 62.274907 71.415719 
L 57.929547 71.415719 
z
" clip-path="url(#p364862b35b)" style="fill: #d6b656; stroke: #000000; stroke-width: 0.3; stroke-linejoin: miter"/>
   </g>
   <g id="patch_7">
    <path d="M 62.274907 71.594546 
L 66.620266 71.594546 
L 66.620266 71.415719 
L 62.274907 71.415719 
z
" clip-path="url(#p364862b35b)" style="fill: #d6b656; stroke: #000000; stroke-width: 0.3; stroke-linejoin: miter"/>
   </g>
   <g id="patch_8">
    <path d="M 66.620266 71.594546 
L 70.965626 71.594546 
L 70.965626 70.96865 
L 66.620266 70.96865 
z
" clip-path="url(#p364862b35b)" style="fill: #d6b656; stroke: #000000; stroke-width: 0.3; stroke-linejoin: miter"/>
   </g>
   <g id="patch_9">
    <path d="M 70.965626 71.594546 
L 75.310986 71.594546 
L 75.310986 71.058064 
L 70.965626 71.058064 
z
" clip-path="url(#p364862b35b)" style="fill: #d6b656; stroke: #000000; stroke-width: 0.3; stroke-linejoin: miter"/>
   </g>
   <g id="patch_10">
    <path d="M 75.310986 71.594546 
L 79.656345 71.594546 
L 79.656345 70.163927 
L 75.310986 70.163927 
z
" clip-path="url(#p364862b35b)" style="fill: #d6b656; stroke: #000000; stroke-width: 0.3; stroke-linejoin: miter"/>
   </g>
   <g id="patch_11">
    <path d="M 79.656345 71.594546 
L 84.001705 71.594546 
L 84.001705 69.985099 
L 79.656345 69.985099 
z
" clip-path="url(#p364862b35b)" style="fill: #d6b656; stroke: #000000; stroke-width: 0.3; stroke-linejoin: miter"/>
   </g>
   <g id="patch_12">
    <path d="M 84.001705 71.594546 
L 88.347064 71.594546 
L 88.347064 69.985099 
L 84.001705 69.985099 
z
" clip-path="url(#p364862b35b)" style="fill: #d6b656; stroke: #000000; stroke-width: 0.3; stroke-linejoin: miter"/>
   </g>
   <g id="patch_13">
    <path d="M 88.347064 71.594546 
L 92.692424 71.594546 
L 92.692424 69.538031 
L 88.347064 69.538031 
z
" clip-path="url(#p364862b35b)" style="fill: #d6b656; stroke: #000000; stroke-width: 0.3; stroke-linejoin: miter"/>
   </g>
   <g id="patch_14">
    <path d="M 92.692424 71.594546 
L 97.037783 71.594546 
L 97.037783 69.359203 
L 92.692424 69.359203 
z
" clip-path="url(#p364862b35b)" style="fill: #d6b656; stroke: #000000; stroke-width: 0.3; stroke-linejoin: miter"/>
   </g>
   <g id="patch_15">
    <path d="M 97.037783 71.594546 
L 101.383143 71.594546 
L 101.383143 68.375652 
L 97.037783 68.375652 
z
" clip-path="url(#p364862b35b)" style="fill: #d6b656; stroke: #000000; stroke-width: 0.3; stroke-linejoin: miter"/>
   </g>
   <g id="patch_16">
    <path d="M 101.383143 71.594546 
L 105.728503 71.594546 
L 105.728503 66.945033 
L 101.383143 66.945033 
z
" clip-path="url(#p364862b35b)" style="fill: #d6b656; stroke: #000000; stroke-width: 0.3; stroke-linejoin: miter"/>
   </g>
   <g id="patch_17">
    <path d="M 105.728503 71.594546 
L 110.073862 71.594546 
L 110.073862 65.872069 
L 105.728503 65.872069 
z
" clip-path="url(#p364862b35b)" style="fill: #d6b656; stroke: #000000; stroke-width: 0.3; stroke-linejoin: miter"/>
   </g>
   <g id="patch_18">
    <path d="M 110.073862 71.594546 
L 114.419222 71.594546 
L 114.419222 63.100244 
L 110.073862 63.100244 
z
" clip-path="url(#p364862b35b)" style="fill: #d6b656; stroke: #000000; stroke-width: 0.3; stroke-linejoin: miter"/>
   </g>
   <g id="patch_19">
    <path d="M 114.419222 71.594546 
L 118.764581 71.594546 
L 118.764581 58.003662 
L 114.419222 58.003662 
z
" clip-path="url(#p364862b35b)" style="fill: #d6b656; stroke: #000000; stroke-width: 0.3; stroke-linejoin: miter"/>
   </g>
   <g id="patch_20">
    <path d="M 118.764581 71.594546 
L 123.109941 71.594546 
L 123.109941 53.175322 
L 118.764581 53.175322 
z
" clip-path="url(#p364862b35b)" style="fill: #d6b656; stroke: #000000; stroke-width: 0.3; stroke-linejoin: miter"/>
   </g>
   <g id="patch_21">
    <path d="M 123.109941 71.594546 
L 127.4553 71.594546 
L 127.4553 46.737535 
L 123.109941 46.737535 
z
" clip-path="url(#p364862b35b)" style="fill: #d6b656; stroke: #000000; stroke-width: 0.3; stroke-linejoin: miter"/>
   </g>
   <g id="patch_22">
    <path d="M 127.4553 71.594546 
L 131.80066 71.594546 
L 131.80066 38.064406 
L 127.4553 38.064406 
z
" clip-path="url(#p364862b35b)" style="fill: #d6b656; stroke: #000000; stroke-width: 0.3; stroke-linejoin: miter"/>
   </g>
   <g id="patch_23">
    <path d="M 131.80066 71.594546 
L 136.146019 71.594546 
L 136.146019 28.139484 
L 131.80066 28.139484 
z
" clip-path="url(#p364862b35b)" style="fill: #d6b656; stroke: #000000; stroke-width: 0.3; stroke-linejoin: miter"/>
   </g>
   <g id="patch_24">
    <path d="M 136.146019 71.594546 
L 140.491379 71.594546 
L 140.491379 25.010005 
L 136.146019 25.010005 
z
" clip-path="url(#p364862b35b)" style="fill: #d6b656; stroke: #000000; stroke-width: 0.3; stroke-linejoin: miter"/>
   </g>
   <g id="patch_25">
    <path d="M 140.491379 71.594546 
L 144.836739 71.594546 
L 144.836739 24.65235 
L 140.491379 24.65235 
z
" clip-path="url(#p364862b35b)" style="fill: #d6b656; stroke: #000000; stroke-width: 0.3; stroke-linejoin: miter"/>
   </g>
   <g id="patch_26">
    <path d="M 144.836739 71.594546 
L 149.182098 71.594546 
L 149.182098 27.06652 
L 144.836739 27.06652 
z
" clip-path="url(#p364862b35b)" style="fill: #d6b656; stroke: #000000; stroke-width: 0.3; stroke-linejoin: miter"/>
   </g>
   <g id="patch_27">
    <path d="M 149.182098 71.594546 
L 153.527458 71.594546 
L 153.527458 29.033621 
L 149.182098 29.033621 
z
" clip-path="url(#p364862b35b)" style="fill: #d6b656; stroke: #000000; stroke-width: 0.3; stroke-linejoin: miter"/>
   </g>
   <g id="patch_28">
    <path d="M 153.527458 71.594546 
L 157.872817 71.594546 
L 157.872817 44.68102 
L 153.527458 44.68102 
z
" clip-path="url(#p364862b35b)" style="fill: #d6b656; stroke: #000000; stroke-width: 0.3; stroke-linejoin: miter"/>
   </g>
   <g id="patch_29">
    <path d="M 157.872817 71.594546 
L 162.218177 71.594546 
L 162.218177 55.678906 
L 157.872817 55.678906 
z
" clip-path="url(#p364862b35b)" style="fill: #d6b656; stroke: #000000; stroke-width: 0.3; stroke-linejoin: miter"/>
   </g>
   <g id="patch_30">
    <path d="M 162.218177 71.594546 
L 166.563536 71.594546 
L 166.563536 62.832003 
L 162.218177 62.832003 
z
" clip-path="url(#p364862b35b)" style="fill: #d6b656; stroke: #000000; stroke-width: 0.3; stroke-linejoin: miter"/>
   </g>
   <g id="patch_31">
    <path d="M 166.563536 71.594546 
L 170.908896 71.594546 
L 170.908896 67.570929 
L 166.563536 67.570929 
z
" clip-path="url(#p364862b35b)" style="fill: #d6b656; stroke: #000000; stroke-width: 0.3; stroke-linejoin: miter"/>
   </g>
   <g id="patch_32">
    <path d="M 170.908896 71.594546 
L 175.254256 71.594546 
L 175.254256 69.716858 
L 170.908896 69.716858 
z
" clip-path="url(#p364862b35b)" style="fill: #d6b656; stroke: #000000; stroke-width: 0.3; stroke-linejoin: miter"/>
   </g>
   <g id="patch_33">
    <path d="M 175.254256 71.594546 
L 179.599615 71.594546 
L 179.599615 70.074513 
L 175.254256 70.074513 
z
" clip-path="url(#p364862b35b)" style="fill: #d6b656; stroke: #000000; stroke-width: 0.3; stroke-linejoin: miter"/>
   </g>
   <g id="patch_34">
    <path d="M 179.599615 71.594546 
L 183.944975 71.594546 
L 183.944975 70.074513 
L 179.599615 70.074513 
z
" clip-path="url(#p364862b35b)" style="fill: #d6b656; stroke: #000000; stroke-width: 0.3; stroke-linejoin: miter"/>
   </g>
   <g id="patch_35">
    <path d="M 183.944975 71.594546 
L 188.290334 71.594546 
L 188.290334 70.521581 
L 183.944975 70.521581 
z
" clip-path="url(#p364862b35b)" style="fill: #d6b656; stroke: #000000; stroke-width: 0.3; stroke-linejoin: miter"/>
   </g>
   <g id="patch_36">
    <path d="M 188.290334 71.594546 
L 192.635694 71.594546 
L 192.635694 69.001548 
L 188.290334 69.001548 
z
" clip-path="url(#p364862b35b)" style="fill: #d6b656; stroke: #000000; stroke-width: 0.3; stroke-linejoin: miter"/>
   </g>
   <g id="patch_37">
    <path d="M 192.635694 71.594546 
L 196.981053 71.594546 
L 196.981053 69.26979 
L 192.635694 69.26979 
z
" clip-path="url(#p364862b35b)" style="fill: #d6b656; stroke: #000000; stroke-width: 0.3; stroke-linejoin: miter"/>
   </g>
   <g id="patch_38">
    <path d="M 196.981053 71.594546 
L 201.326413 71.594546 
L 201.326413 69.985099 
L 196.981053 69.985099 
z
" clip-path="url(#p364862b35b)" style="fill: #d6b656; stroke: #000000; stroke-width: 0.3; stroke-linejoin: miter"/>
   </g>
   <g id="patch_39">
    <path d="M 201.326413 71.594546 
L 205.671773 71.594546 
L 205.671773 70.074513 
L 201.326413 70.074513 
z
" clip-path="url(#p364862b35b)" style="fill: #d6b656; stroke: #000000; stroke-width: 0.3; stroke-linejoin: miter"/>
   </g>
   <g id="patch_40">
    <path d="M 205.671773 71.594546 
L 210.017132 71.594546 
L 210.017132 69.806272 
L 205.671773 69.806272 
z
" clip-path="url(#p364862b35b)" style="fill: #d6b656; stroke: #000000; stroke-width: 0.3; stroke-linejoin: miter"/>
   </g>
   <g id="patch_41">
    <path d="M 210.017132 71.594546 
L 214.362492 71.594546 
L 214.362492 70.342754 
L 210.017132 70.342754 
z
" clip-path="url(#p364862b35b)" style="fill: #d6b656; stroke: #000000; stroke-width: 0.3; stroke-linejoin: miter"/>
   </g>
   <g id="patch_42">
    <path d="M 214.362492 71.594546 
L 218.707851 71.594546 
L 218.707851 70.610995 
L 214.362492 70.610995 
z
" clip-path="url(#p364862b35b)" style="fill: #d6b656; stroke: #000000; stroke-width: 0.3; stroke-linejoin: miter"/>
   </g>
   <g id="patch_43">
    <path d="M 218.707851 71.594546 
L 223.053211 71.594546 
L 223.053211 70.879236 
L 218.707851 70.879236 
z
" clip-path="url(#p364862b35b)" style="fill: #d6b656; stroke: #000000; stroke-width: 0.3; stroke-linejoin: miter"/>
   </g>
   <g id="patch_44">
    <path d="M 223.053211 71.594546 
L 227.39857 71.594546 
L 227.39857 71.505132 
L 223.053211 71.505132 
z
" clip-path="url(#p364862b35b)" style="fill: #d6b656; stroke: #000000; stroke-width: 0.3; stroke-linejoin: miter"/>
   </g>
   <g id="patch_45">
    <path d="M 227.39857 71.594546 
L 231.74393 71.594546 
L 231.74393 71.505132 
L 227.39857 71.505132 
z
" clip-path="url(#p364862b35b)" style="fill: #d6b656; stroke: #000000; stroke-width: 0.3; stroke-linejoin: miter"/>
   </g>
   <g id="patch_46">
    <path d="M 231.74393 71.594546 
L 236.08929 71.594546 
L 236.08929 71.505132 
L 231.74393 71.505132 
z
" clip-path="url(#p364862b35b)" style="fill: #d6b656; stroke: #000000; stroke-width: 0.3; stroke-linejoin: miter"/>
   </g>
   <g id="line2d_30">
    <path d="M 140.491379 71.594546 
L 140.491379 22.30524 
" clip-path="url(#p364862b35b)" style="fill: none; stroke-dasharray: 1.85,0.8; stroke-dashoffset: 0; stroke: #000000; stroke-width: 0.5"/>
   </g>
   <g id="patch_47">
    <path d="M 35.333678 71.594546 
L 35.333678 22.30524 
" style="fill: none; stroke: #000000; stroke-width: 0.5; stroke-linejoin: miter; stroke-linecap: square"/>
   </g>
   <g id="patch_48">
    <path d="M 245.649081 71.594546 
L 245.649081 22.30524 
" style="fill: none; stroke: #000000; stroke-width: 0.5; stroke-linejoin: miter; stroke-linecap: square"/>
   </g>
   <g id="patch_49">
    <path d="M 35.333678 71.594546 
L 245.649081 71.594546 
" style="fill: none; stroke: #000000; stroke-width: 0.5; stroke-linejoin: miter; stroke-linecap: square"/>
   </g>
   <g id="patch_50">
    <path d="M 35.333678 22.30524 
L 245.649081 22.30524 
" style="fill: none; stroke: #000000; stroke-width: 0.5; stroke-linejoin: miter; stroke-linecap: square"/>
   </g>
   <g id="text_13">
    <g id="patch_51">
     <path d="M 6.473677 11.26524 
L 12.842427 11.26524 
L 12.842427 2.04024 
L 6.473677 2.04024 
z
" style="fill: #ffffff"/>
    </g>
    <text style="font-weight: 700; font-size: 8px; font-family: 'Arial'; text-anchor: start" x="7.433677" y="8.72649" transform="rotate(-0 7.433677 8.72649)">a</text>
   </g>
  </g>
  <g id="axes_2">
   <g id="patch_52">
    <path d="M 35.333678 170.807144 
L 245.649081 170.807144 
L 245.649081 121.517838 
L 35.333678 121.517838 
z
" style="fill: #ffffff"/>
   </g>
   <g id="matplotlib.axis_3">
    <g id="xtick_14">
     <g id="line2d_31">
      <path d="M 42.274348 170.807144 
L 42.274348 121.517838 
" clip-path="url(#p08e6a2e0a6)" style="fill: none; stroke: #d9d9d9; stroke-width: 0.3; stroke-linecap: square"/>
     </g>
     <g id="line2d_32">
      <g>
       <use xlink:href="#mf8137edbfc" x="42.274348" y="170.807144" style="stroke: #000000; stroke-width: 0.8"/>
      </g>
     </g>
     <g id="text_14">
      <text style="font-size: 6px; font-family: 'Arial'; text-anchor: middle" x="42.274348" y="184.601832" transform="rotate(-0 42.274348 184.601832)">0</text>
     </g>
    </g>
    <g id="xtick_15">
     <g id="line2d_33">
      <path d="M 85.926362 170.807144 
L 85.926362 121.517838 
" clip-path="url(#p08e6a2e0a6)" style="fill: none; stroke: #d9d9d9; stroke-width: 0.3; stroke-linecap: square"/>
     </g>
     <g id="line2d_34">
      <g>
       <use xlink:href="#mf8137edbfc" x="85.926362" y="170.807144" style="stroke: #000000; stroke-width: 0.8"/>
      </g>
     </g>
     <g id="text_15">
      <text style="font-size: 6px; font-family: 'Arial'; text-anchor: middle" x="85.926362" y="184.601832" transform="rotate(-0 85.926362 184.601832)">10</text>
     </g>
    </g>
    <g id="xtick_16">
     <g id="line2d_35">
      <path d="M 129.578376 170.807144 
L 129.578376 121.517838 
" clip-path="url(#p08e6a2e0a6)" style="fill: none; stroke: #d9d9d9; stroke-width: 0.3; stroke-linecap: square"/>
     </g>
     <g id="line2d_36">
      <g>
       <use xlink:href="#mf8137edbfc" x="129.578376" y="170.807144" style="stroke: #000000; stroke-width: 0.8"/>
      </g>
     </g>
     <g id="text_16">
      <text style="font-size: 6px; font-family: 'Arial'; text-anchor: middle" x="129.578376" y="184.601832" transform="rotate(-0 129.578376 184.601832)">20</text>
     </g>
    </g>
    <g id="xtick_17">
     <g id="line2d_37">
      <path d="M 173.230389 170.807144 
L 173.230389 121.517838 
" clip-path="url(#p08e6a2e0a6)" style="fill: none; stroke: #d9d9d9; stroke-width: 0.3; stroke-linecap: square"/>
     </g>
     <g id="line2d_38">
      <g>
       <use xlink:href="#mf8137edbfc" x="173.230389" y="170.807144" style="stroke: #000000; stroke-width: 0.8"/>
      </g>
     </g>
     <g id="text_17">
      <text style="font-size: 6px; font-family: 'Arial'; text-anchor: middle" x="173.230389" y="184.601832" transform="rotate(-0 173.230389 184.601832)">30</text>
     </g>
    </g>
    <g id="xtick_18">
     <g id="line2d_39">
      <path d="M 216.882403 170.807144 
L 216.882403 121.517838 
" clip-path="url(#p08e6a2e0a6)" style="fill: none; stroke: #d9d9d9; stroke-width: 0.3; stroke-linecap: square"/>
     </g>
     <g id="line2d_40">
      <g>
       <use xlink:href="#mf8137edbfc" x="216.882403" y="170.807144" style="stroke: #000000; stroke-width: 0.8"/>
      </g>
     </g>
     <g id="text_18">
      <text style="font-size: 6px; font-family: 'Arial'; text-anchor: middle" x="216.882403" y="184.601832" transform="rotate(-0 216.882403 184.601832)">40</text>
     </g>
    </g>
    <g id="text_19">
     <text style="font-size: 6px; font-family: 'Arial'; text-anchor: middle" x="140.491379" y="194.162144" transform="rotate(-0 140.491379 194.162144)">colonies per strain (n_replicates)</text>
    </g>
   </g>
   <g id="matplotlib.axis_4">
    <g id="ytick_4">
     <g id="line2d_41">
      <g>
       <use xlink:href="#m6182f49e64" x="35.333678" y="170.807144" style="stroke: #000000; stroke-width: 0.8"/>
      </g>
     </g>
     <g id="text_20">
      <text style="font-size: 6px; font-family: 'Arial'; text-anchor: end" x="25.833678" y="172.954488" transform="rotate(-0 25.833678 172.954488)">0</text>
     </g>
    </g>
    <g id="ytick_5">
     <g id="line2d_42">
      <g>
       <use xlink:href="#m6182f49e64" x="35.333678" y="154.862105" style="stroke: #000000; stroke-width: 0.8"/>
      </g>
     </g>
     <g id="text_21">
      <text style="font-size: 6px; font-family: 'Arial'; text-anchor: end" x="25.833678" y="157.009449" transform="rotate(-0 25.833678 157.009449)">500</text>
     </g>
    </g>
    <g id="ytick_6">
     <g id="line2d_43">
      <g>
       <use xlink:href="#m6182f49e64" x="35.333678" y="138.917065" style="stroke: #000000; stroke-width: 0.8"/>
      </g>
     </g>
     <g id="text_22">
      <text style="font-size: 6px; font-family: 'Arial'; text-anchor: end" x="25.833678" y="141.064409" transform="rotate(-0 25.833678 141.064409)">1000</text>
     </g>
    </g>
    <g id="ytick_7">
     <g id="line2d_44">
      <g>
       <use xlink:href="#m6182f49e64" x="35.333678" y="122.972026" style="stroke: #000000; stroke-width: 0.8"/>
      </g>
     </g>
     <g id="text_23">
      <text style="font-size: 6px; font-family: 'Arial'; text-anchor: end" x="25.833678" y="125.11937" transform="rotate(-0 25.833678 125.11937)">1500</text>
     </g>
    </g>
    <g id="text_24">
     <text style="font-size: 6px; font-family: 'Arial'; text-anchor: middle" x="7.294928" y="146.162491" transform="rotate(-90 7.294928 146.162491)">strains</text>
    </g>
   </g>
   <g id="patch_53">
    <path d="M 44.893469 170.807144 
L 48.38563 170.807144 
L 48.38563 169.595321 
L 44.893469 169.595321 
z
" clip-path="url(#p08e6a2e0a6)" style="fill: #d6b656; stroke: #000000; stroke-width: 0.3; stroke-linejoin: miter"/>
   </g>
   <g id="patch_54">
    <path d="M 49.25867 170.807144 
L 52.750831 170.807144 
L 52.750831 170.009892 
L 49.25867 170.009892 
z
" clip-path="url(#p08e6a2e0a6)" style="fill: #d6b656; stroke: #000000; stroke-width: 0.3; stroke-linejoin: miter"/>
   </g>
   <g id="patch_55">
    <path d="M 53.623871 170.807144 
L 57.116032 170.807144 
L 57.116032 169.818552 
L 53.623871 169.818552 
z
" clip-path="url(#p08e6a2e0a6)" style="fill: #d6b656; stroke: #000000; stroke-width: 0.3; stroke-linejoin: miter"/>
   </g>
   <g id="patch_56">
    <path d="M 57.989073 170.807144 
L 61.481234 170.807144 
L 61.481234 170.296903 
L 57.989073 170.296903 
z
" clip-path="url(#p08e6a2e0a6)" style="fill: #d6b656; stroke: #000000; stroke-width: 0.3; stroke-linejoin: miter"/>
   </g>
   <g id="patch_57">
    <path d="M 62.354274 170.807144 
L 65.846435 170.807144 
L 65.846435 170.583914 
L 62.354274 170.583914 
z
" clip-path="url(#p08e6a2e0a6)" style="fill: #d6b656; stroke: #000000; stroke-width: 0.3; stroke-linejoin: miter"/>
   </g>
   <g id="patch_58">
    <path d="M 66.719476 170.807144 
L 70.211637 170.807144 
L 70.211637 170.328793 
L 66.719476 170.328793 
z
" clip-path="url(#p08e6a2e0a6)" style="fill: #d6b656; stroke: #000000; stroke-width: 0.3; stroke-linejoin: miter"/>
   </g>
   <g id="patch_59">
    <path d="M 71.084677 170.807144 
L 74.576838 170.807144 
L 74.576838 170.041782 
L 71.084677 170.041782 
z
" clip-path="url(#p08e6a2e0a6)" style="fill: #d6b656; stroke: #000000; stroke-width: 0.3; stroke-linejoin: miter"/>
   </g>
   <g id="patch_60">
    <path d="M 75.449878 170.807144 
L 78.942039 170.807144 
L 78.942039 170.073673 
L 75.449878 170.073673 
z
" clip-path="url(#p08e6a2e0a6)" style="fill: #d6b656; stroke: #000000; stroke-width: 0.3; stroke-linejoin: miter"/>
   </g>
   <g id="patch_61">
    <path d="M 79.81508 170.807144 
L 83.307241 170.807144 
L 83.307241 170.041782 
L 79.81508 170.041782 
z
" clip-path="url(#p08e6a2e0a6)" style="fill: #d6b656; stroke: #000000; stroke-width: 0.3; stroke-linejoin: miter"/>
   </g>
   <g id="patch_62">
    <path d="M 84.180281 170.807144 
L 87.672442 170.807144 
L 87.672442 169.531541 
L 84.180281 169.531541 
z
" clip-path="url(#p08e6a2e0a6)" style="fill: #d6b656; stroke: #000000; stroke-width: 0.3; stroke-linejoin: miter"/>
   </g>
   <g id="patch_63">
    <path d="M 88.545482 170.807144 
L 92.037644 170.807144 
L 92.037644 168.415388 
L 88.545482 168.415388 
z
" clip-path="url(#p08e6a2e0a6)" style="fill: #d6b656; stroke: #000000; stroke-width: 0.3; stroke-linejoin: miter"/>
   </g>
   <g id="patch_64">
    <path d="M 92.910684 170.807144 
L 96.402845 170.807144 
L 96.402845 165.864182 
L 92.910684 165.864182 
z
" clip-path="url(#p08e6a2e0a6)" style="fill: #d6b656; stroke: #000000; stroke-width: 0.3; stroke-linejoin: miter"/>
   </g>
   <g id="patch_65">
    <path d="M 97.275885 170.807144 
L 100.768046 170.807144 
L 100.768046 158.114893 
L 97.275885 158.114893 
z
" clip-path="url(#p08e6a2e0a6)" style="fill: #d6b656; stroke: #000000; stroke-width: 0.3; stroke-linejoin: miter"/>
   </g>
   <g id="patch_66">
    <path d="M 101.641087 170.807144 
L 105.133248 170.807144 
L 105.133248 142.935215 
L 101.641087 142.935215 
z
" clip-path="url(#p08e6a2e0a6)" style="fill: #d6b656; stroke: #000000; stroke-width: 0.3; stroke-linejoin: miter"/>
   </g>
   <g id="patch_67">
    <path d="M 106.006288 170.807144 
L 109.498449 170.807144 
L 109.498449 123.864948 
L 106.006288 123.864948 
z
" clip-path="url(#p08e6a2e0a6)" style="fill: #d6b656; stroke: #000000; stroke-width: 0.3; stroke-linejoin: miter"/>
   </g>
   <g id="patch_68">
    <path d="M 110.371489 170.807144 
L 113.863651 170.807144 
L 113.863651 124.56653 
L 110.371489 124.56653 
z
" clip-path="url(#p08e6a2e0a6)" style="fill: #d6b656; stroke: #000000; stroke-width: 0.3; stroke-linejoin: miter"/>
   </g>
   <g id="patch_69">
    <path d="M 123.467094 170.807144 
L 126.959255 170.807144 
L 126.959255 170.711474 
L 123.467094 170.711474 
z
" clip-path="url(#p08e6a2e0a6)" style="fill: #d6b656; stroke: #000000; stroke-width: 0.3; stroke-linejoin: miter"/>
   </g>
   <g id="patch_70">
    <path d="M 132.197496 170.807144 
L 135.689658 170.807144 
L 135.689658 170.775254 
L 132.197496 170.775254 
z
" clip-path="url(#p08e6a2e0a6)" style="fill: #d6b656; stroke: #000000; stroke-width: 0.3; stroke-linejoin: miter"/>
   </g>
   <g id="patch_71">
    <path d="M 145.293101 170.807144 
L 148.785262 170.807144 
L 148.785262 170.775254 
L 145.293101 170.775254 
z
" clip-path="url(#p08e6a2e0a6)" style="fill: #d6b656; stroke: #000000; stroke-width: 0.3; stroke-linejoin: miter"/>
   </g>
   <g id="patch_72">
    <path d="M 149.658302 170.807144 
L 153.150463 170.807144 
L 153.150463 170.743364 
L 149.658302 170.743364 
z
" clip-path="url(#p08e6a2e0a6)" style="fill: #d6b656; stroke: #000000; stroke-width: 0.3; stroke-linejoin: miter"/>
   </g>
   <g id="patch_73">
    <path d="M 154.023503 170.807144 
L 157.515664 170.807144 
L 157.515664 170.743364 
L 154.023503 170.743364 
z
" clip-path="url(#p08e6a2e0a6)" style="fill: #d6b656; stroke: #000000; stroke-width: 0.3; stroke-linejoin: miter"/>
   </g>
   <g id="patch_74">
    <path d="M 158.388705 170.807144 
L 161.880866 170.807144 
L 161.880866 170.775254 
L 158.388705 170.775254 
z
" clip-path="url(#p08e6a2e0a6)" style="fill: #d6b656; stroke: #000000; stroke-width: 0.3; stroke-linejoin: miter"/>
   </g>
   <g id="patch_75">
    <path d="M 162.753906 170.807144 
L 166.246067 170.807144 
L 166.246067 170.679584 
L 162.753906 170.679584 
z
" clip-path="url(#p08e6a2e0a6)" style="fill: #d6b656; stroke: #000000; stroke-width: 0.3; stroke-linejoin: miter"/>
   </g>
   <g id="patch_76">
    <path d="M 167.119108 170.807144 
L 170.611269 170.807144 
L 170.611269 170.456353 
L 167.119108 170.456353 
z
" clip-path="url(#p08e6a2e0a6)" style="fill: #d6b656; stroke: #000000; stroke-width: 0.3; stroke-linejoin: miter"/>
   </g>
   <g id="patch_77">
    <path d="M 171.484309 170.807144 
L 174.97647 170.807144 
L 174.97647 170.583914 
L 171.484309 170.583914 
z
" clip-path="url(#p08e6a2e0a6)" style="fill: #d6b656; stroke: #000000; stroke-width: 0.3; stroke-linejoin: miter"/>
   </g>
   <g id="patch_78">
    <path d="M 175.84951 170.807144 
L 179.341671 170.807144 
L 179.341671 170.424463 
L 175.84951 170.424463 
z
" clip-path="url(#p08e6a2e0a6)" style="fill: #d6b656; stroke: #000000; stroke-width: 0.3; stroke-linejoin: miter"/>
   </g>
   <g id="patch_79">
    <path d="M 180.214712 170.807144 
L 183.706873 170.807144 
L 183.706873 170.583914 
L 180.214712 170.583914 
z
" clip-path="url(#p08e6a2e0a6)" style="fill: #d6b656; stroke: #000000; stroke-width: 0.3; stroke-linejoin: miter"/>
   </g>
   <g id="patch_80">
    <path d="M 232.597128 170.807144 
L 236.08929 170.807144 
L 236.08929 170.775254 
L 232.597128 170.775254 
z
" clip-path="url(#p08e6a2e0a6)" style="fill: #d6b656; stroke: #000000; stroke-width: 0.3; stroke-linejoin: miter"/>
   </g>
   <g id="patch_81">
    <path d="M 35.333678 170.807144 
L 35.333678 121.517838 
" style="fill: none; stroke: #000000; stroke-width: 0.5; stroke-linejoin: miter; stroke-linecap: square"/>
   </g>
   <g id="patch_82">
    <path d="M 245.649081 170.807144 
L 245.649081 121.517838 
" style="fill: none; stroke: #000000; stroke-width: 0.5; stroke-linejoin: miter; stroke-linecap: square"/>
   </g>
   <g id="patch_83">
    <path d="M 35.333678 170.807144 
L 245.649081 170.807144 
" style="fill: none; stroke: #000000; stroke-width: 0.5; stroke-linejoin: miter; stroke-linecap: square"/>
   </g>
   <g id="patch_84">
    <path d="M 35.333678 121.517838 
L 245.649081 121.517838 
" style="fill: none; stroke: #000000; stroke-width: 0.5; stroke-linejoin: miter; stroke-linecap: square"/>
   </g>
   <g id="text_25">
    <g id="patch_85">
     <path d="M 3.233677 110.477838 
L 10.039928 110.477838 
L 10.039928 101.252838 
L 3.233677 101.252838 
z
" style="fill: #ffffff"/>
    </g>
    <text style="font-weight: 700; font-size: 8px; font-family: 'Arial'; text-anchor: start" x="4.193677" y="107.939088" transform="rotate(-0 4.193677 107.939088)">b</text>
   </g>
  </g>
 </g>
 <defs>
  <clipPath id="p364862b35b">
   <rect x="35.333678" y="22.30524" width="210.315403" height="49.289306"/>
  </clipPath>
  <clipPath id="p08e6a2e0a6">
   <rect x="35.333678" y="121.517838" width="210.315403" height="49.289306"/>
  </clipPath>
 </defs>
</g></svg>
