<?xml version="1.0" encoding="utf-8" standalone="no"?>
<!DOCTYPE svg PUBLIC "-//W3C//DTD SVG 1.1//EN"
  "http://www.w3.org/Graphics/SVG/1.1/DTD/svg11.dtd">
<svg xmlns:xlink="http://www.w3.org/1999/xlink" width="348.4252" height="259.8425" viewBox="0 0 348.4252 259.8425" xmlns="http://www.w3.org/2000/svg" version="1.1"><g transform="scale(1.3888888889)">
 <metadata>
  <rdf:RDF xmlns:dc="http://purl.org/dc/elements/1.1/" xmlns:cc="http://creativecommons.org/ns#" xmlns:rdf="http://www.w3.org/1999/02/22-rdf-syntax-ns#">
   <cc:Work>
    <dc:type rdf:resource="http://purl.org/dc/dcmitype/StillImage"/>
    <dc:date>2026-07-16T01:39:55.029420</dc:date>
    <dc:format>image/svg+xml</dc:format>
    <dc:creator>
     <cc:Agent>
      <dc:title>Matplotlib v3.10.7, https://matplotlib.org/</dc:title>
     </cc:Agent>
    </dc:creator>
   </cc:Work>
  </rdf:RDF>
 </metadata>
 <defs>
  <style type="text/css">*{stroke-linejoin: round; stroke-linecap: butt}</style>
 </defs>
 <g id="figure_1">
  <g id="patch_1">
   <path d="M 0 187.086614 
L 250.866142 187.086614 
L 250.866142 0 
L 0 0 
z
" style="fill: #ffffff"/>
  </g>
  <g id="axes_1">
   <g id="patch_2">
    <path d="M 27.84899 166.060812 
L 247.865902 166.060812 
L 247.865902 20.319146 
L 27.84899 20.319146 
z
" style="fill: #ffffff"/>
   </g>
   <g id="matplotlib.axis_1">
    <g id="xtick_1">
     <g id="line2d_1">
      <path d="M 58.904009 166.060812 
L 58.904009 20.319146 
" clip-path="url(#pd67b606315)" style="fill: none; stroke: #4a4a4a; stroke-opacity: 0.15; stroke-width: 0.4; stroke-linecap: square"/>
     </g>
     <g id="line2d_2">
      <defs>
       <path id="m8ee8d184f8" d="M 0 0 
L 0 2 
" style="stroke: #000000; stroke-width: 0.5"/>
      </defs>
      <g>
       <use xlink:href="#m8ee8d184f8" x="58.904009" y="166.060812" style="stroke: #000000; stroke-width: 0.5"/>
      </g>
     </g>
     <g id="text_1">
      <text style="font-size: 6px; font-family: 'Arial', 'Helvetica', 'DejaVu Sans', sans-serif" transform="translate(42.637446 176.119874)">Kemmeren</text>
      <text style="font-size: 6px; font-family: 'Arial', 'Helvetica', 'DejaVu Sans', sans-serif" transform="translate(44.905259 182.838562)">single KO</text>
     </g>
    </g>
    <g id="xtick_2">
     <g id="line2d_3">
      <path d="M 111.539633 166.060812 
L 111.539633 20.319146 
" clip-path="url(#pd67b606315)" style="fill: none; stroke: #4a4a4a; stroke-opacity: 0.15; stroke-width: 0.4; stroke-linecap: square"/>
     </g>
     <g id="line2d_4">
      <g>
       <use xlink:href="#m8ee8d184f8" x="111.539633" y="166.060812" style="stroke: #000000; stroke-width: 0.5"/>
      </g>
     </g>
     <g id="text_2">
      <text style="font-size: 6px; font-family: 'Arial', 'Helvetica', 'DejaVu Sans', sans-serif" transform="translate(99.117758 176.119874)">Sameith</text>
      <text style="font-size: 6px; font-family: 'Arial', 'Helvetica', 'DejaVu Sans', sans-serif" transform="translate(97.540883 182.838562)">single KO</text>
     </g>
    </g>
    <g id="xtick_3">
     <g id="line2d_5">
      <path d="M 164.175258 166.060812 
L 164.175258 20.319146 
" clip-path="url(#pd67b606315)" style="fill: none; stroke: #4a4a4a; stroke-opacity: 0.15; stroke-width: 0.4; stroke-linecap: square"/>
     </g>
     <g id="line2d_6">
      <g>
       <use xlink:href="#m8ee8d184f8" x="164.175258" y="166.060812" style="stroke: #000000; stroke-width: 0.5"/>
      </g>
     </g>
     <g id="text_3">
      <text style="font-size: 6px; font-family: 'Arial', 'Helvetica', 'DejaVu Sans', sans-serif" transform="translate(151.753383 176.119874)">Sameith</text>
      <text style="font-size: 6px; font-family: 'Arial', 'Helvetica', 'DejaVu Sans', sans-serif" transform="translate(148.832602 182.838562)">double KO</text>
     </g>
    </g>
    <g id="xtick_4">
     <g id="line2d_7">
      <path d="M 216.810883 166.060812 
L 216.810883 20.319146 
" clip-path="url(#pd67b606315)" style="fill: none; stroke: #4a4a4a; stroke-opacity: 0.15; stroke-width: 0.4; stroke-linecap: square"/>
     </g>
     <g id="line2d_8">
      <g>
       <use xlink:href="#m8ee8d184f8" x="216.810883" y="166.060812" style="stroke: #000000; stroke-width: 0.5"/>
      </g>
     </g>
     <g id="text_4">
      <text style="font-size: 6px; font-family: 'Arial', 'Helvetica', 'DejaVu Sans', sans-serif" transform="translate(206.399946 176.119874)">Caudal</text>
      <text style="font-size: 6px; font-family: 'Arial', 'Helvetica', 'DejaVu Sans', sans-serif" transform="translate(206.885102 182.838562)">isolate</text>
     </g>
    </g>
   </g>
   <g id="matplotlib.axis_2">
    <g id="ytick_1">
     <g id="line2d_9">
      <path d="M 27.84899 165.442222 
L 247.865902 165.442222 
" clip-path="url(#pd67b606315)" style="fill: none; stroke: #4a4a4a; stroke-opacity: 0.15; stroke-width: 0.4; stroke-linecap: square"/>
     </g>
     <g id="line2d_10">
      <defs>
       <path id="m82b5936a88" d="M 0 0 
L -2 0 
" style="stroke: #000000; stroke-width: 0.5"/>
      </defs>
      <g>
       <use xlink:href="#m82b5936a88" x="27.84899" y="165.442222" style="stroke: #000000; stroke-width: 0.5"/>
      </g>
     </g>
     <g id="text_5">
      <text style="font-size: 6px; font-family: 'Arial', 'Helvetica', 'DejaVu Sans', sans-serif; text-anchor: end" x="22.34899" y="167.721753" transform="rotate(-0 22.34899 167.721753)">0.0</text>
     </g>
    </g>
    <g id="ytick_2">
     <g id="line2d_11">
      <path d="M 27.84899 147.343559 
L 247.865902 147.343559 
" clip-path="url(#pd67b606315)" style="fill: none; stroke: #4a4a4a; stroke-opacity: 0.15; stroke-width: 0.4; stroke-linecap: square"/>
     </g>
     <g id="line2d_12">
      <g>
       <use xlink:href="#m82b5936a88" x="27.84899" y="147.343559" style="stroke: #000000; stroke-width: 0.5"/>
      </g>
     </g>
     <g id="text_6">
      <text style="font-size: 6px; font-family: 'Arial', 'Helvetica', 'DejaVu Sans', sans-serif; text-anchor: end" x="22.34899" y="149.62309" transform="rotate(-0 22.34899 149.62309)">0.2</text>
     </g>
    </g>
    <g id="ytick_3">
     <g id="line2d_13">
      <path d="M 27.84899 129.244896 
L 247.865902 129.244896 
" clip-path="url(#pd67b606315)" style="fill: none; stroke: #4a4a4a; stroke-opacity: 0.15; stroke-width: 0.4; stroke-linecap: square"/>
     </g>
     <g id="line2d_14">
      <g>
       <use xlink:href="#m82b5936a88" x="27.84899" y="129.244896" style="stroke: #000000; stroke-width: 0.5"/>
      </g>
     </g>
     <g id="text_7">
      <text style="font-size: 6px; font-family: 'Arial', 'Helvetica', 'DejaVu Sans', sans-serif; text-anchor: end" x="22.34899" y="131.524427" transform="rotate(-0 22.34899 131.524427)">0.4</text>
     </g>
    </g>
    <g id="ytick_4">
     <g id="line2d_15">
      <path d="M 27.84899 111.146233 
L 247.865902 111.146233 
" clip-path="url(#pd67b606315)" style="fill: none; stroke: #4a4a4a; stroke-opacity: 0.15; stroke-width: 0.4; stroke-linecap: square"/>
     </g>
     <g id="line2d_16">
      <g>
       <use xlink:href="#m82b5936a88" x="27.84899" y="111.146233" style="stroke: #000000; stroke-width: 0.5"/>
      </g>
     </g>
     <g id="text_8">
      <text style="font-size: 6px; font-family: 'Arial', 'Helvetica', 'DejaVu Sans', sans-serif; text-anchor: end" x="22.34899" y="113.425764" transform="rotate(-0 22.34899 113.425764)">0.6</text>
     </g>
    </g>
    <g id="ytick_5">
     <g id="line2d_17">
      <path d="M 27.84899 93.04757 
L 247.865902 93.04757 
" clip-path="url(#pd67b606315)" style="fill: none; stroke: #4a4a4a; stroke-opacity: 0.15; stroke-width: 0.4; stroke-linecap: square"/>
     </g>
     <g id="line2d_18">
      <g>
       <use xlink:href="#m82b5936a88" x="27.84899" y="93.04757" style="stroke: #000000; stroke-width: 0.5"/>
      </g>
     </g>
     <g id="text_9">
      <text style="font-size: 6px; font-family: 'Arial', 'Helvetica', 'DejaVu Sans', sans-serif; text-anchor: end" x="22.34899" y="95.327101" transform="rotate(-0 22.34899 95.327101)">0.8</text>
     </g>
    </g>
    <g id="ytick_6">
     <g id="line2d_19">
      <path d="M 27.84899 74.948907 
L 247.865902 74.948907 
" clip-path="url(#pd67b606315)" style="fill: none; stroke: #4a4a4a; stroke-opacity: 0.15; stroke-width: 0.4; stroke-linecap: square"/>
     </g>
     <g id="line2d_20">
      <g>
       <use xlink:href="#m82b5936a88" x="27.84899" y="74.948907" style="stroke: #000000; stroke-width: 0.5"/>
      </g>
     </g>
     <g id="text_10">
      <text style="font-size: 6px; font-family: 'Arial', 'Helvetica', 'DejaVu Sans', sans-serif; text-anchor: end" x="22.34899" y="77.228438" transform="rotate(-0 22.34899 77.228438)">1.0</text>
     </g>
    </g>
    <g id="ytick_7">
     <g id="line2d_21">
      <path d="M 27.84899 56.850244 
L 247.865902 56.850244 
" clip-path="url(#pd67b606315)" style="fill: none; stroke: #4a4a4a; stroke-opacity: 0.15; stroke-width: 0.4; stroke-linecap: square"/>
     </g>
     <g id="line2d_22">
      <g>
       <use xlink:href="#m82b5936a88" x="27.84899" y="56.850244" style="stroke: #000000; stroke-width: 0.5"/>
      </g>
     </g>
     <g id="text_11">
      <text style="font-size: 6px; font-family: 'Arial', 'Helvetica', 'DejaVu Sans', sans-serif; text-anchor: end" x="22.34899" y="59.129775" transform="rotate(-0 22.34899 59.129775)">1.2</text>
     </g>
    </g>
    <g id="ytick_8">
     <g id="line2d_23">
      <path d="M 27.84899 38.75158 
L 247.865902 38.75158 
" clip-path="url(#pd67b606315)" style="fill: none; stroke: #4a4a4a; stroke-opacity: 0.15; stroke-width: 0.4; stroke-linecap: square"/>
     </g>
     <g id="line2d_24">
      <g>
       <use xlink:href="#m82b5936a88" x="27.84899" y="38.75158" style="stroke: #000000; stroke-width: 0.5"/>
      </g>
     </g>
     <g id="text_12">
      <text style="font-size: 6px; font-family: 'Arial', 'Helvetica', 'DejaVu Sans', sans-serif; text-anchor: end" x="22.34899" y="41.031112" transform="rotate(-0 22.34899 41.031112)">1.4</text>
     </g>
    </g>
    <g id="ytick_9">
     <g id="line2d_25">
      <path d="M 27.84899 20.652917 
L 247.865902 20.652917 
" clip-path="url(#pd67b606315)" style="fill: none; stroke: #4a4a4a; stroke-opacity: 0.15; stroke-width: 0.4; stroke-linecap: square"/>
     </g>
     <g id="line2d_26">
      <g>
       <use xlink:href="#m82b5936a88" x="27.84899" y="20.652917" style="stroke: #000000; stroke-width: 0.5"/>
      </g>
     </g>
     <g id="text_13">
      <text style="font-size: 6px; font-family: 'Arial', 'Helvetica', 'DejaVu Sans', sans-serif; text-anchor: end" x="22.34899" y="22.932449" transform="rotate(-0 22.34899 22.932449)">1.6</text>
     </g>
    </g>
    <g id="text_14">
     <text style="font-size: 6px; font-family: 'Arial', 'Helvetica', 'DejaVu Sans', sans-serif; text-anchor: middle" x="7.559303" y="93.189979" transform="rotate(-90 7.559303 93.189979)">per-strain spread (IQR of log2 FC)</text>
    </g>
   </g>
   <g id="FillBetweenPolyCollection_1">
    <defs>
     <path id="m81009ba405" d="M 59.554495 -27.650424 
L 58.253522 -27.650424 
L 57.853175 -28.162377 
L 57.263418 -28.67433 
L 56.421479 -29.186283 
L 55.271609 -29.698236 
L 53.78573 -30.210189 
L 51.977754 -30.722143 
L 49.904278 -31.234096 
L 47.65504 -31.746049 
L 45.343012 -32.258002 
L 43.100501 -32.769955 
L 41.078151 -33.281908 
L 39.437169 -33.793862 
L 38.326805 -34.305815 
L 37.849759 -34.817768 
L 38.031514 -35.329721 
L 38.813446 -35.841674 
L 40.075893 -36.353627 
L 41.675496 -36.865581 
L 43.472748 -37.377534 
L 45.340135 -37.889487 
L 47.162178 -38.40144 
L 48.842835 -38.913393 
L 50.320998 -39.425346 
L 51.580483 -39.937299 
L 52.643064 -40.449253 
L 53.547231 -40.961206 
L 54.325778 -41.473159 
L 54.993877 -41.985112 
L 55.550642 -42.497065 
L 55.989452 -43.009018 
L 56.309217 -43.520972 
L 56.520051 -44.032925 
L 56.64135 -44.544878 
L 56.695769 -45.056831 
L 56.704851 -45.568784 
L 56.688838 -46.080737 
L 56.667956 -46.592691 
L 56.661211 -47.104644 
L 56.682929 -47.616597 
L 56.741053 -48.12855 
L 56.839304 -48.640503 
L 56.979868 -49.152456 
L 57.161922 -49.664409 
L 57.37648 -50.176363 
L 57.603499 -50.688316 
L 57.816232 -51.200269 
L 57.991204 -51.712222 
L 58.117139 -52.224175 
L 58.19729 -52.736128 
L 58.244948 -53.248082 
L 58.276095 -53.760035 
L 58.303239 -54.271988 
L 58.332209 -54.783941 
L 58.362041 -55.295894 
L 58.387569 -55.807847 
L 58.403646 -56.319801 
L 58.408833 -56.831754 
L 58.40666 -57.343707 
L 58.40437 -57.85566 
L 58.410583 -58.367613 
L 58.432832 -58.879566 
L 58.474934 -59.39152 
L 58.534625 -59.903473 
L 58.603292 -60.415426 
L 58.669242 -60.927379 
L 58.723075 -61.439332 
L 58.761403 -61.951285 
L 58.786266 -62.463238 
L 58.801505 -62.975192 
L 58.809757 -63.487145 
L 58.812298 -63.999098 
L 58.81054 -64.511051 
L 58.80656 -65.023004 
L 58.801944 -65.534957 
L 58.796784 -66.046911 
L 58.790647 -66.558864 
L 58.784759 -67.070817 
L 58.782768 -67.58277 
L 58.788696 -68.094723 
L 58.803649 -68.606676 
L 58.824272 -69.11863 
L 58.84423 -69.630583 
L 58.857416 -70.142536 
L 58.860599 -70.654489 
L 58.854273 -71.166442 
L 58.841902 -71.678395 
L 58.828338 -72.190348 
L 58.818137 -72.702302 
L 58.814305 -73.214255 
L 58.81778 -73.726208 
L 58.827571 -74.238161 
L 58.841237 -74.750114 
L 58.855501 -75.262067 
L 58.867058 -75.774021 
L 58.873565 -76.285974 
L 58.874546 -76.797927 
L 58.871675 -77.30988 
L 58.868091 -77.821833 
L 58.866927 -78.333786 
L 58.94109 -78.333786 
L 58.94109 -78.333786 
L 58.939927 -77.821833 
L 58.936343 -77.30988 
L 58.933471 -76.797927 
L 58.934452 -76.285974 
L 58.94096 -75.774021 
L 58.952516 -75.262067 
L 58.96678 -74.750114 
L 58.980446 -74.238161 
L 58.990237 -73.726208 
L 58.993712 -73.214255 
L 58.98988 -72.702302 
L 58.979679 -72.190348 
L 58.966115 -71.678395 
L 58.953744 -71.166442 
L 58.947418 -70.654489 
L 58.950602 -70.142536 
L 58.963788 -69.630583 
L 58.983745 -69.11863 
L 59.004368 -68.606676 
L 59.019321 -68.094723 
L 59.025249 -67.58277 
L 59.023258 -67.070817 
L 59.01737 -66.558864 
L 59.011234 -66.046911 
L 59.006073 -65.534957 
L 59.001457 -65.023004 
L 58.997477 -64.511051 
L 58.995719 -63.999098 
L 58.99826 -63.487145 
L 59.006512 -62.975192 
L 59.021752 -62.463238 
L 59.046614 -61.951285 
L 59.084942 -61.439332 
L 59.138775 -60.927379 
L 59.204725 -60.415426 
L 59.273393 -59.903473 
L 59.333083 -59.39152 
L 59.375185 -58.879566 
L 59.397435 -58.367613 
L 59.403647 -57.85566 
L 59.401357 -57.343707 
L 59.399184 -56.831754 
L 59.404372 -56.319801 
L 59.420448 -55.807847 
L 59.445976 -55.295894 
L 59.475808 -54.783941 
L 59.504779 -54.271988 
L 59.531923 -53.760035 
L 59.563069 -53.248082 
L 59.610727 -52.736128 
L 59.690878 -52.224175 
L 59.816814 -51.712222 
L 59.991785 -51.200269 
L 60.204518 -50.688316 
L 60.431537 -50.176363 
L 60.646095 -49.664409 
L 60.82815 -49.152456 
L 60.968713 -48.640503 
L 61.066964 -48.12855 
L 61.125088 -47.616597 
L 61.146806 -47.104644 
L 61.140062 -46.592691 
L 61.119179 -46.080737 
L 61.103167 -45.568784 
L 61.112248 -45.056831 
L 61.166667 -44.544878 
L 61.287966 -44.032925 
L 61.4988 -43.520972 
L 61.818565 -43.009018 
L 62.257375 -42.497065 
L 62.814141 -41.985112 
L 63.48224 -41.473159 
L 64.260786 -40.961206 
L 65.164954 -40.449253 
L 66.227534 -39.937299 
L 67.487019 -39.425346 
L 68.965182 -38.913393 
L 70.64584 -38.40144 
L 72.467883 -37.889487 
L 74.33527 -37.377534 
L 76.132521 -36.865581 
L 77.732125 -36.353627 
L 78.994572 -35.841674 
L 79.776503 -35.329721 
L 79.958259 -34.817768 
L 79.481213 -34.305815 
L 78.370848 -33.793862 
L 76.729866 -33.281908 
L 74.707517 -32.769955 
L 72.465005 -32.258002 
L 70.152978 -31.746049 
L 67.903739 -31.234096 
L 65.830264 -30.722143 
L 64.022287 -30.210189 
L 62.536408 -29.698236 
L 61.386538 -29.186283 
L 60.5446 -28.67433 
L 59.954842 -28.162377 
L 59.554495 -27.650424 
z
" style="stroke: #000000; stroke-opacity: 0.85; stroke-width: 0.4"/>
    </defs>
    <g clip-path="url(#pd67b606315)">
     <use xlink:href="#m81009ba405" x="0" y="187.086614" style="fill: #d79b00; fill-opacity: 0.85; stroke: #000000; stroke-opacity: 0.85; stroke-width: 0.4"/>
    </g>
   </g>
   <g id="FillBetweenPolyCollection_2">
    <defs>
     <path id="m3d990bb152" d="M 123.491979 -30.967948 
L 99.587288 -30.967948 
L 97.998265 -31.209495 
L 96.457316 -31.451042 
L 95.015452 -31.692589 
L 93.720474 -31.934136 
L 92.613323 -32.175683 
L 91.724852 -32.41723 
L 91.073376 -32.658777 
L 90.663352 -32.900323 
L 90.485384 -33.14187 
L 90.517617 -33.383417 
L 90.728426 -33.624964 
L 91.080066 -33.866511 
L 91.532855 -34.108058 
L 92.049333 -34.349605 
L 92.597842 -34.591152 
L 93.155077 -34.832699 
L 93.707292 -35.074245 
L 94.250079 -35.315792 
L 94.786858 -35.557339 
L 95.326388 -35.798886 
L 95.879788 -36.040433 
L 96.457563 -36.28198 
L 97.067131 -36.523527 
L 97.711197 -36.765074 
L 98.387192 -37.006621 
L 99.08774 -37.248168 
L 99.801981 -37.489714 
L 100.517407 -37.731261 
L 101.221809 -37.972808 
L 101.904958 -38.214355 
L 102.559738 -38.455902 
L 103.182558 -38.697449 
L 103.773082 -38.938996 
L 104.333404 -39.180543 
L 104.866915 -39.42209 
L 105.377117 -39.663636 
L 105.866643 -39.905183 
L 106.336622 -40.14673 
L 106.786486 -40.388277 
L 107.214185 -40.629824 
L 107.616728 -40.871371 
L 107.990906 -41.112918 
L 108.334053 -41.354465 
L 108.644684 -41.596012 
L 108.922921 -41.837558 
L 109.170617 -42.079105 
L 109.391188 -42.320652 
L 109.589174 -42.562199 
L 109.769635 -42.803746 
L 109.937474 -43.045293 
L 110.096827 -43.28684 
L 110.250609 -43.528387 
L 110.400294 -43.769934 
L 110.545936 -44.011481 
L 110.686417 -44.253027 
L 110.81984 -44.494574 
L 110.943994 -44.736121 
L 111.056796 -44.977668 
L 111.156641 -45.219215 
L 111.242619 -45.460762 
L 111.314589 -45.702309 
L 111.373128 -45.943856 
L 111.419385 -46.185403 
L 111.454895 -46.426949 
L 111.481381 -46.668496 
L 111.500576 -46.910043 
L 111.514096 -47.15159 
L 111.523352 -47.393137 
L 111.529511 -47.634684 
L 111.533494 -47.876231 
L 111.535994 -48.117778 
L 111.537511 -48.359325 
L 111.538389 -48.600872 
L 111.538848 -48.842418 
L 111.539016 -49.083965 
L 111.538944 -49.325512 
L 111.53862 -49.567059 
L 111.537965 -49.808606 
L 111.536831 -50.050153 
L 111.534984 -50.2917 
L 111.532091 -50.533247 
L 111.527701 -50.774794 
L 111.521239 -51.01634 
L 111.51201 -51.257887 
L 111.499223 -51.499434 
L 111.482047 -51.740981 
L 111.459696 -51.982528 
L 111.431543 -52.224075 
L 111.397261 -52.465622 
L 111.356961 -52.707169 
L 111.311323 -52.948716 
L 111.261673 -53.190263 
L 111.209988 -53.431809 
L 111.158817 -53.673356 
L 111.111094 -53.914903 
L 111.069879 -54.15645 
L 111.038034 -54.397997 
L 111.0179 -54.639544 
L 111.011011 -54.881091 
L 112.068256 -54.881091 
L 112.068256 -54.881091 
L 112.061367 -54.639544 
L 112.041233 -54.397997 
L 112.009388 -54.15645 
L 111.968173 -53.914903 
L 111.92045 -53.673356 
L 111.869279 -53.431809 
L 111.817594 -53.190263 
L 111.767944 -52.948716 
L 111.722306 -52.707169 
L 111.682006 -52.465622 
L 111.647724 -52.224075 
L 111.619571 -51.982528 
L 111.59722 -51.740981 
L 111.580044 -51.499434 
L 111.567257 -51.257887 
L 111.558028 -51.01634 
L 111.551566 -50.774794 
L 111.547176 -50.533247 
L 111.544283 -50.2917 
L 111.542436 -50.050153 
L 111.541302 -49.808606 
L 111.540647 -49.567059 
L 111.540323 -49.325512 
L 111.540251 -49.083965 
L 111.540419 -48.842418 
L 111.540878 -48.600872 
L 111.541756 -48.359325 
L 111.543273 -48.117778 
L 111.545773 -47.876231 
L 111.549756 -47.634684 
L 111.555915 -47.393137 
L 111.565171 -47.15159 
L 111.578691 -46.910043 
L 111.597886 -46.668496 
L 111.624372 -46.426949 
L 111.659882 -46.185403 
L 111.706139 -45.943856 
L 111.764678 -45.702309 
L 111.836648 -45.460762 
L 111.922626 -45.219215 
L 112.022471 -44.977668 
L 112.135273 -44.736121 
L 112.259427 -44.494574 
L 112.39285 -44.253027 
L 112.53333 -44.011481 
L 112.678973 -43.769934 
L 112.828658 -43.528387 
L 112.98244 -43.28684 
L 113.141792 -43.045293 
L 113.309631 -42.803746 
L 113.490093 -42.562199 
L 113.688079 -42.320652 
L 113.90865 -42.079105 
L 114.156346 -41.837558 
L 114.434583 -41.596012 
L 114.745214 -41.354465 
L 115.08836 -41.112918 
L 115.462539 -40.871371 
L 115.865081 -40.629824 
L 116.292781 -40.388277 
L 116.742645 -40.14673 
L 117.212624 -39.905183 
L 117.70215 -39.663636 
L 118.212352 -39.42209 
L 118.745863 -39.180543 
L 119.306185 -38.938996 
L 119.896709 -38.697449 
L 120.519529 -38.455902 
L 121.174309 -38.214355 
L 121.857458 -37.972808 
L 122.561859 -37.731261 
L 123.277285 -37.489714 
L 123.991527 -37.248168 
L 124.692075 -37.006621 
L 125.36807 -36.765074 
L 126.012136 -36.523527 
L 126.621703 -36.28198 
L 127.199479 -36.040433 
L 127.752879 -35.798886 
L 128.292409 -35.557339 
L 128.829187 -35.315792 
L 129.371975 -35.074245 
L 129.92419 -34.832699 
L 130.481425 -34.591152 
L 131.029934 -34.349605 
L 131.546412 -34.108058 
L 131.999201 -33.866511 
L 132.350841 -33.624964 
L 132.56165 -33.383417 
L 132.593883 -33.14187 
L 132.415915 -32.900323 
L 132.005891 -32.658777 
L 131.354415 -32.41723 
L 130.465943 -32.175683 
L 129.358793 -31.934136 
L 128.063815 -31.692589 
L 126.621951 -31.451042 
L 125.081002 -31.209495 
L 123.491979 -30.967948 
z
" style="stroke: #000000; stroke-opacity: 0.85; stroke-width: 0.4"/>
    </defs>
    <g clip-path="url(#pd67b606315)">
     <use xlink:href="#m3d990bb152" x="0" y="187.086614" style="fill: #9673a6; fill-opacity: 0.85; stroke: #000000; stroke-opacity: 0.85; stroke-width: 0.4"/>
    </g>
   </g>
   <g id="FillBetweenPolyCollection_3">
    <defs>
     <path id="m5b8b151fdf" d="M 172.275786 -31.099641 
L 156.07473 -31.099641 
L 155.290122 -31.368094 
L 154.479572 -31.636547 
L 153.648336 -31.905001 
L 152.802297 -32.173454 
L 151.947922 -32.441908 
L 151.092192 -32.710361 
L 150.242523 -32.978814 
L 149.406665 -33.247268 
L 148.592593 -33.515721 
L 147.808372 -33.784175 
L 147.062022 -34.052628 
L 146.361372 -34.321081 
L 145.713902 -34.589535 
L 145.126596 -34.857988 
L 144.605793 -35.126442 
L 144.157056 -35.394895 
L 143.785046 -35.663348 
L 143.493424 -35.931802 
L 143.284773 -36.200255 
L 143.160539 -36.468708 
L 143.121008 -36.737162 
L 143.165301 -37.005615 
L 143.2914 -37.274069 
L 143.496199 -37.542522 
L 143.775572 -37.810975 
L 144.124472 -38.079429 
L 144.537039 -38.347882 
L 145.006726 -38.616336 
L 145.526436 -38.884789 
L 146.088667 -39.153242 
L 146.685666 -39.421696 
L 147.309576 -39.690149 
L 147.952588 -39.958603 
L 148.607085 -40.227056 
L 149.26578 -40.495509 
L 149.921837 -40.763963 
L 150.568986 -41.032416 
L 151.201613 -41.30087 
L 151.81484 -41.569323 
L 152.40458 -41.837776 
L 152.96757 -42.10623 
L 153.501391 -42.374683 
L 154.004457 -42.643137 
L 154.475993 -42.91159 
L 154.915987 -43.180043 
L 155.325131 -43.448497 
L 155.704744 -43.71695 
L 156.056676 -43.985404 
L 156.383218 -44.253857 
L 156.686983 -44.52231 
L 156.970802 -44.790764 
L 157.237604 -45.059217 
L 157.490307 -45.327671 
L 157.731708 -45.596124 
L 157.964388 -45.864577 
L 158.190622 -46.133031 
L 158.412309 -46.401484 
L 158.630918 -46.669938 
L 158.847458 -46.938391 
L 159.062457 -47.206844 
L 159.27598 -47.475298 
L 159.487654 -47.743751 
L 159.696719 -48.012205 
L 159.902096 -48.280658 
L 160.102461 -48.549111 
L 160.296337 -48.817565 
L 160.482182 -49.086018 
L 160.658478 -49.354471 
L 160.823817 -49.622925 
L 160.976967 -49.891378 
L 161.116932 -50.159832 
L 161.242993 -50.428285 
L 161.354732 -50.696738 
L 161.452032 -50.965192 
L 161.535071 -51.233645 
L 161.604294 -51.502099 
L 161.660384 -51.770552 
L 161.704216 -52.039005 
L 161.736817 -52.307459 
L 161.759326 -52.575912 
L 161.772961 -52.844366 
L 161.778986 -53.112819 
L 161.778694 -53.381272 
L 161.773395 -53.649726 
L 161.764415 -53.918179 
L 161.753092 -54.186633 
L 161.740782 -54.455086 
L 161.728861 -54.723539 
L 161.718724 -54.991993 
L 161.711775 -55.260446 
L 161.709413 -55.5289 
L 161.713003 -55.797353 
L 161.723846 -56.065806 
L 161.743129 -56.33426 
L 161.771888 -56.602713 
L 161.810949 -56.871167 
L 161.860893 -57.13962 
L 161.922006 -57.408073 
L 161.99426 -57.676527 
L 166.356256 -57.676527 
L 166.356256 -57.676527 
L 166.428511 -57.408073 
L 166.489624 -57.13962 
L 166.539567 -56.871167 
L 166.578629 -56.602713 
L 166.607387 -56.33426 
L 166.626671 -56.065806 
L 166.637513 -55.797353 
L 166.641104 -55.5289 
L 166.638741 -55.260446 
L 166.631793 -54.991993 
L 166.621655 -54.723539 
L 166.609735 -54.455086 
L 166.597424 -54.186633 
L 166.586101 -53.918179 
L 166.577121 -53.649726 
L 166.571823 -53.381272 
L 166.571531 -53.112819 
L 166.577555 -52.844366 
L 166.59119 -52.575912 
L 166.6137 -52.307459 
L 166.646301 -52.039005 
L 166.690132 -51.770552 
L 166.746222 -51.502099 
L 166.815446 -51.233645 
L 166.898485 -50.965192 
L 166.995784 -50.696738 
L 167.107523 -50.428285 
L 167.233585 -50.159832 
L 167.37355 -49.891378 
L 167.5267 -49.622925 
L 167.692038 -49.354471 
L 167.868335 -49.086018 
L 168.05418 -48.817565 
L 168.248055 -48.549111 
L 168.448421 -48.280658 
L 168.653797 -48.012205 
L 168.862863 -47.743751 
L 169.074537 -47.475298 
L 169.28806 -47.206844 
L 169.503059 -46.938391 
L 169.719598 -46.669938 
L 169.938208 -46.401484 
L 170.159895 -46.133031 
L 170.386128 -45.864577 
L 170.618808 -45.596124 
L 170.86021 -45.327671 
L 171.112913 -45.059217 
L 171.379715 -44.790764 
L 171.663534 -44.52231 
L 171.967299 -44.253857 
L 172.29384 -43.985404 
L 172.645773 -43.71695 
L 173.025385 -43.448497 
L 173.43453 -43.180043 
L 173.874524 -42.91159 
L 174.346059 -42.643137 
L 174.849126 -42.374683 
L 175.382946 -42.10623 
L 175.945937 -41.837776 
L 176.535676 -41.569323 
L 177.148903 -41.30087 
L 177.781531 -41.032416 
L 178.428679 -40.763963 
L 179.084736 -40.495509 
L 179.743431 -40.227056 
L 180.397929 -39.958603 
L 181.040941 -39.690149 
L 181.66485 -39.421696 
L 182.261849 -39.153242 
L 182.824081 -38.884789 
L 183.34379 -38.616336 
L 183.813477 -38.347882 
L 184.226044 -38.079429 
L 184.574945 -37.810975 
L 184.854318 -37.542522 
L 185.059116 -37.274069 
L 185.185215 -37.005615 
L 185.229508 -36.737162 
L 185.189977 -36.468708 
L 185.065744 -36.200255 
L 184.857092 -35.931802 
L 184.565471 -35.663348 
L 184.193461 -35.394895 
L 183.744724 -35.126442 
L 183.223921 -34.857988 
L 182.636614 -34.589535 
L 181.989144 -34.321081 
L 181.288494 -34.052628 
L 180.542145 -33.784175 
L 179.757924 -33.515721 
L 178.943851 -33.247268 
L 178.107994 -32.978814 
L 177.258325 -32.710361 
L 176.402595 -32.441908 
L 175.54822 -32.173454 
L 174.702181 -31.905001 
L 173.870944 -31.636547 
L 173.060395 -31.368094 
L 172.275786 -31.099641 
z
" style="stroke: #000000; stroke-opacity: 0.85; stroke-width: 0.4"/>
    </defs>
    <g clip-path="url(#pd67b606315)">
     <use xlink:href="#m5b8b151fdf" x="0" y="187.086614" style="fill: #d6b656; fill-opacity: 0.85; stroke: #000000; stroke-opacity: 0.85; stroke-width: 0.4"/>
    </g>
   </g>
   <g id="FillBetweenPolyCollection_4">
    <defs>
     <path id="mef816899b6" d="M 217.290617 -49.394806 
L 216.331149 -49.394806 
L 216.065379 -50.513473 
L 215.653567 -51.63214 
L 215.032925 -52.750808 
L 214.139943 -53.869475 
L 212.928463 -54.988142 
L 211.389875 -56.106809 
L 209.566534 -57.225476 
L 207.549521 -58.344143 
L 205.458567 -59.46281 
L 203.412619 -60.581477 
L 201.506433 -61.700144 
L 199.804772 -62.818811 
L 198.352937 -63.937478 
L 197.190762 -65.056145 
L 196.356625 -66.174812 
L 195.878056 -67.29348 
L 195.756633 -68.412147 
L 195.958384 -69.530814 
L 196.416388 -70.649481 
L 197.045212 -71.768148 
L 197.761854 -72.886815 
L 198.505658 -74.005482 
L 199.249781 -75.124149 
L 199.999407 -76.242816 
L 200.777408 -77.361483 
L 201.604429 -78.48015 
L 202.48348 -79.598817 
L 203.396393 -80.717484 
L 204.312287 -81.836151 
L 205.201302 -82.954819 
L 206.044854 -84.073486 
L 206.837553 -85.192153 
L 207.582071 -86.31082 
L 208.282207 -87.429487 
L 208.938958 -88.548154 
L 209.550896 -89.666821 
L 210.117001 -90.785488 
L 210.639127 -91.904155 
L 211.122455 -93.022822 
L 211.573831 -94.141489 
L 211.998938 -95.260156 
L 212.399753 -96.378823 
L 212.773927 -97.497491 
L 213.117057 -98.616158 
L 213.426951 -99.734825 
L 213.707118 -100.853492 
L 213.966716 -101.972159 
L 214.216552 -103.090826 
L 214.463625 -104.209493 
L 214.707574 -105.32816 
L 214.94084 -106.446827 
L 215.151889 -107.565494 
L 215.329546 -108.684161 
L 215.466708 -109.802828 
L 215.562575 -110.921495 
L 215.62319 -112.040163 
L 215.66035 -113.15883 
L 215.689135 -114.277497 
L 215.724399 -115.396164 
L 215.776842 -116.514831 
L 215.849696 -117.633498 
L 215.937532 -118.752165 
L 216.028465 -119.870832 
L 216.109554 -120.989499 
L 216.173009 -122.108166 
L 216.219828 -123.226833 
L 216.2587 -124.3455 
L 216.300982 -125.464167 
L 216.354884 -126.582835 
L 216.42206 -127.701502 
L 216.497882 -128.820169 
L 216.574361 -129.938836 
L 216.64366 -131.057503 
L 216.700521 -132.17617 
L 216.743042 -133.294837 
L 216.772135 -134.413504 
L 216.790376 -135.532171 
L 216.800857 -136.650838 
L 216.806368 -137.769505 
L 216.809016 -138.888172 
L 216.810176 -140.006839 
L 216.810638 -141.125506 
L 216.810804 -142.244174 
L 216.810853 -143.362841 
L 216.810847 -144.481508 
L 216.810778 -145.600175 
L 216.810562 -146.718842 
L 216.809984 -147.837509 
L 216.808592 -148.956176 
L 216.80558 -150.074843 
L 216.799734 -151.19351 
L 216.789584 -152.312177 
L 216.773904 -153.430844 
L 216.752522 -154.549511 
L 216.727139 -155.668178 
L 216.70161 -156.786846 
L 216.68121 -157.905513 
L 216.670922 -159.02418 
L 216.673481 -160.142847 
L 216.948286 -160.142847 
L 216.948286 -160.142847 
L 216.950844 -159.02418 
L 216.940557 -157.905513 
L 216.920156 -156.786846 
L 216.894627 -155.668178 
L 216.869244 -154.549511 
L 216.847862 -153.430844 
L 216.832182 -152.312177 
L 216.822032 -151.19351 
L 216.816186 -150.074843 
L 216.813174 -148.956176 
L 216.811782 -147.837509 
L 216.811204 -146.718842 
L 216.810988 -145.600175 
L 216.810919 -144.481508 
L 216.810913 -143.362841 
L 216.810962 -142.244174 
L 216.811128 -141.125506 
L 216.81159 -140.006839 
L 216.81275 -138.888172 
L 216.815398 -137.769505 
L 216.820909 -136.650838 
L 216.83139 -135.532171 
L 216.849632 -134.413504 
L 216.878724 -133.294837 
L 216.921245 -132.17617 
L 216.978107 -131.057503 
L 217.047405 -129.938836 
L 217.123884 -128.820169 
L 217.199706 -127.701502 
L 217.266883 -126.582835 
L 217.320784 -125.464167 
L 217.363066 -124.3455 
L 217.401938 -123.226833 
L 217.448757 -122.108166 
L 217.512212 -120.989499 
L 217.593301 -119.870832 
L 217.684234 -118.752165 
L 217.77207 -117.633498 
L 217.844924 -116.514831 
L 217.897367 -115.396164 
L 217.932631 -114.277497 
L 217.961416 -113.15883 
L 217.998576 -112.040163 
L 218.059191 -110.921495 
L 218.155059 -109.802828 
L 218.29222 -108.684161 
L 218.469877 -107.565494 
L 218.680926 -106.446827 
L 218.914192 -105.32816 
L 219.158141 -104.209493 
L 219.405214 -103.090826 
L 219.65505 -101.972159 
L 219.914648 -100.853492 
L 220.194815 -99.734825 
L 220.50471 -98.616158 
L 220.847839 -97.497491 
L 221.222013 -96.378823 
L 221.622828 -95.260156 
L 222.047935 -94.141489 
L 222.499311 -93.022822 
L 222.982639 -91.904155 
L 223.504766 -90.785488 
L 224.070871 -89.666821 
L 224.682809 -88.548154 
L 225.339559 -87.429487 
L 226.039695 -86.31082 
L 226.784213 -85.192153 
L 227.576912 -84.073486 
L 228.420464 -82.954819 
L 229.309479 -81.836151 
L 230.225374 -80.717484 
L 231.138286 -79.598817 
L 232.017337 -78.48015 
L 232.844358 -77.361483 
L 233.622359 -76.242816 
L 234.371985 -75.124149 
L 235.116108 -74.005482 
L 235.859913 -72.886815 
L 236.576554 -71.768148 
L 237.205378 -70.649481 
L 237.663382 -69.530814 
L 237.865133 -68.412147 
L 237.74371 -67.29348 
L 237.265142 -66.174812 
L 236.431004 -65.056145 
L 235.268829 -63.937478 
L 233.816994 -62.818811 
L 232.115333 -61.700144 
L 230.209147 -60.581477 
L 228.163199 -59.46281 
L 226.072245 -58.344143 
L 224.055232 -57.225476 
L 222.231891 -56.106809 
L 220.693303 -54.988142 
L 219.481823 -53.869475 
L 218.588841 -52.750808 
L 217.968199 -51.63214 
L 217.556387 -50.513473 
L 217.290617 -49.394806 
z
" style="stroke: #000000; stroke-opacity: 0.85; stroke-width: 0.4"/>
    </defs>
    <g clip-path="url(#pd67b606315)">
     <use xlink:href="#mef816899b6" x="0" y="187.086614" style="fill: #b85450; fill-opacity: 0.85; stroke: #000000; stroke-opacity: 0.85; stroke-width: 0.4"/>
    </g>
   </g>
   <g id="LineCollection_1">
    <path d="M 48.376884 151.398247 
L 69.431134 151.398247 
" clip-path="url(#pd67b606315)" style="fill: none; stroke: #000000; stroke-width: 0.8"/>
    <path d="M 101.012508 152.593186 
L 122.066758 152.593186 
" clip-path="url(#pd67b606315)" style="fill: none; stroke: #000000; stroke-width: 0.8"/>
    <path d="M 153.648133 149.375573 
L 174.702383 149.375573 
" clip-path="url(#pd67b606315)" style="fill: none; stroke: #000000; stroke-width: 0.8"/>
    <path d="M 206.283758 114.014243 
L 227.338008 114.014243 
" clip-path="url(#pd67b606315)" style="fill: none; stroke: #000000; stroke-width: 0.8"/>
   </g>
   <g id="patch_3">
    <path d="M 27.84899 166.060812 
L 27.84899 20.319146 
" style="fill: none; stroke: #000000; stroke-width: 0.5; stroke-linejoin: miter; stroke-linecap: square"/>
   </g>
   <g id="patch_4">
    <path d="M 247.865902 166.060812 
L 247.865902 20.319146 
" style="fill: none; stroke: #000000; stroke-width: 0.5; stroke-linejoin: miter; stroke-linecap: square"/>
   </g>
   <g id="patch_5">
    <path d="M 27.84899 166.060812 
L 247.865902 166.060812 
" style="fill: none; stroke: #000000; stroke-width: 0.5; stroke-linejoin: miter; stroke-linecap: square"/>
   </g>
   <g id="patch_6">
    <path d="M 27.84899 20.319146 
L 247.865902 20.319146 
" style="fill: none; stroke: #000000; stroke-width: 0.5; stroke-linejoin: miter; stroke-linecap: square"/>
   </g>
   <g id="text_15">
    <text style="font-size: 7px; font-family: 'Arial', 'Helvetica', 'DejaVu Sans', sans-serif; text-anchor: start" x="27.84899" y="8.319146" transform="rotate(-0 27.84899 8.319146)">How much each strain's transcriptome moves</text>
   </g>
  </g>
 </g>
 <defs>
  <clipPath id="pd67b606315">
   <rect x="27.84899" y="20.319146" width="220.016912" height="145.741665"/>
  </clipPath>
 </defs>
</g></svg>
