<?xml version="1.0" encoding="utf-8" standalone="no"?>
<!DOCTYPE svg PUBLIC "-//W3C//DTD SVG 1.1//EN"
  "http://www.w3.org/Graphics/SVG/1.1/DTD/svg11.dtd">
<svg xmlns:xlink="http://www.w3.org/1999/xlink" width="704.7244" height="281.1024" viewBox="0 0 704.7244 281.1024" xmlns="http://www.w3.org/2000/svg" version="1.1"><g transform="scale(1.3888888889)">
 <metadata>
  <rdf:RDF xmlns:dc="http://purl.org/dc/elements/1.1/" xmlns:cc="http://creativecommons.org/ns#" xmlns:rdf="http://www.w3.org/1999/02/22-rdf-syntax-ns#">
   <cc:Work>
    <dc:type rdf:resource="http://purl.org/dc/dcmitype/StillImage"/>
    <dc:date>2026-07-17T10:36:34.212975</dc:date>
    <dc:format>image/svg+xml</dc:format>
    <dc:creator>
     <cc:Agent>
      <dc:title>Matplotlib v3.10.7, https://matplotlib.org/</dc:title>
     </cc:Agent>
    </dc:creator>
   </cc:Work>
  </rdf:RDF>
 </metadata>
 <defs>
  <style type="text/css">*{stroke-linejoin: round; stroke-linecap: butt}</style>
 </defs>
 <g id="figure_1">
  <g id="patch_1">
   <path d="M 0 202.393701 
L 507.401575 202.393701 
L 507.401575 0 
L 0 0 
z
" style="fill: #ffffff"/>
  </g>
  <g id="axes_1">
   <g id="patch_2">
    <path d="M 27.84899 178.279711 
L 504.401335 178.279711 
L 504.401335 20.319146 
L 27.84899 20.319146 
z
" style="fill: #ffffff"/>
   </g>
   <g id="matplotlib.axis_1">
    <g id="xtick_1">
     <g id="line2d_1">
      <path d="M 73.757285 178.279711 
L 73.757285 20.319146 
" clip-path="url(#pea09eb27b2)" style="fill: none; stroke: #4a4a4a; stroke-opacity: 0.15; stroke-width: 0.4; stroke-linecap: square"/>
     </g>
     <g id="line2d_2">
      <defs>
       <path id="mf5f237dfa7" d="M 0 0 
L 0 2 
" style="stroke: #000000; stroke-width: 0.5"/>
      </defs>
      <g>
       <use xlink:href="#mf5f237dfa7" x="73.757285" y="178.279711" style="stroke: #000000; stroke-width: 0.5"/>
      </g>
     </g>
     <g id="text_1">
      <text style="font-size: 6px; font-family: 'Arial', 'Helvetica', 'DejaVu Sans', sans-serif; text-anchor: middle" x="73.757285" y="188.338773" transform="rotate(-0 73.757285 188.338773)">−1400</text>
     </g>
    </g>
    <g id="xtick_2">
     <g id="line2d_3">
      <path d="M 132.183367 178.279711 
L 132.183367 20.319146 
" clip-path="url(#pea09eb27b2)" style="fill: none; stroke: #4a4a4a; stroke-opacity: 0.15; stroke-width: 0.4; stroke-linecap: square"/>
     </g>
     <g id="line2d_4">
      <g>
       <use xlink:href="#mf5f237dfa7" x="132.183367" y="178.279711" style="stroke: #000000; stroke-width: 0.5"/>
      </g>
     </g>
     <g id="text_2">
      <text style="font-size: 6px; font-family: 'Arial', 'Helvetica', 'DejaVu Sans', sans-serif; text-anchor: middle" x="132.183367" y="188.338773" transform="rotate(-0 132.183367 188.338773)">−1200</text>
     </g>
    </g>
    <g id="xtick_3">
     <g id="line2d_5">
      <path d="M 190.60945 178.279711 
L 190.60945 20.319146 
" clip-path="url(#pea09eb27b2)" style="fill: none; stroke: #4a4a4a; stroke-opacity: 0.15; stroke-width: 0.4; stroke-linecap: square"/>
     </g>
     <g id="line2d_6">
      <g>
       <use xlink:href="#mf5f237dfa7" x="190.60945" y="178.279711" style="stroke: #000000; stroke-width: 0.5"/>
      </g>
     </g>
     <g id="text_3">
      <text style="font-size: 6px; font-family: 'Arial', 'Helvetica', 'DejaVu Sans', sans-serif; text-anchor: middle" x="190.60945" y="188.338773" transform="rotate(-0 190.60945 188.338773)">−1000</text>
     </g>
    </g>
    <g id="xtick_4">
     <g id="line2d_7">
      <path d="M 249.035533 178.279711 
L 249.035533 20.319146 
" clip-path="url(#pea09eb27b2)" style="fill: none; stroke: #4a4a4a; stroke-opacity: 0.15; stroke-width: 0.4; stroke-linecap: square"/>
     </g>
     <g id="line2d_8">
      <g>
       <use xlink:href="#mf5f237dfa7" x="249.035533" y="178.279711" style="stroke: #000000; stroke-width: 0.5"/>
      </g>
     </g>
     <g id="text_4">
      <text style="font-size: 6px; font-family: 'Arial', 'Helvetica', 'DejaVu Sans', sans-serif; text-anchor: middle" x="249.035533" y="188.338773" transform="rotate(-0 249.035533 188.338773)">−800</text>
     </g>
    </g>
    <g id="xtick_5">
     <g id="line2d_9">
      <path d="M 307.461616 178.279711 
L 307.461616 20.319146 
" clip-path="url(#pea09eb27b2)" style="fill: none; stroke: #4a4a4a; stroke-opacity: 0.15; stroke-width: 0.4; stroke-linecap: square"/>
     </g>
     <g id="line2d_10">
      <g>
       <use xlink:href="#mf5f237dfa7" x="307.461616" y="178.279711" style="stroke: #000000; stroke-width: 0.5"/>
      </g>
     </g>
     <g id="text_5">
      <text style="font-size: 6px; font-family: 'Arial', 'Helvetica', 'DejaVu Sans', sans-serif; text-anchor: middle" x="307.461616" y="188.338773" transform="rotate(-0 307.461616 188.338773)">−600</text>
     </g>
    </g>
    <g id="xtick_6">
     <g id="line2d_11">
      <path d="M 365.887699 178.279711 
L 365.887699 20.319146 
" clip-path="url(#pea09eb27b2)" style="fill: none; stroke: #4a4a4a; stroke-opacity: 0.15; stroke-width: 0.4; stroke-linecap: square"/>
     </g>
     <g id="line2d_12">
      <g>
       <use xlink:href="#mf5f237dfa7" x="365.887699" y="178.279711" style="stroke: #000000; stroke-width: 0.5"/>
      </g>
     </g>
     <g id="text_6">
      <text style="font-size: 6px; font-family: 'Arial', 'Helvetica', 'DejaVu Sans', sans-serif; text-anchor: middle" x="365.887699" y="188.338773" transform="rotate(-0 365.887699 188.338773)">−400</text>
     </g>
    </g>
    <g id="xtick_7">
     <g id="line2d_13">
      <path d="M 424.313782 178.279711 
L 424.313782 20.319146 
" clip-path="url(#pea09eb27b2)" style="fill: none; stroke: #4a4a4a; stroke-opacity: 0.15; stroke-width: 0.4; stroke-linecap: square"/>
     </g>
     <g id="line2d_14">
      <g>
       <use xlink:href="#mf5f237dfa7" x="424.313782" y="178.279711" style="stroke: #000000; stroke-width: 0.5"/>
      </g>
     </g>
     <g id="text_7">
      <text style="font-size: 6px; font-family: 'Arial', 'Helvetica', 'DejaVu Sans', sans-serif; text-anchor: middle" x="424.313782" y="188.338773" transform="rotate(-0 424.313782 188.338773)">−200</text>
     </g>
    </g>
    <g id="xtick_8">
     <g id="line2d_15">
      <path d="M 482.739865 178.279711 
L 482.739865 20.319146 
" clip-path="url(#pea09eb27b2)" style="fill: none; stroke: #4a4a4a; stroke-opacity: 0.15; stroke-width: 0.4; stroke-linecap: square"/>
     </g>
     <g id="line2d_16">
      <g>
       <use xlink:href="#mf5f237dfa7" x="482.739865" y="178.279711" style="stroke: #000000; stroke-width: 0.5"/>
      </g>
     </g>
     <g id="text_8">
      <text style="font-size: 6px; font-family: 'Arial', 'Helvetica', 'DejaVu Sans', sans-serif; text-anchor: middle" x="482.739865" y="188.338773" transform="rotate(-0 482.739865 188.338773)">0</text>
     </g>
    </g>
    <g id="text_9">
     <text style="font-size: 6px; font-family: 'Arial', 'Helvetica', 'DejaVu Sans', sans-serif; text-anchor: middle" x="266.125162" y="198.145648" transform="rotate(-0 266.125162 198.145648)">strains ranked by spread, right-aligned at the highest-variance strain (x = 0)</text>
    </g>
   </g>
   <g id="matplotlib.axis_2">
    <g id="ytick_1">
     <g id="line2d_17">
      <path d="M 27.84899 177.609259 
L 504.401335 177.609259 
" clip-path="url(#pea09eb27b2)" style="fill: none; stroke: #4a4a4a; stroke-opacity: 0.15; stroke-width: 0.4; stroke-linecap: square"/>
     </g>
     <g id="line2d_18">
      <defs>
       <path id="mbcab12c2d0" d="M 0 0 
L -2 0 
" style="stroke: #000000; stroke-width: 0.5"/>
      </defs>
      <g>
       <use xlink:href="#mbcab12c2d0" x="27.84899" y="177.609259" style="stroke: #000000; stroke-width: 0.5"/>
      </g>
     </g>
     <g id="text_10">
      <text style="font-size: 6px; font-family: 'Arial', 'Helvetica', 'DejaVu Sans', sans-serif; text-anchor: end" x="22.34899" y="179.88879" transform="rotate(-0 22.34899 179.88879)">0.0</text>
     </g>
    </g>
    <g id="ytick_2">
     <g id="line2d_19">
      <path d="M 27.84899 157.993214 
L 504.401335 157.993214 
" clip-path="url(#pea09eb27b2)" style="fill: none; stroke: #4a4a4a; stroke-opacity: 0.15; stroke-width: 0.4; stroke-linecap: square"/>
     </g>
     <g id="line2d_20">
      <g>
       <use xlink:href="#mbcab12c2d0" x="27.84899" y="157.993214" style="stroke: #000000; stroke-width: 0.5"/>
      </g>
     </g>
     <g id="text_11">
      <text style="font-size: 6px; font-family: 'Arial', 'Helvetica', 'DejaVu Sans', sans-serif; text-anchor: end" x="22.34899" y="160.272746" transform="rotate(-0 22.34899 160.272746)">0.2</text>
     </g>
    </g>
    <g id="ytick_3">
     <g id="line2d_21">
      <path d="M 27.84899 138.377169 
L 504.401335 138.377169 
" clip-path="url(#pea09eb27b2)" style="fill: none; stroke: #4a4a4a; stroke-opacity: 0.15; stroke-width: 0.4; stroke-linecap: square"/>
     </g>
     <g id="line2d_22">
      <g>
       <use xlink:href="#mbcab12c2d0" x="27.84899" y="138.377169" style="stroke: #000000; stroke-width: 0.5"/>
      </g>
     </g>
     <g id="text_12">
      <text style="font-size: 6px; font-family: 'Arial', 'Helvetica', 'DejaVu Sans', sans-serif; text-anchor: end" x="22.34899" y="140.656701" transform="rotate(-0 22.34899 140.656701)">0.4</text>
     </g>
    </g>
    <g id="ytick_4">
     <g id="line2d_23">
      <path d="M 27.84899 118.761125 
L 504.401335 118.761125 
" clip-path="url(#pea09eb27b2)" style="fill: none; stroke: #4a4a4a; stroke-opacity: 0.15; stroke-width: 0.4; stroke-linecap: square"/>
     </g>
     <g id="line2d_24">
      <g>
       <use xlink:href="#mbcab12c2d0" x="27.84899" y="118.761125" style="stroke: #000000; stroke-width: 0.5"/>
      </g>
     </g>
     <g id="text_13">
      <text style="font-size: 6px; font-family: 'Arial', 'Helvetica', 'DejaVu Sans', sans-serif; text-anchor: end" x="22.34899" y="121.040656" transform="rotate(-0 22.34899 121.040656)">0.6</text>
     </g>
    </g>
    <g id="ytick_5">
     <g id="line2d_25">
      <path d="M 27.84899 99.14508 
L 504.401335 99.14508 
" clip-path="url(#pea09eb27b2)" style="fill: none; stroke: #4a4a4a; stroke-opacity: 0.15; stroke-width: 0.4; stroke-linecap: square"/>
     </g>
     <g id="line2d_26">
      <g>
       <use xlink:href="#mbcab12c2d0" x="27.84899" y="99.14508" style="stroke: #000000; stroke-width: 0.5"/>
      </g>
     </g>
     <g id="text_14">
      <text style="font-size: 6px; font-family: 'Arial', 'Helvetica', 'DejaVu Sans', sans-serif; text-anchor: end" x="22.34899" y="101.424611" transform="rotate(-0 22.34899 101.424611)">0.8</text>
     </g>
    </g>
    <g id="ytick_6">
     <g id="line2d_27">
      <path d="M 27.84899 79.529035 
L 504.401335 79.529035 
" clip-path="url(#pea09eb27b2)" style="fill: none; stroke: #4a4a4a; stroke-opacity: 0.15; stroke-width: 0.4; stroke-linecap: square"/>
     </g>
     <g id="line2d_28">
      <g>
       <use xlink:href="#mbcab12c2d0" x="27.84899" y="79.529035" style="stroke: #000000; stroke-width: 0.5"/>
      </g>
     </g>
     <g id="text_15">
      <text style="font-size: 6px; font-family: 'Arial', 'Helvetica', 'DejaVu Sans', sans-serif; text-anchor: end" x="22.34899" y="81.808566" transform="rotate(-0 22.34899 81.808566)">1.0</text>
     </g>
    </g>
    <g id="ytick_7">
     <g id="line2d_29">
      <path d="M 27.84899 59.91299 
L 504.401335 59.91299 
" clip-path="url(#pea09eb27b2)" style="fill: none; stroke: #4a4a4a; stroke-opacity: 0.15; stroke-width: 0.4; stroke-linecap: square"/>
     </g>
     <g id="line2d_30">
      <g>
       <use xlink:href="#mbcab12c2d0" x="27.84899" y="59.91299" style="stroke: #000000; stroke-width: 0.5"/>
      </g>
     </g>
     <g id="text_16">
      <text style="font-size: 6px; font-family: 'Arial', 'Helvetica', 'DejaVu Sans', sans-serif; text-anchor: end" x="22.34899" y="62.192521" transform="rotate(-0 22.34899 62.192521)">1.2</text>
     </g>
    </g>
    <g id="ytick_8">
     <g id="line2d_31">
      <path d="M 27.84899 40.296945 
L 504.401335 40.296945 
" clip-path="url(#pea09eb27b2)" style="fill: none; stroke: #4a4a4a; stroke-opacity: 0.15; stroke-width: 0.4; stroke-linecap: square"/>
     </g>
     <g id="line2d_32">
      <g>
       <use xlink:href="#mbcab12c2d0" x="27.84899" y="40.296945" style="stroke: #000000; stroke-width: 0.5"/>
      </g>
     </g>
     <g id="text_17">
      <text style="font-size: 6px; font-family: 'Arial', 'Helvetica', 'DejaVu Sans', sans-serif; text-anchor: end" x="22.34899" y="42.576477" transform="rotate(-0 22.34899 42.576477)">1.4</text>
     </g>
    </g>
    <g id="ytick_9">
     <g id="line2d_33">
      <path d="M 27.84899 20.6809 
L 504.401335 20.6809 
" clip-path="url(#pea09eb27b2)" style="fill: none; stroke: #4a4a4a; stroke-opacity: 0.15; stroke-width: 0.4; stroke-linecap: square"/>
     </g>
     <g id="line2d_34">
      <g>
       <use xlink:href="#mbcab12c2d0" x="27.84899" y="20.6809" style="stroke: #000000; stroke-width: 0.5"/>
      </g>
     </g>
     <g id="text_18">
      <text style="font-size: 6px; font-family: 'Arial', 'Helvetica', 'DejaVu Sans', sans-serif; text-anchor: end" x="22.34899" y="22.960432" transform="rotate(-0 22.34899 22.960432)">1.6</text>
     </g>
    </g>
    <g id="text_19">
     <text style="font-size: 6px; font-family: 'Arial', 'Helvetica', 'DejaVu Sans', sans-serif; text-anchor: middle" x="7.559303" y="99.299429" transform="rotate(-90 7.559303 99.299429)">per-strain IQR of log2 FC</text>
    </g>
   </g>
   <g id="line2d_35">
    <path d="M 482.739865 178.279711 
L 482.739865 20.319146 
" clip-path="url(#pea09eb27b2)" style="fill: none; stroke-dasharray: 0.5,0.825; stroke-dashoffset: 0; stroke: #4a4a4a; stroke-width: 0.5"/>
   </g>
   <g id="line2d_36">
    <path d="M 49.51046 171.099685 
L 49.802591 170.486151 
L 50.094721 170.279563 
L 50.678982 170.165983 
L 51.555373 169.747881 
L 53.016025 169.406351 
L 53.308156 169.00731 
L 53.600286 168.999635 
L 53.892416 168.677729 
L 55.645199 168.394514 
L 57.397981 168.281664 
L 58.566503 168.067002 
L 59.735025 167.944763 
L 69.667459 167.292288 
L 71.712372 167.179183 
L 74.341545 167.022879 
L 88.071675 166.41781 
L 91.57724 166.229707 
L 93.330022 166.147846 
L 97.419848 166.03161 
L 104.723109 165.87527 
L 106.768021 165.756672 
L 126.92502 165.243367 
L 132.183367 165.118859 
L 133.059759 165.049583 
L 141.823671 164.814878 
L 148.542671 164.688198 
L 165.194104 164.29582 
L 166.946887 164.260634 
L 179.508495 164.013274 
L 183.59832 163.939849 
L 188.856668 163.828054 
L 192.362233 163.772288 
L 198.496971 163.662038 
L 200.834015 163.572391 
L 203.463189 163.522078 
L 227.417883 163.081279 
L 236.766056 162.926806 
L 249.327664 162.672757 
L 259.260098 162.508462 
L 262.181402 162.429513 
L 270.945314 162.313658 
L 272.113836 162.24541 
L 275.03514 162.12718 
L 281.462009 161.985071 
L 284.091183 161.865303 
L 310.967181 161.280849 
L 312.135703 161.224839 
L 316.809789 161.132038 
L 320.023224 161.007405 
L 324.11305 160.887129 
L 329.079267 160.749809 
L 338.71957 160.537465 
L 359.46083 159.869933 
L 365.595568 159.662252 
L 367.640481 159.559461 
L 369.101133 159.461086 
L 369.977525 159.375698 
L 372.314568 159.272494 
L 375.235872 159.197162 
L 376.988655 159.094769 
L 379.617828 158.950526 
L 381.954872 158.80098 
L 383.123393 158.706128 
L 389.258132 158.310521 
L 390.426654 158.255534 
L 406.201696 157.133326 
L 406.785957 157.035408 
L 408.538739 156.952349 
L 409.707261 156.844153 
L 411.460044 156.740029 
L 414.673478 156.588321 
L 419.931826 155.762263 
L 423.14526 155.523974 
L 423.43739 155.357334 
L 426.066564 155.122259 
L 431.617042 153.768786 
L 432.201303 153.635919 
L 435.414737 153.122795 
L 435.706868 153.119197 
L 437.16752 152.487582 
L 438.628172 152.333032 
L 439.212433 152.23959 
L 439.796694 152.168003 
L 441.257346 151.835926 
L 442.133737 151.603117 
L 442.425867 151.357907 
L 445.639302 150.705258 
L 446.223563 150.587661 
L 447.099954 150.488035 
L 447.392084 150.206624 
L 449.729128 149.963415 
L 450.313389 149.872556 
L 451.48191 149.699457 
L 452.942562 149.445339 
L 454.695345 149.041058 
L 455.279606 148.92176 
L 455.571736 148.903524 
L 457.032388 148.348939 
L 457.908779 148.232966 
L 459.077301 147.972038 
L 459.953692 147.874345 
L 460.537953 147.678403 
L 462.582866 147.305532 
L 463.167127 147.135567 
L 464.335648 146.869462 
L 464.919909 146.770352 
L 466.672692 146.244239 
L 467.841213 145.487498 
L 468.133344 145.332427 
L 468.425474 145.312346 
L 468.717605 144.995712 
L 469.009735 144.201732 
L 469.886126 144.086485 
L 470.762518 143.32267 
L 471.638909 142.803996 
L 471.931039 142.183041 
L 472.80743 141.867237 
L 473.099561 141.716797 
L 473.683822 141.240011 
L 474.268083 140.758939 
L 474.560213 140.095103 
L 475.144474 139.330295 
L 475.728735 139.117694 
L 476.020865 138.707413 
L 476.605126 138.294903 
L 477.189387 137.557113 
L 477.481517 137.544662 
L 477.773648 137.084513 
L 479.2343 136.094919 
L 479.52643 135.991414 
L 479.81856 133.471731 
L 480.110691 133.377264 
L 480.402821 130.423698 
L 480.694952 130.354895 
L 480.987082 127.693469 
L 481.279213 127.590354 
L 481.571343 127.058323 
L 481.863473 122.774138 
L 482.447734 120.404027 
L 482.739865 116.167058 
L 482.739865 116.167058 
" clip-path="url(#pea09eb27b2)" style="fill: none; stroke: #d79b00; stroke-width: 0.9; stroke-linecap: square"/>
   </g>
   <g id="line2d_37">
    <path d="M 207.553014 147.532266 
L 207.845145 146.667911 
L 208.137275 143.47768 
L 208.429406 142.968173 
L 208.721536 142.151711 
L 209.013666 141.776345 
L 209.305797 141.584464 
L 209.597927 140.272128 
L 210.474318 139.672659 
L 211.058579 139.519553 
L 211.35071 139.34143 
L 211.934971 139.21566 
L 212.519231 138.707396 
L 212.811362 138.647839 
L 213.103492 138.3685 
L 213.979883 138.148733 
L 214.272014 137.803316 
L 216.316927 137.250695 
L 216.609057 137.085944 
L 218.36184 136.868127 
L 221.575274 136.406762 
L 222.159535 136.181438 
L 222.743796 136.081117 
L 228.002143 135.543721 
L 228.586404 135.491176 
L 229.754926 135.335565 
L 231.507708 135.252381 
L 232.091969 135.059138 
L 232.3841 135.022812 
L 232.67623 134.77267 
L 233.844752 134.680839 
L 236.181795 134.361435 
L 237.350317 134.166516 
L 238.518838 134.050673 
L 239.103099 133.956665 
L 239.97949 133.852831 
L 244.069316 133.444748 
L 249.035533 132.544304 
L 249.327664 132.212622 
L 249.911924 132.051271 
L 250.204055 131.914405 
L 252.248968 131.714484 
L 253.125359 131.596376 
L 255.462402 131.477721 
L 257.215185 131.345583 
L 258.091576 131.254284 
L 258.383706 131.092999 
L 259.844358 130.993273 
L 260.428619 130.884941 
L 265.102706 130.501541 
L 268.02401 130.187653 
L 268.900401 130.115397 
L 269.192532 129.93716 
L 277.080053 129.347652 
L 279.124966 129.120074 
L 284.675444 128.817859 
L 284.967574 128.635535 
L 285.843965 128.532908 
L 287.012487 128.422496 
L 287.596748 128.301545 
L 291.394443 127.774801 
L 292.562965 127.681886 
L 293.731487 127.570635 
L 298.113443 127.178172 
L 298.405573 127.031353 
L 298.697704 127.030255 
L 299.281964 126.905652 
L 300.158356 126.784348 
L 302.495399 126.532648 
L 304.540312 126.429456 
L 304.832442 126.298506 
L 306.585225 126.186344 
L 315.057007 125.506377 
L 315.641268 125.363269 
L 316.517659 125.263105 
L 322.944528 124.653157 
L 324.11305 124.397566 
L 333.461223 123.318231 
L 334.045484 123.199666 
L 340.764483 122.440886 
L 341.348744 122.203681 
L 343.393657 122.023861 
L 344.854309 121.873133 
L 346.607092 121.80416 
L 346.899222 121.675629 
L 348.067744 121.549901 
L 349.236265 121.42302 
L 349.528396 121.420472 
L 349.820526 121.262775 
L 350.404787 121.24208 
L 350.696917 121.03604 
L 355.663134 120.463277 
L 357.123786 120.162666 
L 357.415917 120.135285 
L 357.708047 119.927318 
L 359.46083 119.800702 
L 360.045091 119.66714 
L 362.382134 119.48079 
L 365.303438 119.068503 
L 366.179829 118.976903 
L 367.348351 118.797237 
L 367.932612 118.644915 
L 368.224742 118.48774 
L 372.314568 118.042329 
L 374.359481 117.81504 
L 376.404394 117.55315 
L 381.07848 116.918386 
L 381.954872 116.871506 
L 382.247002 116.65931 
L 385.752567 116.281501 
L 386.336828 116.10319 
L 386.921089 115.90458 
L 388.08961 115.81659 
L 390.426654 115.430237 
L 391.010915 115.412687 
L 391.595175 115.207273 
L 393.640088 115.09207 
L 401.527609 113.863278 
L 402.11187 113.751616 
L 402.404001 113.72322 
L 402.696131 113.535474 
L 403.864653 113.40822 
L 404.156783 113.13327 
L 407.954479 112.440764 
L 409.123 112.333443 
L 409.415131 112.178943 
L 410.291522 112.052223 
L 414.089217 111.209103 
L 415.257739 111.003399 
L 415.549869 110.7573 
L 417.302652 110.353166 
L 417.594782 110.337196 
L 417.886913 110.178857 
L 419.347565 110.070911 
L 420.223956 109.934429 
L 421.684608 109.831732 
L 423.14526 109.447678 
L 423.43739 109.270843 
L 423.729521 109.225186 
L 424.605912 108.705242 
L 424.898043 108.625923 
L 425.190173 108.379697 
L 426.066564 108.297032 
L 427.527216 108.219984 
L 428.403608 108.064591 
L 428.695738 107.889444 
L 428.987868 107.556355 
L 430.15639 107.381906 
L 431.324912 107.050305 
L 432.493433 106.975252 
L 433.954085 106.730367 
L 434.830477 106.577592 
L 435.122607 106.335644 
L 435.706868 106.304495 
L 436.583259 105.659029 
L 436.87539 105.625448 
L 437.45965 105.37027 
L 437.751781 105.308474 
L 438.336042 105.050512 
L 439.212433 104.880856 
L 439.504563 104.738724 
L 440.380955 104.641038 
L 440.965215 104.489412 
L 441.549476 104.098168 
L 442.133737 104.021592 
L 442.717998 103.609422 
L 443.302259 103.373823 
L 444.17865 103.110428 
L 445.639302 102.603531 
L 446.223563 102.454497 
L 446.807824 102.310841 
L 447.099954 102.228001 
L 447.392084 102.016352 
L 447.976345 101.995879 
L 448.560606 101.640908 
L 448.852737 101.255562 
L 450.897649 100.762825 
L 451.18978 100.75047 
L 451.48191 100.525463 
L 452.066171 100.467178 
L 452.358302 100.213282 
L 452.650432 100.12101 
L 453.818954 99.202776 
L 454.403214 98.966559 
L 454.987475 98.613987 
L 455.279606 98.527698 
L 455.863866 98.128073 
L 456.740258 97.848543 
L 457.324519 97.493505 
L 458.20091 97.391463 
L 458.49304 97.031398 
L 459.077301 96.938125 
L 459.661562 96.270093 
L 460.245823 96.213828 
L 460.537953 95.997189 
L 460.830084 95.99411 
L 461.122214 95.769909 
L 461.414344 95.747831 
L 461.998605 95.335598 
L 462.290736 95.318347 
L 462.874996 94.53207 
L 463.751388 94.315536 
L 464.043518 93.505812 
L 464.627779 93.487356 
L 464.919909 92.761859 
L 465.50417 92.594125 
L 466.088431 91.499428 
L 468.133344 90.377173 
L 468.717605 90.1889 
L 469.009735 90.009357 
L 469.301866 89.969161 
L 469.593996 89.343509 
L 469.886126 89.01047 
L 470.178257 88.943886 
L 470.470387 88.433508 
L 471.054648 88.260189 
L 471.638909 87.193332 
L 471.931039 87.055036 
L 472.5153 85.817888 
L 472.80743 85.52366 
L 473.391691 85.402623 
L 473.975952 84.447519 
L 474.268083 83.581519 
L 474.560213 82.227257 
L 474.852343 82.118171 
L 475.144474 81.816502 
L 475.436604 81.738015 
L 476.020865 78.944997 
L 476.605126 77.98383 
L 476.897256 77.950909 
L 477.773648 76.394404 
L 478.065778 74.559519 
L 478.357908 74.324512 
L 478.650039 73.872228 
L 478.942169 73.721781 
L 479.2343 73.213659 
L 479.52643 73.029313 
L 480.110691 71.941692 
L 480.402821 67.221027 
L 480.694952 67.100432 
L 480.987082 66.612198 
L 481.279213 64.720795 
L 481.571343 64.703229 
L 481.863473 63.955056 
L 482.155604 61.206978 
L 482.447734 29.183593 
L 482.739865 27.499172 
L 482.739865 27.499172 
" clip-path="url(#pea09eb27b2)" style="fill: none; stroke: #b85450; stroke-width: 0.9; stroke-linecap: square"/>
   </g>
   <g id="line2d_38">
    <path d="M 459.077301 167.504021 
L 459.369431 167.209125 
L 459.661562 167.168186 
L 459.953692 167.151146 
L 460.245823 167.141788 
L 460.537953 167.037837 
L 460.830084 166.924114 
L 461.122214 166.803667 
L 461.414344 166.773424 
L 461.706475 166.655352 
L 461.998605 166.569828 
L 462.290736 166.516257 
L 462.582866 166.284105 
L 462.874996 166.149917 
L 463.167127 166.073576 
L 463.459257 165.78829 
L 463.751388 165.728598 
L 464.043518 165.71738 
L 464.335648 165.567169 
L 464.627779 165.526144 
L 464.919909 165.495069 
L 465.21204 165.465599 
L 465.50417 165.398336 
L 465.796301 165.354558 
L 466.088431 165.321551 
L 466.380561 165.316471 
L 466.672692 165.252545 
L 466.964822 165.241695 
L 467.256953 165.149309 
L 467.549083 165.110035 
L 467.841213 165.099569 
L 468.133344 165.067667 
L 468.425474 165.03698 
L 468.717605 165.00821 
L 469.009735 164.84697 
L 469.301866 164.836556 
L 469.593996 164.353968 
L 469.886126 164.3049 
L 470.178257 164.166583 
L 470.470387 164.096996 
L 470.762518 163.794288 
L 471.054648 163.571646 
L 471.346778 163.477179 
L 471.638909 163.446711 
L 471.931039 163.357971 
L 472.22317 163.267826 
L 472.5153 163.178071 
L 472.80743 163.161224 
L 473.099561 162.947228 
L 473.391691 162.480587 
L 473.683822 162.356362 
L 473.975952 162.308972 
L 474.268083 162.272658 
L 474.560213 162.126515 
L 474.852343 161.984559 
L 475.144474 161.781757 
L 475.436604 161.753497 
L 475.728735 161.731495 
L 476.020865 161.48803 
L 476.312995 161.419723 
L 476.605126 161.402589 
L 476.897256 161.299193 
L 477.189387 161.243122 
L 477.481517 161.077552 
L 477.773648 160.723581 
L 478.065778 160.69867 
L 478.357908 160.670705 
L 478.650039 160.635613 
L 478.942169 160.189762 
L 479.2343 159.208232 
L 479.52643 159.205021 
L 479.81856 158.881529 
L 480.110691 158.832619 
L 480.402821 158.600335 
L 480.694952 158.419069 
L 480.987082 158.24903 
L 481.279213 157.349107 
L 481.571343 156.910874 
L 481.863473 156.768838 
L 482.155604 154.695445 
L 482.447734 154.161787 
L 482.739865 141.586014 
" clip-path="url(#pea09eb27b2)" style="fill: none; stroke: #6e5479; stroke-width: 0.9; stroke-linecap: square"/>
   </g>
   <g id="line2d_39">
    <path d="M 461.998605 167.361288 
L 462.290736 167.305077 
L 462.582866 166.722062 
L 462.874996 166.322402 
L 463.167127 166.044468 
L 463.459257 165.54171 
L 463.751388 165.198357 
L 464.043518 164.683327 
L 464.335648 164.54473 
L 464.627779 163.918429 
L 464.919909 163.817221 
L 465.21204 163.784045 
L 465.50417 163.771937 
L 465.796301 163.556712 
L 466.088431 163.297383 
L 466.380561 163.240593 
L 466.672692 163.201479 
L 466.964822 163.031834 
L 467.256953 162.836459 
L 467.549083 162.751247 
L 467.841213 162.731982 
L 468.133344 162.534619 
L 468.425474 161.935046 
L 468.717605 161.917201 
L 469.009735 161.910018 
L 469.301866 161.619505 
L 469.593996 161.434632 
L 469.886126 161.208142 
L 470.178257 160.964012 
L 470.470387 160.841171 
L 470.762518 160.831666 
L 471.054648 160.812937 
L 471.346778 160.682658 
L 471.638909 160.575743 
L 471.931039 160.429798 
L 472.22317 160.221544 
L 472.5153 160.169637 
L 472.80743 160.015515 
L 473.099561 159.958932 
L 473.391691 159.205104 
L 473.683822 159.082106 
L 473.975952 158.917594 
L 474.268083 158.780046 
L 474.560213 158.538165 
L 474.852343 158.429411 
L 475.144474 158.229487 
L 475.436604 158.224486 
L 475.728735 158.011273 
L 476.020865 157.716943 
L 476.312995 157.425637 
L 476.605126 156.870565 
L 476.897256 156.729429 
L 477.189387 156.156012 
L 477.481517 155.550225 
L 477.773648 155.221294 
L 478.065778 154.652477 
L 478.357908 154.38831 
L 478.650039 153.283586 
L 478.942169 152.662454 
L 479.2343 152.615984 
L 479.52643 151.38224 
L 479.81856 150.510305 
L 480.110691 150.276261 
L 480.402821 150.031026 
L 480.694952 149.182681 
L 480.987082 147.894731 
L 481.279213 144.756925 
L 481.571343 143.579687 
L 481.863473 141.738444 
L 482.155604 138.910828 
L 482.447734 138.632583 
L 482.739865 138.55621 
" clip-path="url(#pea09eb27b2)" style="fill: none; stroke: #863d3a; stroke-width: 0.9; stroke-linecap: square"/>
   </g>
   <g id="patch_3">
    <path d="M 27.84899 178.279711 
L 27.84899 20.319146 
" style="fill: none; stroke: #000000; stroke-width: 0.5; stroke-linejoin: miter; stroke-linecap: square"/>
   </g>
   <g id="patch_4">
    <path d="M 504.401335 178.279711 
L 504.401335 20.319146 
" style="fill: none; stroke: #000000; stroke-width: 0.5; stroke-linejoin: miter; stroke-linecap: square"/>
   </g>
   <g id="patch_5">
    <path d="M 27.84899 178.279711 
L 504.401335 178.279711 
" style="fill: none; stroke: #000000; stroke-width: 0.5; stroke-linejoin: miter; stroke-linecap: square"/>
   </g>
   <g id="patch_6">
    <path d="M 27.84899 20.319146 
L 504.401335 20.319146 
" style="fill: none; stroke: #000000; stroke-width: 0.5; stroke-linejoin: miter; stroke-linecap: square"/>
   </g>
   <g id="text_20">
    <text style="font-size: 7px; font-family: 'Arial', 'Helvetica', 'DejaVu Sans', sans-serif; text-anchor: start" x="27.84899" y="8.319146" transform="rotate(-0 27.84899 8.319146)">Dataset size and spread on one aligned axis</text>
   </g>
   <g id="legend_1">
    <g id="line2d_40">
     <path d="M 32.64899 27.578209 
L 38.64899 27.578209 
L 44.64899 27.578209 
" style="fill: none; stroke: #d79b00; stroke-width: 0.9; stroke-linecap: square"/>
    </g>
    <g id="text_21">
     <text style="font-size: 6px; font-family: 'Arial', 'Helvetica', 'DejaVu Sans', sans-serif; text-anchor: start" x="47.04899" y="29.678209" transform="rotate(-0 47.04899 29.678209)">Kemmeren single KO  (n = 1484)</text>
    </g>
    <g id="line2d_41">
     <path d="M 32.64899 36.385084 
L 38.64899 36.385084 
L 44.64899 36.385084 
" style="fill: none; stroke: #b85450; stroke-width: 0.9; stroke-linecap: square"/>
    </g>
    <g id="text_22">
     <text style="font-size: 6px; font-family: 'Arial', 'Helvetica', 'DejaVu Sans', sans-serif; text-anchor: start" x="47.04899" y="38.485084" transform="rotate(-0 47.04899 38.485084)">Caudal natural isolate  (n = 943)</text>
    </g>
    <g id="line2d_42">
     <path d="M 32.64899 45.191959 
L 38.64899 45.191959 
L 44.64899 45.191959 
" style="fill: none; stroke: #6e5479; stroke-width: 0.9; stroke-linecap: square"/>
    </g>
    <g id="text_23">
     <text style="font-size: 6px; font-family: 'Arial', 'Helvetica', 'DejaVu Sans', sans-serif; text-anchor: start" x="47.04899" y="47.291959" transform="rotate(-0 47.04899 47.291959)">Sameith single KO  (n = 82)</text>
    </g>
    <g id="line2d_43">
     <path d="M 32.64899 53.998834 
L 38.64899 53.998834 
L 44.64899 53.998834 
" style="fill: none; stroke: #863d3a; stroke-width: 0.9; stroke-linecap: square"/>
    </g>
    <g id="text_24">
     <text style="font-size: 6px; font-family: 'Arial', 'Helvetica', 'DejaVu Sans', sans-serif; text-anchor: start" x="47.04899" y="56.098834" transform="rotate(-0 47.04899 56.098834)">Sameith double KO  (n = 72)</text>
    </g>
   </g>
  </g>
 </g>
 <defs>
  <clipPath id="pea09eb27b2">
   <rect x="27.84899" y="20.319146" width="476.552345" height="157.960565"/>
  </clipPath>
 </defs>
</g></svg>
