<?xml version="1.0" encoding="utf-8" standalone="no"?>
<!DOCTYPE svg PUBLIC "-//W3C//DTD SVG 1.1//EN"
  "http://www.w3.org/Graphics/SVG/1.1/DTD/svg11.dtd">
<svg xmlns:xlink="http://www.w3.org/1999/xlink" width="348.4252" height="259.8425" viewBox="0 0 348.4252 259.8425" xmlns="http://www.w3.org/2000/svg" version="1.1"><g transform="scale(1.3888888889)">
 <metadata>
  <rdf:RDF xmlns:dc="http://purl.org/dc/elements/1.1/" xmlns:cc="http://creativecommons.org/ns#" xmlns:rdf="http://www.w3.org/1999/02/22-rdf-syntax-ns#">
   <cc:Work>
    <dc:type rdf:resource="http://purl.org/dc/dcmitype/StillImage"/>
    <dc:date>2026-07-17T10:36:33.448404</dc:date>
    <dc:format>image/svg+xml</dc:format>
    <dc:creator>
     <cc:Agent>
      <dc:title>Matplotlib v3.10.7, https://matplotlib.org/</dc:title>
     </cc:Agent>
    </dc:creator>
   </cc:Work>
  </rdf:RDF>
 </metadata>
 <defs>
  <style type="text/css">*{stroke-linejoin: round; stroke-linecap: butt}</style>
 </defs>
 <g id="figure_1">
  <g id="patch_1">
   <path d="M 0 187.086614 
L 250.866142 187.086614 
L 250.866142 0 
L 0 0 
z
" style="fill: #ffffff"/>
  </g>
  <g id="axes_1">
   <g id="patch_2">
    <path d="M 27.84899 159.342124 
L 247.865902 159.342124 
L 247.865902 20.319146 
L 27.84899 20.319146 
z
" style="fill: #ffffff"/>
   </g>
   <g id="matplotlib.axis_1">
    <g id="xtick_1">
     <g id="line2d_1">
      <path d="M 58.904009 159.342124 
L 58.904009 20.319146 
" clip-path="url(#p626402f56a)" style="fill: none; stroke: #4a4a4a; stroke-opacity: 0.15; stroke-width: 0.4; stroke-linecap: square"/>
     </g>
     <g id="line2d_2">
      <defs>
       <path id="mb8e1ac7dfb" d="M 0 0 
L 0 2 
" style="stroke: #000000; stroke-width: 0.5"/>
      </defs>
      <g>
       <use xlink:href="#mb8e1ac7dfb" x="58.904009" y="159.342124" style="stroke: #000000; stroke-width: 0.5"/>
      </g>
     </g>
     <g id="text_1">
      <text style="font-size: 6px; font-family: 'Arial', 'Helvetica', 'DejaVu Sans', sans-serif" transform="translate(42.637446 169.401187)">Kemmeren</text>
      <text style="font-size: 6px; font-family: 'Arial', 'Helvetica', 'DejaVu Sans', sans-serif" transform="translate(44.905259 176.119874)">single KO</text>
      <text style="font-size: 6px; font-family: 'Arial', 'Helvetica', 'DejaVu Sans', sans-serif" transform="translate(42.60604 182.838562)">(n = 1484)</text>
     </g>
    </g>
    <g id="xtick_2">
     <g id="line2d_3">
      <path d="M 111.539633 159.342124 
L 111.539633 20.319146 
" clip-path="url(#p626402f56a)" style="fill: none; stroke: #4a4a4a; stroke-opacity: 0.15; stroke-width: 0.4; stroke-linecap: square"/>
     </g>
     <g id="line2d_4">
      <g>
       <use xlink:href="#mb8e1ac7dfb" x="111.539633" y="159.342124" style="stroke: #000000; stroke-width: 0.5"/>
      </g>
     </g>
     <g id="text_2">
      <text style="font-size: 6px; font-family: 'Arial', 'Helvetica', 'DejaVu Sans', sans-serif" transform="translate(99.117758 169.401187)">Sameith</text>
      <text style="font-size: 6px; font-family: 'Arial', 'Helvetica', 'DejaVu Sans', sans-serif" transform="translate(97.540883 176.119874)">single KO</text>
      <text style="font-size: 6px; font-family: 'Arial', 'Helvetica', 'DejaVu Sans', sans-serif" transform="translate(99.059165 182.838562)">(n = 82)</text>
     </g>
    </g>
    <g id="xtick_3">
     <g id="line2d_5">
      <path d="M 164.175258 159.342124 
L 164.175258 20.319146 
" clip-path="url(#p626402f56a)" style="fill: none; stroke: #4a4a4a; stroke-opacity: 0.15; stroke-width: 0.4; stroke-linecap: square"/>
     </g>
     <g id="line2d_6">
      <g>
       <use xlink:href="#mb8e1ac7dfb" x="164.175258" y="159.342124" style="stroke: #000000; stroke-width: 0.5"/>
      </g>
     </g>
     <g id="text_3">
      <text style="font-size: 6px; font-family: 'Arial', 'Helvetica', 'DejaVu Sans', sans-serif" transform="translate(151.753383 169.401187)">Sameith</text>
      <text style="font-size: 6px; font-family: 'Arial', 'Helvetica', 'DejaVu Sans', sans-serif" transform="translate(148.832602 176.119874)">double KO</text>
      <text style="font-size: 6px; font-family: 'Arial', 'Helvetica', 'DejaVu Sans', sans-serif" transform="translate(151.69479 182.838562)">(n = 72)</text>
     </g>
    </g>
    <g id="xtick_4">
     <g id="line2d_7">
      <path d="M 216.810883 159.342124 
L 216.810883 20.319146 
" clip-path="url(#p626402f56a)" style="fill: none; stroke: #4a4a4a; stroke-opacity: 0.15; stroke-width: 0.4; stroke-linecap: square"/>
     </g>
     <g id="line2d_8">
      <g>
       <use xlink:href="#mb8e1ac7dfb" x="216.810883" y="159.342124" style="stroke: #000000; stroke-width: 0.5"/>
      </g>
     </g>
     <g id="text_4">
      <text style="font-size: 6px; font-family: 'Arial', 'Helvetica', 'DejaVu Sans', sans-serif" transform="translate(206.399946 169.401187)">Caudal</text>
      <text style="font-size: 6px; font-family: 'Arial', 'Helvetica', 'DejaVu Sans', sans-serif" transform="translate(206.885102 176.119874)">isolate</text>
      <text style="font-size: 6px; font-family: 'Arial', 'Helvetica', 'DejaVu Sans', sans-serif" transform="translate(202.421664 182.838562)">(n = 943)</text>
     </g>
    </g>
   </g>
   <g id="matplotlib.axis_2">
    <g id="ytick_1">
     <g id="line2d_9">
      <path d="M 27.84899 158.752052 
L 247.865902 158.752052 
" clip-path="url(#p626402f56a)" style="fill: none; stroke: #4a4a4a; stroke-opacity: 0.15; stroke-width: 0.4; stroke-linecap: square"/>
     </g>
     <g id="line2d_10">
      <defs>
       <path id="ma900096f67" d="M 0 0 
L -2 0 
" style="stroke: #000000; stroke-width: 0.5"/>
      </defs>
      <g>
       <use xlink:href="#ma900096f67" x="27.84899" y="158.752052" style="stroke: #000000; stroke-width: 0.5"/>
      </g>
     </g>
     <g id="text_5">
      <text style="font-size: 6px; font-family: 'Arial', 'Helvetica', 'DejaVu Sans', sans-serif; text-anchor: end" x="22.34899" y="161.031583" transform="rotate(-0 22.34899 161.031583)">0.0</text>
     </g>
    </g>
    <g id="ytick_2">
     <g id="line2d_11">
      <path d="M 27.84899 141.487736 
L 247.865902 141.487736 
" clip-path="url(#p626402f56a)" style="fill: none; stroke: #4a4a4a; stroke-opacity: 0.15; stroke-width: 0.4; stroke-linecap: square"/>
     </g>
     <g id="line2d_12">
      <g>
       <use xlink:href="#ma900096f67" x="27.84899" y="141.487736" style="stroke: #000000; stroke-width: 0.5"/>
      </g>
     </g>
     <g id="text_6">
      <text style="font-size: 6px; font-family: 'Arial', 'Helvetica', 'DejaVu Sans', sans-serif; text-anchor: end" x="22.34899" y="143.767268" transform="rotate(-0 22.34899 143.767268)">0.2</text>
     </g>
    </g>
    <g id="ytick_3">
     <g id="line2d_13">
      <path d="M 27.84899 124.223421 
L 247.865902 124.223421 
" clip-path="url(#p626402f56a)" style="fill: none; stroke: #4a4a4a; stroke-opacity: 0.15; stroke-width: 0.4; stroke-linecap: square"/>
     </g>
     <g id="line2d_14">
      <g>
       <use xlink:href="#ma900096f67" x="27.84899" y="124.223421" style="stroke: #000000; stroke-width: 0.5"/>
      </g>
     </g>
     <g id="text_7">
      <text style="font-size: 6px; font-family: 'Arial', 'Helvetica', 'DejaVu Sans', sans-serif; text-anchor: end" x="22.34899" y="126.502953" transform="rotate(-0 22.34899 126.502953)">0.4</text>
     </g>
    </g>
    <g id="ytick_4">
     <g id="line2d_15">
      <path d="M 27.84899 106.959106 
L 247.865902 106.959106 
" clip-path="url(#p626402f56a)" style="fill: none; stroke: #4a4a4a; stroke-opacity: 0.15; stroke-width: 0.4; stroke-linecap: square"/>
     </g>
     <g id="line2d_16">
      <g>
       <use xlink:href="#ma900096f67" x="27.84899" y="106.959106" style="stroke: #000000; stroke-width: 0.5"/>
      </g>
     </g>
     <g id="text_8">
      <text style="font-size: 6px; font-family: 'Arial', 'Helvetica', 'DejaVu Sans', sans-serif; text-anchor: end" x="22.34899" y="109.238637" transform="rotate(-0 22.34899 109.238637)">0.6</text>
     </g>
    </g>
    <g id="ytick_5">
     <g id="line2d_17">
      <path d="M 27.84899 89.694791 
L 247.865902 89.694791 
" clip-path="url(#p626402f56a)" style="fill: none; stroke: #4a4a4a; stroke-opacity: 0.15; stroke-width: 0.4; stroke-linecap: square"/>
     </g>
     <g id="line2d_18">
      <g>
       <use xlink:href="#ma900096f67" x="27.84899" y="89.694791" style="stroke: #000000; stroke-width: 0.5"/>
      </g>
     </g>
     <g id="text_9">
      <text style="font-size: 6px; font-family: 'Arial', 'Helvetica', 'DejaVu Sans', sans-serif; text-anchor: end" x="22.34899" y="91.974322" transform="rotate(-0 22.34899 91.974322)">0.8</text>
     </g>
    </g>
    <g id="ytick_6">
     <g id="line2d_19">
      <path d="M 27.84899 72.430476 
L 247.865902 72.430476 
" clip-path="url(#p626402f56a)" style="fill: none; stroke: #4a4a4a; stroke-opacity: 0.15; stroke-width: 0.4; stroke-linecap: square"/>
     </g>
     <g id="line2d_20">
      <g>
       <use xlink:href="#ma900096f67" x="27.84899" y="72.430476" style="stroke: #000000; stroke-width: 0.5"/>
      </g>
     </g>
     <g id="text_10">
      <text style="font-size: 6px; font-family: 'Arial', 'Helvetica', 'DejaVu Sans', sans-serif; text-anchor: end" x="22.34899" y="74.710007" transform="rotate(-0 22.34899 74.710007)">1.0</text>
     </g>
    </g>
    <g id="ytick_7">
     <g id="line2d_21">
      <path d="M 27.84899 55.166161 
L 247.865902 55.166161 
" clip-path="url(#p626402f56a)" style="fill: none; stroke: #4a4a4a; stroke-opacity: 0.15; stroke-width: 0.4; stroke-linecap: square"/>
     </g>
     <g id="line2d_22">
      <g>
       <use xlink:href="#ma900096f67" x="27.84899" y="55.166161" style="stroke: #000000; stroke-width: 0.5"/>
      </g>
     </g>
     <g id="text_11">
      <text style="font-size: 6px; font-family: 'Arial', 'Helvetica', 'DejaVu Sans', sans-serif; text-anchor: end" x="22.34899" y="57.445692" transform="rotate(-0 22.34899 57.445692)">1.2</text>
     </g>
    </g>
    <g id="ytick_8">
     <g id="line2d_23">
      <path d="M 27.84899 37.901846 
L 247.865902 37.901846 
" clip-path="url(#p626402f56a)" style="fill: none; stroke: #4a4a4a; stroke-opacity: 0.15; stroke-width: 0.4; stroke-linecap: square"/>
     </g>
     <g id="line2d_24">
      <g>
       <use xlink:href="#ma900096f67" x="27.84899" y="37.901846" style="stroke: #000000; stroke-width: 0.5"/>
      </g>
     </g>
     <g id="text_12">
      <text style="font-size: 6px; font-family: 'Arial', 'Helvetica', 'DejaVu Sans', sans-serif; text-anchor: end" x="22.34899" y="40.181377" transform="rotate(-0 22.34899 40.181377)">1.4</text>
     </g>
    </g>
    <g id="ytick_9">
     <g id="line2d_25">
      <path d="M 27.84899 20.63753 
L 247.865902 20.63753 
" clip-path="url(#p626402f56a)" style="fill: none; stroke: #4a4a4a; stroke-opacity: 0.15; stroke-width: 0.4; stroke-linecap: square"/>
     </g>
     <g id="line2d_26">
      <g>
       <use xlink:href="#ma900096f67" x="27.84899" y="20.63753" style="stroke: #000000; stroke-width: 0.5"/>
      </g>
     </g>
     <g id="text_13">
      <text style="font-size: 6px; font-family: 'Arial', 'Helvetica', 'DejaVu Sans', sans-serif; text-anchor: end" x="22.34899" y="22.917062" transform="rotate(-0 22.34899 22.917062)">1.6</text>
     </g>
    </g>
    <g id="text_14">
     <text style="font-size: 6px; font-family: 'Arial', 'Helvetica', 'DejaVu Sans', sans-serif; text-anchor: middle" x="7.559303" y="89.830635" transform="rotate(-90 7.559303 89.830635)">per-strain spread (IQR of log2 FC)</text>
    </g>
   </g>
   <g id="FillBetweenPolyCollection_1">
    <defs>
     <path id="m638b7581f0" d="M 59.554495 -34.063716 
L 58.253522 -34.063716 
L 57.853175 -34.552068 
L 57.263418 -35.040421 
L 56.421479 -35.528773 
L 55.271609 -36.017125 
L 53.78573 -36.505477 
L 51.977754 -36.993829 
L 49.904278 -37.482181 
L 47.65504 -37.970533 
L 45.343012 -38.458885 
L 43.100501 -38.947238 
L 41.078151 -39.43559 
L 39.437169 -39.923942 
L 38.326805 -40.412294 
L 37.849759 -40.900646 
L 38.031514 -41.388998 
L 38.813446 -41.87735 
L 40.075893 -42.365702 
L 41.675496 -42.854055 
L 43.472748 -43.342407 
L 45.340135 -43.830759 
L 47.162178 -44.319111 
L 48.842835 -44.807463 
L 50.320998 -45.295815 
L 51.580483 -45.784167 
L 52.643064 -46.27252 
L 53.547231 -46.760872 
L 54.325778 -47.249224 
L 54.993877 -47.737576 
L 55.550642 -48.225928 
L 55.989452 -48.71428 
L 56.309217 -49.202632 
L 56.520051 -49.690984 
L 56.64135 -50.179337 
L 56.695769 -50.667689 
L 56.704851 -51.156041 
L 56.688838 -51.644393 
L 56.667956 -52.132745 
L 56.661211 -52.621097 
L 56.682929 -53.109449 
L 56.741053 -53.597801 
L 56.839304 -54.086154 
L 56.979868 -54.574506 
L 57.161922 -55.062858 
L 57.37648 -55.55121 
L 57.603499 -56.039562 
L 57.816232 -56.527914 
L 57.991204 -57.016266 
L 58.117139 -57.504618 
L 58.19729 -57.992971 
L 58.244948 -58.481323 
L 58.276095 -58.969675 
L 58.303239 -59.458027 
L 58.332209 -59.946379 
L 58.362041 -60.434731 
L 58.387569 -60.923083 
L 58.403646 -61.411436 
L 58.408833 -61.899788 
L 58.40666 -62.38814 
L 58.40437 -62.876492 
L 58.410583 -63.364844 
L 58.432832 -63.853196 
L 58.474934 -64.341548 
L 58.534625 -64.8299 
L 58.603292 -65.318253 
L 58.669242 -65.806605 
L 58.723075 -66.294957 
L 58.761403 -66.783309 
L 58.786266 -67.271661 
L 58.801505 -67.760013 
L 58.809757 -68.248365 
L 58.812298 -68.736717 
L 58.81054 -69.22507 
L 58.80656 -69.713422 
L 58.801944 -70.201774 
L 58.796784 -70.690126 
L 58.790647 -71.178478 
L 58.784759 -71.66683 
L 58.782768 -72.155182 
L 58.788696 -72.643535 
L 58.803649 -73.131887 
L 58.824272 -73.620239 
L 58.84423 -74.108591 
L 58.857416 -74.596943 
L 58.860599 -75.085295 
L 58.854273 -75.573647 
L 58.841902 -76.061999 
L 58.828338 -76.550352 
L 58.818137 -77.038704 
L 58.814305 -77.527056 
L 58.81778 -78.015408 
L 58.827571 -78.50376 
L 58.841237 -78.992112 
L 58.855501 -79.480464 
L 58.867058 -79.968816 
L 58.873565 -80.457169 
L 58.874546 -80.945521 
L 58.871675 -81.433873 
L 58.868091 -81.922225 
L 58.866927 -82.410577 
L 58.94109 -82.410577 
L 58.94109 -82.410577 
L 58.939927 -81.922225 
L 58.936343 -81.433873 
L 58.933471 -80.945521 
L 58.934452 -80.457169 
L 58.94096 -79.968816 
L 58.952516 -79.480464 
L 58.96678 -78.992112 
L 58.980446 -78.50376 
L 58.990237 -78.015408 
L 58.993712 -77.527056 
L 58.98988 -77.038704 
L 58.979679 -76.550352 
L 58.966115 -76.061999 
L 58.953744 -75.573647 
L 58.947418 -75.085295 
L 58.950602 -74.596943 
L 58.963788 -74.108591 
L 58.983745 -73.620239 
L 59.004368 -73.131887 
L 59.019321 -72.643535 
L 59.025249 -72.155182 
L 59.023258 -71.66683 
L 59.01737 -71.178478 
L 59.011234 -70.690126 
L 59.006073 -70.201774 
L 59.001457 -69.713422 
L 58.997477 -69.22507 
L 58.995719 -68.736717 
L 58.99826 -68.248365 
L 59.006512 -67.760013 
L 59.021752 -67.271661 
L 59.046614 -66.783309 
L 59.084942 -66.294957 
L 59.138775 -65.806605 
L 59.204725 -65.318253 
L 59.273393 -64.8299 
L 59.333083 -64.341548 
L 59.375185 -63.853196 
L 59.397435 -63.364844 
L 59.403647 -62.876492 
L 59.401357 -62.38814 
L 59.399184 -61.899788 
L 59.404372 -61.411436 
L 59.420448 -60.923083 
L 59.445976 -60.434731 
L 59.475808 -59.946379 
L 59.504779 -59.458027 
L 59.531923 -58.969675 
L 59.563069 -58.481323 
L 59.610727 -57.992971 
L 59.690878 -57.504618 
L 59.816814 -57.016266 
L 59.991785 -56.527914 
L 60.204518 -56.039562 
L 60.431537 -55.55121 
L 60.646095 -55.062858 
L 60.82815 -54.574506 
L 60.968713 -54.086154 
L 61.066964 -53.597801 
L 61.125088 -53.109449 
L 61.146806 -52.621097 
L 61.140062 -52.132745 
L 61.119179 -51.644393 
L 61.103167 -51.156041 
L 61.112248 -50.667689 
L 61.166667 -50.179337 
L 61.287966 -49.690984 
L 61.4988 -49.202632 
L 61.818565 -48.71428 
L 62.257375 -48.225928 
L 62.814141 -47.737576 
L 63.48224 -47.249224 
L 64.260786 -46.760872 
L 65.164954 -46.27252 
L 66.227534 -45.784167 
L 67.487019 -45.295815 
L 68.965182 -44.807463 
L 70.64584 -44.319111 
L 72.467883 -43.830759 
L 74.33527 -43.342407 
L 76.132521 -42.854055 
L 77.732125 -42.365702 
L 78.994572 -41.87735 
L 79.776503 -41.388998 
L 79.958259 -40.900646 
L 79.481213 -40.412294 
L 78.370848 -39.923942 
L 76.729866 -39.43559 
L 74.707517 -38.947238 
L 72.465005 -38.458885 
L 70.152978 -37.970533 
L 67.903739 -37.482181 
L 65.830264 -36.993829 
L 64.022287 -36.505477 
L 62.536408 -36.017125 
L 61.386538 -35.528773 
L 60.5446 -35.040421 
L 59.954842 -34.552068 
L 59.554495 -34.063716 
z
" style="stroke: #000000; stroke-opacity: 0.85; stroke-width: 0.4"/>
    </defs>
    <g clip-path="url(#p626402f56a)">
     <use xlink:href="#m638b7581f0" x="0" y="187.086614" style="fill: #d79b00; fill-opacity: 0.85; stroke: #000000; stroke-opacity: 0.85; stroke-width: 0.4"/>
    </g>
   </g>
   <g id="FillBetweenPolyCollection_2">
    <defs>
     <path id="m0151e75102" d="M 123.491979 -37.228303 
L 99.587288 -37.228303 
L 97.998265 -37.458715 
L 96.457316 -37.689126 
L 95.015452 -37.919538 
L 93.720474 -38.149949 
L 92.613323 -38.380361 
L 91.724852 -38.610773 
L 91.073376 -38.841184 
L 90.663352 -39.071596 
L 90.485384 -39.302007 
L 90.517617 -39.532419 
L 90.728426 -39.762831 
L 91.080066 -39.993242 
L 91.532855 -40.223654 
L 92.049333 -40.454065 
L 92.597842 -40.684477 
L 93.155077 -40.914888 
L 93.707292 -41.1453 
L 94.250079 -41.375712 
L 94.786858 -41.606123 
L 95.326388 -41.836535 
L 95.879788 -42.066946 
L 96.457563 -42.297358 
L 97.067131 -42.52777 
L 97.711197 -42.758181 
L 98.387192 -42.988593 
L 99.08774 -43.219004 
L 99.801981 -43.449416 
L 100.517407 -43.679828 
L 101.221809 -43.910239 
L 101.904958 -44.140651 
L 102.559738 -44.371062 
L 103.182558 -44.601474 
L 103.773082 -44.831885 
L 104.333404 -45.062297 
L 104.866915 -45.292709 
L 105.377117 -45.52312 
L 105.866643 -45.753532 
L 106.336622 -45.983943 
L 106.786486 -46.214355 
L 107.214185 -46.444767 
L 107.616728 -46.675178 
L 107.990906 -46.90559 
L 108.334053 -47.136001 
L 108.644684 -47.366413 
L 108.922921 -47.596825 
L 109.170617 -47.827236 
L 109.391188 -48.057648 
L 109.589174 -48.288059 
L 109.769635 -48.518471 
L 109.937474 -48.748882 
L 110.096827 -48.979294 
L 110.250609 -49.209706 
L 110.400294 -49.440117 
L 110.545936 -49.670529 
L 110.686417 -49.90094 
L 110.81984 -50.131352 
L 110.943994 -50.361764 
L 111.056796 -50.592175 
L 111.156641 -50.822587 
L 111.242619 -51.052998 
L 111.314589 -51.28341 
L 111.373128 -51.513822 
L 111.419385 -51.744233 
L 111.454895 -51.974645 
L 111.481381 -52.205056 
L 111.500576 -52.435468 
L 111.514096 -52.665879 
L 111.523352 -52.896291 
L 111.529511 -53.126703 
L 111.533494 -53.357114 
L 111.535994 -53.587526 
L 111.537511 -53.817937 
L 111.538389 -54.048349 
L 111.538848 -54.278761 
L 111.539016 -54.509172 
L 111.538944 -54.739584 
L 111.53862 -54.969995 
L 111.537965 -55.200407 
L 111.536831 -55.430819 
L 111.534984 -55.66123 
L 111.532091 -55.891642 
L 111.527701 -56.122053 
L 111.521239 -56.352465 
L 111.51201 -56.582876 
L 111.499223 -56.813288 
L 111.482047 -57.0437 
L 111.459696 -57.274111 
L 111.431543 -57.504523 
L 111.397261 -57.734934 
L 111.356961 -57.965346 
L 111.311323 -58.195758 
L 111.261673 -58.426169 
L 111.209988 -58.656581 
L 111.158817 -58.886992 
L 111.111094 -59.117404 
L 111.069879 -59.347816 
L 111.038034 -59.578227 
L 111.0179 -59.808639 
L 111.011011 -60.03905 
L 112.068256 -60.03905 
L 112.068256 -60.03905 
L 112.061367 -59.808639 
L 112.041233 -59.578227 
L 112.009388 -59.347816 
L 111.968173 -59.117404 
L 111.92045 -58.886992 
L 111.869279 -58.656581 
L 111.817594 -58.426169 
L 111.767944 -58.195758 
L 111.722306 -57.965346 
L 111.682006 -57.734934 
L 111.647724 -57.504523 
L 111.619571 -57.274111 
L 111.59722 -57.0437 
L 111.580044 -56.813288 
L 111.567257 -56.582876 
L 111.558028 -56.352465 
L 111.551566 -56.122053 
L 111.547176 -55.891642 
L 111.544283 -55.66123 
L 111.542436 -55.430819 
L 111.541302 -55.200407 
L 111.540647 -54.969995 
L 111.540323 -54.739584 
L 111.540251 -54.509172 
L 111.540419 -54.278761 
L 111.540878 -54.048349 
L 111.541756 -53.817937 
L 111.543273 -53.587526 
L 111.545773 -53.357114 
L 111.549756 -53.126703 
L 111.555915 -52.896291 
L 111.565171 -52.665879 
L 111.578691 -52.435468 
L 111.597886 -52.205056 
L 111.624372 -51.974645 
L 111.659882 -51.744233 
L 111.706139 -51.513822 
L 111.764678 -51.28341 
L 111.836648 -51.052998 
L 111.922626 -50.822587 
L 112.022471 -50.592175 
L 112.135273 -50.361764 
L 112.259427 -50.131352 
L 112.39285 -49.90094 
L 112.53333 -49.670529 
L 112.678973 -49.440117 
L 112.828658 -49.209706 
L 112.98244 -48.979294 
L 113.141792 -48.748882 
L 113.309631 -48.518471 
L 113.490093 -48.288059 
L 113.688079 -48.057648 
L 113.90865 -47.827236 
L 114.156346 -47.596825 
L 114.434583 -47.366413 
L 114.745214 -47.136001 
L 115.08836 -46.90559 
L 115.462539 -46.675178 
L 115.865081 -46.444767 
L 116.292781 -46.214355 
L 116.742645 -45.983943 
L 117.212624 -45.753532 
L 117.70215 -45.52312 
L 118.212352 -45.292709 
L 118.745863 -45.062297 
L 119.306185 -44.831885 
L 119.896709 -44.601474 
L 120.519529 -44.371062 
L 121.174309 -44.140651 
L 121.857458 -43.910239 
L 122.561859 -43.679828 
L 123.277285 -43.449416 
L 123.991527 -43.219004 
L 124.692075 -42.988593 
L 125.36807 -42.758181 
L 126.012136 -42.52777 
L 126.621703 -42.297358 
L 127.199479 -42.066946 
L 127.752879 -41.836535 
L 128.292409 -41.606123 
L 128.829187 -41.375712 
L 129.371975 -41.1453 
L 129.92419 -40.914888 
L 130.481425 -40.684477 
L 131.029934 -40.454065 
L 131.546412 -40.223654 
L 131.999201 -39.993242 
L 132.350841 -39.762831 
L 132.56165 -39.532419 
L 132.593883 -39.302007 
L 132.415915 -39.071596 
L 132.005891 -38.841184 
L 131.354415 -38.610773 
L 130.465943 -38.380361 
L 129.358793 -38.149949 
L 128.063815 -37.919538 
L 126.621951 -37.689126 
L 125.081002 -37.458715 
L 123.491979 -37.228303 
z
" style="stroke: #000000; stroke-opacity: 0.85; stroke-width: 0.4"/>
    </defs>
    <g clip-path="url(#p626402f56a)">
     <use xlink:href="#m0151e75102" x="0" y="187.086614" style="fill: #9673a6; fill-opacity: 0.85; stroke: #000000; stroke-opacity: 0.85; stroke-width: 0.4"/>
    </g>
   </g>
   <g id="FillBetweenPolyCollection_3">
    <defs>
     <path id="m8da63a3870" d="M 172.275786 -37.353924 
L 156.07473 -37.353924 
L 155.290122 -37.610002 
L 154.479572 -37.86608 
L 153.648336 -38.122157 
L 152.802297 -38.378235 
L 151.947922 -38.634313 
L 151.092192 -38.890391 
L 150.242523 -39.146468 
L 149.406665 -39.402546 
L 148.592593 -39.658624 
L 147.808372 -39.914701 
L 147.062022 -40.170779 
L 146.361372 -40.426857 
L 145.713902 -40.682934 
L 145.126596 -40.939012 
L 144.605793 -41.19509 
L 144.157056 -41.451168 
L 143.785046 -41.707245 
L 143.493424 -41.963323 
L 143.284773 -42.219401 
L 143.160539 -42.475478 
L 143.121008 -42.731556 
L 143.165301 -42.987634 
L 143.2914 -43.243711 
L 143.496199 -43.499789 
L 143.775572 -43.755867 
L 144.124472 -44.011945 
L 144.537039 -44.268022 
L 145.006726 -44.5241 
L 145.526436 -44.780178 
L 146.088667 -45.036255 
L 146.685666 -45.292333 
L 147.309576 -45.548411 
L 147.952588 -45.804488 
L 148.607085 -46.060566 
L 149.26578 -46.316644 
L 149.921837 -46.572722 
L 150.568986 -46.828799 
L 151.201613 -47.084877 
L 151.81484 -47.340955 
L 152.40458 -47.597032 
L 152.96757 -47.85311 
L 153.501391 -48.109188 
L 154.004457 -48.365265 
L 154.475993 -48.621343 
L 154.915987 -48.877421 
L 155.325131 -49.133499 
L 155.704744 -49.389576 
L 156.056676 -49.645654 
L 156.383218 -49.901732 
L 156.686983 -50.157809 
L 156.970802 -50.413887 
L 157.237604 -50.669965 
L 157.490307 -50.926042 
L 157.731708 -51.18212 
L 157.964388 -51.438198 
L 158.190622 -51.694276 
L 158.412309 -51.950353 
L 158.630918 -52.206431 
L 158.847458 -52.462509 
L 159.062457 -52.718586 
L 159.27598 -52.974664 
L 159.487654 -53.230742 
L 159.696719 -53.486819 
L 159.902096 -53.742897 
L 160.102461 -53.998975 
L 160.296337 -54.255053 
L 160.482182 -54.51113 
L 160.658478 -54.767208 
L 160.823817 -55.023286 
L 160.976967 -55.279363 
L 161.116932 -55.535441 
L 161.242993 -55.791519 
L 161.354732 -56.047596 
L 161.452032 -56.303674 
L 161.535071 -56.559752 
L 161.604294 -56.81583 
L 161.660384 -57.071907 
L 161.704216 -57.327985 
L 161.736817 -57.584063 
L 161.759326 -57.84014 
L 161.772961 -58.096218 
L 161.778986 -58.352296 
L 161.778694 -58.608373 
L 161.773395 -58.864451 
L 161.764415 -59.120529 
L 161.753092 -59.376607 
L 161.740782 -59.632684 
L 161.728861 -59.888762 
L 161.718724 -60.14484 
L 161.711775 -60.400917 
L 161.709413 -60.656995 
L 161.713003 -60.913073 
L 161.723846 -61.16915 
L 161.743129 -61.425228 
L 161.771888 -61.681306 
L 161.810949 -61.937384 
L 161.860893 -62.193461 
L 161.922006 -62.449539 
L 161.99426 -62.705617 
L 166.356256 -62.705617 
L 166.356256 -62.705617 
L 166.428511 -62.449539 
L 166.489624 -62.193461 
L 166.539567 -61.937384 
L 166.578629 -61.681306 
L 166.607387 -61.425228 
L 166.626671 -61.16915 
L 166.637513 -60.913073 
L 166.641104 -60.656995 
L 166.638741 -60.400917 
L 166.631793 -60.14484 
L 166.621655 -59.888762 
L 166.609735 -59.632684 
L 166.597424 -59.376607 
L 166.586101 -59.120529 
L 166.577121 -58.864451 
L 166.571823 -58.608373 
L 166.571531 -58.352296 
L 166.577555 -58.096218 
L 166.59119 -57.84014 
L 166.6137 -57.584063 
L 166.646301 -57.327985 
L 166.690132 -57.071907 
L 166.746222 -56.81583 
L 166.815446 -56.559752 
L 166.898485 -56.303674 
L 166.995784 -56.047596 
L 167.107523 -55.791519 
L 167.233585 -55.535441 
L 167.37355 -55.279363 
L 167.5267 -55.023286 
L 167.692038 -54.767208 
L 167.868335 -54.51113 
L 168.05418 -54.255053 
L 168.248055 -53.998975 
L 168.448421 -53.742897 
L 168.653797 -53.486819 
L 168.862863 -53.230742 
L 169.074537 -52.974664 
L 169.28806 -52.718586 
L 169.503059 -52.462509 
L 169.719598 -52.206431 
L 169.938208 -51.950353 
L 170.159895 -51.694276 
L 170.386128 -51.438198 
L 170.618808 -51.18212 
L 170.86021 -50.926042 
L 171.112913 -50.669965 
L 171.379715 -50.413887 
L 171.663534 -50.157809 
L 171.967299 -49.901732 
L 172.29384 -49.645654 
L 172.645773 -49.389576 
L 173.025385 -49.133499 
L 173.43453 -48.877421 
L 173.874524 -48.621343 
L 174.346059 -48.365265 
L 174.849126 -48.109188 
L 175.382946 -47.85311 
L 175.945937 -47.597032 
L 176.535676 -47.340955 
L 177.148903 -47.084877 
L 177.781531 -46.828799 
L 178.428679 -46.572722 
L 179.084736 -46.316644 
L 179.743431 -46.060566 
L 180.397929 -45.804488 
L 181.040941 -45.548411 
L 181.66485 -45.292333 
L 182.261849 -45.036255 
L 182.824081 -44.780178 
L 183.34379 -44.5241 
L 183.813477 -44.268022 
L 184.226044 -44.011945 
L 184.574945 -43.755867 
L 184.854318 -43.499789 
L 185.059116 -43.243711 
L 185.185215 -42.987634 
L 185.229508 -42.731556 
L 185.189977 -42.475478 
L 185.065744 -42.219401 
L 184.857092 -41.963323 
L 184.565471 -41.707245 
L 184.193461 -41.451168 
L 183.744724 -41.19509 
L 183.223921 -40.939012 
L 182.636614 -40.682934 
L 181.989144 -40.426857 
L 181.288494 -40.170779 
L 180.542145 -39.914701 
L 179.757924 -39.658624 
L 178.943851 -39.402546 
L 178.107994 -39.146468 
L 177.258325 -38.890391 
L 176.402595 -38.634313 
L 175.54822 -38.378235 
L 174.702181 -38.122157 
L 173.870944 -37.86608 
L 173.060395 -37.610002 
L 172.275786 -37.353924 
z
" style="stroke: #000000; stroke-opacity: 0.85; stroke-width: 0.4"/>
    </defs>
    <g clip-path="url(#p626402f56a)">
     <use xlink:href="#m8da63a3870" x="0" y="187.086614" style="fill: #9673a6; fill-opacity: 0.85; stroke: #000000; stroke-opacity: 0.85; stroke-width: 0.4"/>
    </g>
   </g>
   <g id="FillBetweenPolyCollection_4">
    <defs>
     <path id="m41d24e2243" d="M 217.290617 -54.805683 
L 216.331149 -54.805683 
L 216.065379 -55.87278 
L 215.653567 -56.939876 
L 215.032925 -58.006973 
L 214.139943 -59.07407 
L 212.928463 -60.141166 
L 211.389875 -61.208263 
L 209.566534 -62.275359 
L 207.549521 -63.342456 
L 205.458567 -64.409552 
L 203.412619 -65.476649 
L 201.506433 -66.543745 
L 199.804772 -67.610842 
L 198.352937 -68.677938 
L 197.190762 -69.745035 
L 196.356625 -70.812132 
L 195.878056 -71.879228 
L 195.756633 -72.946325 
L 195.958384 -74.013421 
L 196.416388 -75.080518 
L 197.045212 -76.147614 
L 197.761854 -77.214711 
L 198.505658 -78.281807 
L 199.249781 -79.348904 
L 199.999407 -80.416001 
L 200.777408 -81.483097 
L 201.604429 -82.550194 
L 202.48348 -83.61729 
L 203.396393 -84.684387 
L 204.312287 -85.751483 
L 205.201302 -86.81858 
L 206.044854 -87.885676 
L 206.837553 -88.952773 
L 207.582071 -90.019869 
L 208.282207 -91.086966 
L 208.938958 -92.154063 
L 209.550896 -93.221159 
L 210.117001 -94.288256 
L 210.639127 -95.355352 
L 211.122455 -96.422449 
L 211.573831 -97.489545 
L 211.998938 -98.556642 
L 212.399753 -99.623738 
L 212.773927 -100.690835 
L 213.117057 -101.757931 
L 213.426951 -102.825028 
L 213.707118 -103.892125 
L 213.966716 -104.959221 
L 214.216552 -106.026318 
L 214.463625 -107.093414 
L 214.707574 -108.160511 
L 214.94084 -109.227607 
L 215.151889 -110.294704 
L 215.329546 -111.3618 
L 215.466708 -112.428897 
L 215.562575 -113.495994 
L 215.62319 -114.56309 
L 215.66035 -115.630187 
L 215.689135 -116.697283 
L 215.724399 -117.76438 
L 215.776842 -118.831476 
L 215.849696 -119.898573 
L 215.937532 -120.965669 
L 216.028465 -122.032766 
L 216.109554 -123.099862 
L 216.173009 -124.166959 
L 216.219828 -125.234056 
L 216.2587 -126.301152 
L 216.300982 -127.368249 
L 216.354884 -128.435345 
L 216.42206 -129.502442 
L 216.497882 -130.569538 
L 216.574361 -131.636635 
L 216.64366 -132.703731 
L 216.700521 -133.770828 
L 216.743042 -134.837924 
L 216.772135 -135.905021 
L 216.790376 -136.972118 
L 216.800857 -138.039214 
L 216.806368 -139.106311 
L 216.809016 -140.173407 
L 216.810176 -141.240504 
L 216.810638 -142.3076 
L 216.810804 -143.374697 
L 216.810853 -144.441793 
L 216.810847 -145.50889 
L 216.810778 -146.575987 
L 216.810562 -147.643083 
L 216.809984 -148.71018 
L 216.808592 -149.777276 
L 216.80558 -150.844373 
L 216.799734 -151.911469 
L 216.789584 -152.978566 
L 216.773904 -154.045662 
L 216.752522 -155.112759 
L 216.727139 -156.179855 
L 216.70161 -157.246952 
L 216.68121 -158.314049 
L 216.670922 -159.381145 
L 216.673481 -160.448242 
L 216.948286 -160.448242 
L 216.948286 -160.448242 
L 216.950844 -159.381145 
L 216.940557 -158.314049 
L 216.920156 -157.246952 
L 216.894627 -156.179855 
L 216.869244 -155.112759 
L 216.847862 -154.045662 
L 216.832182 -152.978566 
L 216.822032 -151.911469 
L 216.816186 -150.844373 
L 216.813174 -149.777276 
L 216.811782 -148.71018 
L 216.811204 -147.643083 
L 216.810988 -146.575987 
L 216.810919 -145.50889 
L 216.810913 -144.441793 
L 216.810962 -143.374697 
L 216.811128 -142.3076 
L 216.81159 -141.240504 
L 216.81275 -140.173407 
L 216.815398 -139.106311 
L 216.820909 -138.039214 
L 216.83139 -136.972118 
L 216.849632 -135.905021 
L 216.878724 -134.837924 
L 216.921245 -133.770828 
L 216.978107 -132.703731 
L 217.047405 -131.636635 
L 217.123884 -130.569538 
L 217.199706 -129.502442 
L 217.266883 -128.435345 
L 217.320784 -127.368249 
L 217.363066 -126.301152 
L 217.401938 -125.234056 
L 217.448757 -124.166959 
L 217.512212 -123.099862 
L 217.593301 -122.032766 
L 217.684234 -120.965669 
L 217.77207 -119.898573 
L 217.844924 -118.831476 
L 217.897367 -117.76438 
L 217.932631 -116.697283 
L 217.961416 -115.630187 
L 217.998576 -114.56309 
L 218.059191 -113.495994 
L 218.155059 -112.428897 
L 218.29222 -111.3618 
L 218.469877 -110.294704 
L 218.680926 -109.227607 
L 218.914192 -108.160511 
L 219.158141 -107.093414 
L 219.405214 -106.026318 
L 219.65505 -104.959221 
L 219.914648 -103.892125 
L 220.194815 -102.825028 
L 220.50471 -101.757931 
L 220.847839 -100.690835 
L 221.222013 -99.623738 
L 221.622828 -98.556642 
L 222.047935 -97.489545 
L 222.499311 -96.422449 
L 222.982639 -95.355352 
L 223.504766 -94.288256 
L 224.070871 -93.221159 
L 224.682809 -92.154063 
L 225.339559 -91.086966 
L 226.039695 -90.019869 
L 226.784213 -88.952773 
L 227.576912 -87.885676 
L 228.420464 -86.81858 
L 229.309479 -85.751483 
L 230.225374 -84.684387 
L 231.138286 -83.61729 
L 232.017337 -82.550194 
L 232.844358 -81.483097 
L 233.622359 -80.416001 
L 234.371985 -79.348904 
L 235.116108 -78.281807 
L 235.859913 -77.214711 
L 236.576554 -76.147614 
L 237.205378 -75.080518 
L 237.663382 -74.013421 
L 237.865133 -72.946325 
L 237.74371 -71.879228 
L 237.265142 -70.812132 
L 236.431004 -69.745035 
L 235.268829 -68.677938 
L 233.816994 -67.610842 
L 232.115333 -66.543745 
L 230.209147 -65.476649 
L 228.163199 -64.409552 
L 226.072245 -63.342456 
L 224.055232 -62.275359 
L 222.231891 -61.208263 
L 220.693303 -60.141166 
L 219.481823 -59.07407 
L 218.588841 -58.006973 
L 217.968199 -56.939876 
L 217.556387 -55.87278 
L 217.290617 -54.805683 
z
" style="stroke: #000000; stroke-opacity: 0.85; stroke-width: 0.4"/>
    </defs>
    <g clip-path="url(#p626402f56a)">
     <use xlink:href="#m41d24e2243" x="0" y="187.086614" style="fill: #b85450; fill-opacity: 0.85; stroke: #000000; stroke-opacity: 0.85; stroke-width: 0.4"/>
    </g>
   </g>
   <g id="LineCollection_1">
    <path d="M 48.376884 145.355503 
L 69.431134 145.355503 
" clip-path="url(#p626402f56a)" style="fill: none; stroke: #000000; stroke-width: 0.8"/>
    <path d="M 101.012508 146.495356 
L 122.066758 146.495356 
" clip-path="url(#p626402f56a)" style="fill: none; stroke: #000000; stroke-width: 0.8"/>
    <path d="M 153.648133 143.426074 
L 174.702383 143.426074 
" clip-path="url(#p626402f56a)" style="fill: none; stroke: #000000; stroke-width: 0.8"/>
    <path d="M 206.283758 109.694901 
L 227.338008 109.694901 
" clip-path="url(#p626402f56a)" style="fill: none; stroke: #000000; stroke-width: 0.8"/>
   </g>
   <g id="patch_3">
    <path d="M 27.84899 159.342124 
L 27.84899 20.319146 
" style="fill: none; stroke: #000000; stroke-width: 0.5; stroke-linejoin: miter; stroke-linecap: square"/>
   </g>
   <g id="patch_4">
    <path d="M 247.865902 159.342124 
L 247.865902 20.319146 
" style="fill: none; stroke: #000000; stroke-width: 0.5; stroke-linejoin: miter; stroke-linecap: square"/>
   </g>
   <g id="patch_5">
    <path d="M 27.84899 159.342124 
L 247.865902 159.342124 
" style="fill: none; stroke: #000000; stroke-width: 0.5; stroke-linejoin: miter; stroke-linecap: square"/>
   </g>
   <g id="patch_6">
    <path d="M 27.84899 20.319146 
L 247.865902 20.319146 
" style="fill: none; stroke: #000000; stroke-width: 0.5; stroke-linejoin: miter; stroke-linecap: square"/>
   </g>
   <g id="text_15">
    <text style="font-size: 7px; font-family: 'Arial', 'Helvetica', 'DejaVu Sans', sans-serif; text-anchor: start" x="27.84899" y="8.319146" transform="rotate(-0 27.84899 8.319146)">How much each strain's transcriptome moves</text>
   </g>
  </g>
 </g>
 <defs>
  <clipPath id="p626402f56a">
   <rect x="27.84899" y="20.319146" width="220.016912" height="139.022978"/>
  </clipPath>
 </defs>
</g></svg>
