<?xml version="1.0" encoding="utf-8" standalone="no"?>
<!DOCTYPE svg PUBLIC "-//W3C//DTD SVG 1.1//EN"
  "http://www.w3.org/Graphics/SVG/1.1/DTD/svg11.dtd">
<svg xmlns:xlink="http://www.w3.org/1999/xlink" width="348.4252" height="220.4724" viewBox="0 0 348.4252 220.4724" xmlns="http://www.w3.org/2000/svg" version="1.1"><g transform="scale(1.3888888889)">
 <metadata>
  <rdf:RDF xmlns:dc="http://purl.org/dc/elements/1.1/" xmlns:cc="http://creativecommons.org/ns#" xmlns:rdf="http://www.w3.org/1999/02/22-rdf-syntax-ns#">
   <cc:Work>
    <dc:type rdf:resource="http://purl.org/dc/dcmitype/StillImage"/>
    <dc:date>2026-07-14T23:39:36.841847</dc:date>
    <dc:format>image/svg+xml</dc:format>
    <dc:creator>
     <cc:Agent>
      <dc:title>Matplotlib v3.10.7, https://matplotlib.org/</dc:title>
     </cc:Agent>
    </dc:creator>
   </cc:Work>
  </rdf:RDF>
 </metadata>
 <defs>
  <style type="text/css">*{stroke-linejoin: round; stroke-linecap: butt}</style>
 </defs>
 <g id="figure_1">
  <g id="patch_1">
   <path d="M 0 158.740157 
L 250.866142 158.740157 
L 250.866142 0 
L 0 0 
z
" style="fill: #ffffff"/>
  </g>
  <g id="axes_1">
   <g id="patch_2">
    <path d="M 34.019689 129.880157 
L 248.466142 129.880157 
L 248.466142 2.4 
L 34.019689 2.4 
z
" style="fill: #ffffff"/>
   </g>
   <g id="patch_3">
    <path d="M 43.767255 29203.050866 
L 45.075654 29203.050866 
L 45.075654 122.532094 
L 43.767255 122.532094 
z
" clip-path="url(#p28b339f11d)" style="fill: #d79b00; opacity: 0.7"/>
   </g>
   <g id="patch_4">
    <path d="M 45.075654 29203.050866 
L 46.384052 29203.050866 
L 46.384052 121.82169 
L 45.075654 121.82169 
z
" clip-path="url(#p28b339f11d)" style="fill: #d79b00; opacity: 0.7"/>
   </g>
   <g id="patch_5">
    <path d="M 46.384052 29203.050866 
L 47.69245 29203.050866 
L 47.69245 121.82169 
L 46.384052 121.82169 
z
" clip-path="url(#p28b339f11d)" style="fill: #d79b00; opacity: 0.7"/>
   </g>
   <g id="patch_6">
    <path d="M 47.69245 29203.050866 
L 49.000848 29203.050866 
L 49.000848 122.532094 
L 47.69245 122.532094 
z
" clip-path="url(#p28b339f11d)" style="fill: #d79b00; opacity: 0.7"/>
   </g>
   <g id="patch_7">
    <path d="M 49.000848 29203.050866 
L 50.309246 29203.050866 
L 50.309246 121.650173 
L 49.000848 121.650173 
z
" clip-path="url(#p28b339f11d)" style="fill: #d79b00; opacity: 0.7"/>
   </g>
   <g id="patch_8">
    <path d="M 50.309246 29203.050866 
L 51.617644 29203.050866 
L 51.617644 122.902895 
L 50.309246 122.902895 
z
" clip-path="url(#p28b339f11d)" style="fill: #d79b00; opacity: 0.7"/>
   </g>
   <g id="patch_9">
    <path d="M 51.617644 29203.050866 
L 52.926042 29203.050866 
L 52.926042 122.532094 
L 51.617644 122.532094 
z
" clip-path="url(#p28b339f11d)" style="fill: #d79b00; opacity: 0.7"/>
   </g>
   <g id="patch_10">
    <path d="M 52.926042 29203.050866 
L 54.23444 29203.050866 
L 54.23444 124.085605 
L 52.926042 124.085605 
z
" clip-path="url(#p28b339f11d)" style="fill: #d79b00; opacity: 0.7"/>
   </g>
   <g id="patch_11">
    <path d="M 54.23444 29203.050866 
L 55.542839 29203.050866 
L 55.542839 119.90311 
L 54.23444 119.90311 
z
" clip-path="url(#p28b339f11d)" style="fill: #d79b00; opacity: 0.7"/>
   </g>
   <g id="patch_12">
    <path d="M 55.542839 29203.050866 
L 56.851237 29203.050866 
L 56.851237 121.313984 
L 55.542839 121.313984 
z
" clip-path="url(#p28b339f11d)" style="fill: #d79b00; opacity: 0.7"/>
   </g>
   <g id="patch_13">
    <path d="M 56.851237 29203.050866 
L 58.159635 29203.050866 
L 58.159635 123.480385 
L 56.851237 123.480385 
z
" clip-path="url(#p28b339f11d)" style="fill: #d79b00; opacity: 0.7"/>
   </g>
   <g id="patch_14">
    <path d="M 58.159635 29203.050866 
L 59.468033 29203.050866 
L 59.468033 122.350705 
L 58.159635 122.350705 
z
" clip-path="url(#p28b339f11d)" style="fill: #d79b00; opacity: 0.7"/>
   </g>
   <g id="patch_15">
    <path d="M 59.468033 29203.050866 
L 60.776431 29203.050866 
L 60.776431 121.650173 
L 59.468033 121.650173 
z
" clip-path="url(#p28b339f11d)" style="fill: #d79b00; opacity: 0.7"/>
   </g>
   <g id="patch_16">
    <path d="M 60.776431 29203.050866 
L 62.084829 29203.050866 
L 62.084829 117.001416 
L 60.776431 117.001416 
z
" clip-path="url(#p28b339f11d)" style="fill: #d79b00; opacity: 0.7"/>
   </g>
   <g id="patch_17">
    <path d="M 62.084829 29203.050866 
L 63.393227 29203.050866 
L 63.393227 118.905479 
L 62.084829 118.905479 
z
" clip-path="url(#p28b339f11d)" style="fill: #d79b00; opacity: 0.7"/>
   </g>
   <g id="patch_18">
    <path d="M 63.393227 29203.050866 
L 64.701625 29203.050866 
L 64.701625 118.500964 
L 63.393227 118.500964 
z
" clip-path="url(#p28b339f11d)" style="fill: #d79b00; opacity: 0.7"/>
   </g>
   <g id="patch_19">
    <path d="M 64.701625 29203.050866 
L 66.010024 29203.050866 
L 66.010024 118.634365 
L 64.701625 118.634365 
z
" clip-path="url(#p28b339f11d)" style="fill: #d79b00; opacity: 0.7"/>
   </g>
   <g id="patch_20">
    <path d="M 66.010024 29203.050866 
L 67.318422 29203.050866 
L 67.318422 117.239279 
L 66.010024 117.239279 
z
" clip-path="url(#p28b339f11d)" style="fill: #d79b00; opacity: 0.7"/>
   </g>
   <g id="patch_21">
    <path d="M 67.318422 29203.050866 
L 68.62682 29203.050866 
L 68.62682 115.661431 
L 67.318422 115.661431 
z
" clip-path="url(#p28b339f11d)" style="fill: #d79b00; opacity: 0.7"/>
   </g>
   <g id="patch_22">
    <path d="M 68.62682 29203.050866 
L 69.935218 29203.050866 
L 69.935218 116.202558 
L 68.62682 116.202558 
z
" clip-path="url(#p28b339f11d)" style="fill: #d79b00; opacity: 0.7"/>
   </g>
   <g id="patch_23">
    <path d="M 69.935218 29203.050866 
L 71.243616 29203.050866 
L 71.243616 115.661431 
L 69.935218 115.661431 
z
" clip-path="url(#p28b339f11d)" style="fill: #d79b00; opacity: 0.7"/>
   </g>
   <g id="patch_24">
    <path d="M 71.243616 29203.050866 
L 72.552014 29203.050866 
L 72.552014 113.885736 
L 71.243616 113.885736 
z
" clip-path="url(#p28b339f11d)" style="fill: #d79b00; opacity: 0.7"/>
   </g>
   <g id="patch_25">
    <path d="M 72.552014 29203.050866 
L 73.860412 29203.050866 
L 73.860412 116.425685 
L 72.552014 116.425685 
z
" clip-path="url(#p28b339f11d)" style="fill: #d79b00; opacity: 0.7"/>
   </g>
   <g id="patch_26">
    <path d="M 73.860412 29203.050866 
L 75.16881 29203.050866 
L 75.16881 113.794053 
L 73.860412 113.794053 
z
" clip-path="url(#p28b339f11d)" style="fill: #d79b00; opacity: 0.7"/>
   </g>
   <g id="patch_27">
    <path d="M 75.16881 29203.050866 
L 76.477209 29203.050866 
L 76.477209 113.522939 
L 75.16881 113.522939 
z
" clip-path="url(#p28b339f11d)" style="fill: #d79b00; opacity: 0.7"/>
   </g>
   <g id="patch_28">
    <path d="M 76.477209 29203.050866 
L 77.785607 29203.050866 
L 77.785607 113.257533 
L 76.477209 113.257533 
z
" clip-path="url(#p28b339f11d)" style="fill: #d79b00; opacity: 0.7"/>
   </g>
   <g id="patch_29">
    <path d="M 77.785607 29203.050866 
L 79.094005 29203.050866 
L 79.094005 113.257533 
L 77.785607 113.257533 
z
" clip-path="url(#p28b339f11d)" style="fill: #d79b00; opacity: 0.7"/>
   </g>
   <g id="patch_30">
    <path d="M 79.094005 29203.050866 
L 80.402403 29203.050866 
L 80.402403 113.794053 
L 79.094005 113.794053 
z
" clip-path="url(#p28b339f11d)" style="fill: #d79b00; opacity: 0.7"/>
   </g>
   <g id="patch_31">
    <path d="M 80.402403 29203.050866 
L 81.710801 29203.050866 
L 81.710801 111.618041 
L 80.402403 111.618041 
z
" clip-path="url(#p28b339f11d)" style="fill: #d79b00; opacity: 0.7"/>
   </g>
   <g id="patch_32">
    <path d="M 81.710801 29203.050866 
L 83.019199 29203.050866 
L 83.019199 110.944545 
L 81.710801 110.944545 
z
" clip-path="url(#p28b339f11d)" style="fill: #d79b00; opacity: 0.7"/>
   </g>
   <g id="patch_33">
    <path d="M 83.019199 29203.050866 
L 84.327597 29203.050866 
L 84.327597 110.585366 
L 83.019199 110.585366 
z
" clip-path="url(#p28b339f11d)" style="fill: #d79b00; opacity: 0.7"/>
   </g>
   <g id="patch_34">
    <path d="M 84.327597 29203.050866 
L 85.635995 29203.050866 
L 85.635995 112.411153 
L 84.327597 112.411153 
z
" clip-path="url(#p28b339f11d)" style="fill: #d79b00; opacity: 0.7"/>
   </g>
   <g id="patch_35">
    <path d="M 85.635995 29203.050866 
L 86.944394 29203.050866 
L 86.944394 109.116303 
L 85.635995 109.116303 
z
" clip-path="url(#p28b339f11d)" style="fill: #d79b00; opacity: 0.7"/>
   </g>
   <g id="patch_36">
    <path d="M 86.944394 29203.050866 
L 88.252792 29203.050866 
L 88.252792 108.990866 
L 86.944394 108.990866 
z
" clip-path="url(#p28b339f11d)" style="fill: #d79b00; opacity: 0.7"/>
   </g>
   <g id="patch_37">
    <path d="M 88.252792 29203.050866 
L 89.56119 29203.050866 
L 89.56119 108.928612 
L 88.252792 108.928612 
z
" clip-path="url(#p28b339f11d)" style="fill: #d79b00; opacity: 0.7"/>
   </g>
   <g id="patch_38">
    <path d="M 89.56119 29203.050866 
L 90.869588 29203.050866 
L 90.869588 108.682627 
L 89.56119 108.682627 
z
" clip-path="url(#p28b339f11d)" style="fill: #d79b00; opacity: 0.7"/>
   </g>
   <g id="patch_39">
    <path d="M 90.869588 29203.050866 
L 92.177986 29203.050866 
L 92.177986 108.146107 
L 90.869588 108.146107 
z
" clip-path="url(#p28b339f11d)" style="fill: #d79b00; opacity: 0.7"/>
   </g>
   <g id="patch_40">
    <path d="M 92.177986 29203.050866 
L 93.486384 29203.050866 
L 93.486384 107.354418 
L 92.177986 107.354418 
z
" clip-path="url(#p28b339f11d)" style="fill: #d79b00; opacity: 0.7"/>
   </g>
   <g id="patch_41">
    <path d="M 93.486384 29203.050866 
L 94.794782 29203.050866 
L 94.794782 104.740274 
L 93.486384 104.740274 
z
" clip-path="url(#p28b339f11d)" style="fill: #d79b00; opacity: 0.7"/>
   </g>
   <g id="patch_42">
    <path d="M 94.794782 29203.050866 
L 96.10318 29203.050866 
L 96.10318 105.47394 
L 94.794782 105.47394 
z
" clip-path="url(#p28b339f11d)" style="fill: #d79b00; opacity: 0.7"/>
   </g>
   <g id="patch_43">
    <path d="M 96.10318 29203.050866 
L 97.411578 29203.050866 
L 97.411578 105.712252 
L 96.10318 105.712252 
z
" clip-path="url(#p28b339f11d)" style="fill: #d79b00; opacity: 0.7"/>
   </g>
   <g id="patch_44">
    <path d="M 97.411578 29203.050866 
L 98.719977 29203.050866 
L 98.719977 105.616386 
L 97.411578 105.616386 
z
" clip-path="url(#p28b339f11d)" style="fill: #d79b00; opacity: 0.7"/>
   </g>
   <g id="patch_45">
    <path d="M 98.719977 29203.050866 
L 100.028375 29203.050866 
L 100.028375 103.389812 
L 98.719977 103.389812 
z
" clip-path="url(#p28b339f11d)" style="fill: #d79b00; opacity: 0.7"/>
   </g>
   <g id="patch_46">
    <path d="M 100.028375 29203.050866 
L 101.336773 29203.050866 
L 101.336773 102.803366 
L 100.028375 102.803366 
z
" clip-path="url(#p28b339f11d)" style="fill: #d79b00; opacity: 0.7"/>
   </g>
   <g id="patch_47">
    <path d="M 101.336773 29203.050866 
L 102.645171 29203.050866 
L 102.645171 102.279585 
L 101.336773 102.279585 
z
" clip-path="url(#p28b339f11d)" style="fill: #d79b00; opacity: 0.7"/>
   </g>
   <g id="patch_48">
    <path d="M 102.645171 29203.050866 
L 103.953569 29203.050866 
L 103.953569 102.206505 
L 102.645171 102.206505 
z
" clip-path="url(#p28b339f11d)" style="fill: #d79b00; opacity: 0.7"/>
   </g>
   <g id="patch_49">
    <path d="M 103.953569 29203.050866 
L 105.261967 29203.050866 
L 105.261967 101.463701 
L 103.953569 101.463701 
z
" clip-path="url(#p28b339f11d)" style="fill: #d79b00; opacity: 0.7"/>
   </g>
   <g id="patch_50">
    <path d="M 105.261967 29203.050866 
L 106.570365 29203.050866 
L 106.570365 99.793249 
L 105.261967 99.793249 
z
" clip-path="url(#p28b339f11d)" style="fill: #d79b00; opacity: 0.7"/>
   </g>
   <g id="patch_51">
    <path d="M 106.570365 29203.050866 
L 107.878763 29203.050866 
L 107.878763 98.079857 
L 106.570365 98.079857 
z
" clip-path="url(#p28b339f11d)" style="fill: #d79b00; opacity: 0.7"/>
   </g>
   <g id="patch_52">
    <path d="M 107.878763 29203.050866 
L 109.187162 29203.050866 
L 109.187162 97.897343 
L 107.878763 97.897343 
z
" clip-path="url(#p28b339f11d)" style="fill: #d79b00; opacity: 0.7"/>
   </g>
   <g id="patch_53">
    <path d="M 109.187162 29203.050866 
L 110.49556 29203.050866 
L 110.49556 96.046858 
L 109.187162 96.046858 
z
" clip-path="url(#p28b339f11d)" style="fill: #d79b00; opacity: 0.7"/>
   </g>
   <g id="patch_54">
    <path d="M 110.49556 29203.050866 
L 111.803958 29203.050866 
L 111.803958 95.266836 
L 110.49556 95.266836 
z
" clip-path="url(#p28b339f11d)" style="fill: #d79b00; opacity: 0.7"/>
   </g>
   <g id="patch_55">
    <path d="M 111.803958 29203.050866 
L 113.112356 29203.050866 
L 113.112356 95.629173 
L 111.803958 95.629173 
z
" clip-path="url(#p28b339f11d)" style="fill: #d79b00; opacity: 0.7"/>
   </g>
   <g id="patch_56">
    <path d="M 113.112356 29203.050866 
L 114.420754 29203.050866 
L 114.420754 95.69421 
L 113.112356 95.69421 
z
" clip-path="url(#p28b339f11d)" style="fill: #d79b00; opacity: 0.7"/>
   </g>
   <g id="patch_57">
    <path d="M 114.420754 29203.050866 
L 115.729152 29203.050866 
L 115.729152 94.571984 
L 114.420754 94.571984 
z
" clip-path="url(#p28b339f11d)" style="fill: #d79b00; opacity: 0.7"/>
   </g>
   <g id="patch_58">
    <path d="M 115.729152 29203.050866 
L 117.03755 29203.050866 
L 117.03755 92.657148 
L 115.729152 92.657148 
z
" clip-path="url(#p28b339f11d)" style="fill: #d79b00; opacity: 0.7"/>
   </g>
   <g id="patch_59">
    <path d="M 117.03755 29203.050866 
L 118.345948 29203.050866 
L 118.345948 91.406042 
L 117.03755 91.406042 
z
" clip-path="url(#p28b339f11d)" style="fill: #d79b00; opacity: 0.7"/>
   </g>
   <g id="patch_60">
    <path d="M 118.345948 29203.050866 
L 119.654347 29203.050866 
L 119.654347 90.267968 
L 118.345948 90.267968 
z
" clip-path="url(#p28b339f11d)" style="fill: #d79b00; opacity: 0.7"/>
   </g>
   <g id="patch_61">
    <path d="M 119.654347 29203.050866 
L 120.962745 29203.050866 
L 120.962745 90.113459 
L 119.654347 90.113459 
z
" clip-path="url(#p28b339f11d)" style="fill: #d79b00; opacity: 0.7"/>
   </g>
   <g id="patch_62">
    <path d="M 120.962745 29203.050866 
L 122.271143 29203.050866 
L 122.271143 88.503625 
L 120.962745 88.503625 
z
" clip-path="url(#p28b339f11d)" style="fill: #d79b00; opacity: 0.7"/>
   </g>
   <g id="patch_63">
    <path d="M 122.271143 29203.050866 
L 123.579541 29203.050866 
L 123.579541 87.331189 
L 122.271143 87.331189 
z
" clip-path="url(#p28b339f11d)" style="fill: #d79b00; opacity: 0.7"/>
   </g>
   <g id="patch_64">
    <path d="M 123.579541 29203.050866 
L 124.887939 29203.050866 
L 124.887939 86.176583 
L 123.579541 86.176583 
z
" clip-path="url(#p28b339f11d)" style="fill: #d79b00; opacity: 0.7"/>
   </g>
   <g id="patch_65">
    <path d="M 124.887939 29203.050866 
L 126.196337 29203.050866 
L 126.196337 84.858594 
L 124.887939 84.858594 
z
" clip-path="url(#p28b339f11d)" style="fill: #d79b00; opacity: 0.7"/>
   </g>
   <g id="patch_66">
    <path d="M 126.196337 29203.050866 
L 127.504735 29203.050866 
L 127.504735 82.807987 
L 126.196337 82.807987 
z
" clip-path="url(#p28b339f11d)" style="fill: #d79b00; opacity: 0.7"/>
   </g>
   <g id="patch_67">
    <path d="M 127.504735 29203.050866 
L 128.813133 29203.050866 
L 128.813133 80.943159 
L 127.504735 80.943159 
z
" clip-path="url(#p28b339f11d)" style="fill: #d79b00; opacity: 0.7"/>
   </g>
   <g id="patch_68">
    <path d="M 128.813133 29203.050866 
L 130.121532 29203.050866 
L 130.121532 79.259819 
L 128.813133 79.259819 
z
" clip-path="url(#p28b339f11d)" style="fill: #d79b00; opacity: 0.7"/>
   </g>
   <g id="patch_69">
    <path d="M 130.121532 29203.050866 
L 131.42993 29203.050866 
L 131.42993 77.367234 
L 130.121532 77.367234 
z
" clip-path="url(#p28b339f11d)" style="fill: #d79b00; opacity: 0.7"/>
   </g>
   <g id="patch_70">
    <path d="M 131.42993 29203.050866 
L 132.738328 29203.050866 
L 132.738328 74.944163 
L 131.42993 74.944163 
z
" clip-path="url(#p28b339f11d)" style="fill: #d79b00; opacity: 0.7"/>
   </g>
   <g id="patch_71">
    <path d="M 132.738328 29203.050866 
L 134.046726 29203.050866 
L 134.046726 73.941567 
L 132.738328 73.941567 
z
" clip-path="url(#p28b339f11d)" style="fill: #d79b00; opacity: 0.7"/>
   </g>
   <g id="patch_72">
    <path d="M 134.046726 29203.050866 
L 135.355124 29203.050866 
L 135.355124 72.0676 
L 134.046726 72.0676 
z
" clip-path="url(#p28b339f11d)" style="fill: #d79b00; opacity: 0.7"/>
   </g>
   <g id="patch_73">
    <path d="M 135.355124 29203.050866 
L 136.663522 29203.050866 
L 136.663522 69.344972 
L 135.355124 69.344972 
z
" clip-path="url(#p28b339f11d)" style="fill: #d79b00; opacity: 0.7"/>
   </g>
   <g id="patch_74">
    <path d="M 136.663522 29203.050866 
L 137.97192 29203.050866 
L 137.97192 67.332005 
L 136.663522 67.332005 
z
" clip-path="url(#p28b339f11d)" style="fill: #d79b00; opacity: 0.7"/>
   </g>
   <g id="patch_75">
    <path d="M 137.97192 29203.050866 
L 139.280318 29203.050866 
L 139.280318 65.078358 
L 137.97192 65.078358 
z
" clip-path="url(#p28b339f11d)" style="fill: #d79b00; opacity: 0.7"/>
   </g>
   <g id="patch_76">
    <path d="M 139.280318 29203.050866 
L 140.588717 29203.050866 
L 140.588717 63.438445 
L 139.280318 63.438445 
z
" clip-path="url(#p28b339f11d)" style="fill: #d79b00; opacity: 0.7"/>
   </g>
   <g id="patch_77">
    <path d="M 140.588717 29203.050866 
L 141.897115 29203.050866 
L 141.897115 60.88275 
L 140.588717 60.88275 
z
" clip-path="url(#p28b339f11d)" style="fill: #d79b00; opacity: 0.7"/>
   </g>
   <g id="patch_78">
    <path d="M 141.897115 29203.050866 
L 143.205513 29203.050866 
L 143.205513 59.131083 
L 141.897115 59.131083 
z
" clip-path="url(#p28b339f11d)" style="fill: #d79b00; opacity: 0.7"/>
   </g>
   <g id="patch_79">
    <path d="M 143.205513 29203.050866 
L 144.513911 29203.050866 
L 144.513911 56.57433 
L 143.205513 56.57433 
z
" clip-path="url(#p28b339f11d)" style="fill: #d79b00; opacity: 0.7"/>
   </g>
   <g id="patch_80">
    <path d="M 144.513911 29203.050866 
L 145.822309 29203.050866 
L 145.822309 54.549058 
L 144.513911 54.549058 
z
" clip-path="url(#p28b339f11d)" style="fill: #d79b00; opacity: 0.7"/>
   </g>
   <g id="patch_81">
    <path d="M 145.822309 29203.050866 
L 147.130707 29203.050866 
L 147.130707 52.663504 
L 145.822309 52.663504 
z
" clip-path="url(#p28b339f11d)" style="fill: #d79b00; opacity: 0.7"/>
   </g>
   <g id="patch_82">
    <path d="M 147.130707 29203.050866 
L 148.439105 29203.050866 
L 148.439105 51.102423 
L 147.130707 51.102423 
z
" clip-path="url(#p28b339f11d)" style="fill: #d79b00; opacity: 0.7"/>
   </g>
   <g id="patch_83">
    <path d="M 148.439105 29203.050866 
L 149.747503 29203.050866 
L 149.747503 49.199684 
L 148.439105 49.199684 
z
" clip-path="url(#p28b339f11d)" style="fill: #d79b00; opacity: 0.7"/>
   </g>
   <g id="patch_84">
    <path d="M 149.747503 29203.050866 
L 151.055902 29203.050866 
L 151.055902 47.864626 
L 149.747503 47.864626 
z
" clip-path="url(#p28b339f11d)" style="fill: #d79b00; opacity: 0.7"/>
   </g>
   <g id="patch_85">
    <path d="M 151.055902 29203.050866 
L 152.3643 29203.050866 
L 152.3643 46.537639 
L 151.055902 46.537639 
z
" clip-path="url(#p28b339f11d)" style="fill: #d79b00; opacity: 0.7"/>
   </g>
   <g id="patch_86">
    <path d="M 152.3643 29203.050866 
L 153.672698 29203.050866 
L 153.672698 45.151189 
L 152.3643 45.151189 
z
" clip-path="url(#p28b339f11d)" style="fill: #d79b00; opacity: 0.7"/>
   </g>
   <g id="patch_87">
    <path d="M 153.672698 29203.050866 
L 154.981096 29203.050866 
L 154.981096 43.653238 
L 153.672698 43.653238 
z
" clip-path="url(#p28b339f11d)" style="fill: #d79b00; opacity: 0.7"/>
   </g>
   <g id="patch_88">
    <path d="M 154.981096 29203.050866 
L 156.289494 29203.050866 
L 156.289494 41.057597 
L 154.981096 41.057597 
z
" clip-path="url(#p28b339f11d)" style="fill: #d79b00; opacity: 0.7"/>
   </g>
   <g id="patch_89">
    <path d="M 156.289494 29203.050866 
L 157.597892 29203.050866 
L 157.597892 36.790453 
L 156.289494 36.790453 
z
" clip-path="url(#p28b339f11d)" style="fill: #d79b00; opacity: 0.7"/>
   </g>
   <g id="patch_90">
    <path d="M 157.597892 29203.050866 
L 158.90629 29203.050866 
L 158.90629 30.336684 
L 157.597892 30.336684 
z
" clip-path="url(#p28b339f11d)" style="fill: #d79b00; opacity: 0.7"/>
   </g>
   <g id="patch_91">
    <path d="M 158.90629 29203.050866 
L 160.214688 29203.050866 
L 160.214688 19.852615 
L 158.90629 19.852615 
z
" clip-path="url(#p28b339f11d)" style="fill: #d79b00; opacity: 0.7"/>
   </g>
   <g id="patch_92">
    <path d="M 160.214688 29203.050866 
L 161.523086 29203.050866 
L 161.523086 8.194553 
L 160.214688 8.194553 
z
" clip-path="url(#p28b339f11d)" style="fill: #d79b00; opacity: 0.7"/>
   </g>
   <g id="patch_93">
    <path d="M 161.523086 29203.050866 
L 162.831485 29203.050866 
L 162.831485 21.728021 
L 161.523086 21.728021 
z
" clip-path="url(#p28b339f11d)" style="fill: #d79b00; opacity: 0.7"/>
   </g>
   <g id="patch_94">
    <path d="M 162.831485 29203.050866 
L 164.139883 29203.050866 
L 164.139883 31.147801 
L 162.831485 31.147801 
z
" clip-path="url(#p28b339f11d)" style="fill: #d79b00; opacity: 0.7"/>
   </g>
   <g id="patch_95">
    <path d="M 164.139883 29203.050866 
L 165.448281 29203.050866 
L 165.448281 37.272575 
L 164.139883 37.272575 
z
" clip-path="url(#p28b339f11d)" style="fill: #d79b00; opacity: 0.7"/>
   </g>
   <g id="patch_96">
    <path d="M 165.448281 29203.050866 
L 166.756679 29203.050866 
L 166.756679 41.36692 
L 165.448281 41.36692 
z
" clip-path="url(#p28b339f11d)" style="fill: #d79b00; opacity: 0.7"/>
   </g>
   <g id="patch_97">
    <path d="M 166.756679 29203.050866 
L 168.065077 29203.050866 
L 168.065077 43.806505 
L 166.756679 43.806505 
z
" clip-path="url(#p28b339f11d)" style="fill: #d79b00; opacity: 0.7"/>
   </g>
   <g id="patch_98">
    <path d="M 168.065077 29203.050866 
L 169.373475 29203.050866 
L 169.373475 45.482454 
L 168.065077 45.482454 
z
" clip-path="url(#p28b339f11d)" style="fill: #d79b00; opacity: 0.7"/>
   </g>
   <g id="patch_99">
    <path d="M 169.373475 29203.050866 
L 170.681873 29203.050866 
L 170.681873 47.026417 
L 169.373475 47.026417 
z
" clip-path="url(#p28b339f11d)" style="fill: #d79b00; opacity: 0.7"/>
   </g>
   <g id="patch_100">
    <path d="M 170.681873 29203.050866 
L 171.990271 29203.050866 
L 171.990271 48.531496 
L 170.681873 48.531496 
z
" clip-path="url(#p28b339f11d)" style="fill: #d79b00; opacity: 0.7"/>
   </g>
   <g id="patch_101">
    <path d="M 171.990271 29203.050866 
L 173.29867 29203.050866 
L 173.29867 50.551841 
L 171.990271 50.551841 
z
" clip-path="url(#p28b339f11d)" style="fill: #d79b00; opacity: 0.7"/>
   </g>
   <g id="patch_102">
    <path d="M 173.29867 29203.050866 
L 174.607068 29203.050866 
L 174.607068 52.360148 
L 173.29867 52.360148 
z
" clip-path="url(#p28b339f11d)" style="fill: #d79b00; opacity: 0.7"/>
   </g>
   <g id="patch_103">
    <path d="M 174.607068 29203.050866 
L 175.915466 29203.050866 
L 175.915466 54.41759 
L 174.607068 54.41759 
z
" clip-path="url(#p28b339f11d)" style="fill: #d79b00; opacity: 0.7"/>
   </g>
   <g id="patch_104">
    <path d="M 175.915466 29203.050866 
L 177.223864 29203.050866 
L 177.223864 56.647745 
L 175.915466 56.647745 
z
" clip-path="url(#p28b339f11d)" style="fill: #d79b00; opacity: 0.7"/>
   </g>
   <g id="patch_105">
    <path d="M 177.223864 29203.050866 
L 178.532262 29203.050866 
L 178.532262 59.294725 
L 177.223864 59.294725 
z
" clip-path="url(#p28b339f11d)" style="fill: #d79b00; opacity: 0.7"/>
   </g>
   <g id="patch_106">
    <path d="M 178.532262 29203.050866 
L 179.84066 29203.050866 
L 179.84066 61.726326 
L 178.532262 61.726326 
z
" clip-path="url(#p28b339f11d)" style="fill: #d79b00; opacity: 0.7"/>
   </g>
   <g id="patch_107">
    <path d="M 179.84066 29203.050866 
L 181.149058 29203.050866 
L 181.149058 64.31805 
L 179.84066 64.31805 
z
" clip-path="url(#p28b339f11d)" style="fill: #d79b00; opacity: 0.7"/>
   </g>
   <g id="patch_108">
    <path d="M 181.149058 29203.050866 
L 182.457456 29203.050866 
L 182.457456 67.062256 
L 181.149058 67.062256 
z
" clip-path="url(#p28b339f11d)" style="fill: #d79b00; opacity: 0.7"/>
   </g>
   <g id="patch_109">
    <path d="M 182.457456 29203.050866 
L 183.765855 29203.050866 
L 183.765855 69.277952 
L 182.457456 69.277952 
z
" clip-path="url(#p28b339f11d)" style="fill: #d79b00; opacity: 0.7"/>
   </g>
   <g id="patch_110">
    <path d="M 183.765855 29203.050866 
L 185.074253 29203.050866 
L 185.074253 71.580101 
L 183.765855 71.580101 
z
" clip-path="url(#p28b339f11d)" style="fill: #d79b00; opacity: 0.7"/>
   </g>
   <g id="patch_111">
    <path d="M 185.074253 29203.050866 
L 186.382651 29203.050866 
L 186.382651 74.101266 
L 185.074253 74.101266 
z
" clip-path="url(#p28b339f11d)" style="fill: #d79b00; opacity: 0.7"/>
   </g>
   <g id="patch_112">
    <path d="M 186.382651 29203.050866 
L 187.691049 29203.050866 
L 187.691049 76.560626 
L 186.382651 76.560626 
z
" clip-path="url(#p28b339f11d)" style="fill: #d79b00; opacity: 0.7"/>
   </g>
   <g id="patch_113">
    <path d="M 187.691049 29203.050866 
L 188.999447 29203.050866 
L 188.999447 78.207267 
L 187.691049 78.207267 
z
" clip-path="url(#p28b339f11d)" style="fill: #d79b00; opacity: 0.7"/>
   </g>
   <g id="patch_114">
    <path d="M 188.999447 29203.050866 
L 190.307845 29203.050866 
L 190.307845 80.089161 
L 188.999447 80.089161 
z
" clip-path="url(#p28b339f11d)" style="fill: #d79b00; opacity: 0.7"/>
   </g>
   <g id="patch_115">
    <path d="M 190.307845 29203.050866 
L 191.616243 29203.050866 
L 191.616243 82.339753 
L 190.307845 82.339753 
z
" clip-path="url(#p28b339f11d)" style="fill: #d79b00; opacity: 0.7"/>
   </g>
   <g id="patch_116">
    <path d="M 191.616243 29203.050866 
L 192.924641 29203.050866 
L 192.924641 84.567526 
L 191.616243 84.567526 
z
" clip-path="url(#p28b339f11d)" style="fill: #d79b00; opacity: 0.7"/>
   </g>
   <g id="patch_117">
    <path d="M 192.924641 29203.050866 
L 194.23304 29203.050866 
L 194.23304 86.166371 
L 192.924641 86.166371 
z
" clip-path="url(#p28b339f11d)" style="fill: #d79b00; opacity: 0.7"/>
   </g>
   <g id="patch_118">
    <path d="M 194.23304 29203.050866 
L 195.541438 29203.050866 
L 195.541438 87.120246 
L 194.23304 87.120246 
z
" clip-path="url(#p28b339f11d)" style="fill: #d79b00; opacity: 0.7"/>
   </g>
   <g id="patch_119">
    <path d="M 195.541438 29203.050866 
L 196.849836 29203.050866 
L 196.849836 89.567054 
L 195.541438 89.567054 
z
" clip-path="url(#p28b339f11d)" style="fill: #d79b00; opacity: 0.7"/>
   </g>
   <g id="patch_120">
    <path d="M 196.849836 29203.050866 
L 198.158234 29203.050866 
L 198.158234 90.424393 
L 196.849836 90.424393 
z
" clip-path="url(#p28b339f11d)" style="fill: #d79b00; opacity: 0.7"/>
   </g>
   <g id="patch_121">
    <path d="M 198.158234 29203.050866 
L 199.466632 29203.050866 
L 199.466632 91.07026 
L 198.158234 91.07026 
z
" clip-path="url(#p28b339f11d)" style="fill: #d79b00; opacity: 0.7"/>
   </g>
   <g id="patch_122">
    <path d="M 199.466632 29203.050866 
L 200.77503 29203.050866 
L 200.77503 92.742847 
L 199.466632 92.742847 
z
" clip-path="url(#p28b339f11d)" style="fill: #d79b00; opacity: 0.7"/>
   </g>
   <g id="patch_123">
    <path d="M 200.77503 29203.050866 
L 202.083428 29203.050866 
L 202.083428 94.833161 
L 200.77503 94.833161 
z
" clip-path="url(#p28b339f11d)" style="fill: #d79b00; opacity: 0.7"/>
   </g>
   <g id="patch_124">
    <path d="M 202.083428 29203.050866 
L 203.391826 29203.050866 
L 203.391826 95.737756 
L 202.083428 95.737756 
z
" clip-path="url(#p28b339f11d)" style="fill: #d79b00; opacity: 0.7"/>
   </g>
   <g id="patch_125">
    <path d="M 203.391826 29203.050866 
L 204.700225 29203.050866 
L 204.700225 98.02744 
L 203.391826 98.02744 
z
" clip-path="url(#p28b339f11d)" style="fill: #d79b00; opacity: 0.7"/>
   </g>
   <g id="patch_126">
    <path d="M 204.700225 29203.050866 
L 206.008623 29203.050866 
L 206.008623 99.408066 
L 204.700225 99.408066 
z
" clip-path="url(#p28b339f11d)" style="fill: #d79b00; opacity: 0.7"/>
   </g>
   <g id="patch_127">
    <path d="M 206.008623 29203.050866 
L 207.317021 29203.050866 
L 207.317021 99.975074 
L 206.008623 99.975074 
z
" clip-path="url(#p28b339f11d)" style="fill: #d79b00; opacity: 0.7"/>
   </g>
   <g id="patch_128">
    <path d="M 207.317021 29203.050866 
L 208.625419 29203.050866 
L 208.625419 99.763198 
L 207.317021 99.763198 
z
" clip-path="url(#p28b339f11d)" style="fill: #d79b00; opacity: 0.7"/>
   </g>
   <g id="patch_129">
    <path d="M 208.625419 29203.050866 
L 209.933817 29203.050866 
L 209.933817 102.353092 
L 208.625419 102.353092 
z
" clip-path="url(#p28b339f11d)" style="fill: #d79b00; opacity: 0.7"/>
   </g>
   <g id="patch_130">
    <path d="M 209.933817 29203.050866 
L 211.242215 29203.050866 
L 211.242215 104.607342 
L 209.933817 104.607342 
z
" clip-path="url(#p28b339f11d)" style="fill: #d79b00; opacity: 0.7"/>
   </g>
   <g id="patch_131">
    <path d="M 211.242215 29203.050866 
L 212.550613 29203.050866 
L 212.550613 104.563341 
L 211.242215 104.563341 
z
" clip-path="url(#p28b339f11d)" style="fill: #d79b00; opacity: 0.7"/>
   </g>
   <g id="patch_132">
    <path d="M 212.550613 29203.050866 
L 213.859011 29203.050866 
L 213.859011 104.919727 
L 212.550613 104.919727 
z
" clip-path="url(#p28b339f11d)" style="fill: #d79b00; opacity: 0.7"/>
   </g>
   <g id="patch_133">
    <path d="M 213.859011 29203.050866 
L 215.16741 29203.050866 
L 215.16741 105.24005 
L 213.859011 105.24005 
z
" clip-path="url(#p28b339f11d)" style="fill: #d79b00; opacity: 0.7"/>
   </g>
   <g id="patch_134">
    <path d="M 215.16741 29203.050866 
L 216.475808 29203.050866 
L 216.475808 107.464518 
L 215.16741 107.464518 
z
" clip-path="url(#p28b339f11d)" style="fill: #d79b00; opacity: 0.7"/>
   </g>
   <g id="patch_135">
    <path d="M 216.475808 29203.050866 
L 217.784206 29203.050866 
L 217.784206 108.866665 
L 216.475808 108.866665 
z
" clip-path="url(#p28b339f11d)" style="fill: #d79b00; opacity: 0.7"/>
   </g>
   <g id="patch_136">
    <path d="M 217.784206 29203.050866 
L 219.092604 29203.050866 
L 219.092604 107.464518 
L 217.784206 107.464518 
z
" clip-path="url(#p28b339f11d)" style="fill: #d79b00; opacity: 0.7"/>
   </g>
   <g id="patch_137">
    <path d="M 219.092604 29203.050866 
L 220.401002 29203.050866 
L 220.401002 109.243001 
L 219.092604 109.243001 
z
" clip-path="url(#p28b339f11d)" style="fill: #d79b00; opacity: 0.7"/>
   </g>
   <g id="patch_138">
    <path d="M 220.401002 29203.050866 
L 221.7094 29203.050866 
L 221.7094 110.167439 
L 220.401002 110.167439 
z
" clip-path="url(#p28b339f11d)" style="fill: #d79b00; opacity: 0.7"/>
   </g>
   <g id="patch_139">
    <path d="M 221.7094 29203.050866 
L 223.017798 29203.050866 
L 223.017798 113.345382 
L 221.7094 113.345382 
z
" clip-path="url(#p28b339f11d)" style="fill: #d79b00; opacity: 0.7"/>
   </g>
   <g id="patch_140">
    <path d="M 223.017798 29203.050866 
L 224.326196 29203.050866 
L 224.326196 111.929324 
L 223.017798 111.929324 
z
" clip-path="url(#p28b339f11d)" style="fill: #d79b00; opacity: 0.7"/>
   </g>
   <g id="patch_141">
    <path d="M 224.326196 29203.050866 
L 225.634594 29203.050866 
L 225.634594 113.433848 
L 224.326196 113.433848 
z
" clip-path="url(#p28b339f11d)" style="fill: #d79b00; opacity: 0.7"/>
   </g>
   <g id="patch_142">
    <path d="M 225.634594 29203.050866 
L 226.942993 29203.050866 
L 226.942993 114.546894 
L 225.634594 114.546894 
z
" clip-path="url(#p28b339f11d)" style="fill: #d79b00; opacity: 0.7"/>
   </g>
   <g id="patch_143">
    <path d="M 226.942993 29203.050866 
L 228.251391 29203.050866 
L 228.251391 115.661431 
L 226.942993 115.661431 
z
" clip-path="url(#p28b339f11d)" style="fill: #d79b00; opacity: 0.7"/>
   </g>
   <g id="patch_144">
    <path d="M 228.251391 29203.050866 
L 229.559789 29203.050866 
L 229.559789 117.481716 
L 228.251391 117.481716 
z
" clip-path="url(#p28b339f11d)" style="fill: #d79b00; opacity: 0.7"/>
   </g>
   <g id="patch_145">
    <path d="M 229.559789 29203.050866 
L 230.868187 29203.050866 
L 230.868187 120.356081 
L 229.559789 120.356081 
z
" clip-path="url(#p28b339f11d)" style="fill: #d79b00; opacity: 0.7"/>
   </g>
   <g id="patch_146">
    <path d="M 230.868187 29203.050866 
L 232.176585 29203.050866 
L 232.176585 117.001416 
L 230.868187 117.001416 
z
" clip-path="url(#p28b339f11d)" style="fill: #d79b00; opacity: 0.7"/>
   </g>
   <g id="patch_147">
    <path d="M 232.176585 29203.050866 
L 233.484983 29203.050866 
L 233.484983 118.109025 
L 232.176585 118.109025 
z
" clip-path="url(#p28b339f11d)" style="fill: #d79b00; opacity: 0.7"/>
   </g>
   <g id="patch_148">
    <path d="M 233.484983 29203.050866 
L 234.793381 29203.050866 
L 234.793381 120.203275 
L 233.484983 120.203275 
z
" clip-path="url(#p28b339f11d)" style="fill: #d79b00; opacity: 0.7"/>
   </g>
   <g id="patch_149">
    <path d="M 234.793381 29203.050866 
L 236.101779 29203.050866 
L 236.101779 121.480958 
L 234.793381 121.480958 
z
" clip-path="url(#p28b339f11d)" style="fill: #d79b00; opacity: 0.7"/>
   </g>
   <g id="patch_150">
    <path d="M 236.101779 29203.050866 
L 237.410178 29203.050866 
L 237.410178 123.678914 
L 236.101779 123.678914 
z
" clip-path="url(#p28b339f11d)" style="fill: #d79b00; opacity: 0.7"/>
   </g>
   <g id="patch_151">
    <path d="M 237.410178 29203.050866 
L 238.718576 29203.050866 
L 238.718576 121.650173 
L 237.410178 121.650173 
z
" clip-path="url(#p28b339f11d)" style="fill: #d79b00; opacity: 0.7"/>
   </g>
   <g id="patch_152">
    <path d="M 43.767255 29203.050866 
L 45.075654 29203.050866 
L 45.075654 114.940873 
L 43.767255 114.940873 
z
" clip-path="url(#p28b339f11d)" style="fill: #6c8ebf; opacity: 0.6"/>
   </g>
   <g id="patch_153">
    <path d="M 45.075654 29203.050866 
L 46.384052 29203.050866 
L 46.384052 114.742344 
L 45.075654 114.742344 
z
" clip-path="url(#p28b339f11d)" style="fill: #6c8ebf; opacity: 0.6"/>
   </g>
   <g id="patch_154">
    <path d="M 46.384052 29203.050866 
L 47.69245 29203.050866 
L 47.69245 111.239444 
L 46.384052 111.239444 
z
" clip-path="url(#p28b339f11d)" style="fill: #6c8ebf; opacity: 0.6"/>
   </g>
   <g id="patch_155">
    <path d="M 47.69245 29203.050866 
L 49.000848 29203.050866 
L 49.000848 113.703033 
L 47.69245 113.703033 
z
" clip-path="url(#p28b339f11d)" style="fill: #6c8ebf; opacity: 0.6"/>
   </g>
   <g id="patch_156">
    <path d="M 49.000848 29203.050866 
L 50.309246 29203.050866 
L 50.309246 113.345382 
L 49.000848 113.345382 
z
" clip-path="url(#p28b339f11d)" style="fill: #6c8ebf; opacity: 0.6"/>
   </g>
   <g id="patch_157">
    <path d="M 50.309246 29203.050866 
L 51.617644 29203.050866 
L 51.617644 112.087896 
L 50.309246 112.087896 
z
" clip-path="url(#p28b339f11d)" style="fill: #6c8ebf; opacity: 0.6"/>
   </g>
   <g id="patch_158">
    <path d="M 51.617644 29203.050866 
L 52.926042 29203.050866 
L 52.926042 115.555938 
L 51.617644 115.555938 
z
" clip-path="url(#p28b339f11d)" style="fill: #6c8ebf; opacity: 0.6"/>
   </g>
   <g id="patch_159">
    <path d="M 52.926042 29203.050866 
L 54.23444 29203.050866 
L 54.23444 113.522939 
L 52.926042 113.522939 
z
" clip-path="url(#p28b339f11d)" style="fill: #6c8ebf; opacity: 0.6"/>
   </g>
   <g id="patch_160">
    <path d="M 54.23444 29203.050866 
L 55.542839 29203.050866 
L 55.542839 111.850779 
L 54.23444 111.850779 
z
" clip-path="url(#p28b339f11d)" style="fill: #6c8ebf; opacity: 0.6"/>
   </g>
   <g id="patch_161">
    <path d="M 55.542839 29203.050866 
L 56.851237 29203.050866 
L 56.851237 112.659154 
L 55.542839 112.659154 
z
" clip-path="url(#p28b339f11d)" style="fill: #6c8ebf; opacity: 0.6"/>
   </g>
   <g id="patch_162">
    <path d="M 56.851237 29203.050866 
L 58.159635 29203.050866 
L 58.159635 110.305214 
L 56.851237 110.305214 
z
" clip-path="url(#p28b339f11d)" style="fill: #6c8ebf; opacity: 0.6"/>
   </g>
   <g id="patch_163">
    <path d="M 58.159635 29203.050866 
L 59.468033 29203.050866 
L 59.468033 110.944545 
L 58.159635 110.944545 
z
" clip-path="url(#p28b339f11d)" style="fill: #6c8ebf; opacity: 0.6"/>
   </g>
   <g id="patch_164">
    <path d="M 59.468033 29203.050866 
L 60.776431 29203.050866 
L 60.776431 109.565431 
L 59.468033 109.565431 
z
" clip-path="url(#p28b339f11d)" style="fill: #6c8ebf; opacity: 0.6"/>
   </g>
   <g id="patch_165">
    <path d="M 60.776431 29203.050866 
L 62.084829 29203.050866 
L 62.084829 109.696748 
L 60.776431 109.696748 
z
" clip-path="url(#p28b339f11d)" style="fill: #6c8ebf; opacity: 0.6"/>
   </g>
   <g id="patch_166">
    <path d="M 62.084829 29203.050866 
L 63.393227 29203.050866 
L 63.393227 109.896325 
L 62.084829 109.896325 
z
" clip-path="url(#p28b339f11d)" style="fill: #6c8ebf; opacity: 0.6"/>
   </g>
   <g id="patch_167">
    <path d="M 63.393227 29203.050866 
L 64.701625 29203.050866 
L 64.701625 110.727812 
L 63.393227 110.727812 
z
" clip-path="url(#p28b339f11d)" style="fill: #6c8ebf; opacity: 0.6"/>
   </g>
   <g id="patch_168">
    <path d="M 64.701625 29203.050866 
L 66.010024 29203.050866 
L 66.010024 107.575587 
L 64.701625 107.575587 
z
" clip-path="url(#p28b339f11d)" style="fill: #6c8ebf; opacity: 0.6"/>
   </g>
   <g id="patch_169">
    <path d="M 66.010024 29203.050866 
L 67.318422 29203.050866 
L 67.318422 107.972224 
L 66.010024 107.972224 
z
" clip-path="url(#p28b339f11d)" style="fill: #6c8ebf; opacity: 0.6"/>
   </g>
   <g id="patch_170">
    <path d="M 67.318422 29203.050866 
L 68.62682 29203.050866 
L 68.62682 106.103178 
L 67.318422 106.103178 
z
" clip-path="url(#p28b339f11d)" style="fill: #6c8ebf; opacity: 0.6"/>
   </g>
   <g id="patch_171">
    <path d="M 68.62682 29203.050866 
L 69.935218 29203.050866 
L 69.935218 107.464518 
L 68.62682 107.464518 
z
" clip-path="url(#p28b339f11d)" style="fill: #6c8ebf; opacity: 0.6"/>
   </g>
   <g id="patch_172">
    <path d="M 69.935218 29203.050866 
L 71.243616 29203.050866 
L 71.243616 107.191051 
L 69.935218 107.191051 
z
" clip-path="url(#p28b339f11d)" style="fill: #6c8ebf; opacity: 0.6"/>
   </g>
   <g id="patch_173">
    <path d="M 71.243616 29203.050866 
L 72.552014 29203.050866 
L 72.552014 105.616386 
L 71.243616 105.616386 
z
" clip-path="url(#p28b339f11d)" style="fill: #6c8ebf; opacity: 0.6"/>
   </g>
   <g id="patch_174">
    <path d="M 72.552014 29203.050866 
L 73.860412 29203.050866 
L 73.860412 104.388856 
L 72.552014 104.388856 
z
" clip-path="url(#p28b339f11d)" style="fill: #6c8ebf; opacity: 0.6"/>
   </g>
   <g id="patch_175">
    <path d="M 73.860412 29203.050866 
L 75.16881 29203.050866 
L 75.16881 105.24005 
L 73.860412 105.24005 
z
" clip-path="url(#p28b339f11d)" style="fill: #6c8ebf; opacity: 0.6"/>
   </g>
   <g id="patch_176">
    <path d="M 75.16881 29203.050866 
L 76.477209 29203.050866 
L 76.477209 105.333086 
L 75.16881 105.333086 
z
" clip-path="url(#p28b339f11d)" style="fill: #6c8ebf; opacity: 0.6"/>
   </g>
   <g id="patch_177">
    <path d="M 76.477209 29203.050866 
L 77.785607 29203.050866 
L 77.785607 104.089201 
L 76.477209 104.089201 
z
" clip-path="url(#p28b339f11d)" style="fill: #6c8ebf; opacity: 0.6"/>
   </g>
   <g id="patch_178">
    <path d="M 77.785607 29203.050866 
L 79.094005 29203.050866 
L 79.094005 104.174092 
L 77.785607 104.174092 
z
" clip-path="url(#p28b339f11d)" style="fill: #6c8ebf; opacity: 0.6"/>
   </g>
   <g id="patch_179">
    <path d="M 79.094005 29203.050866 
L 80.402403 29203.050866 
L 80.402403 103.962926 
L 79.094005 103.962926 
z
" clip-path="url(#p28b339f11d)" style="fill: #6c8ebf; opacity: 0.6"/>
   </g>
   <g id="patch_180">
    <path d="M 80.402403 29203.050866 
L 81.710801 29203.050866 
L 81.710801 102.170123 
L 80.402403 102.170123 
z
" clip-path="url(#p28b339f11d)" style="fill: #6c8ebf; opacity: 0.6"/>
   </g>
   <g id="patch_181">
    <path d="M 81.710801 29203.050866 
L 83.019199 29203.050866 
L 83.019199 101.567174 
L 81.710801 101.567174 
z
" clip-path="url(#p28b339f11d)" style="fill: #6c8ebf; opacity: 0.6"/>
   </g>
   <g id="patch_182">
    <path d="M 83.019199 29203.050866 
L 84.327597 29203.050866 
L 84.327597 100.860092 
L 83.019199 100.860092 
z
" clip-path="url(#p28b339f11d)" style="fill: #6c8ebf; opacity: 0.6"/>
   </g>
   <g id="patch_183">
    <path d="M 84.327597 29203.050866 
L 85.635995 29203.050866 
L 85.635995 101.395188 
L 84.327597 101.395188 
z
" clip-path="url(#p28b339f11d)" style="fill: #6c8ebf; opacity: 0.6"/>
   </g>
   <g id="patch_184">
    <path d="M 85.635995 29203.050866 
L 86.944394 29203.050866 
L 86.944394 100.378262 
L 85.635995 100.378262 
z
" clip-path="url(#p28b339f11d)" style="fill: #6c8ebf; opacity: 0.6"/>
   </g>
   <g id="patch_185">
    <path d="M 86.944394 29203.050866 
L 88.252792 29203.050866 
L 88.252792 99.205434 
L 86.944394 99.205434 
z
" clip-path="url(#p28b339f11d)" style="fill: #6c8ebf; opacity: 0.6"/>
   </g>
   <g id="patch_186">
    <path d="M 88.252792 29203.050866 
L 89.56119 29203.050866 
L 89.56119 98.31847 
L 88.252792 98.31847 
z
" clip-path="url(#p28b339f11d)" style="fill: #6c8ebf; opacity: 0.6"/>
   </g>
   <g id="patch_187">
    <path d="M 89.56119 29203.050866 
L 90.869588 29203.050866 
L 90.869588 97.94922 
L 89.56119 97.94922 
z
" clip-path="url(#p28b339f11d)" style="fill: #6c8ebf; opacity: 0.6"/>
   </g>
   <g id="patch_188">
    <path d="M 90.869588 29203.050866 
L 92.177986 29203.050866 
L 92.177986 98.534429 
L 90.869588 98.534429 
z
" clip-path="url(#p28b339f11d)" style="fill: #6c8ebf; opacity: 0.6"/>
   </g>
   <g id="patch_189">
    <path d="M 92.177986 29203.050866 
L 93.486384 29203.050866 
L 93.486384 97.897343 
L 92.177986 97.897343 
z
" clip-path="url(#p28b339f11d)" style="fill: #6c8ebf; opacity: 0.6"/>
   </g>
   <g id="patch_190">
    <path d="M 93.486384 29203.050866 
L 94.794782 29203.050866 
L 94.794782 97.94922 
L 93.486384 97.94922 
z
" clip-path="url(#p28b339f11d)" style="fill: #6c8ebf; opacity: 0.6"/>
   </g>
   <g id="patch_191">
    <path d="M 94.794782 29203.050866 
L 96.10318 29203.050866 
L 96.10318 96.046858 
L 94.794782 96.046858 
z
" clip-path="url(#p28b339f11d)" style="fill: #6c8ebf; opacity: 0.6"/>
   </g>
   <g id="patch_192">
    <path d="M 96.10318 29203.050866 
L 97.411578 29203.050866 
L 97.411578 96.50201 
L 96.10318 96.50201 
z
" clip-path="url(#p28b339f11d)" style="fill: #6c8ebf; opacity: 0.6"/>
   </g>
   <g id="patch_193">
    <path d="M 97.411578 29203.050866 
L 98.719977 29203.050866 
L 98.719977 95.869301 
L 97.411578 95.869301 
z
" clip-path="url(#p28b339f11d)" style="fill: #6c8ebf; opacity: 0.6"/>
   </g>
   <g id="patch_194">
    <path d="M 98.719977 29203.050866 
L 100.028375 29203.050866 
L 100.028375 93.782025 
L 98.719977 93.782025 
z
" clip-path="url(#p28b339f11d)" style="fill: #6c8ebf; opacity: 0.6"/>
   </g>
   <g id="patch_195">
    <path d="M 100.028375 29203.050866 
L 101.336773 29203.050866 
L 101.336773 93.894582 
L 100.028375 93.894582 
z
" clip-path="url(#p28b339f11d)" style="fill: #6c8ebf; opacity: 0.6"/>
   </g>
   <g id="patch_196">
    <path d="M 101.336773 29203.050866 
L 102.645171 29203.050866 
L 102.645171 93.05628 
L 101.336773 93.05628 
z
" clip-path="url(#p28b339f11d)" style="fill: #6c8ebf; opacity: 0.6"/>
   </g>
   <g id="patch_197">
    <path d="M 102.645171 29203.050866 
L 103.953569 29203.050866 
L 103.953569 92.950934 
L 102.645171 92.950934 
z
" clip-path="url(#p28b339f11d)" style="fill: #6c8ebf; opacity: 0.6"/>
   </g>
   <g id="patch_198">
    <path d="M 103.953569 29203.050866 
L 105.261967 29203.050866 
L 105.261967 92.204177 
L 103.953569 92.204177 
z
" clip-path="url(#p28b339f11d)" style="fill: #6c8ebf; opacity: 0.6"/>
   </g>
   <g id="patch_199">
    <path d="M 105.261967 29203.050866 
L 106.570365 29203.050866 
L 106.570365 91.221781 
L 105.261967 91.221781 
z
" clip-path="url(#p28b339f11d)" style="fill: #6c8ebf; opacity: 0.6"/>
   </g>
   <g id="patch_200">
    <path d="M 106.570365 29203.050866 
L 107.878763 29203.050866 
L 107.878763 90.62633 
L 106.570365 90.62633 
z
" clip-path="url(#p28b339f11d)" style="fill: #6c8ebf; opacity: 0.6"/>
   </g>
   <g id="patch_201">
    <path d="M 107.878763 29203.050866 
L 109.187162 29203.050866 
L 109.187162 90.016113 
L 107.878763 90.016113 
z
" clip-path="url(#p28b339f11d)" style="fill: #6c8ebf; opacity: 0.6"/>
   </g>
   <g id="patch_202">
    <path d="M 109.187162 29203.050866 
L 110.49556 29203.050866 
L 110.49556 89.289399 
L 109.187162 89.289399 
z
" clip-path="url(#p28b339f11d)" style="fill: #6c8ebf; opacity: 0.6"/>
   </g>
   <g id="patch_203">
    <path d="M 110.49556 29203.050866 
L 111.803958 29203.050866 
L 111.803958 88.992158 
L 110.49556 88.992158 
z
" clip-path="url(#p28b339f11d)" style="fill: #6c8ebf; opacity: 0.6"/>
   </g>
   <g id="patch_204">
    <path d="M 111.803958 29203.050866 
L 113.112356 29203.050866 
L 113.112356 88.009669 
L 111.803958 88.009669 
z
" clip-path="url(#p28b339f11d)" style="fill: #6c8ebf; opacity: 0.6"/>
   </g>
   <g id="patch_205">
    <path d="M 113.112356 29203.050866 
L 114.420754 29203.050866 
L 114.420754 87.175416 
L 113.112356 87.175416 
z
" clip-path="url(#p28b339f11d)" style="fill: #6c8ebf; opacity: 0.6"/>
   </g>
   <g id="patch_206">
    <path d="M 114.420754 29203.050866 
L 115.729152 29203.050866 
L 115.729152 86.75136 
L 114.420754 86.75136 
z
" clip-path="url(#p28b339f11d)" style="fill: #6c8ebf; opacity: 0.6"/>
   </g>
   <g id="patch_207">
    <path d="M 115.729152 29203.050866 
L 117.03755 29203.050866 
L 117.03755 85.636658 
L 115.729152 85.636658 
z
" clip-path="url(#p28b339f11d)" style="fill: #6c8ebf; opacity: 0.6"/>
   </g>
   <g id="patch_208">
    <path d="M 117.03755 29203.050866 
L 118.345948 29203.050866 
L 118.345948 85.081392 
L 117.03755 85.081392 
z
" clip-path="url(#p28b339f11d)" style="fill: #6c8ebf; opacity: 0.6"/>
   </g>
   <g id="patch_209">
    <path d="M 118.345948 29203.050866 
L 119.654347 29203.050866 
L 119.654347 84.117094 
L 118.345948 84.117094 
z
" clip-path="url(#p28b339f11d)" style="fill: #6c8ebf; opacity: 0.6"/>
   </g>
   <g id="patch_210">
    <path d="M 119.654347 29203.050866 
L 120.962745 29203.050866 
L 120.962745 83.859463 
L 119.654347 83.859463 
z
" clip-path="url(#p28b339f11d)" style="fill: #6c8ebf; opacity: 0.6"/>
   </g>
   <g id="patch_211">
    <path d="M 120.962745 29203.050866 
L 122.271143 29203.050866 
L 122.271143 82.272118 
L 120.962745 82.272118 
z
" clip-path="url(#p28b339f11d)" style="fill: #6c8ebf; opacity: 0.6"/>
   </g>
   <g id="patch_212">
    <path d="M 122.271143 29203.050866 
L 123.579541 29203.050866 
L 123.579541 81.558224 
L 122.271143 81.558224 
z
" clip-path="url(#p28b339f11d)" style="fill: #6c8ebf; opacity: 0.6"/>
   </g>
   <g id="patch_213">
    <path d="M 123.579541 29203.050866 
L 124.887939 29203.050866 
L 124.887939 81.01079 
L 123.579541 81.01079 
z
" clip-path="url(#p28b339f11d)" style="fill: #6c8ebf; opacity: 0.6"/>
   </g>
   <g id="patch_214">
    <path d="M 124.887939 29203.050866 
L 126.196337 29203.050866 
L 126.196337 79.90147 
L 124.887939 79.90147 
z
" clip-path="url(#p28b339f11d)" style="fill: #6c8ebf; opacity: 0.6"/>
   </g>
   <g id="patch_215">
    <path d="M 126.196337 29203.050866 
L 127.504735 29203.050866 
L 127.504735 79.142331 
L 126.196337 79.142331 
z
" clip-path="url(#p28b339f11d)" style="fill: #6c8ebf; opacity: 0.6"/>
   </g>
   <g id="patch_216">
    <path d="M 127.504735 29203.050866 
L 128.813133 29203.050866 
L 128.813133 77.613419 
L 127.504735 77.613419 
z
" clip-path="url(#p28b339f11d)" style="fill: #6c8ebf; opacity: 0.6"/>
   </g>
   <g id="patch_217">
    <path d="M 128.813133 29203.050866 
L 130.121532 29203.050866 
L 130.121532 76.111355 
L 128.813133 76.111355 
z
" clip-path="url(#p28b339f11d)" style="fill: #6c8ebf; opacity: 0.6"/>
   </g>
   <g id="patch_218">
    <path d="M 130.121532 29203.050866 
L 131.42993 29203.050866 
L 131.42993 75.21956 
L 130.121532 75.21956 
z
" clip-path="url(#p28b339f11d)" style="fill: #6c8ebf; opacity: 0.6"/>
   </g>
   <g id="patch_219">
    <path d="M 131.42993 29203.050866 
L 132.738328 29203.050866 
L 132.738328 73.964812 
L 131.42993 73.964812 
z
" clip-path="url(#p28b339f11d)" style="fill: #6c8ebf; opacity: 0.6"/>
   </g>
   <g id="patch_220">
    <path d="M 132.738328 29203.050866 
L 134.046726 29203.050866 
L 134.046726 72.279533 
L 132.738328 72.279533 
z
" clip-path="url(#p28b339f11d)" style="fill: #6c8ebf; opacity: 0.6"/>
   </g>
   <g id="patch_221">
    <path d="M 134.046726 29203.050866 
L 135.355124 29203.050866 
L 135.355124 70.941828 
L 134.046726 70.941828 
z
" clip-path="url(#p28b339f11d)" style="fill: #6c8ebf; opacity: 0.6"/>
   </g>
   <g id="patch_222">
    <path d="M 135.355124 29203.050866 
L 136.663522 29203.050866 
L 136.663522 69.107989 
L 135.355124 69.107989 
z
" clip-path="url(#p28b339f11d)" style="fill: #6c8ebf; opacity: 0.6"/>
   </g>
   <g id="patch_223">
    <path d="M 136.663522 29203.050866 
L 137.97192 29203.050866 
L 137.97192 67.458656 
L 136.663522 67.458656 
z
" clip-path="url(#p28b339f11d)" style="fill: #6c8ebf; opacity: 0.6"/>
   </g>
   <g id="patch_224">
    <path d="M 137.97192 29203.050866 
L 139.280318 29203.050866 
L 139.280318 65.674754 
L 137.97192 65.674754 
z
" clip-path="url(#p28b339f11d)" style="fill: #6c8ebf; opacity: 0.6"/>
   </g>
   <g id="patch_225">
    <path d="M 139.280318 29203.050866 
L 140.588717 29203.050866 
L 140.588717 63.9746 
L 139.280318 63.9746 
z
" clip-path="url(#p28b339f11d)" style="fill: #6c8ebf; opacity: 0.6"/>
   </g>
   <g id="patch_226">
    <path d="M 140.588717 29203.050866 
L 141.897115 29203.050866 
L 141.897115 61.918725 
L 140.588717 61.918725 
z
" clip-path="url(#p28b339f11d)" style="fill: #6c8ebf; opacity: 0.6"/>
   </g>
   <g id="patch_227">
    <path d="M 141.897115 29203.050866 
L 143.205513 29203.050866 
L 143.205513 60.059887 
L 141.897115 60.059887 
z
" clip-path="url(#p28b339f11d)" style="fill: #6c8ebf; opacity: 0.6"/>
   </g>
   <g id="patch_228">
    <path d="M 143.205513 29203.050866 
L 144.513911 29203.050866 
L 144.513911 57.920337 
L 143.205513 57.920337 
z
" clip-path="url(#p28b339f11d)" style="fill: #6c8ebf; opacity: 0.6"/>
   </g>
   <g id="patch_229">
    <path d="M 144.513911 29203.050866 
L 145.822309 29203.050866 
L 145.822309 55.812143 
L 144.513911 55.812143 
z
" clip-path="url(#p28b339f11d)" style="fill: #6c8ebf; opacity: 0.6"/>
   </g>
   <g id="patch_230">
    <path d="M 145.822309 29203.050866 
L 147.130707 29203.050866 
L 147.130707 53.720772 
L 145.822309 53.720772 
z
" clip-path="url(#p28b339f11d)" style="fill: #6c8ebf; opacity: 0.6"/>
   </g>
   <g id="patch_231">
    <path d="M 147.130707 29203.050866 
L 148.439105 29203.050866 
L 148.439105 51.644444 
L 147.130707 51.644444 
z
" clip-path="url(#p28b339f11d)" style="fill: #6c8ebf; opacity: 0.6"/>
   </g>
   <g id="patch_232">
    <path d="M 148.439105 29203.050866 
L 149.747503 29203.050866 
L 149.747503 49.926577 
L 148.439105 49.926577 
z
" clip-path="url(#p28b339f11d)" style="fill: #6c8ebf; opacity: 0.6"/>
   </g>
   <g id="patch_233">
    <path d="M 149.747503 29203.050866 
L 151.055902 29203.050866 
L 151.055902 48.15055 
L 149.747503 48.15055 
z
" clip-path="url(#p28b339f11d)" style="fill: #6c8ebf; opacity: 0.6"/>
   </g>
   <g id="patch_234">
    <path d="M 151.055902 29203.050866 
L 152.3643 29203.050866 
L 152.3643 46.593232 
L 151.055902 46.593232 
z
" clip-path="url(#p28b339f11d)" style="fill: #6c8ebf; opacity: 0.6"/>
   </g>
   <g id="patch_235">
    <path d="M 152.3643 29203.050866 
L 153.672698 29203.050866 
L 153.672698 44.854189 
L 152.3643 44.854189 
z
" clip-path="url(#p28b339f11d)" style="fill: #6c8ebf; opacity: 0.6"/>
   </g>
   <g id="patch_236">
    <path d="M 153.672698 29203.050866 
L 154.981096 29203.050866 
L 154.981096 43.280919 
L 153.672698 43.280919 
z
" clip-path="url(#p28b339f11d)" style="fill: #6c8ebf; opacity: 0.6"/>
   </g>
   <g id="patch_237">
    <path d="M 154.981096 29203.050866 
L 156.289494 29203.050866 
L 156.289494 41.104716 
L 154.981096 41.104716 
z
" clip-path="url(#p28b339f11d)" style="fill: #6c8ebf; opacity: 0.6"/>
   </g>
   <g id="patch_238">
    <path d="M 156.289494 29203.050866 
L 157.597892 29203.050866 
L 157.597892 37.186526 
L 156.289494 37.186526 
z
" clip-path="url(#p28b339f11d)" style="fill: #6c8ebf; opacity: 0.6"/>
   </g>
   <g id="patch_239">
    <path d="M 157.597892 29203.050866 
L 158.90629 29203.050866 
L 158.90629 30.836233 
L 157.597892 30.836233 
z
" clip-path="url(#p28b339f11d)" style="fill: #6c8ebf; opacity: 0.6"/>
   </g>
   <g id="patch_240">
    <path d="M 158.90629 29203.050866 
L 160.214688 29203.050866 
L 160.214688 20.338109 
L 158.90629 20.338109 
z
" clip-path="url(#p28b339f11d)" style="fill: #6c8ebf; opacity: 0.6"/>
   </g>
   <g id="patch_241">
    <path d="M 160.214688 29203.050866 
L 161.523086 29203.050866 
L 161.523086 8.36338 
L 160.214688 8.36338 
z
" clip-path="url(#p28b339f11d)" style="fill: #6c8ebf; opacity: 0.6"/>
   </g>
   <g id="patch_242">
    <path d="M 161.523086 29203.050866 
L 162.831485 29203.050866 
L 162.831485 22.497401 
L 161.523086 22.497401 
z
" clip-path="url(#p28b339f11d)" style="fill: #6c8ebf; opacity: 0.6"/>
   </g>
   <g id="patch_243">
    <path d="M 162.831485 29203.050866 
L 164.139883 29203.050866 
L 164.139883 31.620037 
L 162.831485 31.620037 
z
" clip-path="url(#p28b339f11d)" style="fill: #6c8ebf; opacity: 0.6"/>
   </g>
   <g id="patch_244">
    <path d="M 164.139883 29203.050866 
L 165.448281 29203.050866 
L 165.448281 37.389861 
L 164.139883 37.389861 
z
" clip-path="url(#p28b339f11d)" style="fill: #6c8ebf; opacity: 0.6"/>
   </g>
   <g id="patch_245">
    <path d="M 165.448281 29203.050866 
L 166.756679 29203.050866 
L 166.756679 40.904609 
L 165.448281 40.904609 
z
" clip-path="url(#p28b339f11d)" style="fill: #6c8ebf; opacity: 0.6"/>
   </g>
   <g id="patch_246">
    <path d="M 166.756679 29203.050866 
L 168.065077 29203.050866 
L 168.065077 43.29657 
L 166.756679 43.29657 
z
" clip-path="url(#p28b339f11d)" style="fill: #6c8ebf; opacity: 0.6"/>
   </g>
   <g id="patch_247">
    <path d="M 168.065077 29203.050866 
L 169.373475 29203.050866 
L 169.373475 45.113777 
L 168.065077 45.113777 
z
" clip-path="url(#p28b339f11d)" style="fill: #6c8ebf; opacity: 0.6"/>
   </g>
   <g id="patch_248">
    <path d="M 169.373475 29203.050866 
L 170.681873 29203.050866 
L 170.681873 46.816288 
L 169.373475 46.816288 
z
" clip-path="url(#p28b339f11d)" style="fill: #6c8ebf; opacity: 0.6"/>
   </g>
   <g id="patch_249">
    <path d="M 170.681873 29203.050866 
L 171.990271 29203.050866 
L 171.990271 48.657954 
L 170.681873 48.657954 
z
" clip-path="url(#p28b339f11d)" style="fill: #6c8ebf; opacity: 0.6"/>
   </g>
   <g id="patch_250">
    <path d="M 171.990271 29203.050866 
L 173.29867 29203.050866 
L 173.29867 50.522216 
L 171.990271 50.522216 
z
" clip-path="url(#p28b339f11d)" style="fill: #6c8ebf; opacity: 0.6"/>
   </g>
   <g id="patch_251">
    <path d="M 173.29867 29203.050866 
L 174.607068 29203.050866 
L 174.607068 52.490778 
L 173.29867 52.490778 
z
" clip-path="url(#p28b339f11d)" style="fill: #6c8ebf; opacity: 0.6"/>
   </g>
   <g id="patch_252">
    <path d="M 174.607068 29203.050866 
L 175.915466 29203.050866 
L 175.915466 54.711345 
L 174.607068 54.711345 
z
" clip-path="url(#p28b339f11d)" style="fill: #6c8ebf; opacity: 0.6"/>
   </g>
   <g id="patch_253">
    <path d="M 175.915466 29203.050866 
L 177.223864 29203.050866 
L 177.223864 56.967891 
L 175.915466 56.967891 
z
" clip-path="url(#p28b339f11d)" style="fill: #6c8ebf; opacity: 0.6"/>
   </g>
   <g id="patch_254">
    <path d="M 177.223864 29203.050866 
L 178.532262 29203.050866 
L 178.532262 58.698649 
L 177.223864 58.698649 
z
" clip-path="url(#p28b339f11d)" style="fill: #6c8ebf; opacity: 0.6"/>
   </g>
   <g id="patch_255">
    <path d="M 178.532262 29203.050866 
L 179.84066 29203.050866 
L 179.84066 60.993127 
L 178.532262 60.993127 
z
" clip-path="url(#p28b339f11d)" style="fill: #6c8ebf; opacity: 0.6"/>
   </g>
   <g id="patch_256">
    <path d="M 179.84066 29203.050866 
L 181.149058 29203.050866 
L 181.149058 63.134263 
L 179.84066 63.134263 
z
" clip-path="url(#p28b339f11d)" style="fill: #6c8ebf; opacity: 0.6"/>
   </g>
   <g id="patch_257">
    <path d="M 181.149058 29203.050866 
L 182.457456 29203.050866 
L 182.457456 65.053472 
L 181.149058 65.053472 
z
" clip-path="url(#p28b339f11d)" style="fill: #6c8ebf; opacity: 0.6"/>
   </g>
   <g id="patch_258">
    <path d="M 182.457456 29203.050866 
L 183.765855 29203.050866 
L 183.765855 66.580426 
L 182.457456 66.580426 
z
" clip-path="url(#p28b339f11d)" style="fill: #6c8ebf; opacity: 0.6"/>
   </g>
   <g id="patch_259">
    <path d="M 183.765855 29203.050866 
L 185.074253 29203.050866 
L 185.074253 68.202243 
L 183.765855 68.202243 
z
" clip-path="url(#p28b339f11d)" style="fill: #6c8ebf; opacity: 0.6"/>
   </g>
   <g id="patch_260">
    <path d="M 185.074253 29203.050866 
L 186.382651 29203.050866 
L 186.382651 70.30238 
L 185.074253 70.30238 
z
" clip-path="url(#p28b339f11d)" style="fill: #6c8ebf; opacity: 0.6"/>
   </g>
   <g id="patch_261">
    <path d="M 186.382651 29203.050866 
L 187.691049 29203.050866 
L 187.691049 71.718864 
L 186.382651 71.718864 
z
" clip-path="url(#p28b339f11d)" style="fill: #6c8ebf; opacity: 0.6"/>
   </g>
   <g id="patch_262">
    <path d="M 187.691049 29203.050866 
L 188.999447 29203.050866 
L 188.999447 73.60548 
L 187.691049 73.60548 
z
" clip-path="url(#p28b339f11d)" style="fill: #6c8ebf; opacity: 0.6"/>
   </g>
   <g id="patch_263">
    <path d="M 188.999447 29203.050866 
L 190.307845 29203.050866 
L 190.307845 74.810761 
L 188.999447 74.810761 
z
" clip-path="url(#p28b339f11d)" style="fill: #6c8ebf; opacity: 0.6"/>
   </g>
   <g id="patch_264">
    <path d="M 190.307845 29203.050866 
L 191.616243 29203.050866 
L 191.616243 76.656274 
L 190.307845 76.656274 
z
" clip-path="url(#p28b339f11d)" style="fill: #6c8ebf; opacity: 0.6"/>
   </g>
   <g id="patch_265">
    <path d="M 191.616243 29203.050866 
L 192.924641 29203.050866 
L 192.924641 77.592719 
L 191.616243 77.592719 
z
" clip-path="url(#p28b339f11d)" style="fill: #6c8ebf; opacity: 0.6"/>
   </g>
   <g id="patch_266">
    <path d="M 192.924641 29203.050866 
L 194.23304 29203.050866 
L 194.23304 79.060737 
L 192.924641 79.060737 
z
" clip-path="url(#p28b339f11d)" style="fill: #6c8ebf; opacity: 0.6"/>
   </g>
   <g id="patch_267">
    <path d="M 194.23304 29203.050866 
L 195.541438 29203.050866 
L 195.541438 79.889056 
L 194.23304 79.889056 
z
" clip-path="url(#p28b339f11d)" style="fill: #6c8ebf; opacity: 0.6"/>
   </g>
   <g id="patch_268">
    <path d="M 195.541438 29203.050866 
L 196.849836 29203.050866 
L 196.849836 81.410368 
L 195.541438 81.410368 
z
" clip-path="url(#p28b339f11d)" style="fill: #6c8ebf; opacity: 0.6"/>
   </g>
   <g id="patch_269">
    <path d="M 196.849836 29203.050866 
L 198.158234 29203.050866 
L 198.158234 82.761152 
L 196.849836 82.761152 
z
" clip-path="url(#p28b339f11d)" style="fill: #6c8ebf; opacity: 0.6"/>
   </g>
   <g id="patch_270">
    <path d="M 198.158234 29203.050866 
L 199.466632 29203.050866 
L 199.466632 84.477928 
L 198.158234 84.477928 
z
" clip-path="url(#p28b339f11d)" style="fill: #6c8ebf; opacity: 0.6"/>
   </g>
   <g id="patch_271">
    <path d="M 199.466632 29203.050866 
L 200.77503 29203.050866 
L 200.77503 85.147123 
L 199.466632 85.147123 
z
" clip-path="url(#p28b339f11d)" style="fill: #6c8ebf; opacity: 0.6"/>
   </g>
   <g id="patch_272">
    <path d="M 200.77503 29203.050866 
L 202.083428 29203.050866 
L 202.083428 86.064707 
L 200.77503 86.064707 
z
" clip-path="url(#p28b339f11d)" style="fill: #6c8ebf; opacity: 0.6"/>
   </g>
   <g id="patch_273">
    <path d="M 202.083428 29203.050866 
L 203.391826 29203.050866 
L 203.391826 87.903782 
L 202.083428 87.903782 
z
" clip-path="url(#p28b339f11d)" style="fill: #6c8ebf; opacity: 0.6"/>
   </g>
   <g id="patch_274">
    <path d="M 203.391826 29203.050866 
L 204.700225 29203.050866 
L 204.700225 88.454573 
L 203.391826 88.454573 
z
" clip-path="url(#p28b339f11d)" style="fill: #6c8ebf; opacity: 0.6"/>
   </g>
   <g id="patch_275">
    <path d="M 204.700225 29203.050866 
L 206.008623 29203.050866 
L 206.008623 90.029973 
L 204.700225 90.029973 
z
" clip-path="url(#p28b339f11d)" style="fill: #6c8ebf; opacity: 0.6"/>
   </g>
   <g id="patch_276">
    <path d="M 206.008623 29203.050866 
L 207.317021 29203.050866 
L 207.317021 91.406042 
L 206.008623 91.406042 
z
" clip-path="url(#p28b339f11d)" style="fill: #6c8ebf; opacity: 0.6"/>
   </g>
   <g id="patch_277">
    <path d="M 207.317021 29203.050866 
L 208.625419 29203.050866 
L 208.625419 93.782025 
L 207.317021 93.782025 
z
" clip-path="url(#p28b339f11d)" style="fill: #6c8ebf; opacity: 0.6"/>
   </g>
   <g id="patch_278">
    <path d="M 208.625419 29203.050866 
L 209.933817 29203.050866 
L 209.933817 93.233837 
L 208.625419 93.233837 
z
" clip-path="url(#p28b339f11d)" style="fill: #6c8ebf; opacity: 0.6"/>
   </g>
   <g id="patch_279">
    <path d="M 209.933817 29203.050866 
L 211.242215 29203.050866 
L 211.242215 94.833161 
L 209.933817 94.833161 
z
" clip-path="url(#p28b339f11d)" style="fill: #6c8ebf; opacity: 0.6"/>
   </g>
   <g id="patch_280">
    <path d="M 211.242215 29203.050866 
L 212.550613 29203.050866 
L 212.550613 96.571722 
L 211.242215 96.571722 
z
" clip-path="url(#p28b339f11d)" style="fill: #6c8ebf; opacity: 0.6"/>
   </g>
   <g id="patch_281">
    <path d="M 212.550613 29203.050866 
L 213.859011 29203.050866 
L 213.859011 97.97524 
L 212.550613 97.97524 
z
" clip-path="url(#p28b339f11d)" style="fill: #6c8ebf; opacity: 0.6"/>
   </g>
   <g id="patch_282">
    <path d="M 213.859011 29203.050866 
L 215.16741 29203.050866 
L 215.16741 98.949604 
L 213.859011 98.949604 
z
" clip-path="url(#p28b339f11d)" style="fill: #6c8ebf; opacity: 0.6"/>
   </g>
   <g id="patch_283">
    <path d="M 215.16741 29203.050866 
L 216.475808 29203.050866 
L 216.475808 100.50496 
L 215.16741 100.50496 
z
" clip-path="url(#p28b339f11d)" style="fill: #6c8ebf; opacity: 0.6"/>
   </g>
   <g id="patch_284">
    <path d="M 216.475808 29203.050866 
L 217.784206 29203.050866 
L 217.784206 101.225518 
L 216.475808 101.225518 
z
" clip-path="url(#p28b339f11d)" style="fill: #6c8ebf; opacity: 0.6"/>
   </g>
   <g id="patch_285">
    <path d="M 217.784206 29203.050866 
L 219.092604 29203.050866 
L 219.092604 101.124801 
L 217.784206 101.124801 
z
" clip-path="url(#p28b339f11d)" style="fill: #6c8ebf; opacity: 0.6"/>
   </g>
   <g id="patch_286">
    <path d="M 219.092604 29203.050866 
L 220.401002 29203.050866 
L 220.401002 103.429896 
L 219.092604 103.429896 
z
" clip-path="url(#p28b339f11d)" style="fill: #6c8ebf; opacity: 0.6"/>
   </g>
   <g id="patch_287">
    <path d="M 220.401002 29203.050866 
L 221.7094 29203.050866 
L 221.7094 104.651497 
L 220.401002 104.651497 
z
" clip-path="url(#p28b339f11d)" style="fill: #6c8ebf; opacity: 0.6"/>
   </g>
   <g id="patch_288">
    <path d="M 221.7094 29203.050866 
L 223.017798 29203.050866 
L 223.017798 105.47394 
L 221.7094 105.47394 
z
" clip-path="url(#p28b339f11d)" style="fill: #6c8ebf; opacity: 0.6"/>
   </g>
   <g id="patch_289">
    <path d="M 223.017798 29203.050866 
L 224.326196 29203.050866 
L 224.326196 107.245272 
L 223.017798 107.245272 
z
" clip-path="url(#p28b339f11d)" style="fill: #6c8ebf; opacity: 0.6"/>
   </g>
   <g id="patch_290">
    <path d="M 224.326196 29203.050866 
L 225.634594 29203.050866 
L 225.634594 108.029919 
L 224.326196 108.029919 
z
" clip-path="url(#p28b339f11d)" style="fill: #6c8ebf; opacity: 0.6"/>
   </g>
   <g id="patch_291">
    <path d="M 225.634594 29203.050866 
L 226.942993 29203.050866 
L 226.942993 111.695144 
L 225.634594 111.695144 
z
" clip-path="url(#p28b339f11d)" style="fill: #6c8ebf; opacity: 0.6"/>
   </g>
   <g id="patch_292">
    <path d="M 226.942993 29203.050866 
L 228.251391 29203.050866 
L 228.251391 109.762923 
L 226.942993 109.762923 
z
" clip-path="url(#p28b339f11d)" style="fill: #6c8ebf; opacity: 0.6"/>
   </g>
   <g id="patch_293">
    <path d="M 228.251391 29203.050866 
L 229.559789 29203.050866 
L 229.559789 113.978091 
L 228.251391 113.978091 
z
" clip-path="url(#p28b339f11d)" style="fill: #6c8ebf; opacity: 0.6"/>
   </g>
   <g id="patch_294">
    <path d="M 229.559789 29203.050866 
L 230.868187 29203.050866 
L 230.868187 113.345382 
L 229.559789 113.345382 
z
" clip-path="url(#p28b339f11d)" style="fill: #6c8ebf; opacity: 0.6"/>
   </g>
   <g id="patch_295">
    <path d="M 230.868187 29203.050866 
L 232.176585 29203.050866 
L 232.176585 115.451321 
L 230.868187 115.451321 
z
" clip-path="url(#p28b339f11d)" style="fill: #6c8ebf; opacity: 0.6"/>
   </g>
   <g id="patch_296">
    <path d="M 232.176585 29203.050866 
L 233.484983 29203.050866 
L 233.484983 115.451321 
L 232.176585 115.451321 
z
" clip-path="url(#p28b339f11d)" style="fill: #6c8ebf; opacity: 0.6"/>
   </g>
   <g id="patch_297">
    <path d="M 233.484983 29203.050866 
L 234.793381 29203.050866 
L 234.793381 117.001416 
L 233.484983 117.001416 
z
" clip-path="url(#p28b339f11d)" style="fill: #6c8ebf; opacity: 0.6"/>
   </g>
   <g id="patch_298">
    <path d="M 234.793381 29203.050866 
L 236.101779 29203.050866 
L 236.101779 117.481716 
L 234.793381 117.481716 
z
" clip-path="url(#p28b339f11d)" style="fill: #6c8ebf; opacity: 0.6"/>
   </g>
   <g id="patch_299">
    <path d="M 236.101779 29203.050866 
L 237.410178 29203.050866 
L 237.410178 119.043255 
L 236.101779 119.043255 
z
" clip-path="url(#p28b339f11d)" style="fill: #6c8ebf; opacity: 0.6"/>
   </g>
   <g id="patch_300">
    <path d="M 237.410178 29203.050866 
L 238.718576 29203.050866 
L 238.718576 122.350705 
L 237.410178 122.350705 
z
" clip-path="url(#p28b339f11d)" style="fill: #6c8ebf; opacity: 0.6"/>
   </g>
   <g id="matplotlib.axis_1">
    <g id="xtick_1">
     <g id="line2d_1">
      <defs>
       <path id="m3b25f4c85e" d="M 0 0 
L 0 6 
" style="stroke: #000000; stroke-width: 0.8"/>
      </defs>
      <g>
       <use xlink:href="#m3b25f4c85e" x="38.893472" y="129.880157" style="stroke: #000000; stroke-width: 0.8"/>
      </g>
     </g>
     <g id="text_1">
      <text style="font-size: 6px; font-family: 'Arial', 'Helvetica', 'DejaVu Sans', sans-serif; text-anchor: middle" x="38.893472" y="143.93922" transform="rotate(-0 38.893472 143.93922)">−12.5</text>
     </g>
    </g>
    <g id="xtick_2">
     <g id="line2d_2">
      <g>
       <use xlink:href="#m3b25f4c85e" x="63.262387" y="129.880157" style="stroke: #000000; stroke-width: 0.8"/>
      </g>
     </g>
     <g id="text_2">
      <text style="font-size: 6px; font-family: 'Arial', 'Helvetica', 'DejaVu Sans', sans-serif; text-anchor: middle" x="63.262387" y="143.93922" transform="rotate(-0 63.262387 143.93922)">−10.0</text>
     </g>
    </g>
    <g id="xtick_3">
     <g id="line2d_3">
      <g>
       <use xlink:href="#m3b25f4c85e" x="87.631303" y="129.880157" style="stroke: #000000; stroke-width: 0.8"/>
      </g>
     </g>
     <g id="text_3">
      <text style="font-size: 6px; font-family: 'Arial', 'Helvetica', 'DejaVu Sans', sans-serif; text-anchor: middle" x="87.631303" y="143.93922" transform="rotate(-0 87.631303 143.93922)">−7.5</text>
     </g>
    </g>
    <g id="xtick_4">
     <g id="line2d_4">
      <g>
       <use xlink:href="#m3b25f4c85e" x="112.000218" y="129.880157" style="stroke: #000000; stroke-width: 0.8"/>
      </g>
     </g>
     <g id="text_4">
      <text style="font-size: 6px; font-family: 'Arial', 'Helvetica', 'DejaVu Sans', sans-serif; text-anchor: middle" x="112.000218" y="143.93922" transform="rotate(-0 112.000218 143.93922)">−5.0</text>
     </g>
    </g>
    <g id="xtick_5">
     <g id="line2d_5">
      <g>
       <use xlink:href="#m3b25f4c85e" x="136.369133" y="129.880157" style="stroke: #000000; stroke-width: 0.8"/>
      </g>
     </g>
     <g id="text_5">
      <text style="font-size: 6px; font-family: 'Arial', 'Helvetica', 'DejaVu Sans', sans-serif; text-anchor: middle" x="136.369133" y="143.93922" transform="rotate(-0 136.369133 143.93922)">−2.5</text>
     </g>
    </g>
    <g id="xtick_6">
     <g id="line2d_6">
      <g>
       <use xlink:href="#m3b25f4c85e" x="160.738048" y="129.880157" style="stroke: #000000; stroke-width: 0.8"/>
      </g>
     </g>
     <g id="text_6">
      <text style="font-size: 6px; font-family: 'Arial', 'Helvetica', 'DejaVu Sans', sans-serif; text-anchor: middle" x="160.738048" y="143.93922" transform="rotate(-0 160.738048 143.93922)">0.0</text>
     </g>
    </g>
    <g id="xtick_7">
     <g id="line2d_7">
      <g>
       <use xlink:href="#m3b25f4c85e" x="185.106963" y="129.880157" style="stroke: #000000; stroke-width: 0.8"/>
      </g>
     </g>
     <g id="text_7">
      <text style="font-size: 6px; font-family: 'Arial', 'Helvetica', 'DejaVu Sans', sans-serif; text-anchor: middle" x="185.106963" y="143.93922" transform="rotate(-0 185.106963 143.93922)">2.5</text>
     </g>
    </g>
    <g id="xtick_8">
     <g id="line2d_8">
      <g>
       <use xlink:href="#m3b25f4c85e" x="209.475878" y="129.880157" style="stroke: #000000; stroke-width: 0.8"/>
      </g>
     </g>
     <g id="text_8">
      <text style="font-size: 6px; font-family: 'Arial', 'Helvetica', 'DejaVu Sans', sans-serif; text-anchor: middle" x="209.475878" y="143.93922" transform="rotate(-0 209.475878 143.93922)">5.0</text>
     </g>
    </g>
    <g id="xtick_9">
     <g id="line2d_9">
      <g>
       <use xlink:href="#m3b25f4c85e" x="233.844793" y="129.880157" style="stroke: #000000; stroke-width: 0.8"/>
      </g>
     </g>
     <g id="text_9">
      <text style="font-size: 6px; font-family: 'Arial', 'Helvetica', 'DejaVu Sans', sans-serif; text-anchor: middle" x="233.844793" y="143.93922" transform="rotate(-0 233.844793 143.93922)">7.5</text>
     </g>
    </g>
    <g id="text_10">
     <text style="font-size: 6px; font-family: 'Arial', 'Helvetica', 'DejaVu Sans', sans-serif; text-anchor: middle" x="141.242916" y="153.746095" transform="rotate(-0 141.242916 153.746095)">adjusted MADL sensitivity score  (negative = hypersensitive)</text>
    </g>
   </g>
   <g id="matplotlib.axis_2">
    <g id="ytick_1">
     <g id="line2d_10">
      <defs>
       <path id="m100660f454" d="M 0 0 
L -6 0 
" style="stroke: #000000; stroke-width: 0.8"/>
      </defs>
      <g>
       <use xlink:href="#m100660f454" x="34.019689" y="117.854343" style="stroke: #000000; stroke-width: 0.8"/>
      </g>
     </g>
     <g id="text_11">
      <!-- $\mathdefault{10^{2}}$ -->
      <g transform="translate(13.959689 120.133875)">
       <text>
        <tspan x="0" y="-0.585938" style="font-size: 6px; font-family: 'DejaVu Sans'">1</tspan>
        <tspan x="3.817383" y="-0.585938" style="font-size: 6px; font-family: 'DejaVu Sans'">0</tspan>
        <tspan x="7.692188" y="-2.882812" style="font-size: 4.2px; font-family: 'DejaVu Sans'">2</tspan>
       </text>
      </g>
     </g>
    </g>
    <g id="ytick_2">
     <g id="line2d_11">
      <g>
       <use xlink:href="#m100660f454" x="34.019689" y="88.827201" style="stroke: #000000; stroke-width: 0.8"/>
      </g>
     </g>
     <g id="text_12">
      <!-- $\mathdefault{10^{3}}$ -->
      <g transform="translate(13.959689 91.106732)">
       <text>
        <tspan x="0" y="-0.585938" style="font-size: 6px; font-family: 'DejaVu Sans'">1</tspan>
        <tspan x="3.817383" y="-0.585938" style="font-size: 6px; font-family: 'DejaVu Sans'">0</tspan>
        <tspan x="7.692188" y="-2.882812" style="font-size: 4.2px; font-family: 'DejaVu Sans'">3</tspan>
       </text>
      </g>
     </g>
    </g>
    <g id="ytick_3">
     <g id="line2d_12">
      <g>
       <use xlink:href="#m100660f454" x="34.019689" y="59.800059" style="stroke: #000000; stroke-width: 0.8"/>
      </g>
     </g>
     <g id="text_13">
      <!-- $\mathdefault{10^{4}}$ -->
      <g transform="translate(13.959689 62.07959)">
       <text>
        <tspan x="0" y="-0.640625" style="font-size: 6px; font-family: 'DejaVu Sans'">1</tspan>
        <tspan x="3.817383" y="-0.640625" style="font-size: 6px; font-family: 'DejaVu Sans'">0</tspan>
        <tspan x="7.692188" y="-2.9375" style="font-size: 4.2px; font-family: 'DejaVu Sans'">4</tspan>
       </text>
      </g>
     </g>
    </g>
    <g id="ytick_4">
     <g id="line2d_13">
      <g>
       <use xlink:href="#m100660f454" x="34.019689" y="30.772917" style="stroke: #000000; stroke-width: 0.8"/>
      </g>
     </g>
     <g id="text_14">
      <!-- $\mathdefault{10^{5}}$ -->
      <g transform="translate(13.959689 33.052448)">
       <text>
        <tspan x="0" y="-0.640625" style="font-size: 6px; font-family: 'DejaVu Sans'">1</tspan>
        <tspan x="3.817383" y="-0.640625" style="font-size: 6px; font-family: 'DejaVu Sans'">0</tspan>
        <tspan x="7.692188" y="-2.9375" style="font-size: 4.2px; font-family: 'DejaVu Sans'">5</tspan>
       </text>
      </g>
     </g>
    </g>
    <g id="ytick_5">
     <g id="line2d_14">
      <defs>
       <path id="m0184bb6bd8" d="M 0 0 
L -3 0 
" style="stroke: #000000; stroke-width: 0.6"/>
      </defs>
      <g>
       <use xlink:href="#m0184bb6bd8" x="34.019689" y="129.405405" style="stroke: #000000; stroke-width: 0.6"/>
      </g>
     </g>
    </g>
    <g id="ytick_6">
     <g id="line2d_15">
      <g>
       <use xlink:href="#m0184bb6bd8" x="34.019689" y="126.592384" style="stroke: #000000; stroke-width: 0.6"/>
      </g>
     </g>
    </g>
    <g id="ytick_7">
     <g id="line2d_16">
      <g>
       <use xlink:href="#m0184bb6bd8" x="34.019689" y="124.293979" style="stroke: #000000; stroke-width: 0.6"/>
      </g>
     </g>
    </g>
    <g id="ytick_8">
     <g id="line2d_17">
      <g>
       <use xlink:href="#m0184bb6bd8" x="34.019689" y="122.350705" style="stroke: #000000; stroke-width: 0.6"/>
      </g>
     </g>
    </g>
    <g id="ytick_9">
     <g id="line2d_18">
      <g>
       <use xlink:href="#m0184bb6bd8" x="34.019689" y="120.667364" style="stroke: #000000; stroke-width: 0.6"/>
      </g>
     </g>
    </g>
    <g id="ytick_10">
     <g id="line2d_19">
      <g>
       <use xlink:href="#m0184bb6bd8" x="34.019689" y="119.182553" style="stroke: #000000; stroke-width: 0.6"/>
      </g>
     </g>
    </g>
    <g id="ytick_11">
     <g id="line2d_20">
      <g>
       <use xlink:href="#m0184bb6bd8" x="34.019689" y="109.116303" style="stroke: #000000; stroke-width: 0.6"/>
      </g>
     </g>
    </g>
    <g id="ytick_12">
     <g id="line2d_21">
      <g>
       <use xlink:href="#m0184bb6bd8" x="34.019689" y="104.004877" style="stroke: #000000; stroke-width: 0.6"/>
      </g>
     </g>
    </g>
    <g id="ytick_13">
     <g id="line2d_22">
      <g>
       <use xlink:href="#m0184bb6bd8" x="34.019689" y="100.378262" style="stroke: #000000; stroke-width: 0.6"/>
      </g>
     </g>
    </g>
    <g id="ytick_14">
     <g id="line2d_23">
      <g>
       <use xlink:href="#m0184bb6bd8" x="34.019689" y="97.565242" style="stroke: #000000; stroke-width: 0.6"/>
      </g>
     </g>
    </g>
    <g id="ytick_15">
     <g id="line2d_24">
      <g>
       <use xlink:href="#m0184bb6bd8" x="34.019689" y="95.266836" style="stroke: #000000; stroke-width: 0.6"/>
      </g>
     </g>
    </g>
    <g id="ytick_16">
     <g id="line2d_25">
      <g>
       <use xlink:href="#m0184bb6bd8" x="34.019689" y="93.323562" style="stroke: #000000; stroke-width: 0.6"/>
      </g>
     </g>
    </g>
    <g id="ytick_17">
     <g id="line2d_26">
      <g>
       <use xlink:href="#m0184bb6bd8" x="34.019689" y="91.640222" style="stroke: #000000; stroke-width: 0.6"/>
      </g>
     </g>
    </g>
    <g id="ytick_18">
     <g id="line2d_27">
      <g>
       <use xlink:href="#m0184bb6bd8" x="34.019689" y="90.15541" style="stroke: #000000; stroke-width: 0.6"/>
      </g>
     </g>
    </g>
    <g id="ytick_19">
     <g id="line2d_28">
      <g>
       <use xlink:href="#m0184bb6bd8" x="34.019689" y="80.089161" style="stroke: #000000; stroke-width: 0.6"/>
      </g>
     </g>
    </g>
    <g id="ytick_20">
     <g id="line2d_29">
      <g>
       <use xlink:href="#m0184bb6bd8" x="34.019689" y="74.977735" style="stroke: #000000; stroke-width: 0.6"/>
      </g>
     </g>
    </g>
    <g id="ytick_21">
     <g id="line2d_30">
      <g>
       <use xlink:href="#m0184bb6bd8" x="34.019689" y="71.35112" style="stroke: #000000; stroke-width: 0.6"/>
      </g>
     </g>
    </g>
    <g id="ytick_22">
     <g id="line2d_31">
      <g>
       <use xlink:href="#m0184bb6bd8" x="34.019689" y="68.538099" style="stroke: #000000; stroke-width: 0.6"/>
      </g>
     </g>
    </g>
    <g id="ytick_23">
     <g id="line2d_32">
      <g>
       <use xlink:href="#m0184bb6bd8" x="34.019689" y="66.239694" style="stroke: #000000; stroke-width: 0.6"/>
      </g>
     </g>
    </g>
    <g id="ytick_24">
     <g id="line2d_33">
      <g>
       <use xlink:href="#m0184bb6bd8" x="34.019689" y="64.29642" style="stroke: #000000; stroke-width: 0.6"/>
      </g>
     </g>
    </g>
    <g id="ytick_25">
     <g id="line2d_34">
      <g>
       <use xlink:href="#m0184bb6bd8" x="34.019689" y="62.61308" style="stroke: #000000; stroke-width: 0.6"/>
      </g>
     </g>
    </g>
    <g id="ytick_26">
     <g id="line2d_35">
      <g>
       <use xlink:href="#m0184bb6bd8" x="34.019689" y="61.128268" style="stroke: #000000; stroke-width: 0.6"/>
      </g>
     </g>
    </g>
    <g id="ytick_27">
     <g id="line2d_36">
      <g>
       <use xlink:href="#m0184bb6bd8" x="34.019689" y="51.062018" style="stroke: #000000; stroke-width: 0.6"/>
      </g>
     </g>
    </g>
    <g id="ytick_28">
     <g id="line2d_37">
      <g>
       <use xlink:href="#m0184bb6bd8" x="34.019689" y="45.950592" style="stroke: #000000; stroke-width: 0.6"/>
      </g>
     </g>
    </g>
    <g id="ytick_29">
     <g id="line2d_38">
      <g>
       <use xlink:href="#m0184bb6bd8" x="34.019689" y="42.323978" style="stroke: #000000; stroke-width: 0.6"/>
      </g>
     </g>
    </g>
    <g id="ytick_30">
     <g id="line2d_39">
      <g>
       <use xlink:href="#m0184bb6bd8" x="34.019689" y="39.510957" style="stroke: #000000; stroke-width: 0.6"/>
      </g>
     </g>
    </g>
    <g id="ytick_31">
     <g id="line2d_40">
      <g>
       <use xlink:href="#m0184bb6bd8" x="34.019689" y="37.212552" style="stroke: #000000; stroke-width: 0.6"/>
      </g>
     </g>
    </g>
    <g id="ytick_32">
     <g id="line2d_41">
      <g>
       <use xlink:href="#m0184bb6bd8" x="34.019689" y="35.269278" style="stroke: #000000; stroke-width: 0.6"/>
      </g>
     </g>
    </g>
    <g id="ytick_33">
     <g id="line2d_42">
      <g>
       <use xlink:href="#m0184bb6bd8" x="34.019689" y="33.585937" style="stroke: #000000; stroke-width: 0.6"/>
      </g>
     </g>
    </g>
    <g id="ytick_34">
     <g id="line2d_43">
      <g>
       <use xlink:href="#m0184bb6bd8" x="34.019689" y="32.101126" style="stroke: #000000; stroke-width: 0.6"/>
      </g>
     </g>
    </g>
    <g id="ytick_35">
     <g id="line2d_44">
      <g>
       <use xlink:href="#m0184bb6bd8" x="34.019689" y="22.034876" style="stroke: #000000; stroke-width: 0.6"/>
      </g>
     </g>
    </g>
    <g id="ytick_36">
     <g id="line2d_45">
      <g>
       <use xlink:href="#m0184bb6bd8" x="34.019689" y="16.92345" style="stroke: #000000; stroke-width: 0.6"/>
      </g>
     </g>
    </g>
    <g id="ytick_37">
     <g id="line2d_46">
      <g>
       <use xlink:href="#m0184bb6bd8" x="34.019689" y="13.296836" style="stroke: #000000; stroke-width: 0.6"/>
      </g>
     </g>
    </g>
    <g id="ytick_38">
     <g id="line2d_47">
      <g>
       <use xlink:href="#m0184bb6bd8" x="34.019689" y="10.483815" style="stroke: #000000; stroke-width: 0.6"/>
      </g>
     </g>
    </g>
    <g id="ytick_39">
     <g id="line2d_48">
      <g>
       <use xlink:href="#m0184bb6bd8" x="34.019689" y="8.18541" style="stroke: #000000; stroke-width: 0.6"/>
      </g>
     </g>
    </g>
    <g id="ytick_40">
     <g id="line2d_49">
      <g>
       <use xlink:href="#m0184bb6bd8" x="34.019689" y="6.242136" style="stroke: #000000; stroke-width: 0.6"/>
      </g>
     </g>
    </g>
    <g id="ytick_41">
     <g id="line2d_50">
      <g>
       <use xlink:href="#m0184bb6bd8" x="34.019689" y="4.558795" style="stroke: #000000; stroke-width: 0.6"/>
      </g>
     </g>
    </g>
    <g id="ytick_42">
     <g id="line2d_51">
      <g>
       <use xlink:href="#m0184bb6bd8" x="34.019689" y="3.073984" style="stroke: #000000; stroke-width: 0.6"/>
      </g>
     </g>
    </g>
    <g id="text_15">
     <text style="font-size: 6px; font-family: 'Arial', 'Helvetica', 'DejaVu Sans', sans-serif; text-anchor: middle" x="8.711877" y="66.140079" transform="rotate(-90 8.711877 66.140079)">cell count (log)</text>
    </g>
   </g>
   <g id="line2d_52">
    <path d="M 121.747784 129.880157 
L 121.747784 2.4 
" clip-path="url(#p28b339f11d)" style="fill: none; stroke-dasharray: 3.7,1.6; stroke-dashoffset: 0; stroke: #b85450"/>
   </g>
   <g id="patch_301">
    <path d="M 34.019689 129.880157 
L 34.019689 2.4 
" style="fill: none; stroke: #000000; stroke-width: 0.5; stroke-linejoin: miter; stroke-linecap: square"/>
   </g>
   <g id="patch_302">
    <path d="M 248.466142 129.880157 
L 248.466142 2.4 
" style="fill: none; stroke: #000000; stroke-width: 0.5; stroke-linejoin: miter; stroke-linecap: square"/>
   </g>
   <g id="patch_303">
    <path d="M 34.019689 129.880157 
L 248.466142 129.880157 
" style="fill: none; stroke: #000000; stroke-width: 0.5; stroke-linejoin: miter; stroke-linecap: square"/>
   </g>
   <g id="patch_304">
    <path d="M 34.019689 2.4 
L 248.466142 2.4 
" style="fill: none; stroke: #000000; stroke-width: 0.5; stroke-linejoin: miter; stroke-linecap: square"/>
   </g>
   <g id="legend_1">
    <g id="patch_305">
     <path d="M 37.869689 31.018906 
L 133.682268 31.018906 
Q 134.782268 31.018906 134.782268 29.918906 
L 134.782268 6.25 
Q 134.782268 5.15 133.682268 5.15 
L 37.869689 5.15 
Q 36.769689 5.15 36.769689 6.25 
L 36.769689 29.918906 
Q 36.769689 31.018906 37.869689 31.018906 
z
" style="fill: #ffffff; opacity: 0.9; stroke: #cccccc; stroke-width: 0.4; stroke-linejoin: miter"/>
    </g>
    <g id="patch_306">
     <path d="M 38.969689 11.529141 
L 46.119689 11.529141 
L 46.119689 7.679141 
L 38.969689 7.679141 
z
" style="fill: #d79b00; opacity: 0.7"/>
    </g>
    <g id="text_16">
     <text style="font-size: 5.5px; font-family: 'Arial', 'Helvetica', 'DejaVu Sans', sans-serif; text-anchor: start" x="50.519689" y="11.529141" transform="rotate(-0 50.519689 11.529141)">HIP heterozygous (2.0M cells)</text>
    </g>
    <g id="patch_307">
     <path d="M 38.969689 19.602109 
L 46.119689 19.602109 
L 46.119689 15.752109 
L 38.969689 15.752109 
z
" style="fill: #6c8ebf; opacity: 0.6"/>
    </g>
    <g id="text_17">
     <text style="font-size: 5.5px; font-family: 'Arial', 'Helvetica', 'DejaVu Sans', sans-serif; text-anchor: start" x="50.519689" y="19.602109" transform="rotate(-0 50.519689 19.602109)">HOP homozygous (2.0M cells)</text>
    </g>
    <g id="line2d_53">
     <path d="M 38.969689 25.750078 
L 42.544689 25.750078 
L 46.119689 25.750078 
" style="fill: none; stroke-dasharray: 3.7,1.6; stroke-dashoffset: 0; stroke: #b85450"/>
    </g>
    <g id="text_18">
     <text style="font-size: 5.5px; font-family: 'Arial', 'Helvetica', 'DejaVu Sans', sans-serif; text-anchor: start" x="50.519689" y="27.675078" transform="rotate(-0 50.519689 27.675078)">hypersensitive cut (−4)</text>
    </g>
   </g>
  </g>
 </g>
 <defs>
  <clipPath id="p28b339f11d">
   <rect x="34.019689" y="2.4" width="214.446452" height="127.480157"/>
  </clipPath>
 </defs>
</g></svg>
