<?xml version="1.0" encoding="utf-8" standalone="no"?>
<!DOCTYPE svg PUBLIC "-//W3C//DTD SVG 1.1//EN"
  "http://www.w3.org/Graphics/SVG/1.1/DTD/svg11.dtd">
<svg xmlns:xlink="http://www.w3.org/1999/xlink" width="348.4252" height="220.4724" viewBox="0 0 348.4252 220.4724" xmlns="http://www.w3.org/2000/svg" version="1.1"><g transform="scale(1.3888888889)">
 <metadata>
  <rdf:RDF xmlns:dc="http://purl.org/dc/elements/1.1/" xmlns:cc="http://creativecommons.org/ns#" xmlns:rdf="http://www.w3.org/1999/02/22-rdf-syntax-ns#">
   <cc:Work>
    <dc:type rdf:resource="http://purl.org/dc/dcmitype/StillImage"/>
    <dc:date>2026-07-14T23:39:36.972470</dc:date>
    <dc:format>image/svg+xml</dc:format>
    <dc:creator>
     <cc:Agent>
      <dc:title>Matplotlib v3.10.7, https://matplotlib.org/</dc:title>
     </cc:Agent>
    </dc:creator>
   </cc:Work>
  </rdf:RDF>
 </metadata>
 <defs>
  <style type="text/css">*{stroke-linejoin: round; stroke-linecap: butt}</style>
 </defs>
 <g id="figure_1">
  <g id="patch_1">
   <path d="M 0 158.740157 
L 250.866142 158.740157 
L 250.866142 0 
L 0 0 
z
" style="fill: #ffffff"/>
  </g>
  <g id="axes_1">
   <g id="patch_2">
    <path d="M 31.92 127.432157 
L 248.466142 127.432157 
L 248.466142 2.4 
L 31.92 2.4 
z
" style="fill: #ffffff"/>
   </g>
   <g id="matplotlib.axis_1">
    <g id="xtick_1">
     <g id="line2d_1">
      <defs>
       <path id="m30f2cae80c" d="M 0 0 
L 0 6 
" style="stroke: #000000; stroke-width: 0.8"/>
      </defs>
      <g>
       <use xlink:href="#m30f2cae80c" x="61.281601" y="127.432157" style="stroke: #000000; stroke-width: 0.8"/>
      </g>
     </g>
     <g id="text_1">
      <!-- $\mathdefault{-10^{0}}$ -->
      <g transform="translate(53.481601 141.49122)">
       <text>
        <tspan x="0" y="-0.585938" style="font-size: 6px; font-family: 'DejaVu Sans'">−</tspan>
        <tspan x="5.027344" y="-0.585938" style="font-size: 6px; font-family: 'DejaVu Sans'">1</tspan>
        <tspan x="8.844727" y="-0.585938" style="font-size: 6px; font-family: 'DejaVu Sans'">0</tspan>
        <tspan x="12.719531" y="-2.882812" style="font-size: 4.2px; font-family: 'DejaVu Sans'">0</tspan>
       </text>
      </g>
     </g>
    </g>
    <g id="xtick_2">
     <g id="line2d_2">
      <g>
       <use xlink:href="#m30f2cae80c" x="110.755917" y="127.432157" style="stroke: #000000; stroke-width: 0.8"/>
      </g>
     </g>
     <g id="text_2">
      <!-- $\mathdefault{0}$ -->
      <g transform="translate(108.835917 141.49122)">
       <text>
        <tspan x="0" y="-0.546875" style="font-size: 6px; font-family: 'DejaVu Sans'">0</tspan>
       </text>
      </g>
     </g>
    </g>
    <g id="xtick_3">
     <g id="line2d_3">
      <g>
       <use xlink:href="#m30f2cae80c" x="160.230234" y="127.432157" style="stroke: #000000; stroke-width: 0.8"/>
      </g>
     </g>
     <g id="text_3">
      <!-- $\mathdefault{10^{0}}$ -->
      <g transform="translate(154.950234 141.49122)">
       <text>
        <tspan x="0" y="-0.585938" style="font-size: 6px; font-family: 'DejaVu Sans'">1</tspan>
        <tspan x="3.817383" y="-0.585938" style="font-size: 6px; font-family: 'DejaVu Sans'">0</tspan>
        <tspan x="7.692188" y="-2.882812" style="font-size: 4.2px; font-family: 'DejaVu Sans'">0</tspan>
       </text>
      </g>
     </g>
    </g>
    <g id="xtick_4">
     <g id="line2d_4">
      <g>
       <use xlink:href="#m30f2cae80c" x="204.75712" y="127.432157" style="stroke: #000000; stroke-width: 0.8"/>
      </g>
     </g>
     <g id="text_4">
      <!-- $\mathdefault{10^{1}}$ -->
      <g transform="translate(199.47712 141.49122)">
       <text>
        <tspan x="0" y="-0.640625" style="font-size: 6px; font-family: 'DejaVu Sans'">1</tspan>
        <tspan x="3.817383" y="-0.640625" style="font-size: 6px; font-family: 'DejaVu Sans'">0</tspan>
        <tspan x="7.692188" y="-2.9375" style="font-size: 4.2px; font-family: 'DejaVu Sans'">1</tspan>
       </text>
      </g>
     </g>
    </g>
    <g id="text_5">
     <text style="font-size: 6px; font-family: 'Arial', 'Helvetica', 'DejaVu Sans', sans-serif; text-anchor: middle" x="140.193071" y="151.298095" transform="rotate(-0 140.193071 151.298095)">per-strain promiscuity enrichment (× baseline)</text>
    </g>
   </g>
   <g id="matplotlib.axis_2">
    <g id="ytick_1">
     <g id="line2d_5">
      <defs>
       <path id="m44f4a198fe" d="M 0 0 
L -6 0 
" style="stroke: #000000; stroke-width: 0.8"/>
      </defs>
      <g>
       <use xlink:href="#m44f4a198fe" x="31.92" y="121.768455" style="stroke: #000000; stroke-width: 0.8"/>
      </g>
     </g>
     <g id="text_6">
      <text style="font-size: 6px; font-family: 'Arial', 'Helvetica', 'DejaVu Sans', sans-serif; text-anchor: end" x="22.42" y="124.047986" transform="rotate(-0 22.42 124.047986)">0.0</text>
     </g>
    </g>
    <g id="ytick_2">
     <g id="line2d_6">
      <g>
       <use xlink:href="#m44f4a198fe" x="31.92" y="99.03142" style="stroke: #000000; stroke-width: 0.8"/>
      </g>
     </g>
     <g id="text_7">
      <text style="font-size: 6px; font-family: 'Arial', 'Helvetica', 'DejaVu Sans', sans-serif; text-anchor: end" x="22.42" y="101.310951" transform="rotate(-0 22.42 101.310951)">0.2</text>
     </g>
    </g>
    <g id="ytick_3">
     <g id="line2d_7">
      <g>
       <use xlink:href="#m44f4a198fe" x="31.92" y="76.294385" style="stroke: #000000; stroke-width: 0.8"/>
      </g>
     </g>
     <g id="text_8">
      <text style="font-size: 6px; font-family: 'Arial', 'Helvetica', 'DejaVu Sans', sans-serif; text-anchor: end" x="22.42" y="78.573916" transform="rotate(-0 22.42 78.573916)">0.4</text>
     </g>
    </g>
    <g id="ytick_4">
     <g id="line2d_8">
      <g>
       <use xlink:href="#m44f4a198fe" x="31.92" y="53.55735" style="stroke: #000000; stroke-width: 0.8"/>
      </g>
     </g>
     <g id="text_9">
      <text style="font-size: 6px; font-family: 'Arial', 'Helvetica', 'DejaVu Sans', sans-serif; text-anchor: end" x="22.42" y="55.836881" transform="rotate(-0 22.42 55.836881)">0.6</text>
     </g>
    </g>
    <g id="ytick_5">
     <g id="line2d_9">
      <g>
       <use xlink:href="#m44f4a198fe" x="31.92" y="30.820315" style="stroke: #000000; stroke-width: 0.8"/>
      </g>
     </g>
     <g id="text_10">
      <text style="font-size: 6px; font-family: 'Arial', 'Helvetica', 'DejaVu Sans', sans-serif; text-anchor: end" x="22.42" y="33.099846" transform="rotate(-0 22.42 33.099846)">0.8</text>
     </g>
    </g>
    <g id="ytick_6">
     <g id="line2d_10">
      <g>
       <use xlink:href="#m44f4a198fe" x="31.92" y="8.08328" style="stroke: #000000; stroke-width: 0.8"/>
      </g>
     </g>
     <g id="text_11">
      <text style="font-size: 6px; font-family: 'Arial', 'Helvetica', 'DejaVu Sans', sans-serif; text-anchor: end" x="22.42" y="10.362811" transform="rotate(-0 22.42 10.362811)">1.0</text>
     </g>
    </g>
    <g id="text_12">
     <text style="font-size: 6px; font-family: 'Arial', 'Helvetica', 'DejaVu Sans', sans-serif; text-anchor: middle" x="7.630312" y="64.916079" transform="rotate(-90 7.630312 64.916079)">cumulative fraction of strains</text>
    </g>
   </g>
   <g id="line2d_11">
    <path d="M 110.755917 121.74531 
L 110.755917 79.645691 
L 111.745533 79.529969 
L 111.745533 71.475726 
L 112.735149 71.360004 
L 112.735149 66.893139 
L 113.724765 66.754273 
L 113.724765 63.838082 
L 114.714381 63.72236 
L 114.763742 61.801377 
L 115.703997 61.685655 
L 115.703997 60.01926 
L 116.693612 59.903538 
L 116.763492 58.399153 
L 117.683228 58.283431 
L 117.683228 57.05678 
L 118.672844 56.941058 
L 118.771566 55.968994 
L 119.66246 55.830128 
L 119.66246 54.811775 
L 120.652076 54.62662 
L 120.652076 54.024866 
L 121.641691 53.909144 
L 121.641691 53.191669 
L 122.631307 53.075947 
L 122.709004 52.335327 
L 123.620923 52.103883 
L 123.620923 51.687284 
L 124.610539 51.571562 
L 124.610539 51.224397 
L 125.600155 51.108675 
L 125.600155 50.692076 
L 126.58977 50.576354 
L 126.58977 50.067178 
L 127.579386 49.835734 
L 127.579386 49.326558 
L 127.721589 49.303414 
L 128.569002 49.187692 
L 128.569002 48.724804 
L 129.558618 48.609082 
L 129.558618 48.238772 
L 130.548234 48.099906 
L 130.548234 47.799029 
L 131.537849 47.683307 
L 131.537849 47.451863 
L 132.527465 47.266708 
L 132.527465 47.035265 
L 133.517081 46.919543 
L 133.517081 46.549233 
L 134.506697 46.433511 
L 134.506697 46.178923 
L 135.496313 46.063201 
L 135.496313 45.947479 
L 136.485928 45.73918 
L 136.485928 45.392014 
L 137.475544 45.276292 
L 137.475544 44.952271 
L 138.46516 44.813405 
L 138.46516 44.512528 
L 139.454776 44.350517 
L 139.454776 44.119073 
L 140.444392 44.003351 
L 140.444392 43.933918 
L 141.434007 43.771908 
L 141.434007 43.67933 
L 142.423623 43.51732 
L 142.423623 43.401598 
L 142.543247 43.378453 
L 143.413239 43.262731 
L 143.413239 43.031288 
L 144.402855 42.869277 
L 144.402855 42.7767 
L 145.392471 42.660978 
L 145.392471 42.452678 
L 146.382087 42.313812 
L 146.382087 42.267523 
L 147.371702 42.151801 
L 147.371702 41.943502 
L 148.361318 41.804636 
L 148.361318 41.503759 
L 149.350934 41.318604 
L 149.350934 41.202882 
L 150.34055 41.08716 
L 150.34055 40.902005 
L 151.330166 40.763139 
L 151.330166 40.624273 
L 152.319781 40.485406 
L 152.319781 40.439118 
L 153.309397 40.277107 
L 153.309397 40.253963 
L 154.299013 40.138241 
L 154.299013 40.115096 
L 155.288629 39.999374 
L 155.288629 39.837364 
L 156.278245 39.675353 
L 156.278245 39.60592 
L 158.257476 39.397621 
L 158.257476 39.166177 
L 159.976351 39.004166 
L 160.232764 38.888444 
L 160.232764 38.703289 
L 160.991206 38.541279 
L 161.064116 38.425557 
L 161.359556 38.309835 
L 161.359556 38.147824 
L 161.887125 38.008958 
L 162.075852 37.893236 
L 162.075852 37.870092 
L 162.42429 37.708081 
L 162.4972 37.592359 
L 162.76656 37.453493 
L 162.76656 37.38406 
L 163.102878 37.268338 
L 163.102878 37.222049 
L 163.561934 37.083183 
L 164.078099 36.828595 
L 164.078099 36.805451 
L 164.392541 36.689729 
L 164.392541 36.64344 
L 164.701952 36.527718 
L 164.701952 36.435141 
L 165.101396 36.296274 
L 165.306307 36.180552 
L 165.306307 36.134264 
L 165.601546 36.018542 
L 165.601546 35.90282 
L 165.892345 35.787098 
L 165.892345 35.717665 
L 166.178836 35.578799 
L 166.178836 35.555654 
L 166.461144 35.439932 
L 166.461144 35.347355 
L 166.739391 35.231633 
L 166.759248 35.185344 
L 167.01369 35.069622 
L 167.01369 34.930756 
L 167.284153 34.815034 
L 167.284153 34.722457 
L 167.550885 34.606735 
L 167.550885 34.514157 
L 168.07356 34.375291 
L 168.07356 34.236425 
L 168.329693 34.120703 
L 168.329693 34.028125 
L 168.582478 33.889259 
L 168.647642 33.796682 
L 169.078346 33.634671 
L 169.078346 33.565238 
L 169.321591 33.449516 
L 169.321591 33.403227 
L 169.799092 33.264361 
L 169.799092 33.241217 
L 170.233968 33.10235 
L 170.265085 32.963484 
L 170.713498 32.824618 
L 170.720113 32.616318 
L 170.943673 32.500597 
L 170.943673 32.431163 
L 171.383187 32.246008 
L 171.383187 32.19972 
L 171.812933 32.060853 
L 171.812933 31.99142 
L 172.024277 31.875698 
L 172.105667 31.806265 
L 172.644794 31.667399 
L 172.708852 31.597966 
L 173.133875 31.412811 
L 173.246017 31.297089 
L 173.349942 31.227656 
L 173.82911 30.996212 
L 173.82911 30.926779 
L 174.019631 30.811057 
L 174.125774 30.695335 
L 174.945061 30.371314 
L 174.945061 30.301881 
L 175.47978 30.13987 
L 175.47978 30.047293 
L 175.828218 29.908426 
L 175.901128 29.815849 
L 176.339378 29.60755 
L 176.339378 29.538116 
L 176.605364 29.39925 
L 177.162387 29.098373 
L 177.162387 29.052085 
L 177.639887 28.890074 
L 177.796469 28.681775 
L 178.10588 28.542908 
L 178.10588 28.49662 
L 178.560908 28.357753 
L 179.131583 27.987443 
L 179.15142 27.408834 
L 179.724434 27.223679 
L 179.724434 27.17739 
L 180.004696 27.038524 
L 180.104399 26.945946 
L 180.591732 26.529348 
L 180.688081 26.459914 
L 180.821907 26.344193 
L 180.837035 26.274759 
L 181.217916 26.089604 
L 181.217916 26.020171 
L 181.348138 25.904449 
L 181.457561 25.835016 
L 181.605978 25.69615 
L 181.860427 25.557284 
L 181.966569 25.302696 
L 182.359494 24.95553 
L 182.507178 24.816664 
L 182.846005 24.608364 
L 182.846005 24.538931 
L 182.965744 24.423209 
L 182.965744 24.376921 
L 183.20302 24.238054 
L 183.20302 24.191766 
L 183.553563 24.029755 
L 183.669013 23.914033 
L 183.897865 23.775167 
L 183.897865 23.728878 
L 184.286434 23.543723 
L 185.003182 23.173413 
L 185.010917 23.10398 
L 185.533017 22.941969 
L 185.740953 22.803103 
L 185.844088 22.73367 
L 185.946676 22.641092 
L 186.55103 22.409649 
L 186.649945 22.178205 
L 187.328533 21.923617 
L 187.328533 21.900472 
L 187.705868 21.738462 
L 187.799062 21.692173 
L 188.439142 21.391296 
L 188.528876 21.298719 
L 188.795609 21.159852 
L 188.795609 21.136708 
L 189.145623 20.974697 
L 189.404038 20.812687 
L 189.489415 20.720109 
L 189.807364 20.534954 
L 189.910734 20.025778 
L 190.404491 19.794334 
L 190.404491 19.77119 
L 191.026339 19.586035 
L 191.278215 19.40088 
L 191.397667 19.285158 
L 191.482855 19.215725 
L 191.844803 18.984281 
L 192.240647 18.799126 
L 192.409402 18.683404 
L 192.535511 18.567682 
L 192.62791 18.174228 
L 193.616187 17.91964 
L 193.710577 17.850207 
L 195.390334 17.017009 
L 196.202358 16.80871 
L 196.28833 16.762421 
L 196.960799 16.530977 
L 200.376307 14.980304 
L 200.469601 14.517416 
L 200.732478 14.401695 
L 203.50004 13.452775 
L 203.9901 13.26762 
L 204.144075 13.198187 
L 204.940217 12.920454 
L 205.939439 12.318701 
L 206.043127 12.087257 
L 206.331513 12.017824 
L 207.428675 11.763236 
L 210.25454 10.768028 
L 210.25454 10.721739 
L 210.959984 10.582872 
L 214.79197 9.541376 
L 216.278903 9.379365 
L 218.413349 9.032199 
L 221.186455 8.870189 
L 236.937232 8.106424 
L 238.389779 8.08328 
L 238.389779 8.08328 
" clip-path="url(#peb5c0298fc)" style="fill: none; stroke: #6c8ebf; stroke-width: 1.1; stroke-linecap: square"/>
   </g>
   <g id="line2d_12">
    <path d="M 110.755917 121.748878 
L 110.755917 72.668675 
L 112.652723 72.551212 
L 112.743495 60.295844 
L 114.549528 60.158803 
L 114.552096 53.580843 
L 114.932421 53.541688 
L 116.446333 53.424224 
L 116.446333 48.510331 
L 117.3061 48.451599 
L 118.343138 48.334136 
L 118.343138 45.534587 
L 120.239944 45.397546 
L 120.315945 42.813347 
L 122.136749 42.676306 
L 122.136749 40.738157 
L 124.033554 40.620693 
L 124.033554 38.741276 
L 124.192649 38.702122 
L 125.930359 38.584658 
L 125.930359 37.35129 
L 127.827164 37.155518 
L 127.827164 36.235386 
L 128.043552 36.215809 
L 129.72397 36.098345 
L 129.72397 34.786669 
L 131.620775 34.532164 
L 131.620775 33.827383 
L 133.51758 33.709919 
L 133.51758 33.005138 
L 135.414385 32.868097 
L 135.414385 32.261202 
L 137.31119 32.143738 
L 137.31119 31.77177 
L 139.207996 31.595575 
L 139.207996 30.988679 
L 141.104801 30.871216 
L 141.104801 30.47967 
L 143.001606 30.186012 
L 143.001606 29.833621 
L 144.898411 29.637848 
L 144.898411 29.422498 
L 146.795216 29.305035 
L 146.795216 28.952644 
L 148.692022 28.83518 
L 148.692022 28.61983 
L 150.588827 28.424058 
L 150.588827 28.169553 
L 152.485632 28.05209 
L 152.485632 27.719276 
L 154.382437 27.523504 
L 154.382437 27.327731 
L 156.279242 27.171113 
L 156.279242 27.092804 
L 158.176048 26.97534 
L 158.176048 26.779567 
L 160.072853 26.564218 
L 160.072853 26.446754 
L 160.898436 26.290136 
L 160.898436 26.211827 
L 161.601705 26.055209 
L 161.706659 25.879013 
L 162.280293 25.76155 
L 162.280293 25.663663 
L 162.935874 25.5462 
L 162.935874 25.350427 
L 163.569956 25.232964 
L 163.569956 25.135077 
L 164.778961 24.998036 
L 164.778961 24.743532 
L 165.356251 24.626068 
L 165.356251 24.489028 
L 165.916806 24.332409 
L 165.916806 24.195369 
L 166.461568 24.03875 
L 166.461568 23.940864 
L 166.991404 23.823401 
L 166.991404 23.627628 
L 168.009417 23.490587 
L 168.009417 23.314392 
L 168.499007 23.196928 
L 168.499007 23.099042 
L 169.442116 22.962001 
L 169.547455 22.707496 
L 169.578174 22.687919 
L 169.897528 22.570456 
L 169.897528 22.472569 
L 170.776669 22.296374 
L 170.776669 22.17891 
L 171.201693 22.061447 
L 171.201693 22.002715 
L 172.024701 21.865674 
L 172.024701 21.767788 
L 172.423432 21.650324 
L 172.423432 21.61117 
L 172.853399 21.493706 
L 173.572549 21.200047 
L 173.572549 21.141315 
L 174.302364 21.004274 
L 174.302364 20.984697 
L 174.775309 20.847656 
L 175.671142 20.671461 
L 175.684221 20.573575 
L 176.339802 20.436534 
L 176.339802 20.338647 
L 176.973885 20.201607 
L 176.973885 20.182029 
L 177.283296 20.064566 
L 177.283296 19.947102 
L 177.88765 19.810061 
L 177.88765 19.770907 
L 178.182889 19.653443 
L 178.182889 19.555557 
L 178.473689 19.418516 
L 178.473689 19.398939 
L 179.042488 19.261898 
L 179.042488 19.222743 
L 179.320734 19.10528 
L 179.320734 19.046548 
L 179.865496 18.909507 
L 179.865496 18.870353 
L 180.132229 18.752889 
L 180.132229 18.733312 
L 181.163822 18.557116 
L 181.163822 18.517962 
L 181.659689 18.380921 
L 181.659689 18.322189 
L 182.380435 18.165571 
L 182.380435 18.087262 
L 182.846428 17.950221 
L 182.951383 17.871912 
L 183.746022 17.636985 
L 183.746022 17.59783 
L 184.394277 17.441212 
L 184.394277 17.421635 
L 185.226137 17.24544 
L 185.226137 17.206285 
L 186.218036 17.010512 
L 186.257327 16.951781 
L 186.789638 16.775585 
L 186.789638 16.736431 
L 187.266484 16.579813 
L 187.706292 16.364463 
L 187.706292 16.286154 
L 188.581454 16.090381 
L 188.581454 16.070804 
L 189.904211 15.816299 
L 189.904211 15.777145 
L 191.142251 15.52264 
L 191.142251 15.503063 
L 192.021393 15.287713 
L 192.021393 15.268136 
L 192.862298 15.052786 
L 192.862298 15.033209 
L 194.44177 14.700395 
L 194.44177 14.661241 
L 195.306863 14.426314 
L 195.306863 14.387159 
L 195.901919 14.191386 
L 195.901919 14.171809 
L 196.250356 14.034768 
L 197.368459 13.741109 
L 197.584525 13.701955 
L 198.832557 13.369141 
L 199.03526 13.31041 
L 200.099464 12.997173 
L 200.380406 12.87971 
L 203.625159 12.096619 
L 203.625159 12.077042 
L 204.167737 11.900846 
L 205.568036 11.430992 
L 205.639 11.37226 
L 209.280363 10.432552 
L 210.03499 10.275934 
L 211.148934 10.060584 
L 211.829359 9.923543 
L 212.977487 9.786502 
L 215.366589 9.571152 
L 215.38931 9.551575 
L 218.021396 9.199184 
L 219.091389 9.022989 
L 221.889334 8.768484 
L 222.82662 8.651021 
L 239.91241 8.122434 
L 247.522648 8.08328 
L 247.522648 8.08328 
" clip-path="url(#peb5c0298fc)" style="fill: none; stroke: #d79b00; stroke-width: 1.1; stroke-linecap: square"/>
   </g>
   <g id="line2d_13">
    <path d="M 187.038091 127.432157 
L 187.038091 2.4 
" clip-path="url(#peb5c0298fc)" style="fill: none; stroke-dasharray: 3.7,1.6; stroke-dashoffset: 0; stroke: #b85450"/>
   </g>
   <g id="patch_3">
    <path d="M 31.92 127.432157 
L 31.92 2.4 
" style="fill: none; stroke: #000000; stroke-width: 0.5; stroke-linejoin: miter; stroke-linecap: square"/>
   </g>
   <g id="patch_4">
    <path d="M 248.466142 127.432157 
L 248.466142 2.4 
" style="fill: none; stroke: #000000; stroke-width: 0.5; stroke-linejoin: miter; stroke-linecap: square"/>
   </g>
   <g id="patch_5">
    <path d="M 31.92 127.432157 
L 248.466142 127.432157 
" style="fill: none; stroke: #000000; stroke-width: 0.5; stroke-linejoin: miter; stroke-linecap: square"/>
   </g>
   <g id="patch_6">
    <path d="M 31.92 2.4 
L 248.466142 2.4 
" style="fill: none; stroke: #000000; stroke-width: 0.5; stroke-linejoin: miter; stroke-linecap: square"/>
   </g>
   <g id="legend_1">
    <g id="patch_7">
     <path d="M 178.767392 124.682157 
L 244.616142 124.682157 
Q 245.716142 124.682157 245.716142 123.582157 
L 245.716142 99.913251 
Q 245.716142 98.813251 244.616142 98.813251 
L 178.767392 98.813251 
Q 177.667392 98.813251 177.667392 99.913251 
L 177.667392 123.582157 
Q 177.667392 124.682157 178.767392 124.682157 
z
" style="fill: #ffffff; opacity: 0.9; stroke: #cccccc; stroke-width: 0.4; stroke-linejoin: miter"/>
    </g>
    <g id="line2d_14">
     <path d="M 179.867392 103.267392 
L 183.442392 103.267392 
L 187.017392 103.267392 
" style="fill: none; stroke: #6c8ebf; stroke-width: 1.1; stroke-linecap: square"/>
    </g>
    <g id="text_13">
     <text style="font-size: 5.5px; font-family: 'Arial', 'Helvetica', 'DejaVu Sans', sans-serif; text-anchor: start" x="191.417392" y="105.192392" transform="rotate(-0 191.417392 105.192392)">HOP (4912 strains)</text>
    </g>
    <g id="line2d_15">
     <path d="M 179.867392 111.340361 
L 183.442392 111.340361 
L 187.017392 111.340361 
" style="fill: none; stroke: #d79b00; stroke-width: 1.1; stroke-linecap: square"/>
    </g>
    <g id="text_14">
     <text style="font-size: 5.5px; font-family: 'Arial', 'Helvetica', 'DejaVu Sans', sans-serif; text-anchor: start" x="191.417392" y="113.265361" transform="rotate(-0 191.417392 113.265361)">HIP (5807 strains)</text>
    </g>
    <g id="line2d_16">
     <path d="M 179.867392 119.413329 
L 183.442392 119.413329 
L 187.017392 119.413329 
" style="fill: none; stroke-dasharray: 3.7,1.6; stroke-dashoffset: 0; stroke: #b85450"/>
    </g>
    <g id="text_15">
     <text style="font-size: 5.5px; font-family: 'Arial', 'Helvetica', 'DejaVu Sans', sans-serif; text-anchor: start" x="191.417392" y="121.338329" transform="rotate(-0 191.417392 121.338329)">flag (4×)</text>
    </g>
   </g>
  </g>
 </g>
 <defs>
  <clipPath id="peb5c0298fc">
   <rect x="31.92" y="2.4" width="216.546142" height="125.032157"/>
  </clipPath>
 </defs>
</g></svg>
