<?xml version="1.0" encoding="utf-8" standalone="no"?>
<!DOCTYPE svg PUBLIC "-//W3C//DTD SVG 1.1//EN"
  "http://www.w3.org/Graphics/SVG/1.1/DTD/svg11.dtd">
<svg xmlns:xlink="http://www.w3.org/1999/xlink" width="348.4252" height="220.4724" viewBox="0 0 348.4252 220.4724" xmlns="http://www.w3.org/2000/svg" version="1.1"><g transform="scale(1.3888888889)">
 <metadata>
  <rdf:RDF xmlns:dc="http://purl.org/dc/elements/1.1/" xmlns:cc="http://creativecommons.org/ns#" xmlns:rdf="http://www.w3.org/1999/02/22-rdf-syntax-ns#">
   <cc:Work>
    <dc:type rdf:resource="http://purl.org/dc/dcmitype/StillImage"/>
    <dc:date>2026-07-14T23:39:37.300123</dc:date>
    <dc:format>image/svg+xml</dc:format>
    <dc:creator>
     <cc:Agent>
      <dc:title>Matplotlib v3.10.7, https://matplotlib.org/</dc:title>
     </cc:Agent>
    </dc:creator>
   </cc:Work>
  </rdf:RDF>
 </metadata>
 <defs>
  <style type="text/css">*{stroke-linejoin: round; stroke-linecap: butt}</style>
 </defs>
 <g id="figure_1">
  <g id="patch_1">
   <path d="M 0 158.740157 
L 250.866142 158.740157 
L 250.866142 0 
L 0 0 
z
" style="fill: #ffffff"/>
  </g>
  <g id="axes_1">
   <g id="patch_2">
    <path d="M 33.81 129.880157 
L 248.466142 129.880157 
L 248.466142 2.4 
L 33.81 2.4 
z
" style="fill: #ffffff"/>
   </g>
   <g id="patch_3">
    <path d="M 43.567097 129.880157 
L 47.115133 129.880157 
L 47.115133 128.300845 
L 43.567097 128.300845 
z
" clip-path="url(#pd613d27e54)" style="fill: #9673a6; opacity: 0.85"/>
   </g>
   <g id="patch_4">
    <path d="M 47.115133 129.880157 
L 50.663168 129.880157 
L 50.663168 128.498259 
L 47.115133 128.498259 
z
" clip-path="url(#pd613d27e54)" style="fill: #9673a6; opacity: 0.85"/>
   </g>
   <g id="patch_5">
    <path d="M 50.663168 129.880157 
L 54.211204 129.880157 
L 54.211204 126.326704 
L 50.663168 126.326704 
z
" clip-path="url(#pd613d27e54)" style="fill: #9673a6; opacity: 0.85"/>
   </g>
   <g id="patch_6">
    <path d="M 54.211204 129.880157 
L 57.759239 129.880157 
L 57.759239 124.549977 
L 54.211204 124.549977 
z
" clip-path="url(#pd613d27e54)" style="fill: #9673a6; opacity: 0.85"/>
   </g>
   <g id="patch_7">
    <path d="M 57.759239 129.880157 
L 61.307274 129.880157 
L 61.307274 123.957734 
L 57.759239 123.957734 
z
" clip-path="url(#pd613d27e54)" style="fill: #9673a6; opacity: 0.85"/>
   </g>
   <g id="patch_8">
    <path d="M 61.307274 129.880157 
L 64.85531 129.880157 
L 64.85531 119.614624 
L 61.307274 119.614624 
z
" clip-path="url(#pd613d27e54)" style="fill: #9673a6; opacity: 0.85"/>
   </g>
   <g id="patch_9">
    <path d="M 64.85531 129.880157 
L 68.403345 129.880157 
L 68.403345 112.902545 
L 64.85531 112.902545 
z
" clip-path="url(#pd613d27e54)" style="fill: #9673a6; opacity: 0.85"/>
   </g>
   <g id="patch_10">
    <path d="M 68.403345 129.880157 
L 71.951381 129.880157 
L 71.951381 110.730989 
L 68.403345 110.730989 
z
" clip-path="url(#pd613d27e54)" style="fill: #9673a6; opacity: 0.85"/>
   </g>
   <g id="patch_11">
    <path d="M 71.951381 129.880157 
L 75.499416 129.880157 
L 75.499416 105.598223 
L 71.951381 105.598223 
z
" clip-path="url(#pd613d27e54)" style="fill: #9673a6; opacity: 0.85"/>
   </g>
   <g id="patch_12">
    <path d="M 75.499416 129.880157 
L 79.047451 129.880157 
L 79.047451 96.517174 
L 75.499416 96.517174 
z
" clip-path="url(#pd613d27e54)" style="fill: #9673a6; opacity: 0.85"/>
   </g>
   <g id="patch_13">
    <path d="M 79.047451 129.880157 
L 82.595487 129.880157 
L 82.595487 83.487843 
L 79.047451 83.487843 
z
" clip-path="url(#pd613d27e54)" style="fill: #9673a6; opacity: 0.85"/>
   </g>
   <g id="patch_14">
    <path d="M 82.595487 129.880157 
L 86.143522 129.880157 
L 86.143522 61.772292 
L 82.595487 61.772292 
z
" clip-path="url(#pd613d27e54)" style="fill: #9673a6; opacity: 0.85"/>
   </g>
   <g id="patch_15">
    <path d="M 86.143522 129.880157 
L 89.691558 129.880157 
L 89.691558 37.885185 
L 86.143522 37.885185 
z
" clip-path="url(#pd613d27e54)" style="fill: #9673a6; opacity: 0.85"/>
   </g>
   <g id="patch_16">
    <path d="M 89.691558 129.880157 
L 93.239593 129.880157 
L 93.239593 8.470484 
L 89.691558 8.470484 
z
" clip-path="url(#pd613d27e54)" style="fill: #9673a6; opacity: 0.85"/>
   </g>
   <g id="patch_17">
    <path d="M 93.239593 129.880157 
L 96.787628 129.880157 
L 96.787628 12.023938 
L 93.239593 12.023938 
z
" clip-path="url(#pd613d27e54)" style="fill: #9673a6; opacity: 0.85"/>
   </g>
   <g id="patch_18">
    <path d="M 96.787628 129.880157 
L 100.335664 129.880157 
L 100.335664 16.761876 
L 96.787628 16.761876 
z
" clip-path="url(#pd613d27e54)" style="fill: #9673a6; opacity: 0.85"/>
   </g>
   <g id="patch_19">
    <path d="M 100.335664 129.880157 
L 103.883699 129.880157 
L 103.883699 37.885185 
L 100.335664 37.885185 
z
" clip-path="url(#pd613d27e54)" style="fill: #9673a6; opacity: 0.85"/>
   </g>
   <g id="patch_20">
    <path d="M 103.883699 129.880157 
L 107.431735 129.880157 
L 107.431735 54.665384 
L 103.883699 54.665384 
z
" clip-path="url(#pd613d27e54)" style="fill: #9673a6; opacity: 0.85"/>
   </g>
   <g id="patch_21">
    <path d="M 107.431735 129.880157 
L 110.97977 129.880157 
L 110.97977 61.772292 
L 107.431735 61.772292 
z
" clip-path="url(#pd613d27e54)" style="fill: #9673a6; opacity: 0.85"/>
   </g>
   <g id="patch_22">
    <path d="M 110.97977 129.880157 
L 114.527805 129.880157 
L 114.527805 76.775764 
L 110.97977 76.775764 
z
" clip-path="url(#pd613d27e54)" style="fill: #9673a6; opacity: 0.85"/>
   </g>
   <g id="patch_23">
    <path d="M 114.527805 129.880157 
L 118.075841 129.880157 
L 118.075841 89.410266 
L 114.527805 89.410266 
z
" clip-path="url(#pd613d27e54)" style="fill: #9673a6; opacity: 0.85"/>
   </g>
   <g id="patch_24">
    <path d="M 118.075841 129.880157 
L 121.623876 129.880157 
L 121.623876 100.070628 
L 118.075841 100.070628 
z
" clip-path="url(#pd613d27e54)" style="fill: #9673a6; opacity: 0.85"/>
   </g>
   <g id="patch_25">
    <path d="M 121.623876 129.880157 
L 125.171912 129.880157 
L 125.171912 108.756848 
L 121.623876 108.756848 
z
" clip-path="url(#pd613d27e54)" style="fill: #9673a6; opacity: 0.85"/>
   </g>
   <g id="patch_26">
    <path d="M 125.171912 129.880157 
L 128.719947 129.880157 
L 128.719947 115.271514 
L 125.171912 115.271514 
z
" clip-path="url(#pd613d27e54)" style="fill: #9673a6; opacity: 0.85"/>
   </g>
   <g id="patch_27">
    <path d="M 128.719947 129.880157 
L 132.267982 129.880157 
L 132.267982 120.601695 
L 128.719947 120.601695 
z
" clip-path="url(#pd613d27e54)" style="fill: #9673a6; opacity: 0.85"/>
   </g>
   <g id="patch_28">
    <path d="M 132.267982 129.880157 
L 135.816018 129.880157 
L 135.816018 123.76032 
L 132.267982 123.76032 
z
" clip-path="url(#pd613d27e54)" style="fill: #9673a6; opacity: 0.85"/>
   </g>
   <g id="patch_29">
    <path d="M 135.816018 129.880157 
L 139.364053 129.880157 
L 139.364053 125.931875 
L 135.816018 125.931875 
z
" clip-path="url(#pd613d27e54)" style="fill: #9673a6; opacity: 0.85"/>
   </g>
   <g id="patch_30">
    <path d="M 139.364053 129.880157 
L 142.912089 129.880157 
L 142.912089 123.168078 
L 139.364053 123.168078 
z
" clip-path="url(#pd613d27e54)" style="fill: #9673a6; opacity: 0.85"/>
   </g>
   <g id="patch_31">
    <path d="M 142.912089 129.880157 
L 146.460124 129.880157 
L 146.460124 122.378422 
L 142.912089 122.378422 
z
" clip-path="url(#pd613d27e54)" style="fill: #9673a6; opacity: 0.85"/>
   </g>
   <g id="patch_32">
    <path d="M 146.460124 129.880157 
L 150.008159 129.880157 
L 150.008159 122.378422 
L 146.460124 122.378422 
z
" clip-path="url(#pd613d27e54)" style="fill: #9673a6; opacity: 0.85"/>
   </g>
   <g id="patch_33">
    <path d="M 150.008159 129.880157 
L 153.556195 129.880157 
L 153.556195 125.339633 
L 150.008159 125.339633 
z
" clip-path="url(#pd613d27e54)" style="fill: #9673a6; opacity: 0.85"/>
   </g>
   <g id="patch_34">
    <path d="M 153.556195 129.880157 
L 157.10423 129.880157 
L 157.10423 124.944805 
L 153.556195 124.944805 
z
" clip-path="url(#pd613d27e54)" style="fill: #9673a6; opacity: 0.85"/>
   </g>
   <g id="patch_35">
    <path d="M 157.10423 129.880157 
L 160.652266 129.880157 
L 160.652266 127.11636 
L 157.10423 127.11636 
z
" clip-path="url(#pd613d27e54)" style="fill: #9673a6; opacity: 0.85"/>
   </g>
   <g id="patch_36">
    <path d="M 160.652266 129.880157 
L 164.200301 129.880157 
L 164.200301 127.11636 
L 160.652266 127.11636 
z
" clip-path="url(#pd613d27e54)" style="fill: #9673a6; opacity: 0.85"/>
   </g>
   <g id="patch_37">
    <path d="M 164.200301 129.880157 
L 167.748336 129.880157 
L 167.748336 129.090501 
L 164.200301 129.090501 
z
" clip-path="url(#pd613d27e54)" style="fill: #9673a6; opacity: 0.85"/>
   </g>
   <g id="patch_38">
    <path d="M 167.748336 129.880157 
L 171.296372 129.880157 
L 171.296372 129.682743 
L 167.748336 129.682743 
z
" clip-path="url(#pd613d27e54)" style="fill: #9673a6; opacity: 0.85"/>
   </g>
   <g id="patch_39">
    <path d="M 171.296372 129.880157 
L 174.844407 129.880157 
L 174.844407 129.287915 
L 171.296372 129.287915 
z
" clip-path="url(#pd613d27e54)" style="fill: #9673a6; opacity: 0.85"/>
   </g>
   <g id="patch_40">
    <path d="M 174.844407 129.880157 
L 178.392443 129.880157 
L 178.392443 129.880157 
L 174.844407 129.880157 
z
" clip-path="url(#pd613d27e54)" style="fill: #9673a6; opacity: 0.85"/>
   </g>
   <g id="patch_41">
    <path d="M 178.392443 129.880157 
L 181.940478 129.880157 
L 181.940478 129.880157 
L 178.392443 129.880157 
z
" clip-path="url(#pd613d27e54)" style="fill: #9673a6; opacity: 0.85"/>
   </g>
   <g id="patch_42">
    <path d="M 181.940478 129.880157 
L 185.488513 129.880157 
L 185.488513 129.682743 
L 181.940478 129.682743 
z
" clip-path="url(#pd613d27e54)" style="fill: #9673a6; opacity: 0.85"/>
   </g>
   <g id="patch_43">
    <path d="M 185.488513 129.880157 
L 189.036549 129.880157 
L 189.036549 129.682743 
L 185.488513 129.682743 
z
" clip-path="url(#pd613d27e54)" style="fill: #9673a6; opacity: 0.85"/>
   </g>
   <g id="patch_44">
    <path d="M 189.036549 129.880157 
L 192.584584 129.880157 
L 192.584584 129.880157 
L 189.036549 129.880157 
z
" clip-path="url(#pd613d27e54)" style="fill: #9673a6; opacity: 0.85"/>
   </g>
   <g id="patch_45">
    <path d="M 192.584584 129.880157 
L 196.13262 129.880157 
L 196.13262 129.682743 
L 192.584584 129.682743 
z
" clip-path="url(#pd613d27e54)" style="fill: #9673a6; opacity: 0.85"/>
   </g>
   <g id="patch_46">
    <path d="M 196.13262 129.880157 
L 199.680655 129.880157 
L 199.680655 129.287915 
L 196.13262 129.287915 
z
" clip-path="url(#pd613d27e54)" style="fill: #9673a6; opacity: 0.85"/>
   </g>
   <g id="patch_47">
    <path d="M 199.680655 129.880157 
L 203.22869 129.880157 
L 203.22869 129.287915 
L 199.680655 129.287915 
z
" clip-path="url(#pd613d27e54)" style="fill: #9673a6; opacity: 0.85"/>
   </g>
   <g id="patch_48">
    <path d="M 203.22869 129.880157 
L 206.776726 129.880157 
L 206.776726 129.485329 
L 203.22869 129.485329 
z
" clip-path="url(#pd613d27e54)" style="fill: #9673a6; opacity: 0.85"/>
   </g>
   <g id="patch_49">
    <path d="M 206.776726 129.880157 
L 210.324761 129.880157 
L 210.324761 128.893087 
L 206.776726 128.893087 
z
" clip-path="url(#pd613d27e54)" style="fill: #9673a6; opacity: 0.85"/>
   </g>
   <g id="patch_50">
    <path d="M 210.324761 129.880157 
L 213.872797 129.880157 
L 213.872797 128.103431 
L 210.324761 128.103431 
z
" clip-path="url(#pd613d27e54)" style="fill: #9673a6; opacity: 0.85"/>
   </g>
   <g id="patch_51">
    <path d="M 213.872797 129.880157 
L 217.420832 129.880157 
L 217.420832 128.498259 
L 213.872797 128.498259 
z
" clip-path="url(#pd613d27e54)" style="fill: #9673a6; opacity: 0.85"/>
   </g>
   <g id="patch_52">
    <path d="M 217.420832 129.880157 
L 220.968867 129.880157 
L 220.968867 128.695673 
L 217.420832 128.695673 
z
" clip-path="url(#pd613d27e54)" style="fill: #9673a6; opacity: 0.85"/>
   </g>
   <g id="patch_53">
    <path d="M 220.968867 129.880157 
L 224.516903 129.880157 
L 224.516903 129.880157 
L 220.968867 129.880157 
z
" clip-path="url(#pd613d27e54)" style="fill: #9673a6; opacity: 0.85"/>
   </g>
   <g id="patch_54">
    <path d="M 224.516903 129.880157 
L 228.064938 129.880157 
L 228.064938 129.880157 
L 224.516903 129.880157 
z
" clip-path="url(#pd613d27e54)" style="fill: #9673a6; opacity: 0.85"/>
   </g>
   <g id="patch_55">
    <path d="M 228.064938 129.880157 
L 231.612974 129.880157 
L 231.612974 129.880157 
L 228.064938 129.880157 
z
" clip-path="url(#pd613d27e54)" style="fill: #9673a6; opacity: 0.85"/>
   </g>
   <g id="patch_56">
    <path d="M 231.612974 129.880157 
L 235.161009 129.880157 
L 235.161009 129.880157 
L 231.612974 129.880157 
z
" clip-path="url(#pd613d27e54)" style="fill: #9673a6; opacity: 0.85"/>
   </g>
   <g id="patch_57">
    <path d="M 235.161009 129.880157 
L 238.709044 129.880157 
L 238.709044 129.682743 
L 235.161009 129.682743 
z
" clip-path="url(#pd613d27e54)" style="fill: #9673a6; opacity: 0.85"/>
   </g>
   <g id="matplotlib.axis_1">
    <g id="xtick_1">
     <g id="line2d_1">
      <defs>
       <path id="m9e1509f901" d="M 0 0 
L 0 6 
" style="stroke: #000000; stroke-width: 0.8"/>
      </defs>
      <g>
       <use xlink:href="#m9e1509f901" x="41.8312" y="129.880157" style="stroke: #000000; stroke-width: 0.8"/>
      </g>
     </g>
     <g id="text_1">
      <text style="font-size: 6px; font-family: 'Arial', 'Helvetica', 'DejaVu Sans', sans-serif; text-anchor: middle" x="41.8312" y="143.93922" transform="rotate(-0 41.8312 143.93922)">−0.4</text>
     </g>
    </g>
    <g id="xtick_2">
     <g id="line2d_2">
      <g>
       <use xlink:href="#m9e1509f901" x="69.956607" y="129.880157" style="stroke: #000000; stroke-width: 0.8"/>
      </g>
     </g>
     <g id="text_2">
      <text style="font-size: 6px; font-family: 'Arial', 'Helvetica', 'DejaVu Sans', sans-serif; text-anchor: middle" x="69.956607" y="143.93922" transform="rotate(-0 69.956607 143.93922)">−0.2</text>
     </g>
    </g>
    <g id="xtick_3">
     <g id="line2d_3">
      <g>
       <use xlink:href="#m9e1509f901" x="98.082013" y="129.880157" style="stroke: #000000; stroke-width: 0.8"/>
      </g>
     </g>
     <g id="text_3">
      <text style="font-size: 6px; font-family: 'Arial', 'Helvetica', 'DejaVu Sans', sans-serif; text-anchor: middle" x="98.082013" y="143.93922" transform="rotate(-0 98.082013 143.93922)">0.0</text>
     </g>
    </g>
    <g id="xtick_4">
     <g id="line2d_4">
      <g>
       <use xlink:href="#m9e1509f901" x="126.207419" y="129.880157" style="stroke: #000000; stroke-width: 0.8"/>
      </g>
     </g>
     <g id="text_4">
      <text style="font-size: 6px; font-family: 'Arial', 'Helvetica', 'DejaVu Sans', sans-serif; text-anchor: middle" x="126.207419" y="143.93922" transform="rotate(-0 126.207419 143.93922)">0.2</text>
     </g>
    </g>
    <g id="xtick_5">
     <g id="line2d_5">
      <g>
       <use xlink:href="#m9e1509f901" x="154.332826" y="129.880157" style="stroke: #000000; stroke-width: 0.8"/>
      </g>
     </g>
     <g id="text_5">
      <text style="font-size: 6px; font-family: 'Arial', 'Helvetica', 'DejaVu Sans', sans-serif; text-anchor: middle" x="154.332826" y="143.93922" transform="rotate(-0 154.332826 143.93922)">0.4</text>
     </g>
    </g>
    <g id="xtick_6">
     <g id="line2d_6">
      <g>
       <use xlink:href="#m9e1509f901" x="182.458232" y="129.880157" style="stroke: #000000; stroke-width: 0.8"/>
      </g>
     </g>
     <g id="text_6">
      <text style="font-size: 6px; font-family: 'Arial', 'Helvetica', 'DejaVu Sans', sans-serif; text-anchor: middle" x="182.458232" y="143.93922" transform="rotate(-0 182.458232 143.93922)">0.6</text>
     </g>
    </g>
    <g id="xtick_7">
     <g id="line2d_7">
      <g>
       <use xlink:href="#m9e1509f901" x="210.583638" y="129.880157" style="stroke: #000000; stroke-width: 0.8"/>
      </g>
     </g>
     <g id="text_7">
      <text style="font-size: 6px; font-family: 'Arial', 'Helvetica', 'DejaVu Sans', sans-serif; text-anchor: middle" x="210.583638" y="143.93922" transform="rotate(-0 210.583638 143.93922)">0.8</text>
     </g>
    </g>
    <g id="xtick_8">
     <g id="line2d_8">
      <g>
       <use xlink:href="#m9e1509f901" x="238.709044" y="129.880157" style="stroke: #000000; stroke-width: 0.8"/>
      </g>
     </g>
     <g id="text_8">
      <text style="font-size: 6px; font-family: 'Arial', 'Helvetica', 'DejaVu Sans', sans-serif; text-anchor: middle" x="238.709044" y="143.93922" transform="rotate(-0 238.709044 143.93922)">1.0</text>
     </g>
    </g>
    <g id="text_9">
     <text style="font-size: 6px; font-family: 'Arial', 'Helvetica', 'DejaVu Sans', sans-serif; text-anchor: middle" x="141.138071" y="153.746095" transform="rotate(-0 141.138071 153.746095)">Pearson r of strain profile vs whi2/YOR043w (HIP)</text>
    </g>
   </g>
   <g id="matplotlib.axis_2">
    <g id="ytick_1">
     <g id="line2d_9">
      <defs>
       <path id="me3bac99485" d="M 0 0 
L -6 0 
" style="stroke: #000000; stroke-width: 0.8"/>
      </defs>
      <g>
       <use xlink:href="#me3bac99485" x="33.81" y="129.880157" style="stroke: #000000; stroke-width: 0.8"/>
      </g>
     </g>
     <g id="text_10">
      <text style="font-size: 6px; font-family: 'Arial', 'Helvetica', 'DejaVu Sans', sans-serif; text-anchor: end" x="24.31" y="132.159689" transform="rotate(-0 24.31 132.159689)">0</text>
     </g>
    </g>
    <g id="ytick_2">
     <g id="line2d_10">
      <g>
       <use xlink:href="#me3bac99485" x="33.81" y="110.138747" style="stroke: #000000; stroke-width: 0.8"/>
      </g>
     </g>
     <g id="text_11">
      <text style="font-size: 6px; font-family: 'Arial', 'Helvetica', 'DejaVu Sans', sans-serif; text-anchor: end" x="24.31" y="112.418278" transform="rotate(-0 24.31 112.418278)">100</text>
     </g>
    </g>
    <g id="ytick_3">
     <g id="line2d_11">
      <g>
       <use xlink:href="#me3bac99485" x="33.81" y="90.397337" style="stroke: #000000; stroke-width: 0.8"/>
      </g>
     </g>
     <g id="text_12">
      <text style="font-size: 6px; font-family: 'Arial', 'Helvetica', 'DejaVu Sans', sans-serif; text-anchor: end" x="24.31" y="92.676868" transform="rotate(-0 24.31 92.676868)">200</text>
     </g>
    </g>
    <g id="ytick_4">
     <g id="line2d_12">
      <g>
       <use xlink:href="#me3bac99485" x="33.81" y="70.655926" style="stroke: #000000; stroke-width: 0.8"/>
      </g>
     </g>
     <g id="text_13">
      <text style="font-size: 6px; font-family: 'Arial', 'Helvetica', 'DejaVu Sans', sans-serif; text-anchor: end" x="24.31" y="72.935458" transform="rotate(-0 24.31 72.935458)">300</text>
     </g>
    </g>
    <g id="ytick_5">
     <g id="line2d_13">
      <g>
       <use xlink:href="#me3bac99485" x="33.81" y="50.914516" style="stroke: #000000; stroke-width: 0.8"/>
      </g>
     </g>
     <g id="text_14">
      <text style="font-size: 6px; font-family: 'Arial', 'Helvetica', 'DejaVu Sans', sans-serif; text-anchor: end" x="24.31" y="53.194047" transform="rotate(-0 24.31 53.194047)">400</text>
     </g>
    </g>
    <g id="ytick_6">
     <g id="line2d_14">
      <g>
       <use xlink:href="#me3bac99485" x="33.81" y="31.173106" style="stroke: #000000; stroke-width: 0.8"/>
      </g>
     </g>
     <g id="text_15">
      <text style="font-size: 6px; font-family: 'Arial', 'Helvetica', 'DejaVu Sans', sans-serif; text-anchor: end" x="24.31" y="33.452637" transform="rotate(-0 24.31 33.452637)">500</text>
     </g>
    </g>
    <g id="ytick_7">
     <g id="line2d_15">
      <g>
       <use xlink:href="#me3bac99485" x="33.81" y="11.431695" style="stroke: #000000; stroke-width: 0.8"/>
      </g>
     </g>
     <g id="text_16">
      <text style="font-size: 6px; font-family: 'Arial', 'Helvetica', 'DejaVu Sans', sans-serif; text-anchor: end" x="24.31" y="13.711226" transform="rotate(-0 24.31 13.711226)">600</text>
     </g>
    </g>
    <g id="text_17">
     <text style="font-size: 6px; font-family: 'Arial', 'Helvetica', 'DejaVu Sans', sans-serif; text-anchor: middle" x="7.609688" y="66.140079" transform="rotate(-90 7.609688 66.140079)">HIP strain count</text>
    </g>
   </g>
   <g id="line2d_16">
    <path d="M 168.395529 129.880157 
L 168.395529 2.4 
" clip-path="url(#pd613d27e54)" style="fill: none; stroke-dasharray: 3.7,1.6; stroke-dashoffset: 0; stroke: #b85450"/>
   </g>
   <g id="patch_58">
    <path d="M 33.81 129.880157 
L 33.81 2.4 
" style="fill: none; stroke: #000000; stroke-width: 0.5; stroke-linejoin: miter; stroke-linecap: square"/>
   </g>
   <g id="patch_59">
    <path d="M 248.466142 129.880157 
L 248.466142 2.4 
" style="fill: none; stroke: #000000; stroke-width: 0.5; stroke-linejoin: miter; stroke-linecap: square"/>
   </g>
   <g id="patch_60">
    <path d="M 33.81 129.880157 
L 248.466142 129.880157 
" style="fill: none; stroke: #000000; stroke-width: 0.5; stroke-linejoin: miter; stroke-linecap: square"/>
   </g>
   <g id="patch_61">
    <path d="M 33.81 2.4 
L 248.466142 2.4 
" style="fill: none; stroke: #000000; stroke-width: 0.5; stroke-linejoin: miter; stroke-linecap: square"/>
   </g>
   <g id="legend_1">
    <g id="patch_62">
     <path d="M 158.630517 14.872969 
L 244.616142 14.872969 
Q 245.716142 14.872969 245.716142 13.772969 
L 245.716142 6.25 
Q 245.716142 5.15 244.616142 5.15 
L 158.630517 5.15 
Q 157.530517 5.15 157.530517 6.25 
L 157.530517 13.772969 
Q 157.530517 14.872969 158.630517 14.872969 
z
" style="fill: #ffffff; opacity: 0.9; stroke: #cccccc; stroke-width: 0.4; stroke-linejoin: miter"/>
    </g>
    <g id="line2d_17">
     <path d="M 159.730517 9.604141 
L 163.305517 9.604141 
L 166.880517 9.604141 
" style="fill: none; stroke-dasharray: 3.7,1.6; stroke-dashoffset: 0; stroke: #b85450"/>
    </g>
    <g id="text_18">
     <text style="font-size: 5.5px; font-family: 'Arial', 'Helvetica', 'DejaVu Sans', sans-serif; text-anchor: start" x="171.280517" y="11.529141" transform="rotate(-0 171.280517 11.529141)">cluster-3 cut (≥0.5, n=43)</text>
    </g>
   </g>
  </g>
 </g>
 <defs>
  <clipPath id="pd613d27e54">
   <rect x="33.81" y="2.4" width="214.656142" height="127.480157"/>
  </clipPath>
 </defs>
</g></svg>
