<?xml version="1.0" encoding="utf-8" standalone="no"?>
<!DOCTYPE svg PUBLIC "-//W3C//DTD SVG 1.1//EN"
  "http://www.w3.org/Graphics/SVG/1.1/DTD/svg11.dtd">
<svg xmlns:xlink="http://www.w3.org/1999/xlink" width="346.4567" height="259.8425" viewBox="0 0 346.4567 259.8425" xmlns="http://www.w3.org/2000/svg" version="1.1"><g transform="scale(1.3888888889)">
 <metadata>
  <rdf:RDF xmlns:dc="http://purl.org/dc/elements/1.1/" xmlns:cc="http://creativecommons.org/ns#" xmlns:rdf="http://www.w3.org/1999/02/22-rdf-syntax-ns#">
   <cc:Work>
    <dc:type rdf:resource="http://purl.org/dc/dcmitype/StillImage"/>
    <dc:date>2026-07-14T23:39:37.489756</dc:date>
    <dc:format>image/svg+xml</dc:format>
    <dc:creator>
     <cc:Agent>
      <dc:title>Matplotlib v3.10.7, https://matplotlib.org/</dc:title>
     </cc:Agent>
    </dc:creator>
   </cc:Work>
  </rdf:RDF>
 </metadata>
 <defs>
  <style type="text/css">*{stroke-linejoin: round; stroke-linecap: butt}</style>
 </defs>
 <g id="figure_1">
  <g id="patch_1">
   <path d="M 0 187.086614 
L 249.448819 187.086614 
L 249.448819 0 
L 0 0 
z
" style="fill: #ffffff"/>
  </g>
  <g id="axes_1">
   <g id="patch_2">
    <path d="M 124.724409 35.964661 
C 123.463459 35.964661 122.202767 36.000744 120.943881 36.072864 
C 119.684995 36.144984 118.428431 36.253113 117.175731 36.397118 
L 124.724409 102.063307 
z
" style="fill: #b85450; stroke: #ffffff; stroke-width: 0.8; stroke-linejoin: miter"/>
   </g>
   <g id="patch_3">
    <path d="M 117.175735 36.397116 
C 107.744701 37.481262 98.656963 40.584538 90.532604 45.495194 
C 82.408244 50.40585 75.436335 57.009601 70.092571 64.855871 
C 64.748806 72.702142 61.157557 81.608335 59.563858 90.966749 
C 57.97016 100.325163 58.411101 109.917991 60.856597 119.09074 
C 63.302093 128.263489 67.695231 136.802672 73.736259 144.125636 
C 79.777287 151.448599 87.325622 157.384923 95.866216 161.529563 
C 104.406809 165.674202 113.740888 167.930699 123.23161 168.145094 
C 132.722333 168.359494 142.148816 166.526792 150.867856 162.772049 
L 124.724409 102.063307 
z
" style="fill: #d79b00; stroke: #ffffff; stroke-width: 0.8; stroke-linejoin: miter"/>
   </g>
   <g id="patch_4">
    <path d="M 150.867856 162.772049 
C 164.83747 156.756212 176.31142 146.099114 183.340708 132.610988 
C 190.369995 119.122861 192.532733 103.613261 189.46156 88.716674 
C 186.390382 73.820086 178.269616 60.4306 166.478674 50.822577 
C 154.687733 41.214553 139.934297 35.964665 124.724419 35.964661 
L 124.724409 102.063307 
z
" style="fill: #6c8ebf; stroke: #ffffff; stroke-width: 0.8; stroke-linejoin: miter"/>
   </g>
   <g id="matplotlib.axis_1"/>
   <g id="matplotlib.axis_2"/>
   <g id="text_1">
    <text style="font-size: 5.5px; font-family: 'Arial', 'Helvetica', 'DejaVu Sans', sans-serif" transform="translate(89.049102 27.912078)">HIP flagged</text>
    <text style="font-size: 5.5px; font-family: 'Arial', 'Helvetica', 'DejaVu Sans', sans-serif" transform="translate(106.593242 34.070875)">1.8%</text>
   </g>
   <g id="text_2">
    <text style="font-size: 5.5px; font-family: 'Arial', 'Helvetica', 'DejaVu Sans', sans-serif" transform="translate(28.994512 119.231774)">HIP other</text>
    <text style="font-size: 5.5px; font-family: 'Arial', 'Helvetica', 'DejaVu Sans', sans-serif" transform="translate(36.997871 125.390571)">54.7%</text>
   </g>
   <g id="text_3">
    <text style="font-size: 5.5px; font-family: 'Arial', 'Helvetica', 'DejaVu Sans', sans-serif" transform="translate(195.935258 85.820201)">HOP (n.i.)</text>
    <text style="font-size: 5.5px; font-family: 'Arial', 'Helvetica', 'DejaVu Sans', sans-serif" transform="translate(195.935258 91.978998)">43.5%</text>
   </g>
   <g id="text_4">
    <text style="font-size: 6px; font-family: 'Arial', 'Helvetica', 'DejaVu Sans', sans-serif; text-anchor: middle" x="124.724409" y="7.44" transform="rotate(-0 124.724409 7.44)">Record composition (30.0M)</text>
   </g>
  </g>
 </g>
</g></svg>
