<?xml version="1.0" encoding="utf-8" standalone="no"?>
<!DOCTYPE svg PUBLIC "-//W3C//DTD SVG 1.1//EN"
  "http://www.w3.org/Graphics/SVG/1.1/DTD/svg11.dtd">
<svg xmlns:xlink="http://www.w3.org/1999/xlink" width="704.7244" height="140.5512" viewBox="0 0 704.7244 140.5512" xmlns="http://www.w3.org/2000/svg" version="1.1"><g transform="scale(1.3888888889)">
 <metadata>
  <rdf:RDF xmlns:dc="http://purl.org/dc/elements/1.1/" xmlns:cc="http://creativecommons.org/ns#" xmlns:rdf="http://www.w3.org/1999/02/22-rdf-syntax-ns#">
   <cc:Work>
    <dc:type rdf:resource="http://purl.org/dc/dcmitype/StillImage"/>
    <dc:date>2026-07-15T23:59:19.948605</dc:date>
    <dc:format>image/svg+xml</dc:format>
    <dc:creator>
     <cc:Agent>
      <dc:title>Matplotlib v3.10.7, https://matplotlib.org/</dc:title>
     </cc:Agent>
    </dc:creator>
   </cc:Work>
  </rdf:RDF>
 </metadata>
 <defs>
  <style type="text/css">*{stroke-linejoin: round; stroke-linecap: butt}</style>
 </defs>
 <g id="figure_1">
  <g id="patch_1">
   <path d="M 0 101.19685 
L 507.401575 101.19685 
L 507.401575 0 
L 0 0 
z
" style="fill: #ffffff"/>
  </g>
  <g id="axes_1">
   <g id="patch_2">
    <path d="M 27.152428 77.08286 
L 504.401335 77.08286 
L 504.401335 3.528421 
L 27.152428 3.528421 
z
" style="fill: #ffffff"/>
   </g>
   <g id="matplotlib.axis_1">
    <g id="xtick_1">
     <g id="line2d_1">
      <defs>
       <path id="m66f4ea7b8c" d="M 0 0 
L 0 2 
" style="stroke: #000000; stroke-width: 0.5"/>
      </defs>
      <g>
       <use xlink:href="#m66f4ea7b8c" x="27.152428" y="77.08286" style="stroke: #000000; stroke-width: 0.5"/>
      </g>
     </g>
     <g id="text_1">
      <text style="font-size: 6px; font-family: 'Arial', 'Helvetica', 'DejaVu Sans', sans-serif; text-anchor: middle" x="27.152428" y="87.141923" transform="rotate(-0 27.152428 87.141923)">0</text>
     </g>
    </g>
    <g id="xtick_2">
     <g id="line2d_2">
      <g>
       <use xlink:href="#m66f4ea7b8c" x="86.072046" y="77.08286" style="stroke: #000000; stroke-width: 0.5"/>
      </g>
     </g>
     <g id="text_2">
      <text style="font-size: 6px; font-family: 'Arial', 'Helvetica', 'DejaVu Sans', sans-serif; text-anchor: middle" x="86.072046" y="87.141923" transform="rotate(-0 86.072046 87.141923)">10</text>
     </g>
    </g>
    <g id="xtick_3">
     <g id="line2d_3">
      <g>
       <use xlink:href="#m66f4ea7b8c" x="144.991664" y="77.08286" style="stroke: #000000; stroke-width: 0.5"/>
      </g>
     </g>
     <g id="text_3">
      <text style="font-size: 6px; font-family: 'Arial', 'Helvetica', 'DejaVu Sans', sans-serif; text-anchor: middle" x="144.991664" y="87.141923" transform="rotate(-0 144.991664 87.141923)">20</text>
     </g>
    </g>
    <g id="xtick_4">
     <g id="line2d_4">
      <g>
       <use xlink:href="#m66f4ea7b8c" x="203.911282" y="77.08286" style="stroke: #000000; stroke-width: 0.5"/>
      </g>
     </g>
     <g id="text_4">
      <text style="font-size: 6px; font-family: 'Arial', 'Helvetica', 'DejaVu Sans', sans-serif; text-anchor: middle" x="203.911282" y="87.141923" transform="rotate(-0 203.911282 87.141923)">30</text>
     </g>
    </g>
    <g id="xtick_5">
     <g id="line2d_5">
      <g>
       <use xlink:href="#m66f4ea7b8c" x="262.8309" y="77.08286" style="stroke: #000000; stroke-width: 0.5"/>
      </g>
     </g>
     <g id="text_5">
      <text style="font-size: 6px; font-family: 'Arial', 'Helvetica', 'DejaVu Sans', sans-serif; text-anchor: middle" x="262.8309" y="87.141923" transform="rotate(-0 262.8309 87.141923)">40</text>
     </g>
    </g>
    <g id="xtick_6">
     <g id="line2d_6">
      <g>
       <use xlink:href="#m66f4ea7b8c" x="321.750518" y="77.08286" style="stroke: #000000; stroke-width: 0.5"/>
      </g>
     </g>
     <g id="text_6">
      <text style="font-size: 6px; font-family: 'Arial', 'Helvetica', 'DejaVu Sans', sans-serif; text-anchor: middle" x="321.750518" y="87.141923" transform="rotate(-0 321.750518 87.141923)">50</text>
     </g>
    </g>
    <g id="xtick_7">
     <g id="line2d_7">
      <g>
       <use xlink:href="#m66f4ea7b8c" x="380.670137" y="77.08286" style="stroke: #000000; stroke-width: 0.5"/>
      </g>
     </g>
     <g id="text_7">
      <text style="font-size: 6px; font-family: 'Arial', 'Helvetica', 'DejaVu Sans', sans-serif; text-anchor: middle" x="380.670137" y="87.141923" transform="rotate(-0 380.670137 87.141923)">60</text>
     </g>
    </g>
    <g id="xtick_8">
     <g id="line2d_8">
      <g>
       <use xlink:href="#m66f4ea7b8c" x="439.589755" y="77.08286" style="stroke: #000000; stroke-width: 0.5"/>
      </g>
     </g>
     <g id="text_8">
      <text style="font-size: 6px; font-family: 'Arial', 'Helvetica', 'DejaVu Sans', sans-serif; text-anchor: middle" x="439.589755" y="87.141923" transform="rotate(-0 439.589755 87.141923)">70</text>
     </g>
    </g>
    <g id="xtick_9">
     <g id="line2d_9">
      <g>
       <use xlink:href="#m66f4ea7b8c" x="498.509373" y="77.08286" style="stroke: #000000; stroke-width: 0.5"/>
      </g>
     </g>
     <g id="text_9">
      <text style="font-size: 6px; font-family: 'Arial', 'Helvetica', 'DejaVu Sans', sans-serif; text-anchor: middle" x="498.509373" y="87.141923" transform="rotate(-0 498.509373 87.141923)">80</text>
     </g>
    </g>
    <g id="text_10">
     <text style="font-size: 6px; font-family: 'Arial', 'Helvetica', 'DejaVu Sans', sans-serif; text-anchor: middle" x="265.776881" y="96.948798" transform="rotate(-0 265.776881 96.948798)">Sameith GSTF deletion strains, ranked by transcriptome spread (n = 82)</text>
    </g>
   </g>
   <g id="matplotlib.axis_2">
    <g id="ytick_1">
     <g id="line2d_10">
      <path d="M 27.152428 75.331564 
L 504.401335 75.331564 
" clip-path="url(#p52eab537ac)" style="fill: none; stroke: #4a4a4a; stroke-opacity: 0.15; stroke-width: 0.4; stroke-linecap: square"/>
     </g>
     <g id="line2d_11">
      <defs>
       <path id="mcec4143acf" d="M 0 0 
L -2 0 
" style="stroke: #000000; stroke-width: 0.5"/>
      </defs>
      <g>
       <use xlink:href="#mcec4143acf" x="27.152428" y="75.331564" style="stroke: #000000; stroke-width: 0.5"/>
      </g>
     </g>
     <g id="text_11">
      <text style="font-size: 6px; font-family: 'Arial', 'Helvetica', 'DejaVu Sans', sans-serif; text-anchor: end" x="21.652428" y="77.611095" transform="rotate(-0 21.652428 77.611095)">−2</text>
     </g>
    </g>
    <g id="ytick_2">
     <g id="line2d_12">
      <path d="M 27.152428 57.818602 
L 504.401335 57.818602 
" clip-path="url(#p52eab537ac)" style="fill: none; stroke: #4a4a4a; stroke-opacity: 0.15; stroke-width: 0.4; stroke-linecap: square"/>
     </g>
     <g id="line2d_13">
      <g>
       <use xlink:href="#mcec4143acf" x="27.152428" y="57.818602" style="stroke: #000000; stroke-width: 0.5"/>
      </g>
     </g>
     <g id="text_12">
      <text style="font-size: 6px; font-family: 'Arial', 'Helvetica', 'DejaVu Sans', sans-serif; text-anchor: end" x="21.652428" y="60.098134" transform="rotate(-0 21.652428 60.098134)">−1</text>
     </g>
    </g>
    <g id="ytick_3">
     <g id="line2d_14">
      <path d="M 27.152428 40.305641 
L 504.401335 40.305641 
" clip-path="url(#p52eab537ac)" style="fill: none; stroke: #4a4a4a; stroke-opacity: 0.15; stroke-width: 0.4; stroke-linecap: square"/>
     </g>
     <g id="line2d_15">
      <g>
       <use xlink:href="#mcec4143acf" x="27.152428" y="40.305641" style="stroke: #000000; stroke-width: 0.5"/>
      </g>
     </g>
     <g id="text_13">
      <text style="font-size: 6px; font-family: 'Arial', 'Helvetica', 'DejaVu Sans', sans-serif; text-anchor: end" x="21.652428" y="42.585172" transform="rotate(-0 21.652428 42.585172)">0</text>
     </g>
    </g>
    <g id="ytick_4">
     <g id="line2d_16">
      <path d="M 27.152428 22.792679 
L 504.401335 22.792679 
" clip-path="url(#p52eab537ac)" style="fill: none; stroke: #4a4a4a; stroke-opacity: 0.15; stroke-width: 0.4; stroke-linecap: square"/>
     </g>
     <g id="line2d_17">
      <g>
       <use xlink:href="#mcec4143acf" x="27.152428" y="22.792679" style="stroke: #000000; stroke-width: 0.5"/>
      </g>
     </g>
     <g id="text_14">
      <text style="font-size: 6px; font-family: 'Arial', 'Helvetica', 'DejaVu Sans', sans-serif; text-anchor: end" x="21.652428" y="25.07221" transform="rotate(-0 21.652428 25.07221)">1</text>
     </g>
    </g>
    <g id="ytick_5">
     <g id="line2d_18">
      <path d="M 27.152428 5.279717 
L 504.401335 5.279717 
" clip-path="url(#p52eab537ac)" style="fill: none; stroke: #4a4a4a; stroke-opacity: 0.15; stroke-width: 0.4; stroke-linecap: square"/>
     </g>
     <g id="line2d_19">
      <g>
       <use xlink:href="#mcec4143acf" x="27.152428" y="5.279717" style="stroke: #000000; stroke-width: 0.5"/>
      </g>
     </g>
     <g id="text_15">
      <text style="font-size: 6px; font-family: 'Arial', 'Helvetica', 'DejaVu Sans', sans-serif; text-anchor: end" x="21.652428" y="7.559248" transform="rotate(-0 21.652428 7.559248)">2</text>
     </g>
    </g>
    <g id="text_16">
     <text style="font-size: 6px; font-family: 'Arial', 'Helvetica', 'DejaVu Sans', sans-serif; text-anchor: middle" x="7.559303" y="40.305641" transform="rotate(-90 7.559303 40.305641)">log2 fold-change</text>
    </g>
   </g>
   <g id="line2d_20">
    <path d="M 27.152428 40.305641 
L 504.401335 40.305641 
" clip-path="url(#p52eab537ac)" style="fill: none; stroke-dasharray: 0.5,0.825; stroke-dashoffset: 0; stroke: #4a4a4a; stroke-width: 0.5"/>
   </g>
   <g id="FillBetweenPolyCollection_1">
    <path d="M 27.152428 37.549413 
L 27.152428 43.209089 
L 33.044389 43.217728 
L 38.936351 43.177186 
L 44.828313 42.772496 
L 50.720275 43.288365 
L 56.612237 43.039401 
L 62.504198 42.973487 
L 68.39616 43.064794 
L 74.288122 43.073533 
L 80.180084 43.152419 
L 86.072046 43.083577 
L 91.964008 43.675186 
L 97.855969 43.219631 
L 103.747931 43.292965 
L 109.639893 43.415915 
L 115.531855 43.606708 
L 121.423817 43.6652 
L 127.315778 43.428181 
L 133.20774 43.607359 
L 139.099702 43.160019 
L 144.991664 43.37666 
L 150.883626 43.237079 
L 156.775588 43.636955 
L 162.667549 43.202395 
L 168.559511 43.710627 
L 174.451473 43.620059 
L 180.343435 43.293739 
L 186.235397 43.659559 
L 192.127358 43.335801 
L 198.01932 43.256323 
L 203.911282 43.489795 
L 209.803244 43.411558 
L 215.695206 43.673172 
L 221.587168 43.485657 
L 227.479129 43.657563 
L 233.371091 43.274866 
L 239.263053 43.748786 
L 245.155015 43.963374 
L 251.046977 43.980748 
L 256.938938 43.973262 
L 262.8309 43.972561 
L 268.722862 44.011985 
L 274.614824 43.509262 
L 280.506786 44.06922 
L 286.398748 43.851673 
L 292.290709 43.404137 
L 298.182671 43.861256 
L 304.074633 44.193383 
L 309.966595 43.951561 
L 315.858557 44.160044 
L 321.750518 44.946602 
L 327.64248 44.265853 
L 333.534442 43.931004 
L 339.426404 44.310231 
L 345.318366 43.851699 
L 351.210328 44.224597 
L 357.102289 44.213207 
L 362.994251 44.903409 
L 368.886213 44.567444 
L 374.778175 44.046054 
L 380.670137 44.668416 
L 386.562098 44.532615 
L 392.45406 44.079221 
L 398.346022 44.61724 
L 404.237984 44.4061 
L 410.129946 44.562795 
L 416.021908 44.12352 
L 421.913869 44.362416 
L 427.805831 44.236019 
L 433.697793 45.29988 
L 439.589755 45.894546 
L 445.481717 44.48965 
L 451.373678 44.066124 
L 457.26564 45.51576 
L 463.157602 44.58034 
L 469.049564 45.239396 
L 474.941526 45.142411 
L 480.833488 45.212325 
L 486.725449 45.025958 
L 492.617411 45.941986 
L 498.509373 45.595853 
L 504.401335 48.875335 
L 504.401335 24.112399 
L 504.401335 24.112399 
L 498.509373 30.871671 
L 492.617411 32.057215 
L 486.725449 32.180964 
L 480.833488 32.613725 
L 474.941526 33.271693 
L 469.049564 34.252716 
L 463.157602 34.993498 
L 457.26564 34.781342 
L 451.373678 33.538181 
L 445.481717 32.907764 
L 439.589755 35.293789 
L 433.697793 35.117502 
L 427.805831 34.008227 
L 421.913869 35.943048 
L 416.021908 34.285761 
L 410.129946 35.574484 
L 404.237984 35.072009 
L 398.346022 36.336192 
L 392.45406 34.257508 
L 386.562098 35.483569 
L 380.670137 36.071844 
L 374.778175 35.67708 
L 368.886213 35.876978 
L 362.994251 35.27845 
L 357.102289 35.583237 
L 351.210328 35.881671 
L 345.318366 34.874748 
L 339.426404 36.022042 
L 333.534442 35.15219 
L 327.64248 36.156088 
L 321.750518 35.940544 
L 315.858557 35.933181 
L 309.966595 36.191854 
L 304.074633 36.435479 
L 298.182671 36.246133 
L 292.290709 34.983966 
L 286.398748 36.239899 
L 280.506786 36.109968 
L 274.614824 36.659102 
L 268.722862 36.491838 
L 262.8309 36.606628 
L 256.938938 36.541581 
L 251.046977 36.509363 
L 245.155015 36.692188 
L 239.263053 36.410861 
L 233.371091 36.833629 
L 227.479129 36.630468 
L 221.587168 36.433942 
L 215.695206 36.788062 
L 209.803244 37.085872 
L 203.911282 37.094568 
L 198.01932 37.071722 
L 192.127358 36.464409 
L 186.235397 36.861591 
L 180.343435 37.235547 
L 174.451473 36.960668 
L 168.559511 37.024062 
L 162.667549 36.95074 
L 156.775588 36.807481 
L 150.883626 36.915095 
L 144.991664 37.143614 
L 139.099702 37.004117 
L 133.20774 37.079841 
L 127.315778 36.707856 
L 121.423817 36.704918 
L 115.531855 36.560534 
L 109.639893 37.006031 
L 103.747931 37.173853 
L 97.855969 36.950716 
L 91.964008 37.313738 
L 86.072046 37.126147 
L 80.180084 36.868506 
L 74.288122 36.642115 
L 68.39616 37.207988 
L 62.504198 37.634772 
L 56.612237 37.361371 
L 50.720275 37.552724 
L 44.828313 37.53757 
L 38.936351 37.588851 
L 33.044389 37.599824 
L 27.152428 37.549413 
z
" clip-path="url(#p52eab537ac)" style="fill: #f8cecc"/>
   </g>
   <g id="patch_3">
    <path d="M 27.152428 77.08286 
L 27.152428 3.528421 
" style="fill: none; stroke: #000000; stroke-width: 0.5; stroke-linejoin: miter; stroke-linecap: square"/>
   </g>
   <g id="patch_4">
    <path d="M 504.401335 77.08286 
L 504.401335 3.528421 
" style="fill: none; stroke: #000000; stroke-width: 0.5; stroke-linejoin: miter; stroke-linecap: square"/>
   </g>
   <g id="patch_5">
    <path d="M 27.152428 77.08286 
L 504.401335 77.08286 
" style="fill: none; stroke: #000000; stroke-width: 0.5; stroke-linejoin: miter; stroke-linecap: square"/>
   </g>
   <g id="patch_6">
    <path d="M 27.152428 3.528421 
L 504.401335 3.528421 
" style="fill: none; stroke: #000000; stroke-width: 0.5; stroke-linejoin: miter; stroke-linecap: square"/>
   </g>
   <g id="FillBetweenPolyCollection_2">
    <path d="M 27.152428 39.437077 
L 27.152428 41.241443 
L 33.044389 41.288736 
L 38.936351 41.242807 
L 44.828313 41.267436 
L 50.720275 41.224201 
L 56.612237 41.147187 
L 62.504198 41.252911 
L 68.39616 41.222275 
L 74.288122 41.22909 
L 80.180084 41.241299 
L 86.072046 41.299757 
L 91.964008 41.224949 
L 97.855969 41.220266 
L 103.747931 41.350192 
L 109.639893 41.282705 
L 115.531855 41.337318 
L 121.423817 41.284237 
L 127.315778 41.346691 
L 133.20774 41.390881 
L 139.099702 41.379404 
L 144.991664 41.384272 
L 150.883626 41.266966 
L 156.775588 41.393131 
L 162.667549 41.359513 
L 168.559511 41.401352 
L 174.451473 41.391935 
L 180.343435 41.358862 
L 186.235397 41.404172 
L 192.127358 41.301927 
L 198.01932 41.351998 
L 203.911282 41.417752 
L 209.803244 41.387726 
L 215.695206 41.378955 
L 221.587168 41.402136 
L 227.479129 41.41305 
L 233.371091 41.335883 
L 239.263053 41.426898 
L 245.155015 41.468237 
L 251.046977 41.491106 
L 256.938938 41.409536 
L 262.8309 41.50976 
L 268.722862 41.5012 
L 274.614824 41.498364 
L 280.506786 41.284589 
L 286.398748 41.567625 
L 292.290709 41.270094 
L 298.182671 41.622328 
L 304.074633 41.55791 
L 309.966595 41.597173 
L 315.858557 41.60965 
L 321.750518 41.673016 
L 327.64248 41.727669 
L 333.534442 41.422183 
L 339.426404 41.822046 
L 345.318366 41.656585 
L 351.210328 41.668573 
L 357.102289 41.590093 
L 362.994251 41.61364 
L 368.886213 41.856406 
L 374.778175 41.518253 
L 380.670137 41.726317 
L 386.562098 41.725755 
L 392.45406 41.54859 
L 398.346022 41.982858 
L 404.237984 41.751528 
L 410.129946 41.723765 
L 416.021908 41.729625 
L 421.913869 41.769601 
L 427.805831 41.62019 
L 433.697793 41.99454 
L 439.589755 41.846024 
L 445.481717 41.742113 
L 451.373678 41.76985 
L 457.26564 41.870286 
L 463.157602 41.827745 
L 469.049564 41.906325 
L 474.941526 41.949656 
L 480.833488 41.85057 
L 486.725449 41.824639 
L 492.617411 42.118189 
L 498.509373 42.109873 
L 504.401335 42.938493 
L 504.401335 36.506272 
L 504.401335 36.506272 
L 498.509373 37.923151 
L 492.617411 38.026755 
L 486.725449 38.103425 
L 480.833488 38.154718 
L 474.941526 38.332053 
L 469.049564 38.449411 
L 463.157602 38.401192 
L 457.26564 38.4761 
L 451.373678 38.41714 
L 445.481717 38.398136 
L 439.589755 38.559809 
L 433.697793 38.708898 
L 427.805831 38.509808 
L 421.913869 38.738829 
L 416.021908 38.705119 
L 410.129946 38.704252 
L 404.237984 38.736463 
L 398.346022 39.030997 
L 392.45406 38.626293 
L 386.562098 38.81347 
L 380.670137 38.832494 
L 374.778175 38.62749 
L 368.886213 38.977839 
L 362.994251 38.778545 
L 357.102289 38.758927 
L 351.210328 38.842454 
L 345.318366 38.866677 
L 339.426404 39.057486 
L 333.534442 38.683717 
L 327.64248 38.995688 
L 321.750518 38.949497 
L 315.858557 38.908312 
L 309.966595 38.979157 
L 304.074633 38.978104 
L 298.182671 39.045531 
L 292.290709 38.709323 
L 286.398748 39.02295 
L 280.506786 38.755759 
L 274.614824 38.974975 
L 268.722862 38.994678 
L 262.8309 39.042993 
L 256.938938 38.99682 
L 251.046977 39.090815 
L 245.155015 39.092643 
L 239.263053 39.060067 
L 233.371091 39.055221 
L 227.479129 39.134247 
L 221.587168 39.152124 
L 215.695206 39.13408 
L 209.803244 39.14833 
L 203.911282 39.184052 
L 198.01932 39.120168 
L 192.127358 39.07711 
L 186.235397 39.19585 
L 180.343435 39.152478 
L 174.451473 39.196965 
L 168.559511 39.20729 
L 162.667549 39.171344 
L 156.775588 39.212779 
L 150.883626 39.098624 
L 144.991664 39.221192 
L 139.099702 39.221873 
L 133.20774 39.240675 
L 127.315778 39.223307 
L 121.423817 39.162856 
L 115.531855 39.226596 
L 109.639893 39.222922 
L 103.747931 39.30404 
L 97.855969 39.198074 
L 91.964008 39.24421 
L 86.072046 39.328584 
L 80.180084 39.285397 
L 74.288122 39.29427 
L 68.39616 39.292856 
L 62.504198 39.344998 
L 56.612237 39.25958 
L 50.720275 39.355155 
L 44.828313 39.400061 
L 38.936351 39.378474 
L 33.044389 39.431714 
L 27.152428 39.437077 
z
" clip-path="url(#p52eab537ac)" style="fill: #b85450"/>
   </g>
   <g id="line2d_21">
    <path d="M 27.152428 40.336459 
L 33.044389 40.358864 
L 38.936351 40.299916 
L 44.828313 40.375392 
L 50.720275 40.316626 
L 56.612237 40.232951 
L 62.504198 40.321449 
L 68.39616 40.269544 
L 74.288122 40.307869 
L 80.180084 40.299603 
L 86.072046 40.322401 
L 91.964008 40.256186 
L 97.855969 40.243485 
L 103.747931 40.358367 
L 109.639893 40.248639 
L 115.531855 40.299162 
L 121.423817 40.254468 
L 127.315778 40.293795 
L 133.20774 40.291958 
L 139.099702 40.344208 
L 144.991664 40.294437 
L 150.883626 40.218009 
L 156.775588 40.288349 
L 162.667549 40.319367 
L 168.559511 40.277497 
L 174.451473 40.324831 
L 180.343435 40.255888 
L 186.235397 40.293442 
L 192.127358 40.231454 
L 198.01932 40.267023 
L 203.911282 40.282071 
L 209.803244 40.274105 
L 215.695206 40.27215 
L 221.587168 40.281675 
L 227.479129 40.288686 
L 233.371091 40.215427 
L 239.263053 40.233785 
L 245.155015 40.296814 
L 251.046977 40.291974 
L 256.938938 40.244223 
L 262.8309 40.230572 
L 268.722862 40.268388 
L 274.614824 40.278589 
L 280.506786 40.05474 
L 286.398748 40.294237 
L 292.290709 40.146224 
L 298.182671 40.394861 
L 304.074633 40.29687 
L 309.966595 40.328047 
L 315.858557 40.321327 
L 321.750518 40.279643 
L 327.64248 40.380839 
L 333.534442 40.118679 
L 339.426404 40.41851 
L 345.318366 40.385193 
L 351.210328 40.294021 
L 357.102289 40.281358 
L 362.994251 40.242327 
L 368.886213 40.440008 
L 374.778175 40.116955 
L 380.670137 40.286553 
L 386.562098 40.268786 
L 392.45406 40.229905 
L 398.346022 40.45557 
L 404.237984 40.33399 
L 410.129946 40.265126 
L 416.021908 40.314373 
L 421.913869 40.31206 
L 427.805831 40.232332 
L 433.697793 40.299005 
L 439.589755 40.257647 
L 445.481717 40.300947 
L 451.373678 40.274348 
L 457.26564 40.237891 
L 463.157602 40.263757 
L 469.049564 40.26106 
L 474.941526 40.285501 
L 480.833488 40.157846 
L 486.725449 40.150405 
L 492.617411 40.292469 
L 498.509373 40.249745 
L 504.401335 40.191973 
" clip-path="url(#p52eab537ac)" style="fill: none; stroke: #000000; stroke-width: 0.5; stroke-linecap: square"/>
   </g>
  </g>
 </g>
 <defs>
  <clipPath id="p52eab537ac">
   <rect x="27.152428" y="3.528421" width="477.248907" height="73.55444"/>
  </clipPath>
 </defs>
</g></svg>
