<?xml version="1.0" encoding="utf-8" standalone="no"?>
<!DOCTYPE svg PUBLIC "-//W3C//DTD SVG 1.1//EN"
  "http://www.w3.org/Graphics/SVG/1.1/DTD/svg11.dtd">
<svg xmlns:xlink="http://www.w3.org/1999/xlink" width="459.0000" height="240.0000" viewBox="0 0 459.0000 240.0000" xmlns="http://www.w3.org/2000/svg" version="1.1"><g transform="scale(1.3888888889)">
 <metadata>
  <rdf:RDF xmlns:dc="http://purl.org/dc/elements/1.1/" xmlns:cc="http://creativecommons.org/ns#" xmlns:rdf="http://www.w3.org/1999/02/22-rdf-syntax-ns#">
   <cc:Work>
    <dc:type rdf:resource="http://purl.org/dc/dcmitype/StillImage"/>
    <dc:date>2026-07-13T22:54:26.704031</dc:date>
    <dc:format>image/svg+xml</dc:format>
    <dc:creator>
     <cc:Agent>
      <dc:title>Matplotlib v3.8.2, https://matplotlib.org/</dc:title>
     </cc:Agent>
    </dc:creator>
   </cc:Work>
  </rdf:RDF>
 </metadata>
 <defs>
  <style type="text/css">*{stroke-linejoin: round; stroke-linecap: butt}</style>
 </defs>
 <g id="figure_1">
  <g id="patch_1">
   <path d="M 0 172.8 
L 330.48 172.8 
L 330.48 0 
L 0 0 
z
" style="fill: #ffffff"/>
  </g>
  <g id="axes_1">
   <g id="patch_2">
    <path d="M 33.048 143.424 
L 198.288 143.424 
L 198.288 10.368 
L 33.048 10.368 
z
" style="fill: #ffffff"/>
   </g>
   <g id="matplotlib.axis_1">
    <g id="xtick_1">
     <g id="line2d_1">
      <path d="M 40.558909 143.424 
L 40.558909 10.368 
" clip-path="url(#p917fe18aa0)" style="fill: none; stroke-dasharray: 2.96,1.28; stroke-dashoffset: 0; stroke: #b0b0b0; stroke-opacity: 0.5; stroke-width: 0.8"/>
     </g>
     <g id="line2d_2">
      <defs>
       <path id="mbc834d47b9" d="M 0 0 
L 0 2 
" style="stroke: #000000; stroke-width: 0.5"/>
      </defs>
      <g>
       <use xlink:href="#mbc834d47b9" x="40.558909" y="143.424" style="stroke: #000000; stroke-width: 0.5"/>
      </g>
     </g>
     <g id="text_1">
      <!-- $10^3$ -->
      <g transform="translate(35.278909 153.3115)">
       <text>
        <tspan style="font: 6px 'DejaVu Sans'" x="0 3.817383" y="-0.5859375">10</tspan>
        <tspan style="font: 4.2px 'DejaVu Sans'" x="7.692188" y="-2.8828125">3</tspan>
       </text>
      </g>
     </g>
    </g>
    <g id="xtick_2">
     <g id="line2d_3">
      <path d="M 115.668 143.424 
L 115.668 10.368 
" clip-path="url(#p917fe18aa0)" style="fill: none; stroke-dasharray: 2.96,1.28; stroke-dashoffset: 0; stroke: #b0b0b0; stroke-opacity: 0.5; stroke-width: 0.8"/>
     </g>
     <g id="line2d_4">
      <g>
       <use xlink:href="#mbc834d47b9" x="115.668" y="143.424" style="stroke: #000000; stroke-width: 0.5"/>
      </g>
     </g>
     <g id="text_2">
      <!-- $10^4$ -->
      <g transform="translate(110.388 153.2515)">
       <text>
        <tspan style="font: 6px 'DejaVu Sans'" x="0 3.817383" y="-0.640625">10</tspan>
        <tspan style="font: 4.2px 'DejaVu Sans'" x="7.692188" y="-2.9375">4</tspan>
       </text>
      </g>
     </g>
    </g>
    <g id="xtick_3">
     <g id="line2d_5">
      <path d="M 190.777091 143.424 
L 190.777091 10.368 
" clip-path="url(#p917fe18aa0)" style="fill: none; stroke-dasharray: 2.96,1.28; stroke-dashoffset: 0; stroke: #b0b0b0; stroke-opacity: 0.5; stroke-width: 0.8"/>
     </g>
     <g id="line2d_6">
      <g>
       <use xlink:href="#mbc834d47b9" x="190.777091" y="143.424" style="stroke: #000000; stroke-width: 0.5"/>
      </g>
     </g>
     <g id="text_3">
      <!-- $10^5$ -->
      <g transform="translate(185.497091 153.2515)">
       <text>
        <tspan style="font: 6px 'DejaVu Sans'" x="0 3.817383" y="-0.640625">10</tspan>
        <tspan style="font: 4.2px 'DejaVu Sans'" x="7.692188" y="-2.9375">5</tspan>
       </text>
      </g>
     </g>
    </g>
    <g id="text_4">
     <text style="font: 6px 'Arial', 'Helvetica', 'DejaVu Sans', sans-serif; text-anchor: middle" x="115.668" y="162.798687" transform="rotate(-0 115.668 162.798687)">Dataset Size</text>
    </g>
   </g>
   <g id="matplotlib.axis_2">
    <g id="ytick_1">
     <g id="line2d_7">
      <path d="M 33.048 116.223897 
L 198.288 116.223897 
" clip-path="url(#p917fe18aa0)" style="fill: none; stroke-dasharray: 2.96,1.28; stroke-dashoffset: 0; stroke: #b0b0b0; stroke-opacity: 0.5; stroke-width: 0.8"/>
     </g>
     <g id="line2d_8">
      <defs>
       <path id="m645ae1ee0a" d="M 0 0 
L -2 0 
" style="stroke: #000000; stroke-width: 0.5"/>
      </defs>
      <g>
       <use xlink:href="#m645ae1ee0a" x="33.048" y="116.223897" style="stroke: #000000; stroke-width: 0.5"/>
      </g>
     </g>
     <g id="text_5">
      <text style="font: 6px 'Arial', 'Helvetica', 'DejaVu Sans', sans-serif; text-anchor: end" x="27.548" y="118.371241" transform="rotate(-0 27.548 118.371241)">0.1</text>
     </g>
    </g>
    <g id="ytick_2">
     <g id="line2d_9">
      <path d="M 33.048 87.944717 
L 198.288 87.944717 
" clip-path="url(#p917fe18aa0)" style="fill: none; stroke-dasharray: 2.96,1.28; stroke-dashoffset: 0; stroke: #b0b0b0; stroke-opacity: 0.5; stroke-width: 0.8"/>
     </g>
     <g id="line2d_10">
      <g>
       <use xlink:href="#m645ae1ee0a" x="33.048" y="87.944717" style="stroke: #000000; stroke-width: 0.5"/>
      </g>
     </g>
     <g id="text_6">
      <text style="font: 6px 'Arial', 'Helvetica', 'DejaVu Sans', sans-serif; text-anchor: end" x="27.548" y="90.092061" transform="rotate(-0 27.548 90.092061)">0.2</text>
     </g>
    </g>
    <g id="ytick_3">
     <g id="line2d_11">
      <path d="M 33.048 59.665537 
L 198.288 59.665537 
" clip-path="url(#p917fe18aa0)" style="fill: none; stroke-dasharray: 2.96,1.28; stroke-dashoffset: 0; stroke: #b0b0b0; stroke-opacity: 0.5; stroke-width: 0.8"/>
     </g>
     <g id="line2d_12">
      <g>
       <use xlink:href="#m645ae1ee0a" x="33.048" y="59.665537" style="stroke: #000000; stroke-width: 0.5"/>
      </g>
     </g>
     <g id="text_7">
      <text style="font: 6px 'Arial', 'Helvetica', 'DejaVu Sans', sans-serif; text-anchor: end" x="27.548" y="61.81288" transform="rotate(-0 27.548 61.81288)">0.3</text>
     </g>
    </g>
    <g id="ytick_4">
     <g id="line2d_13">
      <path d="M 33.048 31.386356 
L 198.288 31.386356 
" clip-path="url(#p917fe18aa0)" style="fill: none; stroke-dasharray: 2.96,1.28; stroke-dashoffset: 0; stroke: #b0b0b0; stroke-opacity: 0.5; stroke-width: 0.8"/>
     </g>
     <g id="line2d_14">
      <g>
       <use xlink:href="#m645ae1ee0a" x="33.048" y="31.386356" style="stroke: #000000; stroke-width: 0.5"/>
      </g>
     </g>
     <g id="text_8">
      <text style="font: 6px 'Arial', 'Helvetica', 'DejaVu Sans', sans-serif; text-anchor: end" x="27.548" y="33.5337" transform="rotate(-0 27.548 33.5337)">0.4</text>
     </g>
    </g>
    <g id="text_9">
     <text style="font: 6px 'Arial', 'Helvetica', 'DejaVu Sans', sans-serif; text-anchor: middle" x="14.0155" y="76.896" transform="rotate(-90 14.0155 76.896)">Test Pearson</text>
    </g>
   </g>
   <g id="line2d_15">
    <path d="M 40.558909 137.376 
L 115.668 99.366058 
L 190.777091 103.771906 
" clip-path="url(#p917fe18aa0)" style="fill: none; stroke: #d79b00; stroke-width: 0.9; stroke-linecap: square"/>
    <defs>
     <path id="m4e9c5380f3" d="M 0 1 
C 0.265203 1 0.51958 0.894634 0.707107 0.707107 
C 0.894634 0.51958 1 0.265203 1 0 
C 1 -0.265203 0.894634 -0.51958 0.707107 -0.707107 
C 0.51958 -0.894634 0.265203 -1 0 -1 
C -0.265203 -1 -0.51958 -0.894634 -0.707107 -0.707107 
C -0.894634 -0.51958 -1 -0.265203 -1 0 
C -1 0.265203 -0.894634 0.51958 -0.707107 0.707107 
C -0.51958 0.894634 -0.265203 1 0 1 
z
" style="stroke: #d79b00"/>
    </defs>
    <g clip-path="url(#p917fe18aa0)">
     <use xlink:href="#m4e9c5380f3" x="40.558909" y="137.376" style="fill: #d79b00; stroke: #d79b00"/>
     <use xlink:href="#m4e9c5380f3" x="115.668" y="99.366058" style="fill: #d79b00; stroke: #d79b00"/>
     <use xlink:href="#m4e9c5380f3" x="190.777091" y="103.771906" style="fill: #d79b00; stroke: #d79b00"/>
    </g>
   </g>
   <g id="line2d_16">
    <path d="M 40.558909 48.36458 
L 115.668 44.607938 
L 190.777091 48.692326 
" clip-path="url(#p917fe18aa0)" style="fill: none; stroke: #b85450; stroke-width: 0.9; stroke-linecap: square"/>
    <defs>
     <path id="m3da4839a28" d="M 0 1 
C 0.265203 1 0.51958 0.894634 0.707107 0.707107 
C 0.894634 0.51958 1 0.265203 1 0 
C 1 -0.265203 0.894634 -0.51958 0.707107 -0.707107 
C 0.51958 -0.894634 0.265203 -1 0 -1 
C -0.265203 -1 -0.51958 -0.894634 -0.707107 -0.707107 
C -0.894634 -0.51958 -1 -0.265203 -1 0 
C -1 0.265203 -0.894634 0.51958 -0.707107 0.707107 
C -0.51958 0.894634 -0.265203 1 0 1 
z
" style="stroke: #b85450"/>
    </defs>
    <g clip-path="url(#p917fe18aa0)">
     <use xlink:href="#m3da4839a28" x="40.558909" y="48.36458" style="fill: #b85450; stroke: #b85450"/>
     <use xlink:href="#m3da4839a28" x="115.668" y="44.607938" style="fill: #b85450; stroke: #b85450"/>
     <use xlink:href="#m3da4839a28" x="190.777091" y="48.692326" style="fill: #b85450; stroke: #b85450"/>
    </g>
   </g>
   <g id="line2d_17">
    <path d="M 40.558909 16.416 
L 115.668 30.251942 
L 190.777091 37.538656 
" clip-path="url(#p917fe18aa0)" style="fill: none; stroke: #9673a6; stroke-width: 0.9; stroke-linecap: square"/>
    <defs>
     <path id="md2b7ba4072" d="M 0 1 
C 0.265203 1 0.51958 0.894634 0.707107 0.707107 
C 0.894634 0.51958 1 0.265203 1 0 
C 1 -0.265203 0.894634 -0.51958 0.707107 -0.707107 
C 0.51958 -0.894634 0.265203 -1 0 -1 
C -0.265203 -1 -0.51958 -0.894634 -0.707107 -0.707107 
C -0.894634 -0.51958 -1 -0.265203 -1 0 
C -1 0.265203 -0.894634 0.51958 -0.707107 0.707107 
C -0.51958 0.894634 -0.265203 1 0 1 
z
" style="stroke: #9673a6"/>
    </defs>
    <g clip-path="url(#p917fe18aa0)">
     <use xlink:href="#md2b7ba4072" x="40.558909" y="16.416" style="fill: #9673a6; stroke: #9673a6"/>
     <use xlink:href="#md2b7ba4072" x="115.668" y="30.251942" style="fill: #9673a6; stroke: #9673a6"/>
     <use xlink:href="#md2b7ba4072" x="190.777091" y="37.538656" style="fill: #9673a6; stroke: #9673a6"/>
    </g>
   </g>
   <g id="line2d_18">
    <path d="M 40.558909 66.899298 
L 115.668 22.625186 
L 190.777091 35.869064 
" clip-path="url(#p917fe18aa0)" style="fill: none; stroke: #d6b656; stroke-width: 0.9; stroke-linecap: square"/>
    <defs>
     <path id="m1f0dd5d416" d="M 0 1 
C 0.265203 1 0.51958 0.894634 0.707107 0.707107 
C 0.894634 0.51958 1 0.265203 1 0 
C 1 -0.265203 0.894634 -0.51958 0.707107 -0.707107 
C 0.51958 -0.894634 0.265203 -1 0 -1 
C -0.265203 -1 -0.51958 -0.894634 -0.707107 -0.707107 
C -0.894634 -0.51958 -1 -0.265203 -1 0 
C -1 0.265203 -0.894634 0.51958 -0.707107 0.707107 
C -0.51958 0.894634 -0.265203 1 0 1 
z
" style="stroke: #d6b656"/>
    </defs>
    <g clip-path="url(#p917fe18aa0)">
     <use xlink:href="#m1f0dd5d416" x="40.558909" y="66.899298" style="fill: #d6b656; stroke: #d6b656"/>
     <use xlink:href="#m1f0dd5d416" x="115.668" y="22.625186" style="fill: #d6b656; stroke: #d6b656"/>
     <use xlink:href="#m1f0dd5d416" x="190.777091" y="35.869064" style="fill: #d6b656; stroke: #d6b656"/>
    </g>
   </g>
   <g id="line2d_19">
    <path d="M 40.558909 88.94027 
L 115.668 30.585669 
L 190.777091 45.145172 
" clip-path="url(#p917fe18aa0)" style="fill: none; stroke: #6c8ebf; stroke-width: 0.9; stroke-linecap: square"/>
    <defs>
     <path id="m62fdd5686d" d="M 0 1 
C 0.265203 1 0.51958 0.894634 0.707107 0.707107 
C 0.894634 0.51958 1 0.265203 1 0 
C 1 -0.265203 0.894634 -0.51958 0.707107 -0.707107 
C 0.51958 -0.894634 0.265203 -1 0 -1 
C -0.265203 -1 -0.51958 -0.894634 -0.707107 -0.707107 
C -0.894634 -0.51958 -1 -0.265203 -1 0 
C -1 0.265203 -0.894634 0.51958 -0.707107 0.707107 
C -0.51958 0.894634 -0.265203 1 0 1 
z
" style="stroke: #6c8ebf"/>
    </defs>
    <g clip-path="url(#p917fe18aa0)">
     <use xlink:href="#m62fdd5686d" x="40.558909" y="88.94027" style="fill: #6c8ebf; stroke: #6c8ebf"/>
     <use xlink:href="#m62fdd5686d" x="115.668" y="30.585669" style="fill: #6c8ebf; stroke: #6c8ebf"/>
     <use xlink:href="#m62fdd5686d" x="190.777091" y="45.145172" style="fill: #6c8ebf; stroke: #6c8ebf"/>
    </g>
   </g>
   <g id="line2d_20">
    <path d="M 40.558909 72.022531 
L 115.668 22.019128 
L 190.777091 38.615873 
" clip-path="url(#p917fe18aa0)" style="fill: none; stroke: #666666; stroke-width: 0.9; stroke-linecap: square"/>
    <defs>
     <path id="m781919b2c6" d="M 0 1 
C 0.265203 1 0.51958 0.894634 0.707107 0.707107 
C 0.894634 0.51958 1 0.265203 1 0 
C 1 -0.265203 0.894634 -0.51958 0.707107 -0.707107 
C 0.51958 -0.894634 0.265203 -1 0 -1 
C -0.265203 -1 -0.51958 -0.894634 -0.707107 -0.707107 
C -0.894634 -0.51958 -1 -0.265203 -1 0 
C -1 0.265203 -0.894634 0.51958 -0.707107 0.707107 
C -0.51958 0.894634 -0.265203 1 0 1 
z
" style="stroke: #666666"/>
    </defs>
    <g clip-path="url(#p917fe18aa0)">
     <use xlink:href="#m781919b2c6" x="40.558909" y="72.022531" style="fill: #666666; stroke: #666666"/>
     <use xlink:href="#m781919b2c6" x="115.668" y="22.019128" style="fill: #666666; stroke: #666666"/>
     <use xlink:href="#m781919b2c6" x="190.777091" y="38.615873" style="fill: #666666; stroke: #666666"/>
    </g>
   </g>
   <g id="line2d_21">
    <path d="M 40.558909 82.993651 
L 115.668 49.705198 
L 190.777091 38.802229 
" clip-path="url(#p917fe18aa0)" style="fill: none; stroke: #9d7100; stroke-width: 0.9; stroke-linecap: square"/>
    <defs>
     <path id="m0077563282" d="M 0 1 
C 0.265203 1 0.51958 0.894634 0.707107 0.707107 
C 0.894634 0.51958 1 0.265203 1 0 
C 1 -0.265203 0.894634 -0.51958 0.707107 -0.707107 
C 0.51958 -0.894634 0.265203 -1 0 -1 
C -0.265203 -1 -0.51958 -0.894634 -0.707107 -0.707107 
C -0.894634 -0.51958 -1 -0.265203 -1 0 
C -1 0.265203 -0.894634 0.51958 -0.707107 0.707107 
C -0.51958 0.894634 -0.265203 1 0 1 
z
" style="stroke: #9d7100"/>
    </defs>
    <g clip-path="url(#p917fe18aa0)">
     <use xlink:href="#m0077563282" x="40.558909" y="82.993651" style="fill: #9d7100; stroke: #9d7100"/>
     <use xlink:href="#m0077563282" x="115.668" y="49.705198" style="fill: #9d7100; stroke: #9d7100"/>
     <use xlink:href="#m0077563282" x="190.777091" y="38.802229" style="fill: #9d7100; stroke: #9d7100"/>
    </g>
   </g>
   <g id="line2d_22">
    <path d="M 40.558909 66.666894 
L 115.668 31.467382 
L 190.777091 44.480641 
" clip-path="url(#p917fe18aa0)" style="fill: none; stroke: #863d3a; stroke-width: 0.9; stroke-linecap: square"/>
    <defs>
     <path id="mfaf652219f" d="M 0 1 
C 0.265203 1 0.51958 0.894634 0.707107 0.707107 
C 0.894634 0.51958 1 0.265203 1 0 
C 1 -0.265203 0.894634 -0.51958 0.707107 -0.707107 
C 0.51958 -0.894634 0.265203 -1 0 -1 
C -0.265203 -1 -0.51958 -0.894634 -0.707107 -0.707107 
C -0.894634 -0.51958 -1 -0.265203 -1 0 
C -1 0.265203 -0.894634 0.51958 -0.707107 0.707107 
C -0.51958 0.894634 -0.265203 1 0 1 
z
" style="stroke: #863d3a"/>
    </defs>
    <g clip-path="url(#p917fe18aa0)">
     <use xlink:href="#mfaf652219f" x="40.558909" y="66.666894" style="fill: #863d3a; stroke: #863d3a"/>
     <use xlink:href="#mfaf652219f" x="115.668" y="31.467382" style="fill: #863d3a; stroke: #863d3a"/>
     <use xlink:href="#mfaf652219f" x="190.777091" y="44.480641" style="fill: #863d3a; stroke: #863d3a"/>
    </g>
   </g>
   <g id="line2d_23">
    <path d="M 40.558909 74.843114 
L 115.668 30.731027 
L 190.777091 35.442358 
" clip-path="url(#p917fe18aa0)" style="fill: none; stroke: #6e5479; stroke-width: 0.9; stroke-linecap: square"/>
    <defs>
     <path id="md027116d4a" d="M 0 1 
C 0.265203 1 0.51958 0.894634 0.707107 0.707107 
C 0.894634 0.51958 1 0.265203 1 0 
C 1 -0.265203 0.894634 -0.51958 0.707107 -0.707107 
C 0.51958 -0.894634 0.265203 -1 0 -1 
C -0.265203 -1 -0.51958 -0.894634 -0.707107 -0.707107 
C -0.894634 -0.51958 -1 -0.265203 -1 0 
C -1 0.265203 -0.894634 0.51958 -0.707107 0.707107 
C -0.51958 0.894634 -0.265203 1 0 1 
z
" style="stroke: #6e5479"/>
    </defs>
    <g clip-path="url(#p917fe18aa0)">
     <use xlink:href="#md027116d4a" x="40.558909" y="74.843114" style="fill: #6e5479; stroke: #6e5479"/>
     <use xlink:href="#md027116d4a" x="115.668" y="30.731027" style="fill: #6e5479; stroke: #6e5479"/>
     <use xlink:href="#md027116d4a" x="190.777091" y="35.442358" style="fill: #6e5479; stroke: #6e5479"/>
    </g>
   </g>
   <g id="line2d_24">
    <path d="M 40.558909 67.384921 
L 115.668 39.483694 
L 190.777091 43.974571 
" clip-path="url(#p917fe18aa0)" style="fill: none; stroke: #9c853f; stroke-width: 0.9; stroke-linecap: square"/>
    <defs>
     <path id="m77a38145d2" d="M 0 1 
C 0.265203 1 0.51958 0.894634 0.707107 0.707107 
C 0.894634 0.51958 1 0.265203 1 0 
C 1 -0.265203 0.894634 -0.51958 0.707107 -0.707107 
C 0.51958 -0.894634 0.265203 -1 0 -1 
C -0.265203 -1 -0.51958 -0.894634 -0.707107 -0.707107 
C -0.894634 -0.51958 -1 -0.265203 -1 0 
C -1 0.265203 -0.894634 0.51958 -0.707107 0.707107 
C -0.51958 0.894634 -0.265203 1 0 1 
z
" style="stroke: #9c853f"/>
    </defs>
    <g clip-path="url(#p917fe18aa0)">
     <use xlink:href="#m77a38145d2" x="40.558909" y="67.384921" style="fill: #9c853f; stroke: #9c853f"/>
     <use xlink:href="#m77a38145d2" x="115.668" y="39.483694" style="fill: #9c853f; stroke: #9c853f"/>
     <use xlink:href="#m77a38145d2" x="190.777091" y="43.974571" style="fill: #9c853f; stroke: #9c853f"/>
    </g>
   </g>
   <g id="line2d_25">
    <path d="M 40.558909 60.123932 
L 115.668 37.630202 
L 190.777091 43.817574 
" clip-path="url(#p917fe18aa0)" style="fill: none; stroke: #4f688b; stroke-width: 0.9; stroke-linecap: square"/>
    <defs>
     <path id="m7e828a7ebd" d="M 0 1 
C 0.265203 1 0.51958 0.894634 0.707107 0.707107 
C 0.894634 0.51958 1 0.265203 1 0 
C 1 -0.265203 0.894634 -0.51958 0.707107 -0.707107 
C 0.51958 -0.894634 0.265203 -1 0 -1 
C -0.265203 -1 -0.51958 -0.894634 -0.707107 -0.707107 
C -0.894634 -0.51958 -1 -0.265203 -1 0 
C -1 0.265203 -0.894634 0.51958 -0.707107 0.707107 
C -0.51958 0.894634 -0.265203 1 0 1 
z
" style="stroke: #4f688b"/>
    </defs>
    <g clip-path="url(#p917fe18aa0)">
     <use xlink:href="#m7e828a7ebd" x="40.558909" y="60.123932" style="fill: #4f688b; stroke: #4f688b"/>
     <use xlink:href="#m7e828a7ebd" x="115.668" y="37.630202" style="fill: #4f688b; stroke: #4f688b"/>
     <use xlink:href="#m7e828a7ebd" x="190.777091" y="43.817574" style="fill: #4f688b; stroke: #4f688b"/>
    </g>
   </g>
   <g id="line2d_26">
    <path d="M 40.558909 76.981426 
L 115.668 34.039495 
L 190.777091 39.520239 
" clip-path="url(#p917fe18aa0)" style="fill: none; stroke: #4a4a4a; stroke-width: 0.9; stroke-linecap: square"/>
    <defs>
     <path id="m4e7a7c9ca5" d="M 0 1 
C 0.265203 1 0.51958 0.894634 0.707107 0.707107 
C 0.894634 0.51958 1 0.265203 1 0 
C 1 -0.265203 0.894634 -0.51958 0.707107 -0.707107 
C 0.51958 -0.894634 0.265203 -1 0 -1 
C -0.265203 -1 -0.51958 -0.894634 -0.707107 -0.707107 
C -0.894634 -0.51958 -1 -0.265203 -1 0 
C -1 0.265203 -0.894634 0.51958 -0.707107 0.707107 
C -0.51958 0.894634 -0.265203 1 0 1 
z
" style="stroke: #4a4a4a"/>
    </defs>
    <g clip-path="url(#p917fe18aa0)">
     <use xlink:href="#m4e7a7c9ca5" x="40.558909" y="76.981426" style="fill: #4a4a4a; stroke: #4a4a4a"/>
     <use xlink:href="#m4e7a7c9ca5" x="115.668" y="34.039495" style="fill: #4a4a4a; stroke: #4a4a4a"/>
     <use xlink:href="#m4e7a7c9ca5" x="190.777091" y="39.520239" style="fill: #4a4a4a; stroke: #4a4a4a"/>
    </g>
   </g>
   <g id="line2d_27">
    <path d="M 40.558909 73.726507 
L 115.668 32.905944 
L 190.777091 39.765063 
" clip-path="url(#p917fe18aa0)" style="fill: none; stroke: #c08552; stroke-width: 0.9; stroke-linecap: square"/>
    <defs>
     <path id="me51f9aefe4" d="M 0 1 
C 0.265203 1 0.51958 0.894634 0.707107 0.707107 
C 0.894634 0.51958 1 0.265203 1 0 
C 1 -0.265203 0.894634 -0.51958 0.707107 -0.707107 
C 0.51958 -0.894634 0.265203 -1 0 -1 
C -0.265203 -1 -0.51958 -0.894634 -0.707107 -0.707107 
C -0.894634 -0.51958 -1 -0.265203 -1 0 
C -1 0.265203 -0.894634 0.51958 -0.707107 0.707107 
C -0.51958 0.894634 -0.265203 1 0 1 
z
" style="stroke: #c08552"/>
    </defs>
    <g clip-path="url(#p917fe18aa0)">
     <use xlink:href="#me51f9aefe4" x="40.558909" y="73.726507" style="fill: #c08552; stroke: #c08552"/>
     <use xlink:href="#me51f9aefe4" x="115.668" y="32.905944" style="fill: #c08552; stroke: #c08552"/>
     <use xlink:href="#me51f9aefe4" x="190.777091" y="39.765063" style="fill: #c08552; stroke: #c08552"/>
    </g>
   </g>
   <g id="line2d_28">
    <path d="M 40.558909 81.237653 
L 115.668 36.106024 
L 190.777091 41.033822 
" clip-path="url(#p917fe18aa0)" style="fill: none; stroke: #a85878; stroke-width: 0.9; stroke-linecap: square"/>
    <defs>
     <path id="madf40ad38e" d="M 0 1 
C 0.265203 1 0.51958 0.894634 0.707107 0.707107 
C 0.894634 0.51958 1 0.265203 1 0 
C 1 -0.265203 0.894634 -0.51958 0.707107 -0.707107 
C 0.51958 -0.894634 0.265203 -1 0 -1 
C -0.265203 -1 -0.51958 -0.894634 -0.707107 -0.707107 
C -0.894634 -0.51958 -1 -0.265203 -1 0 
C -1 0.265203 -0.894634 0.51958 -0.707107 0.707107 
C -0.51958 0.894634 -0.265203 1 0 1 
z
" style="stroke: #a85878"/>
    </defs>
    <g clip-path="url(#p917fe18aa0)">
     <use xlink:href="#madf40ad38e" x="40.558909" y="81.237653" style="fill: #a85878; stroke: #a85878"/>
     <use xlink:href="#madf40ad38e" x="115.668" y="36.106024" style="fill: #a85878; stroke: #a85878"/>
     <use xlink:href="#madf40ad38e" x="190.777091" y="41.033822" style="fill: #a85878; stroke: #a85878"/>
    </g>
   </g>
   <g id="line2d_29">
    <path d="M 40.558909 73.951336 
L 115.668 33.990973 
L 190.777091 44.406209 
" clip-path="url(#p917fe18aa0)" style="fill: none; stroke: #9c6ea0; stroke-width: 0.9; stroke-linecap: square"/>
    <defs>
     <path id="mbdf88766ee" d="M 0 1 
C 0.265203 1 0.51958 0.894634 0.707107 0.707107 
C 0.894634 0.51958 1 0.265203 1 0 
C 1 -0.265203 0.894634 -0.51958 0.707107 -0.707107 
C 0.51958 -0.894634 0.265203 -1 0 -1 
C -0.265203 -1 -0.51958 -0.894634 -0.707107 -0.707107 
C -0.894634 -0.51958 -1 -0.265203 -1 0 
C -1 0.265203 -0.894634 0.51958 -0.707107 0.707107 
C -0.51958 0.894634 -0.265203 1 0 1 
z
" style="stroke: #9c6ea0"/>
    </defs>
    <g clip-path="url(#p917fe18aa0)">
     <use xlink:href="#mbdf88766ee" x="40.558909" y="73.951336" style="fill: #9c6ea0; stroke: #9c6ea0"/>
     <use xlink:href="#mbdf88766ee" x="115.668" y="33.990973" style="fill: #9c6ea0; stroke: #9c6ea0"/>
     <use xlink:href="#mbdf88766ee" x="190.777091" y="44.406209" style="fill: #9c6ea0; stroke: #9c6ea0"/>
    </g>
   </g>
   <g id="line2d_30">
    <path d="M 40.558909 59.840548 
L 115.668 30.623398 
L 190.777091 38.167797 
" clip-path="url(#p917fe18aa0)" style="fill: none; stroke: #6e93b8; stroke-width: 0.9; stroke-linecap: square"/>
    <defs>
     <path id="mee836886c0" d="M 0 1 
C 0.265203 1 0.51958 0.894634 0.707107 0.707107 
C 0.894634 0.51958 1 0.265203 1 0 
C 1 -0.265203 0.894634 -0.51958 0.707107 -0.707107 
C 0.51958 -0.894634 0.265203 -1 0 -1 
C -0.265203 -1 -0.51958 -0.894634 -0.707107 -0.707107 
C -0.894634 -0.51958 -1 -0.265203 -1 0 
C -1 0.265203 -0.894634 0.51958 -0.707107 0.707107 
C -0.51958 0.894634 -0.265203 1 0 1 
z
" style="stroke: #6e93b8"/>
    </defs>
    <g clip-path="url(#p917fe18aa0)">
     <use xlink:href="#mee836886c0" x="40.558909" y="59.840548" style="fill: #6e93b8; stroke: #6e93b8"/>
     <use xlink:href="#mee836886c0" x="115.668" y="30.623398" style="fill: #6e93b8; stroke: #6e93b8"/>
     <use xlink:href="#mee836886c0" x="190.777091" y="38.167797" style="fill: #6e93b8; stroke: #6e93b8"/>
    </g>
   </g>
   <g id="line2d_31">
    <path d="M 40.558909 134.94679 
L 115.668 62.987248 
L 190.777091 78.053321 
" clip-path="url(#p917fe18aa0)" style="fill: none; stroke: #b5943f; stroke-width: 0.9; stroke-linecap: square"/>
    <defs>
     <path id="mbb1db2c6eb" d="M 0 1 
C 0.265203 1 0.51958 0.894634 0.707107 0.707107 
C 0.894634 0.51958 1 0.265203 1 0 
C 1 -0.265203 0.894634 -0.51958 0.707107 -0.707107 
C 0.51958 -0.894634 0.265203 -1 0 -1 
C -0.265203 -1 -0.51958 -0.894634 -0.707107 -0.707107 
C -0.894634 -0.51958 -1 -0.265203 -1 0 
C -1 0.265203 -0.894634 0.51958 -0.707107 0.707107 
C -0.51958 0.894634 -0.265203 1 0 1 
z
" style="stroke: #b5943f"/>
    </defs>
    <g clip-path="url(#p917fe18aa0)">
     <use xlink:href="#mbb1db2c6eb" x="40.558909" y="134.94679" style="fill: #b5943f; stroke: #b5943f"/>
     <use xlink:href="#mbb1db2c6eb" x="115.668" y="62.987248" style="fill: #b5943f; stroke: #b5943f"/>
     <use xlink:href="#mbb1db2c6eb" x="190.777091" y="78.053321" style="fill: #b5943f; stroke: #b5943f"/>
    </g>
   </g>
   <g id="patch_3">
    <path d="M 33.048 143.424 
L 33.048 10.368 
" style="fill: none; stroke: #000000; stroke-width: 0.5; stroke-linejoin: miter; stroke-linecap: square"/>
   </g>
   <g id="patch_4">
    <path d="M 198.288 143.424 
L 198.288 10.368 
" style="fill: none; stroke: #000000; stroke-width: 0.5; stroke-linejoin: miter; stroke-linecap: square"/>
   </g>
   <g id="patch_5">
    <path d="M 33.048 143.424 
L 198.288 143.424 
" style="fill: none; stroke: #000000; stroke-width: 0.5; stroke-linejoin: miter; stroke-linecap: square"/>
   </g>
   <g id="patch_6">
    <path d="M 33.048 10.368 
L 198.288 10.368 
" style="fill: none; stroke: #000000; stroke-width: 0.5; stroke-linejoin: miter; stroke-linecap: square"/>
   </g>
   <g id="legend_1">
    <g id="patch_7">
     <path d="M 205.7928 139.696125 
L 318.655613 139.696125 
Q 319.855613 139.696125 319.855613 138.496125 
L 319.855613 14.568 
Q 319.855613 13.368 318.655613 13.368 
L 205.7928 13.368 
Q 204.5928 13.368 204.5928 14.568 
L 204.5928 138.496125 
Q 204.5928 139.696125 205.7928 139.696125 
z
" style="fill: #ffffff; opacity: 0.5; stroke: #cccccc; stroke-width: 0.4; stroke-linejoin: miter"/>
    </g>
    <g id="line2d_32">
     <path d="M 206.3928 17.3805 
L 209.9928 17.3805 
L 213.5928 17.3805 
" style="fill: none; stroke: #d79b00; stroke-width: 0.9; stroke-linecap: square"/>
     <g>
      <use xlink:href="#m4e9c5380f3" x="209.9928" y="17.3805" style="fill: #d79b00; stroke: #d79b00"/>
     </g>
    </g>
    <g id="text_10">
     <text style="font: 6px 'Arial', 'Helvetica', 'DejaVu Sans', sans-serif; text-anchor: start" x="215.9928" y="19.4805" transform="rotate(-0 215.9928 19.4805)">random_1</text>
    </g>
    <g id="line2d_33">
     <path d="M 206.3928 24.6855 
L 209.9928 24.6855 
L 213.5928 24.6855 
" style="fill: none; stroke: #b85450; stroke-width: 0.9; stroke-linecap: square"/>
     <g>
      <use xlink:href="#m3da4839a28" x="209.9928" y="24.6855" style="fill: #b85450; stroke: #b85450"/>
     </g>
    </g>
    <g id="text_11">
     <text style="font: 6px 'Arial', 'Helvetica', 'DejaVu Sans', sans-serif; text-anchor: start" x="215.9928" y="26.7855" transform="rotate(-0 215.9928 26.7855)">random_10</text>
    </g>
    <g id="line2d_34">
     <path d="M 206.3928 32.045813 
L 209.9928 32.045813 
L 213.5928 32.045813 
" style="fill: none; stroke: #9673a6; stroke-width: 0.9; stroke-linecap: square"/>
     <g>
      <use xlink:href="#md2b7ba4072" x="209.9928" y="32.045813" style="fill: #9673a6; stroke: #9673a6"/>
     </g>
    </g>
    <g id="text_12">
     <text style="font: 6px 'Arial', 'Helvetica', 'DejaVu Sans', sans-serif; text-anchor: start" x="215.9928" y="34.145813" transform="rotate(-0 215.9928 34.145813)">codon_frequency</text>
    </g>
    <g id="line2d_35">
     <path d="M 206.3928 39.421125 
L 209.9928 39.421125 
L 213.5928 39.421125 
" style="fill: none; stroke: #d6b656; stroke-width: 0.9; stroke-linecap: square"/>
     <g>
      <use xlink:href="#m1f0dd5d416" x="209.9928" y="39.421125" style="fill: #d6b656; stroke: #d6b656"/>
     </g>
    </g>
    <g id="text_13">
     <text style="font: 6px 'Arial', 'Helvetica', 'DejaVu Sans', sans-serif; text-anchor: start" x="215.9928" y="41.521125" transform="rotate(-0 215.9928 41.521125)">random_100</text>
    </g>
    <g id="line2d_36">
     <path d="M 206.3928 46.708313 
L 209.9928 46.708313 
L 213.5928 46.708313 
" style="fill: none; stroke: #6c8ebf; stroke-width: 0.9; stroke-linecap: square"/>
     <g>
      <use xlink:href="#m62fdd5686d" x="209.9928" y="46.708313" style="fill: #6c8ebf; stroke: #6c8ebf"/>
     </g>
    </g>
    <g id="text_14">
     <text style="font: 6px 'Arial', 'Helvetica', 'DejaVu Sans', sans-serif; text-anchor: start" x="215.9928" y="48.808313" transform="rotate(-0 215.9928 48.808313)">normalized_chrom_pathways</text>
    </g>
    <g id="line2d_37">
     <path d="M 206.3928 54.065812 
L 209.9928 54.065812 
L 213.5928 54.065812 
" style="fill: none; stroke: #666666; stroke-width: 0.9; stroke-linecap: square"/>
     <g>
      <use xlink:href="#m781919b2c6" x="209.9928" y="54.065812" style="fill: #666666; stroke: #666666"/>
     </g>
    </g>
    <g id="text_15">
     <text style="font: 6px 'Arial', 'Helvetica', 'DejaVu Sans', sans-serif; text-anchor: start" x="215.9928" y="56.165813" transform="rotate(-0 215.9928 56.165813)">calm</text>
    </g>
    <g id="line2d_38">
     <path d="M 206.3928 61.426125 
L 209.9928 61.426125 
L 213.5928 61.426125 
" style="fill: none; stroke: #9d7100; stroke-width: 0.9; stroke-linecap: square"/>
     <g>
      <use xlink:href="#m0077563282" x="209.9928" y="61.426125" style="fill: #9d7100; stroke: #9d7100"/>
     </g>
    </g>
    <g id="text_16">
     <text style="font: 6px 'Arial', 'Helvetica', 'DejaVu Sans', sans-serif; text-anchor: start" x="215.9928" y="63.526125" transform="rotate(-0 215.9928 63.526125)">fudt_upstream</text>
    </g>
    <g id="line2d_39">
     <path d="M 206.3928 68.786438 
L 209.9928 68.786438 
L 213.5928 68.786438 
" style="fill: none; stroke: #863d3a; stroke-width: 0.9; stroke-linecap: square"/>
     <g>
      <use xlink:href="#mfaf652219f" x="209.9928" y="68.786438" style="fill: #863d3a; stroke: #863d3a"/>
     </g>
    </g>
    <g id="text_17">
     <text style="font: 6px 'Arial', 'Helvetica', 'DejaVu Sans', sans-serif; text-anchor: start" x="215.9928" y="70.886438" transform="rotate(-0 215.9928 70.886438)">fudt_downstream</text>
    </g>
    <g id="line2d_40">
     <path d="M 206.3928 76.091438 
L 209.9928 76.091438 
L 213.5928 76.091438 
" style="fill: none; stroke: #6e5479; stroke-width: 0.9; stroke-linecap: square"/>
     <g>
      <use xlink:href="#md027116d4a" x="209.9928" y="76.091438" style="fill: #6e5479; stroke: #6e5479"/>
     </g>
    </g>
    <g id="text_18">
     <text style="font: 6px 'Arial', 'Helvetica', 'DejaVu Sans', sans-serif; text-anchor: start" x="215.9928" y="78.191438" transform="rotate(-0 215.9928 78.191438)">random_1000</text>
    </g>
    <g id="line2d_41">
     <path d="M 206.3928 83.378625 
L 209.9928 83.378625 
L 213.5928 83.378625 
" style="fill: none; stroke: #9c853f; stroke-width: 0.9; stroke-linecap: square"/>
     <g>
      <use xlink:href="#m77a38145d2" x="209.9928" y="83.378625" style="fill: #9c853f; stroke: #9c853f"/>
     </g>
    </g>
    <g id="text_19">
     <text style="font: 6px 'Arial', 'Helvetica', 'DejaVu Sans', sans-serif; text-anchor: start" x="215.9928" y="85.478625" transform="rotate(-0 215.9928 85.478625)">prot_T5_all</text>
    </g>
    <g id="line2d_42">
     <path d="M 206.3928 90.665813 
L 209.9928 90.665813 
L 213.5928 90.665813 
" style="fill: none; stroke: #4f688b; stroke-width: 0.9; stroke-linecap: square"/>
     <g>
      <use xlink:href="#m7e828a7ebd" x="209.9928" y="90.665813" style="fill: #4f688b; stroke: #4f688b"/>
     </g>
    </g>
    <g id="text_20">
     <text style="font: 6px 'Arial', 'Helvetica', 'DejaVu Sans', sans-serif; text-anchor: start" x="215.9928" y="92.765813" transform="rotate(-0 215.9928 92.765813)">prot_T5_no_dubious</text>
    </g>
    <g id="line2d_43">
     <path d="M 206.3928 97.970813 
L 209.9928 97.970813 
L 213.5928 97.970813 
" style="fill: none; stroke: #4a4a4a; stroke-width: 0.9; stroke-linecap: square"/>
     <g>
      <use xlink:href="#m4e7a7c9ca5" x="209.9928" y="97.970813" style="fill: #4a4a4a; stroke: #4a4a4a"/>
     </g>
    </g>
    <g id="text_21">
     <text style="font: 6px 'Arial', 'Helvetica', 'DejaVu Sans', sans-serif; text-anchor: start" x="215.9928" y="100.070813" transform="rotate(-0 215.9928 100.070813)">esm2_t33_650M_UR50D_all</text>
    </g>
    <g id="line2d_44">
     <path d="M 206.3928 105.275813 
L 209.9928 105.275813 
L 213.5928 105.275813 
" style="fill: none; stroke: #c08552; stroke-width: 0.9; stroke-linecap: square"/>
     <g>
      <use xlink:href="#me51f9aefe4" x="209.9928" y="105.275813" style="fill: #c08552; stroke: #c08552"/>
     </g>
    </g>
    <g id="text_22">
     <text style="font: 6px 'Arial', 'Helvetica', 'DejaVu Sans', sans-serif; text-anchor: start" x="215.9928" y="107.375813" transform="rotate(-0 215.9928 107.375813)">esm2_t33_650M_UR50D_no_dubious</text>
    </g>
    <g id="line2d_45">
     <path d="M 206.3928 112.580813 
L 209.9928 112.580813 
L 213.5928 112.580813 
" style="fill: none; stroke: #a85878; stroke-width: 0.9; stroke-linecap: square"/>
     <g>
      <use xlink:href="#madf40ad38e" x="209.9928" y="112.580813" style="fill: #a85878; stroke: #a85878"/>
     </g>
    </g>
    <g id="text_23">
     <text style="font: 6px 'Arial', 'Helvetica', 'DejaVu Sans', sans-serif; text-anchor: start" x="215.9928" y="114.680813" transform="rotate(-0 215.9928 114.680813)">nt_window_5979</text>
    </g>
    <g id="line2d_46">
     <path d="M 206.3928 119.885813 
L 209.9928 119.885813 
L 213.5928 119.885813 
" style="fill: none; stroke: #9c6ea0; stroke-width: 0.9; stroke-linecap: square"/>
     <g>
      <use xlink:href="#mbdf88766ee" x="209.9928" y="119.885813" style="fill: #9c6ea0; stroke: #9c6ea0"/>
     </g>
    </g>
    <g id="text_24">
     <text style="font: 6px 'Arial', 'Helvetica', 'DejaVu Sans', sans-serif; text-anchor: start" x="215.9928" y="121.985813" transform="rotate(-0 215.9928 121.985813)">nt_window_three_prime_300</text>
    </g>
    <g id="line2d_47">
     <path d="M 206.3928 127.246125 
L 209.9928 127.246125 
L 213.5928 127.246125 
" style="fill: none; stroke: #6e93b8; stroke-width: 0.9; stroke-linecap: square"/>
     <g>
      <use xlink:href="#mee836886c0" x="209.9928" y="127.246125" style="fill: #6e93b8; stroke: #6e93b8"/>
     </g>
    </g>
    <g id="text_25">
     <text style="font: 6px 'Arial', 'Helvetica', 'DejaVu Sans', sans-serif; text-anchor: start" x="215.9928" y="129.346125" transform="rotate(-0 215.9928 129.346125)">nt_window_five_prime_1003</text>
    </g>
    <g id="line2d_48">
     <path d="M 206.3928 134.533313 
L 209.9928 134.533313 
L 213.5928 134.533313 
" style="fill: none; stroke: #b5943f; stroke-width: 0.9; stroke-linecap: square"/>
     <g>
      <use xlink:href="#mbb1db2c6eb" x="209.9928" y="134.533313" style="fill: #b5943f; stroke: #b5943f"/>
     </g>
    </g>
    <g id="text_26">
     <text style="font: 6px 'Arial', 'Helvetica', 'DejaVu Sans', sans-serif; text-anchor: start" x="215.9928" y="136.633313" transform="rotate(-0 215.9928 136.633313)">one_hot_gene</text>
    </g>
   </g>
  </g>
 </g>
 <defs>
  <clipPath id="p917fe18aa0">
   <rect x="33.048" y="10.368" width="165.24" height="133.056"/>
  </clipPath>
 </defs>
</g></svg>
