<?xml version="1.0" encoding="utf-8" standalone="no"?>
<!DOCTYPE svg PUBLIC "-//W3C//DTD SVG 1.1//EN"
  "http://www.w3.org/Graphics/SVG/1.1/DTD/svg11.dtd">
<svg xmlns:xlink="http://www.w3.org/1999/xlink" width="260.0000" height="220.0000" viewBox="0 0 260.0000 220.0000" xmlns="http://www.w3.org/2000/svg" version="1.1"><g transform="scale(1.3888888889)">
 <metadata>
  <rdf:RDF xmlns:dc="http://purl.org/dc/elements/1.1/" xmlns:cc="http://creativecommons.org/ns#" xmlns:rdf="http://www.w3.org/1999/02/22-rdf-syntax-ns#">
   <cc:Work>
    <dc:type rdf:resource="http://purl.org/dc/dcmitype/StillImage"/>
    <dc:date>2026-07-16T01:57:23.126666</dc:date>
    <dc:format>image/svg+xml</dc:format>
    <dc:creator>
     <cc:Agent>
      <dc:title>Matplotlib v3.8.2, https://matplotlib.org/</dc:title>
     </cc:Agent>
    </dc:creator>
   </cc:Work>
  </rdf:RDF>
 </metadata>
 <defs>
  <style type="text/css">*{stroke-linejoin: round; stroke-linecap: butt}</style>
 </defs>
 <g id="figure_1">
  <g id="patch_1">
   <path d="M 0 158.4 
L 187.2 158.4 
L 187.2 0 
L 0 0 
z
" style="fill: #ffffff"/>
  </g>
  <g id="axes_1">
   <g id="patch_2">
    <path d="M 29.952 133.056 
L 181.584 133.056 
L 181.584 7.92 
L 29.952 7.92 
z
" style="fill: #ffffff"/>
   </g>
   <g id="patch_3">
    <path d="M 29.952 31.113735 
L 29.952 13.608 
L 181.584 13.608 
L 181.584 31.113735 
z
" clip-path="url(#p9c423d989b)" style="fill: #888888; opacity: 0.15"/>
   </g>
   <g id="line2d_1">
    <path d="M 29.952 18.051763 
L 181.584 18.051763 
" clip-path="url(#p9c423d989b)" style="fill: none; stroke-dasharray: 3.2,1.6; stroke-dashoffset: 0; stroke: #000000; stroke-width: 0.8"/>
   </g>
   <g id="matplotlib.axis_1">
    <g id="xtick_1">
     <g id="line2d_2">
      <path d="M 36.844364 133.056 
L 36.844364 7.92 
" clip-path="url(#p9c423d989b)" style="fill: none; stroke-dasharray: 2.96,1.28; stroke-dashoffset: 0; stroke: #b0b0b0; stroke-opacity: 0.5; stroke-width: 0.8"/>
     </g>
     <g id="line2d_3">
      <defs>
       <path id="mcf5b292f09" d="M 0 0 
L 0 2 
" style="stroke: #000000; stroke-width: 0.5"/>
      </defs>
      <g>
       <use xlink:href="#mcf5b292f09" x="36.844364" y="133.056" style="stroke: #000000; stroke-width: 0.5"/>
      </g>
     </g>
     <g id="text_1">
      <!-- $10^3$ -->
      <g transform="translate(31.564364 142.9435)">
       <text>
        <tspan style="font: 6px 'DejaVu Sans'" x="0 3.817383" y="-0.5859375">10</tspan>
        <tspan style="font: 4.2px 'DejaVu Sans'" x="7.692188" y="-2.8828125">3</tspan>
       </text>
      </g>
     </g>
    </g>
    <g id="xtick_2">
     <g id="line2d_4">
      <path d="M 105.768 133.056 
L 105.768 7.92 
" clip-path="url(#p9c423d989b)" style="fill: none; stroke-dasharray: 2.96,1.28; stroke-dashoffset: 0; stroke: #b0b0b0; stroke-opacity: 0.5; stroke-width: 0.8"/>
     </g>
     <g id="line2d_5">
      <g>
       <use xlink:href="#mcf5b292f09" x="105.768" y="133.056" style="stroke: #000000; stroke-width: 0.5"/>
      </g>
     </g>
     <g id="text_2">
      <!-- $10^4$ -->
      <g transform="translate(100.488 142.8835)">
       <text>
        <tspan style="font: 6px 'DejaVu Sans'" x="0 3.817383" y="-0.640625">10</tspan>
        <tspan style="font: 4.2px 'DejaVu Sans'" x="7.692188" y="-2.9375">4</tspan>
       </text>
      </g>
     </g>
    </g>
    <g id="xtick_3">
     <g id="line2d_6">
      <path d="M 174.691636 133.056 
L 174.691636 7.92 
" clip-path="url(#p9c423d989b)" style="fill: none; stroke-dasharray: 2.96,1.28; stroke-dashoffset: 0; stroke: #b0b0b0; stroke-opacity: 0.5; stroke-width: 0.8"/>
     </g>
     <g id="line2d_7">
      <g>
       <use xlink:href="#mcf5b292f09" x="174.691636" y="133.056" style="stroke: #000000; stroke-width: 0.5"/>
      </g>
     </g>
     <g id="text_3">
      <!-- $10^5$ -->
      <g transform="translate(169.411636 142.8835)">
       <text>
        <tspan style="font: 6px 'DejaVu Sans'" x="0 3.817383" y="-0.640625">10</tspan>
        <tspan style="font: 4.2px 'DejaVu Sans'" x="7.692188" y="-2.9375">5</tspan>
       </text>
      </g>
     </g>
    </g>
    <g id="text_4">
     <text style="font: 6px 'Arial', 'Helvetica', 'DejaVu Sans', sans-serif; text-anchor: middle" x="105.768" y="152.430688" transform="rotate(-0 105.768 152.430688)">Dataset Size</text>
    </g>
   </g>
   <g id="matplotlib.axis_2">
    <g id="ytick_1">
     <g id="line2d_8">
      <path d="M 29.952 130.761764 
L 181.584 130.761764 
" clip-path="url(#p9c423d989b)" style="fill: none; stroke-dasharray: 2.96,1.28; stroke-dashoffset: 0; stroke: #b0b0b0; stroke-opacity: 0.5; stroke-width: 0.8"/>
     </g>
     <g id="line2d_9">
      <defs>
       <path id="ma94e5dacac" d="M 0 0 
L -2 0 
" style="stroke: #000000; stroke-width: 0.5"/>
      </defs>
      <g>
       <use xlink:href="#ma94e5dacac" x="29.952" y="130.761764" style="stroke: #000000; stroke-width: 0.5"/>
      </g>
     </g>
     <g id="text_5">
      <text style="font: 6px 'Arial', 'Helvetica', 'DejaVu Sans', sans-serif; text-anchor: end" x="24.452" y="132.909108" transform="rotate(-0 24.452 132.909108)">0.0</text>
     </g>
    </g>
    <g id="ytick_2">
     <g id="line2d_10">
      <path d="M 29.952 103.829864 
L 181.584 103.829864 
" clip-path="url(#p9c423d989b)" style="fill: none; stroke-dasharray: 2.96,1.28; stroke-dashoffset: 0; stroke: #b0b0b0; stroke-opacity: 0.5; stroke-width: 0.8"/>
     </g>
     <g id="line2d_11">
      <g>
       <use xlink:href="#ma94e5dacac" x="29.952" y="103.829864" style="stroke: #000000; stroke-width: 0.5"/>
      </g>
     </g>
     <g id="text_6">
      <text style="font: 6px 'Arial', 'Helvetica', 'DejaVu Sans', sans-serif; text-anchor: end" x="24.452" y="105.977208" transform="rotate(-0 24.452 105.977208)">0.2</text>
     </g>
    </g>
    <g id="ytick_3">
     <g id="line2d_12">
      <path d="M 29.952 76.897965 
L 181.584 76.897965 
" clip-path="url(#p9c423d989b)" style="fill: none; stroke-dasharray: 2.96,1.28; stroke-dashoffset: 0; stroke: #b0b0b0; stroke-opacity: 0.5; stroke-width: 0.8"/>
     </g>
     <g id="line2d_13">
      <g>
       <use xlink:href="#ma94e5dacac" x="29.952" y="76.897965" style="stroke: #000000; stroke-width: 0.5"/>
      </g>
     </g>
     <g id="text_7">
      <text style="font: 6px 'Arial', 'Helvetica', 'DejaVu Sans', sans-serif; text-anchor: end" x="24.452" y="79.045308" transform="rotate(-0 24.452 79.045308)">0.4</text>
     </g>
    </g>
    <g id="ytick_4">
     <g id="line2d_14">
      <path d="M 29.952 49.966065 
L 181.584 49.966065 
" clip-path="url(#p9c423d989b)" style="fill: none; stroke-dasharray: 2.96,1.28; stroke-dashoffset: 0; stroke: #b0b0b0; stroke-opacity: 0.5; stroke-width: 0.8"/>
     </g>
     <g id="line2d_15">
      <g>
       <use xlink:href="#ma94e5dacac" x="29.952" y="49.966065" style="stroke: #000000; stroke-width: 0.5"/>
      </g>
     </g>
     <g id="text_8">
      <text style="font: 6px 'Arial', 'Helvetica', 'DejaVu Sans', sans-serif; text-anchor: end" x="24.452" y="52.113409" transform="rotate(-0 24.452 52.113409)">0.6</text>
     </g>
    </g>
    <g id="ytick_5">
     <g id="line2d_16">
      <path d="M 29.952 23.034165 
L 181.584 23.034165 
" clip-path="url(#p9c423d989b)" style="fill: none; stroke-dasharray: 2.96,1.28; stroke-dashoffset: 0; stroke: #b0b0b0; stroke-opacity: 0.5; stroke-width: 0.8"/>
     </g>
     <g id="line2d_17">
      <g>
       <use xlink:href="#ma94e5dacac" x="29.952" y="23.034165" style="stroke: #000000; stroke-width: 0.5"/>
      </g>
     </g>
     <g id="text_9">
      <text style="font: 6px 'Arial', 'Helvetica', 'DejaVu Sans', sans-serif; text-anchor: end" x="24.452" y="25.181509" transform="rotate(-0 24.452 25.181509)">0.8</text>
     </g>
    </g>
    <g id="text_10">
     <text style="font: 6px 'Arial', 'Helvetica', 'DejaVu Sans', sans-serif; text-anchor: middle" x="10.9195" y="70.488" transform="rotate(-90 10.9195 70.488)">Test Pearson</text>
    </g>
   </g>
   <g id="line2d_18">
    <path d="M 36.844364 127.368 
L 105.768 109.268466 
L 174.691636 111.366438 
" clip-path="url(#p9c423d989b)" style="fill: none; stroke: #d79b00; stroke-width: 0.9; stroke-linecap: square"/>
    <defs>
     <path id="m3382ae8431" d="M 0 1 
C 0.265203 1 0.51958 0.894634 0.707107 0.707107 
C 0.894634 0.51958 1 0.265203 1 0 
C 1 -0.265203 0.894634 -0.51958 0.707107 -0.707107 
C 0.51958 -0.894634 0.265203 -1 0 -1 
C -0.265203 -1 -0.51958 -0.894634 -0.707107 -0.707107 
C -0.894634 -0.51958 -1 -0.265203 -1 0 
C -1 0.265203 -0.894634 0.51958 -0.707107 0.707107 
C -0.51958 0.894634 -0.265203 1 0 1 
z
" style="stroke: #d79b00"/>
    </defs>
    <g clip-path="url(#p9c423d989b)">
     <use xlink:href="#m3382ae8431" x="36.844364" y="127.368" style="fill: #d79b00; stroke: #d79b00"/>
     <use xlink:href="#m3382ae8431" x="105.768" y="109.268466" style="fill: #d79b00; stroke: #d79b00"/>
     <use xlink:href="#m3382ae8431" x="174.691636" y="111.366438" style="fill: #d79b00; stroke: #d79b00"/>
    </g>
   </g>
   <g id="line2d_19">
    <path d="M 36.844364 84.982637 
L 105.768 83.193803 
L 174.691636 85.138703 
" clip-path="url(#p9c423d989b)" style="fill: none; stroke: #b85450; stroke-width: 0.9; stroke-linecap: square"/>
    <defs>
     <path id="m4e07ef0cc3" d="M 0 1 
C 0.265203 1 0.51958 0.894634 0.707107 0.707107 
C 0.894634 0.51958 1 0.265203 1 0 
C 1 -0.265203 0.894634 -0.51958 0.707107 -0.707107 
C 0.51958 -0.894634 0.265203 -1 0 -1 
C -0.265203 -1 -0.51958 -0.894634 -0.707107 -0.707107 
C -0.894634 -0.51958 -1 -0.265203 -1 0 
C -1 0.265203 -0.894634 0.51958 -0.707107 0.707107 
C -0.51958 0.894634 -0.265203 1 0 1 
z
" style="stroke: #b85450"/>
    </defs>
    <g clip-path="url(#p9c423d989b)">
     <use xlink:href="#m4e07ef0cc3" x="36.844364" y="84.982637" style="fill: #b85450; stroke: #b85450"/>
     <use xlink:href="#m4e07ef0cc3" x="105.768" y="83.193803" style="fill: #b85450; stroke: #b85450"/>
     <use xlink:href="#m4e07ef0cc3" x="174.691636" y="85.138703" style="fill: #b85450; stroke: #b85450"/>
    </g>
   </g>
   <g id="line2d_20">
    <path d="M 36.844364 69.769396 
L 105.768 76.35778 
L 174.691636 79.82756 
" clip-path="url(#p9c423d989b)" style="fill: none; stroke: #9673a6; stroke-width: 0.9; stroke-linecap: square"/>
    <defs>
     <path id="m9ad4c70e8c" d="M 0 1 
C 0.265203 1 0.51958 0.894634 0.707107 0.707107 
C 0.894634 0.51958 1 0.265203 1 0 
C 1 -0.265203 0.894634 -0.51958 0.707107 -0.707107 
C 0.51958 -0.894634 0.265203 -1 0 -1 
C -0.265203 -1 -0.51958 -0.894634 -0.707107 -0.707107 
C -0.894634 -0.51958 -1 -0.265203 -1 0 
C -1 0.265203 -0.894634 0.51958 -0.707107 0.707107 
C -0.51958 0.894634 -0.265203 1 0 1 
z
" style="stroke: #9673a6"/>
    </defs>
    <g clip-path="url(#p9c423d989b)">
     <use xlink:href="#m9ad4c70e8c" x="36.844364" y="69.769396" style="fill: #9673a6; stroke: #9673a6"/>
     <use xlink:href="#m9ad4c70e8c" x="105.768" y="76.35778" style="fill: #9673a6; stroke: #9673a6"/>
     <use xlink:href="#m9ad4c70e8c" x="174.691636" y="79.82756" style="fill: #9673a6; stroke: #9673a6"/>
    </g>
   </g>
   <g id="line2d_21">
    <path d="M 36.844364 93.808479 
L 105.768 72.72608 
L 174.691636 79.032536 
" clip-path="url(#p9c423d989b)" style="fill: none; stroke: #d6b656; stroke-width: 0.9; stroke-linecap: square"/>
    <defs>
     <path id="m3160414b6a" d="M 0 1 
C 0.265203 1 0.51958 0.894634 0.707107 0.707107 
C 0.894634 0.51958 1 0.265203 1 0 
C 1 -0.265203 0.894634 -0.51958 0.707107 -0.707107 
C 0.51958 -0.894634 0.265203 -1 0 -1 
C -0.265203 -1 -0.51958 -0.894634 -0.707107 -0.707107 
C -0.894634 -0.51958 -1 -0.265203 -1 0 
C -1 0.265203 -0.894634 0.51958 -0.707107 0.707107 
C -0.51958 0.894634 -0.265203 1 0 1 
z
" style="stroke: #d6b656"/>
    </defs>
    <g clip-path="url(#p9c423d989b)">
     <use xlink:href="#m3160414b6a" x="36.844364" y="93.808479" style="fill: #d6b656; stroke: #d6b656"/>
     <use xlink:href="#m3160414b6a" x="105.768" y="72.72608" style="fill: #d6b656; stroke: #d6b656"/>
     <use xlink:href="#m3160414b6a" x="174.691636" y="79.032536" style="fill: #d6b656; stroke: #d6b656"/>
    </g>
   </g>
   <g id="line2d_22">
    <path d="M 36.844364 104.303926 
L 105.768 76.516694 
L 174.691636 83.449623 
" clip-path="url(#p9c423d989b)" style="fill: none; stroke: #6c8ebf; stroke-width: 0.9; stroke-linecap: square"/>
    <defs>
     <path id="m591da9fb9f" d="M 0 1 
C 0.265203 1 0.51958 0.894634 0.707107 0.707107 
C 0.894634 0.51958 1 0.265203 1 0 
C 1 -0.265203 0.894634 -0.51958 0.707107 -0.707107 
C 0.51958 -0.894634 0.265203 -1 0 -1 
C -0.265203 -1 -0.51958 -0.894634 -0.707107 -0.707107 
C -0.894634 -0.51958 -1 -0.265203 -1 0 
C -1 0.265203 -0.894634 0.51958 -0.707107 0.707107 
C -0.51958 0.894634 -0.265203 1 0 1 
z
" style="stroke: #6c8ebf"/>
    </defs>
    <g clip-path="url(#p9c423d989b)">
     <use xlink:href="#m591da9fb9f" x="36.844364" y="104.303926" style="fill: #6c8ebf; stroke: #6c8ebf"/>
     <use xlink:href="#m591da9fb9f" x="105.768" y="76.516694" style="fill: #6c8ebf; stroke: #6c8ebf"/>
     <use xlink:href="#m591da9fb9f" x="174.691636" y="83.449623" style="fill: #6c8ebf; stroke: #6c8ebf"/>
    </g>
   </g>
   <g id="line2d_23">
    <path d="M 36.844364 96.248055 
L 105.768 72.437488 
L 174.691636 80.340508 
" clip-path="url(#p9c423d989b)" style="fill: none; stroke: #666666; stroke-width: 0.9; stroke-linecap: square"/>
    <defs>
     <path id="m95a0dda508" d="M 0 1 
C 0.265203 1 0.51958 0.894634 0.707107 0.707107 
C 0.894634 0.51958 1 0.265203 1 0 
C 1 -0.265203 0.894634 -0.51958 0.707107 -0.707107 
C 0.51958 -0.894634 0.265203 -1 0 -1 
C -0.265203 -1 -0.51958 -0.894634 -0.707107 -0.707107 
C -0.894634 -0.51958 -1 -0.265203 -1 0 
C -1 0.265203 -0.894634 0.51958 -0.707107 0.707107 
C -0.51958 0.894634 -0.265203 1 0 1 
z
" style="stroke: #666666"/>
    </defs>
    <g clip-path="url(#p9c423d989b)">
     <use xlink:href="#m95a0dda508" x="36.844364" y="96.248055" style="fill: #666666; stroke: #666666"/>
     <use xlink:href="#m95a0dda508" x="105.768" y="72.437488" style="fill: #666666; stroke: #666666"/>
     <use xlink:href="#m95a0dda508" x="174.691636" y="80.340508" style="fill: #666666; stroke: #666666"/>
    </g>
   </g>
   <g id="line2d_24">
    <path d="M 36.844364 101.472271 
L 105.768 85.621011 
L 174.691636 80.429247 
" clip-path="url(#p9c423d989b)" style="fill: none; stroke: #9d7100; stroke-width: 0.9; stroke-linecap: square"/>
    <defs>
     <path id="m9a8259aed6" d="M 0 1 
C 0.265203 1 0.51958 0.894634 0.707107 0.707107 
C 0.894634 0.51958 1 0.265203 1 0 
C 1 -0.265203 0.894634 -0.51958 0.707107 -0.707107 
C 0.51958 -0.894634 0.265203 -1 0 -1 
C -0.265203 -1 -0.51958 -0.894634 -0.707107 -0.707107 
C -0.894634 -0.51958 -1 -0.265203 -1 0 
C -1 0.265203 -0.894634 0.51958 -0.707107 0.707107 
C -0.51958 0.894634 -0.265203 1 0 1 
z
" style="stroke: #9d7100"/>
    </defs>
    <g clip-path="url(#p9c423d989b)">
     <use xlink:href="#m9a8259aed6" x="36.844364" y="101.472271" style="fill: #9d7100; stroke: #9d7100"/>
     <use xlink:href="#m9a8259aed6" x="105.768" y="85.621011" style="fill: #9d7100; stroke: #9d7100"/>
     <use xlink:href="#m9a8259aed6" x="174.691636" y="80.429247" style="fill: #9d7100; stroke: #9d7100"/>
    </g>
   </g>
   <g id="line2d_25">
    <path d="M 36.844364 93.697814 
L 105.768 76.936548 
L 174.691636 83.133187 
" clip-path="url(#p9c423d989b)" style="fill: none; stroke: #863d3a; stroke-width: 0.9; stroke-linecap: square"/>
    <defs>
     <path id="mbeabf068c1" d="M 0 1 
C 0.265203 1 0.51958 0.894634 0.707107 0.707107 
C 0.894634 0.51958 1 0.265203 1 0 
C 1 -0.265203 0.894634 -0.51958 0.707107 -0.707107 
C 0.51958 -0.894634 0.265203 -1 0 -1 
C -0.265203 -1 -0.51958 -0.894634 -0.707107 -0.707107 
C -0.894634 -0.51958 -1 -0.265203 -1 0 
C -1 0.265203 -0.894634 0.51958 -0.707107 0.707107 
C -0.51958 0.894634 -0.265203 1 0 1 
z
" style="stroke: #863d3a"/>
    </defs>
    <g clip-path="url(#p9c423d989b)">
     <use xlink:href="#mbeabf068c1" x="36.844364" y="93.697814" style="fill: #863d3a; stroke: #863d3a"/>
     <use xlink:href="#mbeabf068c1" x="105.768" y="76.936548" style="fill: #863d3a; stroke: #863d3a"/>
     <use xlink:href="#mbeabf068c1" x="174.691636" y="83.133187" style="fill: #863d3a; stroke: #863d3a"/>
    </g>
   </g>
   <g id="line2d_26">
    <path d="M 36.844364 97.591157 
L 105.768 76.585911 
L 174.691636 78.829347 
" clip-path="url(#p9c423d989b)" style="fill: none; stroke: #6e5479; stroke-width: 0.9; stroke-linecap: square"/>
    <defs>
     <path id="m6d86c57bae" d="M 0 1 
C 0.265203 1 0.51958 0.894634 0.707107 0.707107 
C 0.894634 0.51958 1 0.265203 1 0 
C 1 -0.265203 0.894634 -0.51958 0.707107 -0.707107 
C 0.51958 -0.894634 0.265203 -1 0 -1 
C -0.265203 -1 -0.51958 -0.894634 -0.707107 -0.707107 
C -0.894634 -0.51958 -1 -0.265203 -1 0 
C -1 0.265203 -0.894634 0.51958 -0.707107 0.707107 
C -0.51958 0.894634 -0.265203 1 0 1 
z
" style="stroke: #6e5479"/>
    </defs>
    <g clip-path="url(#p9c423d989b)">
     <use xlink:href="#m6d86c57bae" x="36.844364" y="97.591157" style="fill: #6e5479; stroke: #6e5479"/>
     <use xlink:href="#m6d86c57bae" x="105.768" y="76.585911" style="fill: #6e5479; stroke: #6e5479"/>
     <use xlink:href="#m6d86c57bae" x="174.691636" y="78.829347" style="fill: #6e5479; stroke: #6e5479"/>
    </g>
   </g>
   <g id="line2d_27">
    <path d="M 36.844364 94.039723 
L 105.768 80.753746 
L 174.691636 82.892207 
" clip-path="url(#p9c423d989b)" style="fill: none; stroke: #9c853f; stroke-width: 0.9; stroke-linecap: square"/>
    <defs>
     <path id="m3a7b831c40" d="M 0 1 
C 0.265203 1 0.51958 0.894634 0.707107 0.707107 
C 0.894634 0.51958 1 0.265203 1 0 
C 1 -0.265203 0.894634 -0.51958 0.707107 -0.707107 
C 0.51958 -0.894634 0.265203 -1 0 -1 
C -0.265203 -1 -0.51958 -0.894634 -0.707107 -0.707107 
C -0.894634 -0.51958 -1 -0.265203 -1 0 
C -1 0.265203 -0.894634 0.51958 -0.707107 0.707107 
C -0.51958 0.894634 -0.265203 1 0 1 
z
" style="stroke: #9c853f"/>
    </defs>
    <g clip-path="url(#p9c423d989b)">
     <use xlink:href="#m3a7b831c40" x="36.844364" y="94.039723" style="fill: #9c853f; stroke: #9c853f"/>
     <use xlink:href="#m3a7b831c40" x="105.768" y="80.753746" style="fill: #9c853f; stroke: #9c853f"/>
     <use xlink:href="#m3a7b831c40" x="174.691636" y="82.892207" style="fill: #9c853f; stroke: #9c853f"/>
    </g>
   </g>
   <g id="line2d_28">
    <path d="M 36.844364 90.582193 
L 105.768 79.871152 
L 174.691636 82.817449 
" clip-path="url(#p9c423d989b)" style="fill: none; stroke: #4f688b; stroke-width: 0.9; stroke-linecap: square"/>
    <defs>
     <path id="m4a8b01fd3f" d="M 0 1 
C 0.265203 1 0.51958 0.894634 0.707107 0.707107 
C 0.894634 0.51958 1 0.265203 1 0 
C 1 -0.265203 0.894634 -0.51958 0.707107 -0.707107 
C 0.51958 -0.894634 0.265203 -1 0 -1 
C -0.265203 -1 -0.51958 -0.894634 -0.707107 -0.707107 
C -0.894634 -0.51958 -1 -0.265203 -1 0 
C -1 0.265203 -0.894634 0.51958 -0.707107 0.707107 
C -0.51958 0.894634 -0.265203 1 0 1 
z
" style="stroke: #4f688b"/>
    </defs>
    <g clip-path="url(#p9c423d989b)">
     <use xlink:href="#m4a8b01fd3f" x="36.844364" y="90.582193" style="fill: #4f688b; stroke: #4f688b"/>
     <use xlink:href="#m4a8b01fd3f" x="105.768" y="79.871152" style="fill: #4f688b; stroke: #4f688b"/>
     <use xlink:href="#m4a8b01fd3f" x="174.691636" y="82.817449" style="fill: #4f688b; stroke: #4f688b"/>
    </g>
   </g>
   <g id="line2d_29">
    <path d="M 36.844364 98.609376 
L 105.768 78.161334 
L 174.691636 80.771148 
" clip-path="url(#p9c423d989b)" style="fill: none; stroke: #4a4a4a; stroke-width: 0.9; stroke-linecap: square"/>
    <defs>
     <path id="m6923fa804d" d="M 0 1 
C 0.265203 1 0.51958 0.894634 0.707107 0.707107 
C 0.894634 0.51958 1 0.265203 1 0 
C 1 -0.265203 0.894634 -0.51958 0.707107 -0.707107 
C 0.51958 -0.894634 0.265203 -1 0 -1 
C -0.265203 -1 -0.51958 -0.894634 -0.707107 -0.707107 
C -0.894634 -0.51958 -1 -0.265203 -1 0 
C -1 0.265203 -0.894634 0.51958 -0.707107 0.707107 
C -0.51958 0.894634 -0.265203 1 0 1 
z
" style="stroke: #4a4a4a"/>
    </defs>
    <g clip-path="url(#p9c423d989b)">
     <use xlink:href="#m6923fa804d" x="36.844364" y="98.609376" style="fill: #4a4a4a; stroke: #4a4a4a"/>
     <use xlink:href="#m6923fa804d" x="105.768" y="78.161334" style="fill: #4a4a4a; stroke: #4a4a4a"/>
     <use xlink:href="#m6923fa804d" x="174.691636" y="80.771148" style="fill: #4a4a4a; stroke: #4a4a4a"/>
    </g>
   </g>
   <g id="line2d_30">
    <path d="M 36.844364 97.059452 
L 105.768 77.621561 
L 174.691636 80.887729 
" clip-path="url(#p9c423d989b)" style="fill: none; stroke: #c48161; stroke-width: 0.9; stroke-linecap: square"/>
    <defs>
     <path id="m2723e991f4" d="M 0 1 
C 0.265203 1 0.51958 0.894634 0.707107 0.707107 
C 0.894634 0.51958 1 0.265203 1 0 
C 1 -0.265203 0.894634 -0.51958 0.707107 -0.707107 
C 0.51958 -0.894634 0.265203 -1 0 -1 
C -0.265203 -1 -0.51958 -0.894634 -0.707107 -0.707107 
C -0.894634 -0.51958 -1 -0.265203 -1 0 
C -1 0.265203 -0.894634 0.51958 -0.707107 0.707107 
C -0.51958 0.894634 -0.265203 1 0 1 
z
" style="stroke: #c48161"/>
    </defs>
    <g clip-path="url(#p9c423d989b)">
     <use xlink:href="#m2723e991f4" x="36.844364" y="97.059452" style="fill: #c48161; stroke: #c48161"/>
     <use xlink:href="#m2723e991f4" x="105.768" y="77.621561" style="fill: #c48161; stroke: #c48161"/>
     <use xlink:href="#m2723e991f4" x="174.691636" y="80.887729" style="fill: #c48161; stroke: #c48161"/>
    </g>
   </g>
   <g id="line2d_31">
    <path d="M 36.844364 100.636102 
L 105.768 79.145371 
L 174.691636 81.491885 
" clip-path="url(#p9c423d989b)" style="fill: none; stroke: #9a6b66; stroke-width: 0.9; stroke-linecap: square"/>
    <defs>
     <path id="m303b1a9cc1" d="M 0 1 
C 0.265203 1 0.51958 0.894634 0.707107 0.707107 
C 0.894634 0.51958 1 0.265203 1 0 
C 1 -0.265203 0.894634 -0.51958 0.707107 -0.707107 
C 0.51958 -0.894634 0.265203 -1 0 -1 
C -0.265203 -1 -0.51958 -0.894634 -0.707107 -0.707107 
C -0.894634 -0.51958 -1 -0.265203 -1 0 
C -1 0.265203 -0.894634 0.51958 -0.707107 0.707107 
C -0.51958 0.894634 -0.265203 1 0 1 
z
" style="stroke: #9a6b66"/>
    </defs>
    <g clip-path="url(#p9c423d989b)">
     <use xlink:href="#m303b1a9cc1" x="36.844364" y="100.636102" style="fill: #9a6b66; stroke: #9a6b66"/>
     <use xlink:href="#m303b1a9cc1" x="105.768" y="79.145371" style="fill: #9a6b66; stroke: #9a6b66"/>
     <use xlink:href="#m303b1a9cc1" x="174.691636" y="81.491885" style="fill: #9a6b66; stroke: #9a6b66"/>
    </g>
   </g>
   <g id="line2d_32">
    <path d="M 36.844364 97.166511 
L 105.768 78.138228 
L 174.691636 83.097744 
" clip-path="url(#p9c423d989b)" style="fill: none; stroke: #b690a4; stroke-width: 0.9; stroke-linecap: square"/>
    <defs>
     <path id="m37a739599d" d="M 0 1 
C 0.265203 1 0.51958 0.894634 0.707107 0.707107 
C 0.894634 0.51958 1 0.265203 1 0 
C 1 -0.265203 0.894634 -0.51958 0.707107 -0.707107 
C 0.51958 -0.894634 0.265203 -1 0 -1 
C -0.265203 -1 -0.51958 -0.894634 -0.707107 -0.707107 
C -0.894634 -0.51958 -1 -0.265203 -1 0 
C -1 0.265203 -0.894634 0.51958 -0.707107 0.707107 
C -0.51958 0.894634 -0.265203 1 0 1 
z
" style="stroke: #b690a4"/>
    </defs>
    <g clip-path="url(#p9c423d989b)">
     <use xlink:href="#m37a739599d" x="36.844364" y="97.166511" style="fill: #b690a4; stroke: #b690a4"/>
     <use xlink:href="#m37a739599d" x="105.768" y="78.138228" style="fill: #b690a4; stroke: #b690a4"/>
     <use xlink:href="#m37a739599d" x="174.691636" y="83.097744" style="fill: #b690a4; stroke: #b690a4"/>
    </g>
   </g>
   <g id="line2d_33">
    <path d="M 36.844364 90.447251 
L 105.768 76.53466 
L 174.691636 80.127144 
" clip-path="url(#p9c423d989b)" style="fill: none; stroke: #d2ae7d; stroke-width: 0.9; stroke-linecap: square"/>
    <defs>
     <path id="m66097f8a57" d="M 0 1 
C 0.265203 1 0.51958 0.894634 0.707107 0.707107 
C 0.894634 0.51958 1 0.265203 1 0 
C 1 -0.265203 0.894634 -0.51958 0.707107 -0.707107 
C 0.51958 -0.894634 0.265203 -1 0 -1 
C -0.265203 -1 -0.51958 -0.894634 -0.707107 -0.707107 
C -0.894634 -0.51958 -1 -0.265203 -1 0 
C -1 0.265203 -0.894634 0.51958 -0.707107 0.707107 
C -0.51958 0.894634 -0.265203 1 0 1 
z
" style="stroke: #d2ae7d"/>
    </defs>
    <g clip-path="url(#p9c423d989b)">
     <use xlink:href="#m66097f8a57" x="36.844364" y="90.447251" style="fill: #d2ae7d; stroke: #d2ae7d"/>
     <use xlink:href="#m66097f8a57" x="105.768" y="76.53466" style="fill: #d2ae7d; stroke: #d2ae7d"/>
     <use xlink:href="#m66097f8a57" x="174.691636" y="80.127144" style="fill: #d2ae7d; stroke: #d2ae7d"/>
    </g>
   </g>
   <g id="line2d_34">
    <path d="M 36.844364 126.211262 
L 105.768 91.945644 
L 174.691636 99.11979 
" clip-path="url(#p9c423d989b)" style="fill: none; stroke: #899eab; stroke-width: 0.9; stroke-linecap: square"/>
    <defs>
     <path id="mf0c6a50da8" d="M 0 1 
C 0.265203 1 0.51958 0.894634 0.707107 0.707107 
C 0.894634 0.51958 1 0.265203 1 0 
C 1 -0.265203 0.894634 -0.51958 0.707107 -0.707107 
C 0.51958 -0.894634 0.265203 -1 0 -1 
C -0.265203 -1 -0.51958 -0.894634 -0.707107 -0.707107 
C -0.894634 -0.51958 -1 -0.265203 -1 0 
C -1 0.265203 -0.894634 0.51958 -0.707107 0.707107 
C -0.51958 0.894634 -0.265203 1 0 1 
z
" style="stroke: #899eab"/>
    </defs>
    <g clip-path="url(#p9c423d989b)">
     <use xlink:href="#mf0c6a50da8" x="36.844364" y="126.211262" style="fill: #899eab; stroke: #899eab"/>
     <use xlink:href="#mf0c6a50da8" x="105.768" y="91.945644" style="fill: #899eab; stroke: #899eab"/>
     <use xlink:href="#mf0c6a50da8" x="174.691636" y="99.11979" style="fill: #899eab; stroke: #899eab"/>
    </g>
   </g>
   <g id="patch_4">
    <path d="M 29.952 133.056 
L 29.952 7.92 
" style="fill: none; stroke: #000000; stroke-width: 0.5; stroke-linejoin: miter; stroke-linecap: square"/>
   </g>
   <g id="patch_5">
    <path d="M 181.584 133.056 
L 181.584 7.92 
" style="fill: none; stroke: #000000; stroke-width: 0.5; stroke-linejoin: miter; stroke-linecap: square"/>
   </g>
   <g id="patch_6">
    <path d="M 29.952 133.056 
L 181.584 133.056 
" style="fill: none; stroke: #000000; stroke-width: 0.5; stroke-linejoin: miter; stroke-linecap: square"/>
   </g>
   <g id="patch_7">
    <path d="M 29.952 7.92 
L 181.584 7.92 
" style="fill: none; stroke: #000000; stroke-width: 0.5; stroke-linejoin: miter; stroke-linecap: square"/>
   </g>
   <g id="text_11">
    <text style="font: italic 6px 'Arial', 'Helvetica', 'DejaVu Sans', sans-serif; text-anchor: start" x="36.844364" y="15.173037" transform="rotate(-0 36.844364 15.173037)">limit of experimental reproducibility</text>
   </g>
  </g>
 </g>
 <defs>
  <clipPath id="p9c423d989b">
   <rect x="29.952" y="7.92" width="151.632" height="125.136"/>
  </clipPath>
 </defs>
</g></svg>
