<?xml version="1.0" encoding="utf-8" standalone="no"?>
<!DOCTYPE svg PUBLIC "-//W3C//DTD SVG 1.1//EN"
  "http://www.w3.org/Graphics/SVG/1.1/DTD/svg11.dtd">
<svg xmlns:xlink="http://www.w3.org/1999/xlink" width="160.3333" height="172.9167" viewBox="0 0 160.3333 172.9167" xmlns="http://www.w3.org/2000/svg" version="1.1"><g transform="scale(1.3888888889)">
 <metadata>
  <rdf:RDF xmlns:dc="http://purl.org/dc/elements/1.1/" xmlns:cc="http://creativecommons.org/ns#" xmlns:rdf="http://www.w3.org/1999/02/22-rdf-syntax-ns#">
   <cc:Work>
    <dc:type rdf:resource="http://purl.org/dc/dcmitype/StillImage"/>
    <dc:date>2026-07-13T00:04:24.630529</dc:date>
    <dc:format>image/svg+xml</dc:format>
    <dc:creator>
     <cc:Agent>
      <dc:title>Matplotlib v3.8.2, https://matplotlib.org/</dc:title>
     </cc:Agent>
    </dc:creator>
   </cc:Work>
  </rdf:RDF>
 </metadata>
 <defs>
  <style type="text/css">*{stroke-linejoin: round; stroke-linecap: butt}</style>
 </defs>
 <g id="figure_1">
  <g id="patch_1">
   <path d="M 0 124.5 
L 115.44 124.5 
L 115.44 0 
L 0 0 
z
" style="fill: #ffffff"/>
  </g>
  <g id="axes_1">
   <g id="legend_1">
    <g id="patch_2">
     <path d="M 1.288594 125.414063 
L 114.151406 125.414063 
Q 115.351406 125.414063 115.351406 124.214063 
L 115.351406 0.285937 
Q 115.351406 -0.914063 114.151406 -0.914063 
L 1.288594 -0.914063 
Q 0.088594 -0.914063 0.088594 0.285937 
L 0.088594 124.214063 
Q 0.088594 125.414063 1.288594 125.414063 
z
" style="fill: #ffffff; opacity: 0.5; stroke: #cccccc; stroke-width: 0.4; stroke-linejoin: miter"/>
    </g>
    <g id="line2d_1">
     <path d="M 1.888594 3.098437 
L 5.488594 3.098437 
L 9.088594 3.098437 
" style="fill: none; stroke: #bd8800; stroke-width: 0.9; stroke-linecap: square"/>
     <defs>
      <path id="m0e86703c79" d="M 0 1 
C 0.265203 1 0.51958 0.894634 0.707107 0.707107 
C 0.894634 0.51958 1 0.265203 1 0 
C 1 -0.265203 0.894634 -0.51958 0.707107 -0.707107 
C 0.51958 -0.894634 0.265203 -1 0 -1 
C -0.265203 -1 -0.51958 -0.894634 -0.707107 -0.707107 
C -0.894634 -0.51958 -1 -0.265203 -1 0 
C -1 0.265203 -0.894634 0.51958 -0.707107 0.707107 
C -0.51958 0.894634 -0.265203 1 0 1 
z
" style="stroke: #bd8800"/>
     </defs>
     <g>
      <use xlink:href="#m0e86703c79" x="5.488594" y="3.098437" style="fill: #bd8800; stroke: #bd8800"/>
     </g>
    </g>
    <g id="text_1">
     <text style="font: 6px 'Arial', 'Helvetica', 'DejaVu Sans', sans-serif; text-anchor: start" x="11.488594" y="5.198437" transform="rotate(-0 11.488594 5.198437)">random_1</text>
    </g>
    <g id="line2d_2">
     <path d="M 1.888594 10.403437 
L 5.488594 10.403437 
L 9.088594 10.403437 
" style="fill: none; stroke: #5f7da8; stroke-width: 0.9; stroke-linecap: square"/>
     <defs>
      <path id="mfa27beb8cc" d="M 0 1 
C 0.265203 1 0.51958 0.894634 0.707107 0.707107 
C 0.894634 0.51958 1 0.265203 1 0 
C 1 -0.265203 0.894634 -0.51958 0.707107 -0.707107 
C 0.51958 -0.894634 0.265203 -1 0 -1 
C -0.265203 -1 -0.51958 -0.894634 -0.707107 -0.707107 
C -0.894634 -0.51958 -1 -0.265203 -1 0 
C -1 0.265203 -0.894634 0.51958 -0.707107 0.707107 
C -0.51958 0.894634 -0.265203 1 0 1 
z
" style="stroke: #5f7da8"/>
     </defs>
     <g>
      <use xlink:href="#mfa27beb8cc" x="5.488594" y="10.403437" style="fill: #5f7da8; stroke: #5f7da8"/>
     </g>
    </g>
    <g id="text_2">
     <text style="font: 6px 'Arial', 'Helvetica', 'DejaVu Sans', sans-serif; text-anchor: start" x="11.488594" y="12.503437" transform="rotate(-0 11.488594 12.503437)">random_10</text>
    </g>
    <g id="line2d_3">
     <path d="M 1.888594 17.76375 
L 5.488594 17.76375 
L 9.088594 17.76375 
" style="fill: none; stroke: #a24a46; stroke-width: 0.9; stroke-linecap: square"/>
     <defs>
      <path id="m9b06aed56c" d="M 0 1 
C 0.265203 1 0.51958 0.894634 0.707107 0.707107 
C 0.894634 0.51958 1 0.265203 1 0 
C 1 -0.265203 0.894634 -0.51958 0.707107 -0.707107 
C 0.51958 -0.894634 0.265203 -1 0 -1 
C -0.265203 -1 -0.51958 -0.894634 -0.707107 -0.707107 
C -0.894634 -0.51958 -1 -0.265203 -1 0 
C -1 0.265203 -0.894634 0.51958 -0.707107 0.707107 
C -0.51958 0.894634 -0.265203 1 0 1 
z
" style="stroke: #a24a46"/>
     </defs>
     <g>
      <use xlink:href="#m9b06aed56c" x="5.488594" y="17.76375" style="fill: #a24a46; stroke: #a24a46"/>
     </g>
    </g>
    <g id="text_3">
     <text style="font: 6px 'Arial', 'Helvetica', 'DejaVu Sans', sans-serif; text-anchor: start" x="11.488594" y="19.86375" transform="rotate(-0 11.488594 19.86375)">codon_frequency</text>
    </g>
    <g id="line2d_4">
     <path d="M 1.888594 25.139062 
L 5.488594 25.139062 
L 9.088594 25.139062 
" style="fill: none; stroke: #846592; stroke-width: 0.9; stroke-linecap: square"/>
     <defs>
      <path id="m10e2b63183" d="M 0 1 
C 0.265203 1 0.51958 0.894634 0.707107 0.707107 
C 0.894634 0.51958 1 0.265203 1 0 
C 1 -0.265203 0.894634 -0.51958 0.707107 -0.707107 
C 0.51958 -0.894634 0.265203 -1 0 -1 
C -0.265203 -1 -0.51958 -0.894634 -0.707107 -0.707107 
C -0.894634 -0.51958 -1 -0.265203 -1 0 
C -1 0.265203 -0.894634 0.51958 -0.707107 0.707107 
C -0.51958 0.894634 -0.265203 1 0 1 
z
" style="stroke: #846592"/>
     </defs>
     <g>
      <use xlink:href="#m10e2b63183" x="5.488594" y="25.139062" style="fill: #846592; stroke: #846592"/>
     </g>
    </g>
    <g id="text_4">
     <text style="font: 6px 'Arial', 'Helvetica', 'DejaVu Sans', sans-serif; text-anchor: start" x="11.488594" y="27.239062" transform="rotate(-0 11.488594 27.239062)">random_100</text>
    </g>
    <g id="line2d_5">
     <path d="M 1.888594 32.42625 
L 5.488594 32.42625 
L 9.088594 32.42625 
" style="fill: none; stroke: #c7a24c; stroke-width: 0.9; stroke-linecap: square"/>
     <defs>
      <path id="m9909305152" d="M 0 1 
C 0.265203 1 0.51958 0.894634 0.707107 0.707107 
C 0.894634 0.51958 1 0.265203 1 0 
C 1 -0.265203 0.894634 -0.51958 0.707107 -0.707107 
C 0.51958 -0.894634 0.265203 -1 0 -1 
C -0.265203 -1 -0.51958 -0.894634 -0.707107 -0.707107 
C -0.894634 -0.51958 -1 -0.265203 -1 0 
C -1 0.265203 -0.894634 0.51958 -0.707107 0.707107 
C -0.51958 0.894634 -0.265203 1 0 1 
z
" style="stroke: #c7a24c"/>
     </defs>
     <g>
      <use xlink:href="#m9909305152" x="5.488594" y="32.42625" style="fill: #c7a24c; stroke: #c7a24c"/>
     </g>
    </g>
    <g id="text_5">
     <text style="font: 6px 'Arial', 'Helvetica', 'DejaVu Sans', sans-serif; text-anchor: start" x="11.488594" y="34.52625" transform="rotate(-0 11.488594 34.52625)">normalized_chrom_pathways</text>
    </g>
    <g id="line2d_6">
     <path d="M 1.888594 39.78375 
L 5.488594 39.78375 
L 9.088594 39.78375 
" style="fill: none; stroke: #46557e; stroke-width: 0.9; stroke-linecap: square"/>
     <defs>
      <path id="m525242f3e0" d="M 0 1 
C 0.265203 1 0.51958 0.894634 0.707107 0.707107 
C 0.894634 0.51958 1 0.265203 1 0 
C 1 -0.265203 0.894634 -0.51958 0.707107 -0.707107 
C 0.51958 -0.894634 0.265203 -1 0 -1 
C -0.265203 -1 -0.51958 -0.894634 -0.707107 -0.707107 
C -0.894634 -0.51958 -1 -0.265203 -1 0 
C -1 0.265203 -0.894634 0.51958 -0.707107 0.707107 
C -0.51958 0.894634 -0.265203 1 0 1 
z
" style="stroke: #46557e"/>
     </defs>
     <g>
      <use xlink:href="#m525242f3e0" x="5.488594" y="39.78375" style="fill: #46557e; stroke: #46557e"/>
     </g>
    </g>
    <g id="text_6">
     <text style="font: 6px 'Arial', 'Helvetica', 'DejaVu Sans', sans-serif; text-anchor: start" x="11.488594" y="41.88375" transform="rotate(-0 11.488594 41.88375)">calm</text>
    </g>
    <g id="line2d_7">
     <path d="M 1.888594 47.144062 
L 5.488594 47.144062 
L 9.088594 47.144062 
" style="fill: none; stroke: #9e4c86; stroke-width: 0.9; stroke-linecap: square"/>
     <defs>
      <path id="mf64612a327" d="M 0 1 
C 0.265203 1 0.51958 0.894634 0.707107 0.707107 
C 0.894634 0.51958 1 0.265203 1 0 
C 1 -0.265203 0.894634 -0.51958 0.707107 -0.707107 
C 0.51958 -0.894634 0.265203 -1 0 -1 
C -0.265203 -1 -0.51958 -0.894634 -0.707107 -0.707107 
C -0.894634 -0.51958 -1 -0.265203 -1 0 
C -1 0.265203 -0.894634 0.51958 -0.707107 0.707107 
C -0.51958 0.894634 -0.265203 1 0 1 
z
" style="stroke: #9e4c86"/>
     </defs>
     <g>
      <use xlink:href="#mf64612a327" x="5.488594" y="47.144062" style="fill: #9e4c86; stroke: #9e4c86"/>
     </g>
    </g>
    <g id="text_7">
     <text style="font: 6px 'Arial', 'Helvetica', 'DejaVu Sans', sans-serif; text-anchor: start" x="11.488594" y="49.244062" transform="rotate(-0 11.488594 49.244062)">fudt_upstream</text>
    </g>
    <g id="line2d_8">
     <path d="M 1.888594 54.504375 
L 5.488594 54.504375 
L 9.088594 54.504375 
" style="fill: none; stroke: #6e5479; stroke-width: 0.9; stroke-linecap: square"/>
     <defs>
      <path id="meab8c9f116" d="M 0 1 
C 0.265203 1 0.51958 0.894634 0.707107 0.707107 
C 0.894634 0.51958 1 0.265203 1 0 
C 1 -0.265203 0.894634 -0.51958 0.707107 -0.707107 
C 0.51958 -0.894634 0.265203 -1 0 -1 
C -0.265203 -1 -0.51958 -0.894634 -0.707107 -0.707107 
C -0.894634 -0.51958 -1 -0.265203 -1 0 
C -1 0.265203 -0.894634 0.51958 -0.707107 0.707107 
C -0.51958 0.894634 -0.265203 1 0 1 
z
" style="stroke: #6e5479"/>
     </defs>
     <g>
      <use xlink:href="#meab8c9f116" x="5.488594" y="54.504375" style="fill: #6e5479; stroke: #6e5479"/>
     </g>
    </g>
    <g id="text_8">
     <text style="font: 6px 'Arial', 'Helvetica', 'DejaVu Sans', sans-serif; text-anchor: start" x="11.488594" y="56.604375" transform="rotate(-0 11.488594 56.604375)">fudt_downstream</text>
    </g>
    <g id="line2d_9">
     <path d="M 1.888594 61.809375 
L 5.488594 61.809375 
L 9.088594 61.809375 
" style="fill: none; stroke: #c08552; stroke-width: 0.9; stroke-linecap: square"/>
     <defs>
      <path id="ma2af11bb52" d="M 0 1 
C 0.265203 1 0.51958 0.894634 0.707107 0.707107 
C 0.894634 0.51958 1 0.265203 1 0 
C 1 -0.265203 0.894634 -0.51958 0.707107 -0.707107 
C 0.51958 -0.894634 0.265203 -1 0 -1 
C -0.265203 -1 -0.51958 -0.894634 -0.707107 -0.707107 
C -0.894634 -0.51958 -1 -0.265203 -1 0 
C -1 0.265203 -0.894634 0.51958 -0.707107 0.707107 
C -0.51958 0.894634 -0.265203 1 0 1 
z
" style="stroke: #c08552"/>
     </defs>
     <g>
      <use xlink:href="#ma2af11bb52" x="5.488594" y="61.809375" style="fill: #c08552; stroke: #c08552"/>
     </g>
    </g>
    <g id="text_9">
     <text style="font: 6px 'Arial', 'Helvetica', 'DejaVu Sans', sans-serif; text-anchor: start" x="11.488594" y="63.909375" transform="rotate(-0 11.488594 63.909375)">random_1000</text>
    </g>
    <g id="line2d_10">
     <path d="M 1.888594 69.096562 
L 5.488594 69.096562 
L 9.088594 69.096562 
" style="fill: none; stroke: #6e93b8; stroke-width: 0.9; stroke-linecap: square"/>
     <defs>
      <path id="m490d66d90c" d="M 0 1 
C 0.265203 1 0.51958 0.894634 0.707107 0.707107 
C 0.894634 0.51958 1 0.265203 1 0 
C 1 -0.265203 0.894634 -0.51958 0.707107 -0.707107 
C 0.51958 -0.894634 0.265203 -1 0 -1 
C -0.265203 -1 -0.51958 -0.894634 -0.707107 -0.707107 
C -0.894634 -0.51958 -1 -0.265203 -1 0 
C -1 0.265203 -0.894634 0.51958 -0.707107 0.707107 
C -0.51958 0.894634 -0.265203 1 0 1 
z
" style="stroke: #6e93b8"/>
     </defs>
     <g>
      <use xlink:href="#m490d66d90c" x="5.488594" y="69.096562" style="fill: #6e93b8; stroke: #6e93b8"/>
     </g>
    </g>
    <g id="text_10">
     <text style="font: 6px 'Arial', 'Helvetica', 'DejaVu Sans', sans-serif; text-anchor: start" x="11.488594" y="71.196562" transform="rotate(-0 11.488594 71.196562)">prot_T5_all</text>
    </g>
    <g id="line2d_11">
     <path d="M 1.888594 76.38375 
L 5.488594 76.38375 
L 9.088594 76.38375 
" style="fill: none; stroke: #8a3b3b; stroke-width: 0.9; stroke-linecap: square"/>
     <defs>
      <path id="m51e50f3b72" d="M 0 1 
C 0.265203 1 0.51958 0.894634 0.707107 0.707107 
C 0.894634 0.51958 1 0.265203 1 0 
C 1 -0.265203 0.894634 -0.51958 0.707107 -0.707107 
C 0.51958 -0.894634 0.265203 -1 0 -1 
C -0.265203 -1 -0.51958 -0.894634 -0.707107 -0.707107 
C -0.894634 -0.51958 -1 -0.265203 -1 0 
C -1 0.265203 -0.894634 0.51958 -0.707107 0.707107 
C -0.51958 0.894634 -0.265203 1 0 1 
z
" style="stroke: #8a3b3b"/>
     </defs>
     <g>
      <use xlink:href="#m51e50f3b72" x="5.488594" y="76.38375" style="fill: #8a3b3b; stroke: #8a3b3b"/>
     </g>
    </g>
    <g id="text_11">
     <text style="font: 6px 'Arial', 'Helvetica', 'DejaVu Sans', sans-serif; text-anchor: start" x="11.488594" y="78.48375" transform="rotate(-0 11.488594 78.48375)">prot_T5_no_dubious</text>
    </g>
    <g id="line2d_12">
     <path d="M 1.888594 83.68875 
L 5.488594 83.68875 
L 9.088594 83.68875 
" style="fill: none; stroke: #9c6ea0; stroke-width: 0.9; stroke-linecap: square"/>
     <defs>
      <path id="m6921795c52" d="M 0 1 
C 0.265203 1 0.51958 0.894634 0.707107 0.707107 
C 0.894634 0.51958 1 0.265203 1 0 
C 1 -0.265203 0.894634 -0.51958 0.707107 -0.707107 
C 0.51958 -0.894634 0.265203 -1 0 -1 
C -0.265203 -1 -0.51958 -0.894634 -0.707107 -0.707107 
C -0.894634 -0.51958 -1 -0.265203 -1 0 
C -1 0.265203 -0.894634 0.51958 -0.707107 0.707107 
C -0.51958 0.894634 -0.265203 1 0 1 
z
" style="stroke: #9c6ea0"/>
     </defs>
     <g>
      <use xlink:href="#m6921795c52" x="5.488594" y="83.68875" style="fill: #9c6ea0; stroke: #9c6ea0"/>
     </g>
    </g>
    <g id="text_12">
     <text style="font: 6px 'Arial', 'Helvetica', 'DejaVu Sans', sans-serif; text-anchor: start" x="11.488594" y="85.78875" transform="rotate(-0 11.488594 85.78875)">esm2_t33_650M_UR50D_all</text>
    </g>
    <g id="line2d_13">
     <path d="M 1.888594 90.99375 
L 5.488594 90.99375 
L 9.088594 90.99375 
" style="fill: none; stroke: #b5943f; stroke-width: 0.9; stroke-linecap: square"/>
     <defs>
      <path id="m96fae681b2" d="M 0 1 
C 0.265203 1 0.51958 0.894634 0.707107 0.707107 
C 0.894634 0.51958 1 0.265203 1 0 
C 1 -0.265203 0.894634 -0.51958 0.707107 -0.707107 
C 0.51958 -0.894634 0.265203 -1 0 -1 
C -0.265203 -1 -0.51958 -0.894634 -0.707107 -0.707107 
C -0.894634 -0.51958 -1 -0.265203 -1 0 
C -1 0.265203 -0.894634 0.51958 -0.707107 0.707107 
C -0.51958 0.894634 -0.265203 1 0 1 
z
" style="stroke: #b5943f"/>
     </defs>
     <g>
      <use xlink:href="#m96fae681b2" x="5.488594" y="90.99375" style="fill: #b5943f; stroke: #b5943f"/>
     </g>
    </g>
    <g id="text_13">
     <text style="font: 6px 'Arial', 'Helvetica', 'DejaVu Sans', sans-serif; text-anchor: start" x="11.488594" y="93.09375" transform="rotate(-0 11.488594 93.09375)">esm2_t33_650M_UR50D_no_dubious</text>
    </g>
    <g id="line2d_14">
     <path d="M 1.888594 98.29875 
L 5.488594 98.29875 
L 9.088594 98.29875 
" style="fill: none; stroke: #4f688b; stroke-width: 0.9; stroke-linecap: square"/>
     <defs>
      <path id="m2b3ce72916" d="M 0 1 
C 0.265203 1 0.51958 0.894634 0.707107 0.707107 
C 0.894634 0.51958 1 0.265203 1 0 
C 1 -0.265203 0.894634 -0.51958 0.707107 -0.707107 
C 0.51958 -0.894634 0.265203 -1 0 -1 
C -0.265203 -1 -0.51958 -0.894634 -0.707107 -0.707107 
C -0.894634 -0.51958 -1 -0.265203 -1 0 
C -1 0.265203 -0.894634 0.51958 -0.707107 0.707107 
C -0.51958 0.894634 -0.265203 1 0 1 
z
" style="stroke: #4f688b"/>
     </defs>
     <g>
      <use xlink:href="#m2b3ce72916" x="5.488594" y="98.29875" style="fill: #4f688b; stroke: #4f688b"/>
     </g>
    </g>
    <g id="text_14">
     <text style="font: 6px 'Arial', 'Helvetica', 'DejaVu Sans', sans-serif; text-anchor: start" x="11.488594" y="100.39875" transform="rotate(-0 11.488594 100.39875)">nt_window_5979</text>
    </g>
    <g id="line2d_15">
     <path d="M 1.888594 105.60375 
L 5.488594 105.60375 
L 9.088594 105.60375 
" style="fill: none; stroke: #a85878; stroke-width: 0.9; stroke-linecap: square"/>
     <defs>
      <path id="m1c1756ff88" d="M 0 1 
C 0.265203 1 0.51958 0.894634 0.707107 0.707107 
C 0.894634 0.51958 1 0.265203 1 0 
C 1 -0.265203 0.894634 -0.51958 0.707107 -0.707107 
C 0.51958 -0.894634 0.265203 -1 0 -1 
C -0.265203 -1 -0.51958 -0.894634 -0.707107 -0.707107 
C -0.894634 -0.51958 -1 -0.265203 -1 0 
C -1 0.265203 -0.894634 0.51958 -0.707107 0.707107 
C -0.51958 0.894634 -0.265203 1 0 1 
z
" style="stroke: #a85878"/>
     </defs>
     <g>
      <use xlink:href="#m1c1756ff88" x="5.488594" y="105.60375" style="fill: #a85878; stroke: #a85878"/>
     </g>
    </g>
    <g id="text_15">
     <text style="font: 6px 'Arial', 'Helvetica', 'DejaVu Sans', sans-serif; text-anchor: start" x="11.488594" y="107.70375" transform="rotate(-0 11.488594 107.70375)">nt_window_three_prime_300</text>
    </g>
    <g id="line2d_16">
     <path d="M 1.888594 112.964063 
L 5.488594 112.964063 
L 9.088594 112.964063 
" style="fill: none; stroke: #5a5a5a; stroke-width: 0.9; stroke-linecap: square"/>
     <defs>
      <path id="m052fb1e3f2" d="M 0 1 
C 0.265203 1 0.51958 0.894634 0.707107 0.707107 
C 0.894634 0.51958 1 0.265203 1 0 
C 1 -0.265203 0.894634 -0.51958 0.707107 -0.707107 
C 0.51958 -0.894634 0.265203 -1 0 -1 
C -0.265203 -1 -0.51958 -0.894634 -0.707107 -0.707107 
C -0.894634 -0.51958 -1 -0.265203 -1 0 
C -1 0.265203 -0.894634 0.51958 -0.707107 0.707107 
C -0.51958 0.894634 -0.265203 1 0 1 
z
" style="stroke: #5a5a5a"/>
     </defs>
     <g>
      <use xlink:href="#m052fb1e3f2" x="5.488594" y="112.964063" style="fill: #5a5a5a; stroke: #5a5a5a"/>
     </g>
    </g>
    <g id="text_16">
     <text style="font: 6px 'Arial', 'Helvetica', 'DejaVu Sans', sans-serif; text-anchor: start" x="11.488594" y="115.064063" transform="rotate(-0 11.488594 115.064063)">nt_window_five_prime_1003</text>
    </g>
    <g id="line2d_17">
     <path d="M 1.888594 120.25125 
L 5.488594 120.25125 
L 9.088594 120.25125 
" style="fill: none; stroke: #7c5a86; stroke-width: 0.9; stroke-linecap: square"/>
     <defs>
      <path id="mc62484cce6" d="M 0 1 
C 0.265203 1 0.51958 0.894634 0.707107 0.707107 
C 0.894634 0.51958 1 0.265203 1 0 
C 1 -0.265203 0.894634 -0.51958 0.707107 -0.707107 
C 0.51958 -0.894634 0.265203 -1 0 -1 
C -0.265203 -1 -0.51958 -0.894634 -0.707107 -0.707107 
C -0.894634 -0.51958 -1 -0.265203 -1 0 
C -1 0.265203 -0.894634 0.51958 -0.707107 0.707107 
C -0.51958 0.894634 -0.265203 1 0 1 
z
" style="stroke: #7c5a86"/>
     </defs>
     <g>
      <use xlink:href="#mc62484cce6" x="5.488594" y="120.25125" style="fill: #7c5a86; stroke: #7c5a86"/>
     </g>
    </g>
    <g id="text_17">
     <text style="font: 6px 'Arial', 'Helvetica', 'DejaVu Sans', sans-serif; text-anchor: start" x="11.488594" y="122.35125" transform="rotate(-0 11.488594 122.35125)">one_hot_gene</text>
    </g>
   </g>
  </g>
 </g>
</g></svg>
