<?xml version="1.0" encoding="utf-8" standalone="no"?>
<!DOCTYPE svg PUBLIC "-//W3C//DTD SVG 1.1//EN"
  "http://www.w3.org/Graphics/SVG/1.1/DTD/svg11.dtd">
<svg xmlns:xlink="http://www.w3.org/1999/xlink" width="260.0000" height="220.0000" viewBox="0 0 260.0000 220.0000" xmlns="http://www.w3.org/2000/svg" version="1.1"><g transform="scale(1.3888888889)">
 <metadata>
  <rdf:RDF xmlns:dc="http://purl.org/dc/elements/1.1/" xmlns:cc="http://creativecommons.org/ns#" xmlns:rdf="http://www.w3.org/1999/02/22-rdf-syntax-ns#">
   <cc:Work>
    <dc:type rdf:resource="http://purl.org/dc/dcmitype/StillImage"/>
    <dc:date>2026-07-13T22:54:28.596465</dc:date>
    <dc:format>image/svg+xml</dc:format>
    <dc:creator>
     <cc:Agent>
      <dc:title>Matplotlib v3.8.2, https://matplotlib.org/</dc:title>
     </cc:Agent>
    </dc:creator>
   </cc:Work>
  </rdf:RDF>
 </metadata>
 <defs>
  <style type="text/css">*{stroke-linejoin: round; stroke-linecap: butt}</style>
 </defs>
 <g id="figure_1">
  <g id="patch_1">
   <path d="M 0 158.4 
L 187.2 158.4 
L 187.2 0 
L 0 0 
z
" style="fill: #ffffff"/>
  </g>
  <g id="axes_1">
   <g id="patch_2">
    <path d="M 29.952 133.056 
L 181.584 133.056 
L 181.584 7.92 
L 29.952 7.92 
z
" style="fill: #ffffff"/>
   </g>
   <g id="matplotlib.axis_1">
    <g id="xtick_1">
     <g id="line2d_1">
      <path d="M 36.844364 133.056 
L 36.844364 7.92 
" clip-path="url(#p0381fcdc18)" style="fill: none; stroke-dasharray: 2.96,1.28; stroke-dashoffset: 0; stroke: #b0b0b0; stroke-opacity: 0.5; stroke-width: 0.8"/>
     </g>
     <g id="line2d_2">
      <defs>
       <path id="m6429e358ce" d="M 0 0 
L 0 2 
" style="stroke: #000000; stroke-width: 0.5"/>
      </defs>
      <g>
       <use xlink:href="#m6429e358ce" x="36.844364" y="133.056" style="stroke: #000000; stroke-width: 0.5"/>
      </g>
     </g>
     <g id="text_1">
      <!-- $10^3$ -->
      <g transform="translate(31.564364 142.9435)">
       <text>
        <tspan style="font: 6px 'DejaVu Sans'" x="0 3.817383" y="-0.5859375">10</tspan>
        <tspan style="font: 4.2px 'DejaVu Sans'" x="7.692188" y="-2.8828125">3</tspan>
       </text>
      </g>
     </g>
    </g>
    <g id="xtick_2">
     <g id="line2d_3">
      <path d="M 105.768 133.056 
L 105.768 7.92 
" clip-path="url(#p0381fcdc18)" style="fill: none; stroke-dasharray: 2.96,1.28; stroke-dashoffset: 0; stroke: #b0b0b0; stroke-opacity: 0.5; stroke-width: 0.8"/>
     </g>
     <g id="line2d_4">
      <g>
       <use xlink:href="#m6429e358ce" x="105.768" y="133.056" style="stroke: #000000; stroke-width: 0.5"/>
      </g>
     </g>
     <g id="text_2">
      <!-- $10^4$ -->
      <g transform="translate(100.488 142.8835)">
       <text>
        <tspan style="font: 6px 'DejaVu Sans'" x="0 3.817383" y="-0.640625">10</tspan>
        <tspan style="font: 4.2px 'DejaVu Sans'" x="7.692188" y="-2.9375">4</tspan>
       </text>
      </g>
     </g>
    </g>
    <g id="xtick_3">
     <g id="line2d_5">
      <path d="M 174.691636 133.056 
L 174.691636 7.92 
" clip-path="url(#p0381fcdc18)" style="fill: none; stroke-dasharray: 2.96,1.28; stroke-dashoffset: 0; stroke: #b0b0b0; stroke-opacity: 0.5; stroke-width: 0.8"/>
     </g>
     <g id="line2d_6">
      <g>
       <use xlink:href="#m6429e358ce" x="174.691636" y="133.056" style="stroke: #000000; stroke-width: 0.5"/>
      </g>
     </g>
     <g id="text_3">
      <!-- $10^5$ -->
      <g transform="translate(169.411636 142.8835)">
       <text>
        <tspan style="font: 6px 'DejaVu Sans'" x="0 3.817383" y="-0.640625">10</tspan>
        <tspan style="font: 4.2px 'DejaVu Sans'" x="7.692188" y="-2.9375">5</tspan>
       </text>
      </g>
     </g>
    </g>
    <g id="text_4">
     <text style="font: 6px 'Arial', 'Helvetica', 'DejaVu Sans', sans-serif; text-anchor: middle" x="105.768" y="152.430688" transform="rotate(-0 105.768 152.430688)">Dataset Size</text>
    </g>
   </g>
   <g id="matplotlib.axis_2">
    <g id="ytick_1">
     <g id="line2d_7">
      <path d="M 29.952 133.056 
L 181.584 133.056 
" clip-path="url(#p0381fcdc18)" style="fill: none; stroke-dasharray: 2.96,1.28; stroke-dashoffset: 0; stroke: #b0b0b0; stroke-opacity: 0.5; stroke-width: 0.8"/>
     </g>
     <g id="line2d_8">
      <defs>
       <path id="m132a3d41a5" d="M 0 0 
L -2 0 
" style="stroke: #000000; stroke-width: 0.5"/>
      </defs>
      <g>
       <use xlink:href="#m132a3d41a5" x="29.952" y="133.056" style="stroke: #000000; stroke-width: 0.5"/>
      </g>
     </g>
     <g id="text_5">
      <text style="font: 6px 'Arial', 'Helvetica', 'DejaVu Sans', sans-serif; text-anchor: end" x="24.452" y="135.203344" transform="rotate(-0 24.452 135.203344)">0.0</text>
     </g>
    </g>
    <g id="ytick_2">
     <g id="line2d_9">
      <path d="M 29.952 108.0288 
L 181.584 108.0288 
" clip-path="url(#p0381fcdc18)" style="fill: none; stroke-dasharray: 2.96,1.28; stroke-dashoffset: 0; stroke: #b0b0b0; stroke-opacity: 0.5; stroke-width: 0.8"/>
     </g>
     <g id="line2d_10">
      <g>
       <use xlink:href="#m132a3d41a5" x="29.952" y="108.0288" style="stroke: #000000; stroke-width: 0.5"/>
      </g>
     </g>
     <g id="text_6">
      <text style="font: 6px 'Arial', 'Helvetica', 'DejaVu Sans', sans-serif; text-anchor: end" x="24.452" y="110.176144" transform="rotate(-0 24.452 110.176144)">0.2</text>
     </g>
    </g>
    <g id="ytick_3">
     <g id="line2d_11">
      <path d="M 29.952 83.0016 
L 181.584 83.0016 
" clip-path="url(#p0381fcdc18)" style="fill: none; stroke-dasharray: 2.96,1.28; stroke-dashoffset: 0; stroke: #b0b0b0; stroke-opacity: 0.5; stroke-width: 0.8"/>
     </g>
     <g id="line2d_12">
      <g>
       <use xlink:href="#m132a3d41a5" x="29.952" y="83.0016" style="stroke: #000000; stroke-width: 0.5"/>
      </g>
     </g>
     <g id="text_7">
      <text style="font: 6px 'Arial', 'Helvetica', 'DejaVu Sans', sans-serif; text-anchor: end" x="24.452" y="85.148944" transform="rotate(-0 24.452 85.148944)">0.4</text>
     </g>
    </g>
    <g id="ytick_4">
     <g id="line2d_13">
      <path d="M 29.952 57.9744 
L 181.584 57.9744 
" clip-path="url(#p0381fcdc18)" style="fill: none; stroke-dasharray: 2.96,1.28; stroke-dashoffset: 0; stroke: #b0b0b0; stroke-opacity: 0.5; stroke-width: 0.8"/>
     </g>
     <g id="line2d_14">
      <g>
       <use xlink:href="#m132a3d41a5" x="29.952" y="57.9744" style="stroke: #000000; stroke-width: 0.5"/>
      </g>
     </g>
     <g id="text_8">
      <text style="font: 6px 'Arial', 'Helvetica', 'DejaVu Sans', sans-serif; text-anchor: end" x="24.452" y="60.121744" transform="rotate(-0 24.452 60.121744)">0.6</text>
     </g>
    </g>
    <g id="ytick_5">
     <g id="line2d_15">
      <path d="M 29.952 32.9472 
L 181.584 32.9472 
" clip-path="url(#p0381fcdc18)" style="fill: none; stroke-dasharray: 2.96,1.28; stroke-dashoffset: 0; stroke: #b0b0b0; stroke-opacity: 0.5; stroke-width: 0.8"/>
     </g>
     <g id="line2d_16">
      <g>
       <use xlink:href="#m132a3d41a5" x="29.952" y="32.9472" style="stroke: #000000; stroke-width: 0.5"/>
      </g>
     </g>
     <g id="text_9">
      <text style="font: 6px 'Arial', 'Helvetica', 'DejaVu Sans', sans-serif; text-anchor: end" x="24.452" y="35.094544" transform="rotate(-0 24.452 35.094544)">0.8</text>
     </g>
    </g>
    <g id="ytick_6">
     <g id="line2d_17">
      <path d="M 29.952 7.92 
L 181.584 7.92 
" clip-path="url(#p0381fcdc18)" style="fill: none; stroke-dasharray: 2.96,1.28; stroke-dashoffset: 0; stroke: #b0b0b0; stroke-opacity: 0.5; stroke-width: 0.8"/>
     </g>
     <g id="line2d_18">
      <g>
       <use xlink:href="#m132a3d41a5" x="29.952" y="7.92" style="stroke: #000000; stroke-width: 0.5"/>
      </g>
     </g>
     <g id="text_10">
      <text style="font: 6px 'Arial', 'Helvetica', 'DejaVu Sans', sans-serif; text-anchor: end" x="24.452" y="10.067344" transform="rotate(-0 24.452 10.067344)">1.0</text>
     </g>
    </g>
    <g id="text_11">
     <text style="font: 6px 'Arial', 'Helvetica', 'DejaVu Sans', sans-serif; text-anchor: middle" x="10.9195" y="70.488" transform="rotate(-90 10.9195 70.488)">Test Pearson</text>
    </g>
   </g>
   <g id="line2d_19">
    <path d="M 36.844364 139.327825 
L 105.768 128.565407 
L 174.691636 131.322413 
" clip-path="url(#p0381fcdc18)" style="fill: none; stroke: #d79b00; stroke-width: 0.9; stroke-linecap: square"/>
    <defs>
     <path id="m0e483229e9" d="M 0 1 
C 0.265203 1 0.51958 0.894634 0.707107 0.707107 
C 0.894634 0.51958 1 0.265203 1 0 
C 1 -0.265203 0.894634 -0.51958 0.707107 -0.707107 
C 0.51958 -0.894634 0.265203 -1 0 -1 
C -0.265203 -1 -0.51958 -0.894634 -0.707107 -0.707107 
C -0.894634 -0.51958 -1 -0.265203 -1 0 
C -1 0.265203 -0.894634 0.51958 -0.707107 0.707107 
C -0.51958 0.894634 -0.265203 1 0 1 
z
" style="stroke: #d79b00"/>
    </defs>
    <g clip-path="url(#p0381fcdc18)">
     <use xlink:href="#m0e483229e9" x="36.844364" y="139.327825" style="fill: #d79b00; stroke: #d79b00"/>
     <use xlink:href="#m0e483229e9" x="105.768" y="128.565407" style="fill: #d79b00; stroke: #d79b00"/>
     <use xlink:href="#m0e483229e9" x="174.691636" y="131.322413" style="fill: #d79b00; stroke: #d79b00"/>
    </g>
   </g>
   <g id="line2d_20">
    <path d="M 36.844364 104.624894 
L 105.768 102.469318 
L 174.691636 96.461145 
" clip-path="url(#p0381fcdc18)" style="fill: none; stroke: #b85450; stroke-width: 0.9; stroke-linecap: square"/>
    <defs>
     <path id="m659beb7c81" d="M 0 1 
C 0.265203 1 0.51958 0.894634 0.707107 0.707107 
C 0.894634 0.51958 1 0.265203 1 0 
C 1 -0.265203 0.894634 -0.51958 0.707107 -0.707107 
C 0.51958 -0.894634 0.265203 -1 0 -1 
C -0.265203 -1 -0.51958 -0.894634 -0.707107 -0.707107 
C -0.894634 -0.51958 -1 -0.265203 -1 0 
C -1 0.265203 -0.894634 0.51958 -0.707107 0.707107 
C -0.51958 0.894634 -0.265203 1 0 1 
z
" style="stroke: #b85450"/>
    </defs>
    <g clip-path="url(#p0381fcdc18)">
     <use xlink:href="#m659beb7c81" x="36.844364" y="104.624894" style="fill: #b85450; stroke: #b85450"/>
     <use xlink:href="#m659beb7c81" x="105.768" y="102.469318" style="fill: #b85450; stroke: #b85450"/>
     <use xlink:href="#m659beb7c81" x="174.691636" y="96.461145" style="fill: #b85450; stroke: #b85450"/>
    </g>
   </g>
   <g id="line2d_21">
    <path d="M 36.844364 77.901436 
L 105.768 71.829296 
L 174.691636 54.795544 
" clip-path="url(#p0381fcdc18)" style="fill: none; stroke: #9673a6; stroke-width: 0.9; stroke-linecap: square"/>
    <defs>
     <path id="m69346feb6b" d="M 0 1 
C 0.265203 1 0.51958 0.894634 0.707107 0.707107 
C 0.894634 0.51958 1 0.265203 1 0 
C 1 -0.265203 0.894634 -0.51958 0.707107 -0.707107 
C 0.51958 -0.894634 0.265203 -1 0 -1 
C -0.265203 -1 -0.51958 -0.894634 -0.707107 -0.707107 
C -0.894634 -0.51958 -1 -0.265203 -1 0 
C -1 0.265203 -0.894634 0.51958 -0.707107 0.707107 
C -0.51958 0.894634 -0.265203 1 0 1 
z
" style="stroke: #9673a6"/>
    </defs>
    <g clip-path="url(#p0381fcdc18)">
     <use xlink:href="#m69346feb6b" x="36.844364" y="77.901436" style="fill: #9673a6; stroke: #9673a6"/>
     <use xlink:href="#m69346feb6b" x="105.768" y="71.829296" style="fill: #9673a6; stroke: #9673a6"/>
     <use xlink:href="#m69346feb6b" x="174.691636" y="54.795544" style="fill: #9673a6; stroke: #9673a6"/>
    </g>
   </g>
   <g id="line2d_22">
    <path d="M 36.844364 98.446734 
L 105.768 79.207985 
L 174.691636 59.831028 
" clip-path="url(#p0381fcdc18)" style="fill: none; stroke: #d6b656; stroke-width: 0.9; stroke-linecap: square"/>
    <defs>
     <path id="m3d09a57bca" d="M 0 1 
C 0.265203 1 0.51958 0.894634 0.707107 0.707107 
C 0.894634 0.51958 1 0.265203 1 0 
C 1 -0.265203 0.894634 -0.51958 0.707107 -0.707107 
C 0.51958 -0.894634 0.265203 -1 0 -1 
C -0.265203 -1 -0.51958 -0.894634 -0.707107 -0.707107 
C -0.894634 -0.51958 -1 -0.265203 -1 0 
C -1 0.265203 -0.894634 0.51958 -0.707107 0.707107 
C -0.51958 0.894634 -0.265203 1 0 1 
z
" style="stroke: #d6b656"/>
    </defs>
    <g clip-path="url(#p0381fcdc18)">
     <use xlink:href="#m3d09a57bca" x="36.844364" y="98.446734" style="fill: #d6b656; stroke: #d6b656"/>
     <use xlink:href="#m3d09a57bca" x="105.768" y="79.207985" style="fill: #d6b656; stroke: #d6b656"/>
     <use xlink:href="#m3d09a57bca" x="174.691636" y="59.831028" style="fill: #d6b656; stroke: #d6b656"/>
    </g>
   </g>
   <g id="line2d_23">
    <path d="M 36.844364 93.512153 
L 105.768 83.239983 
L 174.691636 70.818745 
" clip-path="url(#p0381fcdc18)" style="fill: none; stroke: #6c8ebf; stroke-width: 0.9; stroke-linecap: square"/>
    <defs>
     <path id="m446448b35d" d="M 0 1 
C 0.265203 1 0.51958 0.894634 0.707107 0.707107 
C 0.894634 0.51958 1 0.265203 1 0 
C 1 -0.265203 0.894634 -0.51958 0.707107 -0.707107 
C 0.51958 -0.894634 0.265203 -1 0 -1 
C -0.265203 -1 -0.51958 -0.894634 -0.707107 -0.707107 
C -0.894634 -0.51958 -1 -0.265203 -1 0 
C -1 0.265203 -0.894634 0.51958 -0.707107 0.707107 
C -0.51958 0.894634 -0.265203 1 0 1 
z
" style="stroke: #6c8ebf"/>
    </defs>
    <g clip-path="url(#p0381fcdc18)">
     <use xlink:href="#m446448b35d" x="36.844364" y="93.512153" style="fill: #6c8ebf; stroke: #6c8ebf"/>
     <use xlink:href="#m446448b35d" x="105.768" y="83.239983" style="fill: #6c8ebf; stroke: #6c8ebf"/>
     <use xlink:href="#m446448b35d" x="174.691636" y="70.818745" style="fill: #6c8ebf; stroke: #6c8ebf"/>
    </g>
   </g>
   <g id="line2d_24">
    <path d="M 36.844364 73.713116 
L 105.768 70.315215 
L 174.691636 49.214131 
" clip-path="url(#p0381fcdc18)" style="fill: none; stroke: #666666; stroke-width: 0.9; stroke-linecap: square"/>
    <defs>
     <path id="m40071793fc" d="M 0 1 
C 0.265203 1 0.51958 0.894634 0.707107 0.707107 
C 0.894634 0.51958 1 0.265203 1 0 
C 1 -0.265203 0.894634 -0.51958 0.707107 -0.707107 
C 0.51958 -0.894634 0.265203 -1 0 -1 
C -0.265203 -1 -0.51958 -0.894634 -0.707107 -0.707107 
C -0.894634 -0.51958 -1 -0.265203 -1 0 
C -1 0.265203 -0.894634 0.51958 -0.707107 0.707107 
C -0.51958 0.894634 -0.265203 1 0 1 
z
" style="stroke: #666666"/>
    </defs>
    <g clip-path="url(#p0381fcdc18)">
     <use xlink:href="#m40071793fc" x="36.844364" y="73.713116" style="fill: #666666; stroke: #666666"/>
     <use xlink:href="#m40071793fc" x="105.768" y="70.315215" style="fill: #666666; stroke: #666666"/>
     <use xlink:href="#m40071793fc" x="174.691636" y="49.214131" style="fill: #666666; stroke: #666666"/>
    </g>
   </g>
   <g id="line2d_25">
    <path d="M 36.844364 92.195299 
L 105.768 73.693335 
L 174.691636 54.264359 
" clip-path="url(#p0381fcdc18)" style="fill: none; stroke: #9d7100; stroke-width: 0.9; stroke-linecap: square"/>
    <defs>
     <path id="m0b8cb45f89" d="M 0 1 
C 0.265203 1 0.51958 0.894634 0.707107 0.707107 
C 0.894634 0.51958 1 0.265203 1 0 
C 1 -0.265203 0.894634 -0.51958 0.707107 -0.707107 
C 0.51958 -0.894634 0.265203 -1 0 -1 
C -0.265203 -1 -0.51958 -0.894634 -0.707107 -0.707107 
C -0.894634 -0.51958 -1 -0.265203 -1 0 
C -1 0.265203 -0.894634 0.51958 -0.707107 0.707107 
C -0.51958 0.894634 -0.265203 1 0 1 
z
" style="stroke: #9d7100"/>
    </defs>
    <g clip-path="url(#p0381fcdc18)">
     <use xlink:href="#m0b8cb45f89" x="36.844364" y="92.195299" style="fill: #9d7100; stroke: #9d7100"/>
     <use xlink:href="#m0b8cb45f89" x="105.768" y="73.693335" style="fill: #9d7100; stroke: #9d7100"/>
     <use xlink:href="#m0b8cb45f89" x="174.691636" y="54.264359" style="fill: #9d7100; stroke: #9d7100"/>
    </g>
   </g>
   <g id="line2d_26">
    <path d="M 36.844364 104.896148 
L 105.768 88.839173 
L 174.691636 59.025153 
" clip-path="url(#p0381fcdc18)" style="fill: none; stroke: #863d3a; stroke-width: 0.9; stroke-linecap: square"/>
    <defs>
     <path id="mb34ec36a7a" d="M 0 1 
C 0.265203 1 0.51958 0.894634 0.707107 0.707107 
C 0.894634 0.51958 1 0.265203 1 0 
C 1 -0.265203 0.894634 -0.51958 0.707107 -0.707107 
C 0.51958 -0.894634 0.265203 -1 0 -1 
C -0.265203 -1 -0.51958 -0.894634 -0.707107 -0.707107 
C -0.894634 -0.51958 -1 -0.265203 -1 0 
C -1 0.265203 -0.894634 0.51958 -0.707107 0.707107 
C -0.51958 0.894634 -0.265203 1 0 1 
z
" style="stroke: #863d3a"/>
    </defs>
    <g clip-path="url(#p0381fcdc18)">
     <use xlink:href="#mb34ec36a7a" x="36.844364" y="104.896148" style="fill: #863d3a; stroke: #863d3a"/>
     <use xlink:href="#mb34ec36a7a" x="105.768" y="88.839173" style="fill: #863d3a; stroke: #863d3a"/>
     <use xlink:href="#mb34ec36a7a" x="174.691636" y="59.025153" style="fill: #863d3a; stroke: #863d3a"/>
    </g>
   </g>
   <g id="line2d_27">
    <path d="M 36.844364 89.124825 
L 105.768 70.600043 
L 174.691636 46.87385 
" clip-path="url(#p0381fcdc18)" style="fill: none; stroke: #6e5479; stroke-width: 0.9; stroke-linecap: square"/>
    <defs>
     <path id="m3b5a3b9569" d="M 0 1 
C 0.265203 1 0.51958 0.894634 0.707107 0.707107 
C 0.894634 0.51958 1 0.265203 1 0 
C 1 -0.265203 0.894634 -0.51958 0.707107 -0.707107 
C 0.51958 -0.894634 0.265203 -1 0 -1 
C -0.265203 -1 -0.51958 -0.894634 -0.707107 -0.707107 
C -0.894634 -0.51958 -1 -0.265203 -1 0 
C -1 0.265203 -0.894634 0.51958 -0.707107 0.707107 
C -0.51958 0.894634 -0.265203 1 0 1 
z
" style="stroke: #6e5479"/>
    </defs>
    <g clip-path="url(#p0381fcdc18)">
     <use xlink:href="#m3b5a3b9569" x="36.844364" y="89.124825" style="fill: #6e5479; stroke: #6e5479"/>
     <use xlink:href="#m3b5a3b9569" x="105.768" y="70.600043" style="fill: #6e5479; stroke: #6e5479"/>
     <use xlink:href="#m3b5a3b9569" x="174.691636" y="46.87385" style="fill: #6e5479; stroke: #6e5479"/>
    </g>
   </g>
   <g id="line2d_28">
    <path d="M 36.844364 72.939371 
L 105.768 65.973456 
L 174.691636 50.208034 
" clip-path="url(#p0381fcdc18)" style="fill: none; stroke: #9c853f; stroke-width: 0.9; stroke-linecap: square"/>
    <defs>
     <path id="m6a61d2acf2" d="M 0 1 
C 0.265203 1 0.51958 0.894634 0.707107 0.707107 
C 0.894634 0.51958 1 0.265203 1 0 
C 1 -0.265203 0.894634 -0.51958 0.707107 -0.707107 
C 0.51958 -0.894634 0.265203 -1 0 -1 
C -0.265203 -1 -0.51958 -0.894634 -0.707107 -0.707107 
C -0.894634 -0.51958 -1 -0.265203 -1 0 
C -1 0.265203 -0.894634 0.51958 -0.707107 0.707107 
C -0.51958 0.894634 -0.265203 1 0 1 
z
" style="stroke: #9c853f"/>
    </defs>
    <g clip-path="url(#p0381fcdc18)">
     <use xlink:href="#m6a61d2acf2" x="36.844364" y="72.939371" style="fill: #9c853f; stroke: #9c853f"/>
     <use xlink:href="#m6a61d2acf2" x="105.768" y="65.973456" style="fill: #9c853f; stroke: #9c853f"/>
     <use xlink:href="#m6a61d2acf2" x="174.691636" y="50.208034" style="fill: #9c853f; stroke: #9c853f"/>
    </g>
   </g>
   <g id="line2d_29">
    <path d="M 36.844364 69.212239 
L 105.768 64.822424 
L 174.691636 50.136606 
" clip-path="url(#p0381fcdc18)" style="fill: none; stroke: #4f688b; stroke-width: 0.9; stroke-linecap: square"/>
    <defs>
     <path id="mffc3754784" d="M 0 1 
C 0.265203 1 0.51958 0.894634 0.707107 0.707107 
C 0.894634 0.51958 1 0.265203 1 0 
C 1 -0.265203 0.894634 -0.51958 0.707107 -0.707107 
C 0.51958 -0.894634 0.265203 -1 0 -1 
C -0.265203 -1 -0.51958 -0.894634 -0.707107 -0.707107 
C -0.894634 -0.51958 -1 -0.265203 -1 0 
C -1 0.265203 -0.894634 0.51958 -0.707107 0.707107 
C -0.51958 0.894634 -0.265203 1 0 1 
z
" style="stroke: #4f688b"/>
    </defs>
    <g clip-path="url(#p0381fcdc18)">
     <use xlink:href="#mffc3754784" x="36.844364" y="69.212239" style="fill: #4f688b; stroke: #4f688b"/>
     <use xlink:href="#mffc3754784" x="105.768" y="64.822424" style="fill: #4f688b; stroke: #4f688b"/>
     <use xlink:href="#mffc3754784" x="174.691636" y="50.136606" style="fill: #4f688b; stroke: #4f688b"/>
    </g>
   </g>
   <g id="line2d_30">
    <path d="M 36.844364 74.311989 
L 105.768 70.948536 
L 174.691636 50.668251 
" clip-path="url(#p0381fcdc18)" style="fill: none; stroke: #4a4a4a; stroke-width: 0.9; stroke-linecap: square"/>
    <defs>
     <path id="m23db0c38a5" d="M 0 1 
C 0.265203 1 0.51958 0.894634 0.707107 0.707107 
C 0.894634 0.51958 1 0.265203 1 0 
C 1 -0.265203 0.894634 -0.51958 0.707107 -0.707107 
C 0.51958 -0.894634 0.265203 -1 0 -1 
C -0.265203 -1 -0.51958 -0.894634 -0.707107 -0.707107 
C -0.894634 -0.51958 -1 -0.265203 -1 0 
C -1 0.265203 -0.894634 0.51958 -0.707107 0.707107 
C -0.51958 0.894634 -0.265203 1 0 1 
z
" style="stroke: #4a4a4a"/>
    </defs>
    <g clip-path="url(#p0381fcdc18)">
     <use xlink:href="#m23db0c38a5" x="36.844364" y="74.311989" style="fill: #4a4a4a; stroke: #4a4a4a"/>
     <use xlink:href="#m23db0c38a5" x="105.768" y="70.948536" style="fill: #4a4a4a; stroke: #4a4a4a"/>
     <use xlink:href="#m23db0c38a5" x="174.691636" y="50.668251" style="fill: #4a4a4a; stroke: #4a4a4a"/>
    </g>
   </g>
   <g id="line2d_31">
    <path d="M 36.844364 75.490529 
L 105.768 72.228151 
L 174.691636 50.615371 
" clip-path="url(#p0381fcdc18)" style="fill: none; stroke: #c08552; stroke-width: 0.9; stroke-linecap: square"/>
    <defs>
     <path id="m89393b598a" d="M 0 1 
C 0.265203 1 0.51958 0.894634 0.707107 0.707107 
C 0.894634 0.51958 1 0.265203 1 0 
C 1 -0.265203 0.894634 -0.51958 0.707107 -0.707107 
C 0.51958 -0.894634 0.265203 -1 0 -1 
C -0.265203 -1 -0.51958 -0.894634 -0.707107 -0.707107 
C -0.894634 -0.51958 -1 -0.265203 -1 0 
C -1 0.265203 -0.894634 0.51958 -0.707107 0.707107 
C -0.51958 0.894634 -0.265203 1 0 1 
z
" style="stroke: #c08552"/>
    </defs>
    <g clip-path="url(#p0381fcdc18)">
     <use xlink:href="#m89393b598a" x="36.844364" y="75.490529" style="fill: #c08552; stroke: #c08552"/>
     <use xlink:href="#m89393b598a" x="105.768" y="72.228151" style="fill: #c08552; stroke: #c08552"/>
     <use xlink:href="#m89393b598a" x="174.691636" y="50.615371" style="fill: #c08552; stroke: #c08552"/>
    </g>
   </g>
   <g id="line2d_32">
    <path d="M 36.844364 82.40121 
L 105.768 76.74663 
L 174.691636 55.516996 
" clip-path="url(#p0381fcdc18)" style="fill: none; stroke: #a85878; stroke-width: 0.9; stroke-linecap: square"/>
    <defs>
     <path id="mda90b595a9" d="M 0 1 
C 0.265203 1 0.51958 0.894634 0.707107 0.707107 
C 0.894634 0.51958 1 0.265203 1 0 
C 1 -0.265203 0.894634 -0.51958 0.707107 -0.707107 
C 0.51958 -0.894634 0.265203 -1 0 -1 
C -0.265203 -1 -0.51958 -0.894634 -0.707107 -0.707107 
C -0.894634 -0.51958 -1 -0.265203 -1 0 
C -1 0.265203 -0.894634 0.51958 -0.707107 0.707107 
C -0.51958 0.894634 -0.265203 1 0 1 
z
" style="stroke: #a85878"/>
    </defs>
    <g clip-path="url(#p0381fcdc18)">
     <use xlink:href="#mda90b595a9" x="36.844364" y="82.40121" style="fill: #a85878; stroke: #a85878"/>
     <use xlink:href="#mda90b595a9" x="105.768" y="76.74663" style="fill: #a85878; stroke: #a85878"/>
     <use xlink:href="#mda90b595a9" x="174.691636" y="55.516996" style="fill: #a85878; stroke: #a85878"/>
    </g>
   </g>
   <g id="line2d_33">
    <path d="M 36.844364 85.000415 
L 105.768 74.633025 
L 174.691636 50.87536 
" clip-path="url(#p0381fcdc18)" style="fill: none; stroke: #9c6ea0; stroke-width: 0.9; stroke-linecap: square"/>
    <defs>
     <path id="m679c79fd80" d="M 0 1 
C 0.265203 1 0.51958 0.894634 0.707107 0.707107 
C 0.894634 0.51958 1 0.265203 1 0 
C 1 -0.265203 0.894634 -0.51958 0.707107 -0.707107 
C 0.51958 -0.894634 0.265203 -1 0 -1 
C -0.265203 -1 -0.51958 -0.894634 -0.707107 -0.707107 
C -0.894634 -0.51958 -1 -0.265203 -1 0 
C -1 0.265203 -0.894634 0.51958 -0.707107 0.707107 
C -0.51958 0.894634 -0.265203 1 0 1 
z
" style="stroke: #9c6ea0"/>
    </defs>
    <g clip-path="url(#p0381fcdc18)">
     <use xlink:href="#m679c79fd80" x="36.844364" y="85.000415" style="fill: #9c6ea0; stroke: #9c6ea0"/>
     <use xlink:href="#m679c79fd80" x="105.768" y="74.633025" style="fill: #9c6ea0; stroke: #9c6ea0"/>
     <use xlink:href="#m679c79fd80" x="174.691636" y="50.87536" style="fill: #9c6ea0; stroke: #9c6ea0"/>
    </g>
   </g>
   <g id="line2d_34">
    <path d="M 36.844364 69.829699 
L 105.768 78.001866 
L 174.691636 54.349077 
" clip-path="url(#p0381fcdc18)" style="fill: none; stroke: #6e93b8; stroke-width: 0.9; stroke-linecap: square"/>
    <defs>
     <path id="m8f3062cc2a" d="M 0 1 
C 0.265203 1 0.51958 0.894634 0.707107 0.707107 
C 0.894634 0.51958 1 0.265203 1 0 
C 1 -0.265203 0.894634 -0.51958 0.707107 -0.707107 
C 0.51958 -0.894634 0.265203 -1 0 -1 
C -0.265203 -1 -0.51958 -0.894634 -0.707107 -0.707107 
C -0.894634 -0.51958 -1 -0.265203 -1 0 
C -1 0.265203 -0.894634 0.51958 -0.707107 0.707107 
C -0.51958 0.894634 -0.265203 1 0 1 
z
" style="stroke: #6e93b8"/>
    </defs>
    <g clip-path="url(#p0381fcdc18)">
     <use xlink:href="#m8f3062cc2a" x="36.844364" y="69.829699" style="fill: #6e93b8; stroke: #6e93b8"/>
     <use xlink:href="#m8f3062cc2a" x="105.768" y="78.001866" style="fill: #6e93b8; stroke: #6e93b8"/>
     <use xlink:href="#m8f3062cc2a" x="174.691636" y="54.349077" style="fill: #6e93b8; stroke: #6e93b8"/>
    </g>
   </g>
   <g id="line2d_35">
    <path d="M 36.844364 59.294856 
L 105.768 23.592187 
L 174.691636 24.098281 
" clip-path="url(#p0381fcdc18)" style="fill: none; stroke: #b5943f; stroke-width: 0.9; stroke-linecap: square"/>
    <defs>
     <path id="m157c85a0d6" d="M 0 1 
C 0.265203 1 0.51958 0.894634 0.707107 0.707107 
C 0.894634 0.51958 1 0.265203 1 0 
C 1 -0.265203 0.894634 -0.51958 0.707107 -0.707107 
C 0.51958 -0.894634 0.265203 -1 0 -1 
C -0.265203 -1 -0.51958 -0.894634 -0.707107 -0.707107 
C -0.894634 -0.51958 -1 -0.265203 -1 0 
C -1 0.265203 -0.894634 0.51958 -0.707107 0.707107 
C -0.51958 0.894634 -0.265203 1 0 1 
z
" style="stroke: #b5943f"/>
    </defs>
    <g clip-path="url(#p0381fcdc18)">
     <use xlink:href="#m157c85a0d6" x="36.844364" y="59.294856" style="fill: #b5943f; stroke: #b5943f"/>
     <use xlink:href="#m157c85a0d6" x="105.768" y="23.592187" style="fill: #b5943f; stroke: #b5943f"/>
     <use xlink:href="#m157c85a0d6" x="174.691636" y="24.098281" style="fill: #b5943f; stroke: #b5943f"/>
    </g>
   </g>
   <g id="patch_3">
    <path d="M 29.952 133.056 
L 29.952 7.92 
" style="fill: none; stroke: #000000; stroke-width: 0.5; stroke-linejoin: miter; stroke-linecap: square"/>
   </g>
   <g id="patch_4">
    <path d="M 181.584 133.056 
L 181.584 7.92 
" style="fill: none; stroke: #000000; stroke-width: 0.5; stroke-linejoin: miter; stroke-linecap: square"/>
   </g>
   <g id="patch_5">
    <path d="M 29.952 133.056 
L 181.584 133.056 
" style="fill: none; stroke: #000000; stroke-width: 0.5; stroke-linejoin: miter; stroke-linecap: square"/>
   </g>
   <g id="patch_6">
    <path d="M 29.952 7.92 
L 181.584 7.92 
" style="fill: none; stroke: #000000; stroke-width: 0.5; stroke-linejoin: miter; stroke-linecap: square"/>
   </g>
  </g>
 </g>
 <defs>
  <clipPath id="p0381fcdc18">
   <rect x="29.952" y="7.92" width="151.632" height="125.136"/>
  </clipPath>
 </defs>
</g></svg>
