<svg xmlns="http://www.w3.org/2000/svg" width="660" height="668" font-family="Arial, sans-serif">
<rect width="660" height="668" fill="white"/>
<text x="20" y="30" font-size="17" font-weight="bold" fill="#222">Traditional-ML plot palette (17 encodings, green-free)</text>
<text x="300" y="56" font-size="12" font-weight="bold" fill="#444">val (base)</text>
<text x="470" y="56" font-size="12" font-weight="bold" fill="#444">test (lighter)</text>
<text x="20" y="88" font-size="12" fill="#333">random_1</text>
<rect x="290" y="70" width="150" height="26" rx="3" fill="#BD8800" stroke="#333" stroke-width="0.8"/>
<text x="365" y="87" font-size="9.5" text-anchor="middle" fill="#fff">#BD8800</text>
<rect x="460" y="70" width="150" height="26" rx="3" fill="#E1C98C" stroke="#333" stroke-width="0.8"/>
<text x="535" y="87" font-size="9.5" text-anchor="middle" fill="#333">#E1C98C</text>
<text x="20" y="122" font-size="12" fill="#333">random_10</text>
<rect x="290" y="104" width="150" height="26" rx="3" fill="#5F7DA8" stroke="#333" stroke-width="0.8"/>
<text x="365" y="121" font-size="9.5" text-anchor="middle" fill="#fff">#5F7DA8</text>
<rect x="460" y="104" width="150" height="26" rx="3" fill="#B7C4D8" stroke="#333" stroke-width="0.8"/>
<text x="535" y="121" font-size="9.5" text-anchor="middle" fill="#333">#B7C4D8</text>
<text x="20" y="156" font-size="12" fill="#333">codon_frequency</text>
<rect x="290" y="138" width="150" height="26" rx="3" fill="#A24A46" stroke="#333" stroke-width="0.8"/>
<text x="365" y="155" font-size="9.5" text-anchor="middle" fill="#fff">#A24A46</text>
<rect x="460" y="138" width="150" height="26" rx="3" fill="#D5AEAC" stroke="#333" stroke-width="0.8"/>
<text x="535" y="155" font-size="9.5" text-anchor="middle" fill="#333">#D5AEAC</text>
<text x="20" y="190" font-size="12" fill="#333">random_100</text>
<rect x="290" y="172" width="150" height="26" rx="3" fill="#846592" stroke="#333" stroke-width="0.8"/>
<text x="365" y="189" font-size="9.5" text-anchor="middle" fill="#fff">#846592</text>
<rect x="460" y="172" width="150" height="26" rx="3" fill="#C8BACE" stroke="#333" stroke-width="0.8"/>
<text x="535" y="189" font-size="9.5" text-anchor="middle" fill="#333">#C8BACE</text>
<text x="20" y="224" font-size="12" fill="#333">normalized_chrom_pathways</text>
<rect x="290" y="206" width="150" height="26" rx="3" fill="#C7A24C" stroke="#333" stroke-width="0.8"/>
<text x="365" y="223" font-size="9.5" text-anchor="middle" fill="#fff">#C7A24C</text>
<rect x="460" y="206" width="150" height="26" rx="3" fill="#E6D5AE" stroke="#333" stroke-width="0.8"/>
<text x="535" y="223" font-size="9.5" text-anchor="middle" fill="#333">#E6D5AE</text>
<text x="20" y="258" font-size="12" fill="#333">calm</text>
<rect x="290" y="240" width="150" height="26" rx="3" fill="#46557E" stroke="#333" stroke-width="0.8"/>
<text x="365" y="257" font-size="9.5" text-anchor="middle" fill="#fff">#46557E</text>
<rect x="460" y="240" width="150" height="26" rx="3" fill="#ACB2C5" stroke="#333" stroke-width="0.8"/>
<text x="535" y="257" font-size="9.5" text-anchor="middle" fill="#333">#ACB2C5</text>
<text x="20" y="292" font-size="12" fill="#333">fudt_upstream</text>
<rect x="290" y="274" width="150" height="26" rx="3" fill="#9E4C86" stroke="#333" stroke-width="0.8"/>
<text x="365" y="291" font-size="9.5" text-anchor="middle" fill="#fff">#9E4C86</text>
<rect x="460" y="274" width="150" height="26" rx="3" fill="#D3AEC9" stroke="#333" stroke-width="0.8"/>
<text x="535" y="291" font-size="9.5" text-anchor="middle" fill="#333">#D3AEC9</text>
<text x="20" y="326" font-size="12" fill="#333">fudt_downstream</text>
<rect x="290" y="308" width="150" height="26" rx="3" fill="#6E5479" stroke="#333" stroke-width="0.8"/>
<text x="365" y="325" font-size="9.5" text-anchor="middle" fill="#fff">#6E5479</text>
<rect x="460" y="308" width="150" height="26" rx="3" fill="#BEB2C3" stroke="#333" stroke-width="0.8"/>
<text x="535" y="325" font-size="9.5" text-anchor="middle" fill="#333">#BEB2C3</text>
<text x="20" y="360" font-size="12" fill="#333">random_1000</text>
<rect x="290" y="342" width="150" height="26" rx="3" fill="#C08552" stroke="#333" stroke-width="0.8"/>
<text x="365" y="359" font-size="9.5" text-anchor="middle" fill="#fff">#C08552</text>
<rect x="460" y="342" width="150" height="26" rx="3" fill="#E3C8B1" stroke="#333" stroke-width="0.8"/>
<text x="535" y="359" font-size="9.5" text-anchor="middle" fill="#333">#E3C8B1</text>
<text x="20" y="394" font-size="12" fill="#333">prot_T5_all</text>
<rect x="290" y="376" width="150" height="26" rx="3" fill="#6E93B8" stroke="#333" stroke-width="0.8"/>
<text x="365" y="393" font-size="9.5" text-anchor="middle" fill="#fff">#6E93B8</text>
<rect x="460" y="376" width="150" height="26" rx="3" fill="#BECEDF" stroke="#333" stroke-width="0.8"/>
<text x="535" y="393" font-size="9.5" text-anchor="middle" fill="#333">#BECEDF</text>
<text x="20" y="428" font-size="12" fill="#333">prot_T5_no_dubious</text>
<rect x="290" y="410" width="150" height="26" rx="3" fill="#8A3B3B" stroke="#333" stroke-width="0.8"/>
<text x="365" y="427" font-size="9.5" text-anchor="middle" fill="#fff">#8A3B3B</text>
<rect x="460" y="410" width="150" height="26" rx="3" fill="#CAA7A7" stroke="#333" stroke-width="0.8"/>
<text x="535" y="427" font-size="9.5" text-anchor="middle" fill="#333">#CAA7A7</text>
<text x="20" y="462" font-size="12" fill="#333">esm2_650M_all</text>
<rect x="290" y="444" width="150" height="26" rx="3" fill="#9C6EA0" stroke="#333" stroke-width="0.8"/>
<text x="365" y="461" font-size="9.5" text-anchor="middle" fill="#fff">#9C6EA0</text>
<rect x="460" y="444" width="150" height="26" rx="3" fill="#D2BED4" stroke="#333" stroke-width="0.8"/>
<text x="535" y="461" font-size="9.5" text-anchor="middle" fill="#333">#D2BED4</text>
<text x="20" y="496" font-size="12" fill="#333">esm2_650M_no_dubious</text>
<rect x="290" y="478" width="150" height="26" rx="3" fill="#B5943F" stroke="#333" stroke-width="0.8"/>
<text x="365" y="495" font-size="9.5" text-anchor="middle" fill="#fff">#B5943F</text>
<rect x="460" y="478" width="150" height="26" rx="3" fill="#DECFA9" stroke="#333" stroke-width="0.8"/>
<text x="535" y="495" font-size="9.5" text-anchor="middle" fill="#333">#DECFA9</text>
<text x="20" y="530" font-size="12" fill="#333">nt_window_5979</text>
<rect x="290" y="512" width="150" height="26" rx="3" fill="#4F688B" stroke="#333" stroke-width="0.8"/>
<text x="365" y="529" font-size="9.5" text-anchor="middle" fill="#fff">#4F688B</text>
<rect x="460" y="512" width="150" height="26" rx="3" fill="#B0BBCB" stroke="#333" stroke-width="0.8"/>
<text x="535" y="529" font-size="9.5" text-anchor="middle" fill="#333">#B0BBCB</text>
<text x="20" y="564" font-size="12" fill="#333">nt_window_three_prime_300</text>
<rect x="290" y="546" width="150" height="26" rx="3" fill="#A85878" stroke="#333" stroke-width="0.8"/>
<text x="365" y="563" font-size="9.5" text-anchor="middle" fill="#fff">#A85878</text>
<rect x="460" y="546" width="150" height="26" rx="3" fill="#D8B4C2" stroke="#333" stroke-width="0.8"/>
<text x="535" y="563" font-size="9.5" text-anchor="middle" fill="#333">#D8B4C2</text>
<text x="20" y="598" font-size="12" fill="#333">nt_window_five_prime_1003</text>
<rect x="290" y="580" width="150" height="26" rx="3" fill="#5A5A5A" stroke="#333" stroke-width="0.8"/>
<text x="365" y="597" font-size="9.5" text-anchor="middle" fill="#fff">#5A5A5A</text>
<rect x="460" y="580" width="150" height="26" rx="3" fill="#B5B5B5" stroke="#333" stroke-width="0.8"/>
<text x="535" y="597" font-size="9.5" text-anchor="middle" fill="#333">#B5B5B5</text>
<text x="20" y="632" font-size="12" fill="#333">one_hot_gene</text>
<rect x="290" y="614" width="150" height="26" rx="3" fill="#7C5A86" stroke="#333" stroke-width="0.8"/>
<text x="365" y="631" font-size="9.5" text-anchor="middle" fill="#fff">#7C5A86</text>
<rect x="460" y="614" width="150" height="26" rx="3" fill="#C4B5C9" stroke="#333" stroke-width="0.8"/>
<text x="535" y="631" font-size="9.5" text-anchor="middle" fill="#333">#C4B5C9</text>
</svg>