<?xml version="1.0" encoding="utf-8" standalone="no"?>
<!DOCTYPE svg PUBLIC "-//W3C//DTD SVG 1.1//EN"
  "http://www.w3.org/Graphics/SVG/1.1/DTD/svg11.dtd">
<svg xmlns:xlink="http://www.w3.org/1999/xlink" width="244.8pt" height="158.4pt" viewBox="0 0 244.8 158.4" xmlns="http://www.w3.org/2000/svg" version="1.1">
 <metadata>
  <rdf:RDF xmlns:dc="http://purl.org/dc/elements/1.1/" xmlns:cc="http://creativecommons.org/ns#" xmlns:rdf="http://www.w3.org/1999/02/22-rdf-syntax-ns#">
   <cc:Work>
    <dc:type rdf:resource="http://purl.org/dc/dcmitype/StillImage"/>
    <dc:date>2026-07-17T13:45:25.007994</dc:date>
    <dc:format>image/svg+xml</dc:format>
    <dc:creator>
     <cc:Agent>
      <dc:title>Matplotlib v3.8.2, https://matplotlib.org/</dc:title>
     </cc:Agent>
    </dc:creator>
   </cc:Work>
  </rdf:RDF>
 </metadata>
 <defs>
  <style type="text/css">*{stroke-linejoin: round; stroke-linecap: butt}</style>
 </defs>
 <g id="figure_1">
  <g id="patch_1">
   <path d="M 0 158.4 
L 244.8 158.4 
L 244.8 0 
L 0 0 
z
" style="fill: #ffffff"/>
  </g>
  <g id="axes_1">
   <g id="patch_2">
    <path d="M 34.535 130.12 
L 238.32 130.12 
L 238.32 17.88 
L 34.535 17.88 
z
" style="fill: #ffffff"/>
   </g>
   <g id="patch_3">
    <path d="M 43.797955 130.12 
L 49.973258 130.12 
L 49.973258 118.86787 
L 43.797955 118.86787 
z
" clip-path="url(#p4592b6700b)" style="fill: #6c8ebf; stroke: #000000; stroke-width: 0.4; stroke-linejoin: miter"/>
   </g>
   <g id="patch_4">
    <path d="M 49.973258 130.12 
L 56.148561 130.12 
L 56.148561 130.12 
L 49.973258 130.12 
z
" clip-path="url(#p4592b6700b)" style="fill: #6c8ebf; stroke: #000000; stroke-width: 0.4; stroke-linejoin: miter"/>
   </g>
   <g id="patch_5">
    <path d="M 56.148561 130.12 
L 62.323864 130.12 
L 62.323864 124.493935 
L 56.148561 124.493935 
z
" clip-path="url(#p4592b6700b)" style="fill: #6c8ebf; stroke: #000000; stroke-width: 0.4; stroke-linejoin: miter"/>
   </g>
   <g id="patch_6">
    <path d="M 62.323864 130.12 
L 68.499167 130.12 
L 68.499167 130.12 
L 62.323864 130.12 
z
" clip-path="url(#p4592b6700b)" style="fill: #6c8ebf; stroke: #000000; stroke-width: 0.4; stroke-linejoin: miter"/>
   </g>
   <g id="patch_7">
    <path d="M 68.499167 130.12 
L 74.67447 130.12 
L 74.67447 130.12 
L 68.499167 130.12 
z
" clip-path="url(#p4592b6700b)" style="fill: #6c8ebf; stroke: #000000; stroke-width: 0.4; stroke-linejoin: miter"/>
   </g>
   <g id="patch_8">
    <path d="M 74.67447 130.12 
L 80.849773 130.12 
L 80.849773 130.12 
L 74.67447 130.12 
z
" clip-path="url(#p4592b6700b)" style="fill: #6c8ebf; stroke: #000000; stroke-width: 0.4; stroke-linejoin: miter"/>
   </g>
   <g id="patch_9">
    <path d="M 80.849773 130.12 
L 87.025076 130.12 
L 87.025076 118.86787 
L 80.849773 118.86787 
z
" clip-path="url(#p4592b6700b)" style="fill: #6c8ebf; stroke: #000000; stroke-width: 0.4; stroke-linejoin: miter"/>
   </g>
   <g id="patch_10">
    <path d="M 87.025076 130.12 
L 93.200379 130.12 
L 93.200379 130.12 
L 87.025076 130.12 
z
" clip-path="url(#p4592b6700b)" style="fill: #6c8ebf; stroke: #000000; stroke-width: 0.4; stroke-linejoin: miter"/>
   </g>
   <g id="patch_11">
    <path d="M 93.200379 130.12 
L 99.375682 130.12 
L 99.375682 118.86787 
L 93.200379 118.86787 
z
" clip-path="url(#p4592b6700b)" style="fill: #6c8ebf; stroke: #000000; stroke-width: 0.4; stroke-linejoin: miter"/>
   </g>
   <g id="patch_12">
    <path d="M 99.375682 130.12 
L 105.550985 130.12 
L 105.550985 124.493935 
L 99.375682 124.493935 
z
" clip-path="url(#p4592b6700b)" style="fill: #6c8ebf; stroke: #000000; stroke-width: 0.4; stroke-linejoin: miter"/>
   </g>
   <g id="patch_13">
    <path d="M 105.550985 130.12 
L 111.726288 130.12 
L 111.726288 118.86787 
L 105.550985 118.86787 
z
" clip-path="url(#p4592b6700b)" style="fill: #6c8ebf; stroke: #000000; stroke-width: 0.4; stroke-linejoin: miter"/>
   </g>
   <g id="patch_14">
    <path d="M 111.726288 130.12 
L 117.901591 130.12 
L 117.901591 85.111479 
L 111.726288 85.111479 
z
" clip-path="url(#p4592b6700b)" style="fill: #6c8ebf; stroke: #000000; stroke-width: 0.4; stroke-linejoin: miter"/>
   </g>
   <g id="patch_15">
    <path d="M 117.901591 130.12 
L 124.076894 130.12 
L 124.076894 96.363609 
L 117.901591 96.363609 
z
" clip-path="url(#p4592b6700b)" style="fill: #6c8ebf; stroke: #000000; stroke-width: 0.4; stroke-linejoin: miter"/>
   </g>
   <g id="patch_16">
    <path d="M 124.076894 130.12 
L 130.252197 130.12 
L 130.252197 79.485414 
L 124.076894 79.485414 
z
" clip-path="url(#p4592b6700b)" style="fill: #6c8ebf; stroke: #000000; stroke-width: 0.4; stroke-linejoin: miter"/>
   </g>
   <g id="patch_17">
    <path d="M 130.252197 130.12 
L 136.4275 130.12 
L 136.4275 90.737544 
L 130.252197 90.737544 
z
" clip-path="url(#p4592b6700b)" style="fill: #6c8ebf; stroke: #000000; stroke-width: 0.4; stroke-linejoin: miter"/>
   </g>
   <g id="patch_18">
    <path d="M 136.4275 130.12 
L 142.602803 130.12 
L 142.602803 62.607218 
L 136.4275 62.607218 
z
" clip-path="url(#p4592b6700b)" style="fill: #6c8ebf; stroke: #000000; stroke-width: 0.4; stroke-linejoin: miter"/>
   </g>
   <g id="patch_19">
    <path d="M 142.602803 130.12 
L 148.778106 130.12 
L 148.778106 73.859348 
L 142.602803 73.859348 
z
" clip-path="url(#p4592b6700b)" style="fill: #6c8ebf; stroke: #000000; stroke-width: 0.4; stroke-linejoin: miter"/>
   </g>
   <g id="patch_20">
    <path d="M 148.778106 130.12 
L 154.953409 130.12 
L 154.953409 23.224762 
L 148.778106 23.224762 
z
" clip-path="url(#p4592b6700b)" style="fill: #6c8ebf; stroke: #000000; stroke-width: 0.4; stroke-linejoin: miter"/>
   </g>
   <g id="patch_21">
    <path d="M 154.953409 130.12 
L 161.128712 130.12 
L 161.128712 62.607218 
L 154.953409 62.607218 
z
" clip-path="url(#p4592b6700b)" style="fill: #6c8ebf; stroke: #000000; stroke-width: 0.4; stroke-linejoin: miter"/>
   </g>
   <g id="patch_22">
    <path d="M 161.128712 130.12 
L 167.304015 130.12 
L 167.304015 56.981153 
L 161.128712 56.981153 
z
" clip-path="url(#p4592b6700b)" style="fill: #6c8ebf; stroke: #000000; stroke-width: 0.4; stroke-linejoin: miter"/>
   </g>
   <g id="patch_23">
    <path d="M 167.304015 130.12 
L 173.479318 130.12 
L 173.479318 113.241805 
L 167.304015 113.241805 
z
" clip-path="url(#p4592b6700b)" style="fill: #6c8ebf; stroke: #000000; stroke-width: 0.4; stroke-linejoin: miter"/>
   </g>
   <g id="patch_24">
    <path d="M 173.479318 130.12 
L 179.654621 130.12 
L 179.654621 113.241805 
L 173.479318 113.241805 
z
" clip-path="url(#p4592b6700b)" style="fill: #6c8ebf; stroke: #000000; stroke-width: 0.4; stroke-linejoin: miter"/>
   </g>
   <g id="patch_25">
    <path d="M 179.654621 130.12 
L 185.829924 130.12 
L 185.829924 107.615739 
L 179.654621 107.615739 
z
" clip-path="url(#p4592b6700b)" style="fill: #6c8ebf; stroke: #000000; stroke-width: 0.4; stroke-linejoin: miter"/>
   </g>
   <g id="patch_26">
    <path d="M 185.829924 130.12 
L 192.005227 130.12 
L 192.005227 124.493935 
L 185.829924 124.493935 
z
" clip-path="url(#p4592b6700b)" style="fill: #6c8ebf; stroke: #000000; stroke-width: 0.4; stroke-linejoin: miter"/>
   </g>
   <g id="patch_27">
    <path d="M 192.005227 130.12 
L 198.18053 130.12 
L 198.18053 130.12 
L 192.005227 130.12 
z
" clip-path="url(#p4592b6700b)" style="fill: #6c8ebf; stroke: #000000; stroke-width: 0.4; stroke-linejoin: miter"/>
   </g>
   <g id="patch_28">
    <path d="M 198.18053 130.12 
L 204.355833 130.12 
L 204.355833 118.86787 
L 198.18053 118.86787 
z
" clip-path="url(#p4592b6700b)" style="fill: #6c8ebf; stroke: #000000; stroke-width: 0.4; stroke-linejoin: miter"/>
   </g>
   <g id="patch_29">
    <path d="M 204.355833 130.12 
L 210.531136 130.12 
L 210.531136 130.12 
L 204.355833 130.12 
z
" clip-path="url(#p4592b6700b)" style="fill: #6c8ebf; stroke: #000000; stroke-width: 0.4; stroke-linejoin: miter"/>
   </g>
   <g id="patch_30">
    <path d="M 210.531136 130.12 
L 216.706439 130.12 
L 216.706439 130.12 
L 210.531136 130.12 
z
" clip-path="url(#p4592b6700b)" style="fill: #6c8ebf; stroke: #000000; stroke-width: 0.4; stroke-linejoin: miter"/>
   </g>
   <g id="patch_31">
    <path d="M 216.706439 130.12 
L 222.881742 130.12 
L 222.881742 124.493935 
L 216.706439 124.493935 
z
" clip-path="url(#p4592b6700b)" style="fill: #6c8ebf; stroke: #000000; stroke-width: 0.4; stroke-linejoin: miter"/>
   </g>
   <g id="patch_32">
    <path d="M 222.881742 130.12 
L 229.057045 130.12 
L 229.057045 124.493935 
L 222.881742 124.493935 
z
" clip-path="url(#p4592b6700b)" style="fill: #6c8ebf; stroke: #000000; stroke-width: 0.4; stroke-linejoin: miter"/>
   </g>
   <g id="matplotlib.axis_1">
    <g id="xtick_1">
     <g id="line2d_1">
      <defs>
       <path id="mda2e124862" d="M 0 0 
L 0 3.5 
" style="stroke: #000000; stroke-width: 0.8"/>
      </defs>
      <g>
       <use xlink:href="#mda2e124862" x="36.896092" y="130.12" style="stroke: #000000; stroke-width: 0.8"/>
      </g>
     </g>
     <g id="text_1">
      <text style="font: 6px 'Arial'; text-anchor: middle" x="36.896092" y="141.414688" transform="rotate(-0 36.896092 141.414688)">0.00</text>
     </g>
    </g>
    <g id="xtick_2">
     <g id="line2d_2">
      <g>
       <use xlink:href="#mda2e124862" x="64.45077" y="130.12" style="stroke: #000000; stroke-width: 0.8"/>
      </g>
     </g>
     <g id="text_2">
      <text style="font: 6px 'Arial'; text-anchor: middle" x="64.45077" y="141.414688" transform="rotate(-0 64.45077 141.414688)">0.25</text>
     </g>
    </g>
    <g id="xtick_3">
     <g id="line2d_3">
      <g>
       <use xlink:href="#mda2e124862" x="92.005448" y="130.12" style="stroke: #000000; stroke-width: 0.8"/>
      </g>
     </g>
     <g id="text_3">
      <text style="font: 6px 'Arial'; text-anchor: middle" x="92.005448" y="141.414688" transform="rotate(-0 92.005448 141.414688)">0.50</text>
     </g>
    </g>
    <g id="xtick_4">
     <g id="line2d_4">
      <g>
       <use xlink:href="#mda2e124862" x="119.560125" y="130.12" style="stroke: #000000; stroke-width: 0.8"/>
      </g>
     </g>
     <g id="text_4">
      <text style="font: 6px 'Arial'; text-anchor: middle" x="119.560125" y="141.414688" transform="rotate(-0 119.560125 141.414688)">0.75</text>
     </g>
    </g>
    <g id="xtick_5">
     <g id="line2d_5">
      <g>
       <use xlink:href="#mda2e124862" x="147.114803" y="130.12" style="stroke: #000000; stroke-width: 0.8"/>
      </g>
     </g>
     <g id="text_5">
      <text style="font: 6px 'Arial'; text-anchor: middle" x="147.114803" y="141.414688" transform="rotate(-0 147.114803 141.414688)">1.00</text>
     </g>
    </g>
    <g id="xtick_6">
     <g id="line2d_6">
      <g>
       <use xlink:href="#mda2e124862" x="174.66948" y="130.12" style="stroke: #000000; stroke-width: 0.8"/>
      </g>
     </g>
     <g id="text_6">
      <text style="font: 6px 'Arial'; text-anchor: middle" x="174.66948" y="141.414688" transform="rotate(-0 174.66948 141.414688)">1.25</text>
     </g>
    </g>
    <g id="xtick_7">
     <g id="line2d_7">
      <g>
       <use xlink:href="#mda2e124862" x="202.224158" y="130.12" style="stroke: #000000; stroke-width: 0.8"/>
      </g>
     </g>
     <g id="text_7">
      <text style="font: 6px 'Arial'; text-anchor: middle" x="202.224158" y="141.414688" transform="rotate(-0 202.224158 141.414688)">1.50</text>
     </g>
    </g>
    <g id="xtick_8">
     <g id="line2d_8">
      <g>
       <use xlink:href="#mda2e124862" x="229.778835" y="130.12" style="stroke: #000000; stroke-width: 0.8"/>
      </g>
     </g>
     <g id="text_8">
      <text style="font: 6px 'Arial'; text-anchor: middle" x="229.778835" y="141.414688" transform="rotate(-0 229.778835 141.414688)">1.75</text>
     </g>
    </g>
    <g id="text_9">
     <text style="font: 6px 'Arial'; text-anchor: middle" x="136.4275" y="150.901875" transform="rotate(-0 136.4275 150.901875)">norm</text>
    </g>
   </g>
   <g id="matplotlib.axis_2">
    <g id="ytick_1">
     <g id="line2d_9">
      <defs>
       <path id="mcc2e6d93f3" d="M 0 0 
L -3.5 0 
" style="stroke: #000000; stroke-width: 0.8"/>
      </defs>
      <g>
       <use xlink:href="#mcc2e6d93f3" x="34.535" y="130.12" style="stroke: #000000; stroke-width: 0.8"/>
      </g>
     </g>
     <g id="text_10">
      <text style="font: 6px 'Arial'; text-anchor: end" x="27.535" y="132.267344" transform="rotate(-0 27.535 132.267344)">0.0</text>
     </g>
    </g>
    <g id="ytick_2">
     <g id="line2d_10">
      <g>
       <use xlink:href="#mcc2e6d93f3" x="34.535" y="116.054837" style="stroke: #000000; stroke-width: 0.8"/>
      </g>
     </g>
     <g id="text_11">
      <text style="font: 6px 'Arial'; text-anchor: end" x="27.535" y="118.202181" transform="rotate(-0 27.535 118.202181)">2.5</text>
     </g>
    </g>
    <g id="ytick_3">
     <g id="line2d_11">
      <g>
       <use xlink:href="#mcc2e6d93f3" x="34.535" y="101.989674" style="stroke: #000000; stroke-width: 0.8"/>
      </g>
     </g>
     <g id="text_12">
      <text style="font: 6px 'Arial'; text-anchor: end" x="27.535" y="104.137018" transform="rotate(-0 27.535 104.137018)">5.0</text>
     </g>
    </g>
    <g id="ytick_4">
     <g id="line2d_12">
      <g>
       <use xlink:href="#mcc2e6d93f3" x="34.535" y="87.924511" style="stroke: #000000; stroke-width: 0.8"/>
      </g>
     </g>
     <g id="text_13">
      <text style="font: 6px 'Arial'; text-anchor: end" x="27.535" y="90.071855" transform="rotate(-0 27.535 90.071855)">7.5</text>
     </g>
    </g>
    <g id="ytick_5">
     <g id="line2d_13">
      <g>
       <use xlink:href="#mcc2e6d93f3" x="34.535" y="73.859348" style="stroke: #000000; stroke-width: 0.8"/>
      </g>
     </g>
     <g id="text_14">
      <text style="font: 6px 'Arial'; text-anchor: end" x="27.535" y="76.006692" transform="rotate(-0 27.535 76.006692)">10.0</text>
     </g>
    </g>
    <g id="ytick_6">
     <g id="line2d_14">
      <g>
       <use xlink:href="#mcc2e6d93f3" x="34.535" y="59.794185" style="stroke: #000000; stroke-width: 0.8"/>
      </g>
     </g>
     <g id="text_15">
      <text style="font: 6px 'Arial'; text-anchor: end" x="27.535" y="61.941529" transform="rotate(-0 27.535 61.941529)">12.5</text>
     </g>
    </g>
    <g id="ytick_7">
     <g id="line2d_15">
      <g>
       <use xlink:href="#mcc2e6d93f3" x="34.535" y="45.729023" style="stroke: #000000; stroke-width: 0.8"/>
      </g>
     </g>
     <g id="text_16">
      <text style="font: 6px 'Arial'; text-anchor: end" x="27.535" y="47.876366" transform="rotate(-0 27.535 47.876366)">15.0</text>
     </g>
    </g>
    <g id="ytick_8">
     <g id="line2d_16">
      <g>
       <use xlink:href="#mcc2e6d93f3" x="34.535" y="31.66386" style="stroke: #000000; stroke-width: 0.8"/>
      </g>
     </g>
     <g id="text_17">
      <text style="font: 6px 'Arial'; text-anchor: end" x="27.535" y="33.811203" transform="rotate(-0 27.535 33.811203)">17.5</text>
     </g>
    </g>
    <g id="text_18">
     <text style="font: 6px 'Arial'; text-anchor: middle" x="10.665937" y="74" transform="rotate(-90 10.665937 74)">colonies</text>
    </g>
   </g>
   <g id="patch_33">
    <path d="M 34.535 130.12 
L 34.535 17.88 
" style="fill: none; stroke: #000000; stroke-width: 0.5; stroke-linejoin: miter; stroke-linecap: square"/>
   </g>
   <g id="patch_34">
    <path d="M 238.32 130.12 
L 238.32 17.88 
" style="fill: none; stroke: #000000; stroke-width: 0.5; stroke-linejoin: miter; stroke-linecap: square"/>
   </g>
   <g id="patch_35">
    <path d="M 34.535 130.12 
L 238.32 130.12 
" style="fill: none; stroke: #000000; stroke-width: 0.5; stroke-linejoin: miter; stroke-linecap: square"/>
   </g>
   <g id="patch_36">
    <path d="M 34.535 17.88 
L 238.32 17.88 
" style="fill: none; stroke: #000000; stroke-width: 0.5; stroke-linejoin: miter; stroke-linecap: square"/>
   </g>
   <g id="text_19">
    <text style="font: 7.2px 'Arial'; text-anchor: middle" x="136.4275" y="11.88" transform="rotate(-0 136.4275 11.88)">Plate5 2.5 nL</text>
   </g>
  </g>
 </g>
 <defs>
  <clipPath id="p4592b6700b">
   <rect x="34.535" y="17.88" width="203.785" height="112.24"/>
  </clipPath>
 </defs>
</svg>
